<?xml version="1.0" encoding="UTF-8"?>
<svg xmlns="http://www.w3.org/2000/svg" xmlns:xlink="http://www.w3.org/1999/xlink" width="40pt" height="40pt" viewBox="0 0 40 40" version="1.1">
<g id="surface10509564">
<path style=" stroke:none;fill-rule:nonzero;fill:rgb(87.45098%,94.117647%,99.607843%);fill-opacity:1;" d="M 10.5 25.5 C 8.953125 25.5 7.5 23.152344 7.5 21.332031 C 7.5 20.230469 8.011719 19.5 10.5 19.5 C 12.152344 19.5 13.5 20.847656 13.5 22.5 C 13.5 24.152344 12.152344 25.5 10.5 25.5 Z M 10.5 25.5 "/>
<path style=" stroke:none;fill-rule:nonzero;fill:rgb(20.392157%,59.607843%,85.882353%);fill-opacity:1;" d="M 10.5 20 C 11.878906 20 13 21.121094 13 22.5 C 13 23.878906 11.878906 25 10.5 25 C 9.292969 25 8 22.847656 8 21.332031 C 8 20.738281 8 20 10.5 20 M 10.5 19 C 8.566406 19 7 19.398438 7 21.332031 C 7 23.265625 8.566406 26 10.5 26 C 12.433594 26 14 24.433594 14 22.5 C 14 20.566406 12.433594 19 10.5 19 Z M 10.5 19 "/>
<path style=" stroke:none;fill-rule:nonzero;fill:rgb(87.45098%,94.117647%,99.607843%);fill-opacity:1;" d="M 29.5 25.5 C 27.847656 25.5 26.5 24.152344 26.5 22.5 C 26.5 20.847656 27.847656 19.5 29.5 19.5 C 31.988281 19.5 32.5 20.234375 32.5 21.332031 C 32.5 23.152344 31.046875 25.5 29.5 25.5 Z M 29.5 25.5 "/>
<path style=" stroke:none;fill-rule:nonzero;fill:rgb(20.392157%,59.607843%,85.882353%);fill-opacity:1;" d="M 29.5 20 C 32 20 32 20.738281 32 21.332031 C 32 22.847656 30.707031 25 29.5 25 C 28.121094 25 27 23.878906 27 22.5 C 27 21.121094 28.121094 20 29.5 20 M 29.5 19 C 27.566406 19 26 20.566406 26 22.5 C 26 24.433594 27.566406 26 29.5 26 C 31.433594 26 33 23.265625 33 21.332031 C 33 19.398438 31.433594 19 29.5 19 Z M 29.5 19 "/>
<path style=" stroke:none;fill-rule:nonzero;fill:rgb(100%,100%,100%);fill-opacity:1;" d="M 20 36.5 C 18.867188 36.5 17.816406 36.023438 17.046875 35.160156 L 16.964844 35.066406 L 16.847656 35.023438 C 13.109375 33.632812 10.5 29.925781 10.5 26 L 10.5 13 C 10.5 10.6875 12.6875 8.5 15 8.5 L 25 8.5 C 27.3125 8.5 29.5 10.6875 29.5 13 L 29.5 26 C 29.5 29.925781 26.890625 33.632812 23.152344 35.023438 L 23.035156 35.066406 L 22.953125 35.160156 C 22.183594 36.023438 21.132812 36.5 20 36.5 Z M 20 36.5 "/>
<path style=" stroke:none;fill-rule:nonzero;fill:rgb(20.392157%,59.607843%,85.882353%);fill-opacity:1;" d="M 25 9 C 27.054688 9 29 10.945312 29 13 L 29 26 C 29 29.71875 26.523438 33.238281 22.976562 34.554688 L 22.746094 34.640625 L 22.578125 34.824219 C 21.90625 35.582031 20.988281 36 20 36 C 19.011719 36 18.09375 35.582031 17.421875 34.824219 L 17.253906 34.640625 L 17.023438 34.554688 C 13.476562 33.238281 11 29.71875 11 26 L 11 13 C 11 10.945312 12.945312 9 15 9 L 25 9 M 25 8 L 15 8 C 12.410156 8 10 10.410156 10 13 L 10 26 C 10 30.273438 12.824219 34.0625 16.671875 35.492188 C 17.492188 36.410156 18.671875 37 20 37 C 21.328125 37 22.507812 36.410156 23.328125 35.492188 C 27.175781 34.0625 30 30.273438 30 26 L 30 13 C 30 10.410156 27.589844 8 25 8 Z M 25 8 "/>
<path style=" stroke:none;fill-rule:nonzero;fill:rgb(71.372549%,86.27451%,99.607843%);fill-opacity:1;" d="M 29.5 23.5 L 29.5 18.039062 C 29.5 12.914062 25.191406 11.535156 25.144531 11.523438 L 24.816406 11.421875 L 24.601562 11.695312 C 24.574219 11.734375 21.613281 15.5 16 15.5 C 13.679688 15.5 10.5 15.5 10.5 20 L 10.5 23.5 L 10.355469 23.5 C 9.9375 22.261719 8.5 17.75 8.5 14 C 8.5 8.910156 12.21875 3.5 19.105469 3.5 C 23.269531 3.5 25.246094 5.835938 25.601562 6.300781 L 25.75 6.5 L 26 6.5 C 27.425781 6.5 31.5 7.878906 31.5 14 C 31.5 16.964844 30.039062 22.113281 29.628906 23.5 Z M 29.5 23.5 "/>
<path style=" stroke:none;fill-rule:nonzero;fill:rgb(20.392157%,59.607843%,85.882353%);fill-opacity:1;" d="M 19.105469 4 C 23.035156 4 24.871094 6.167969 25.203125 6.601562 L 25.503906 7 L 26 7 C 27.296875 7 31 8.285156 31 14 C 31 15.710938 30.496094 18.1875 30 20.207031 L 30 18.039062 C 30 13.648438 26.921875 11.542969 25.292969 11.042969 L 24.628906 10.839844 L 24.203125 11.394531 C 24.179688 11.429688 21.390625 15 16 15 C 13.609375 15 10 15 10 20 L 10 20.5625 C 9.503906 18.667969 9 16.199219 9 14 C 9 9.03125 12.472656 4 19.105469 4 M 19.105469 3 C 11.65625 3 8 8.859375 8 14 C 8 18.511719 10 24 10 24 L 11 24 C 11 24 11 21.242188 11 20 C 11 16.183594 13.28125 16 16 16 C 21.945312 16 25 12 25 12 C 25 12 29 13.226562 29 18.039062 C 29 19.40625 29 24 29 24 L 30 24 C 30 24 32 17.546875 32 14 C 32 7.753906 27.882812 6 26 6 C 25.523438 5.371094 23.394531 3 19.105469 3 Z M 19.105469 3 "/>
<path style=" stroke:none;fill-rule:nonzero;fill:rgb(20.392157%,59.607843%,85.882353%);fill-opacity:1;" d="M 24.75 21 C 24.058594 21 23.5 21.558594 23.5 22.25 C 23.5 22.941406 24.058594 23.5 24.75 23.5 C 25.441406 23.5 26 22.941406 26 22.25 C 26 21.558594 25.441406 21 24.75 21 Z M 15.25 21 C 14.558594 21 14 21.558594 14 22.25 C 14 22.941406 14.558594 23.5 15.25 23.5 C 15.941406 23.5 16.5 22.941406 16.5 22.25 C 16.5 21.558594 15.941406 21 15.25 21 Z M 15.25 21 "/>
<path style=" stroke:none;fill-rule:nonzero;fill:rgb(71.372549%,86.27451%,99.607843%);fill-opacity:1;" d="M 20 36.5 C 18.867188 36.5 17.816406 36.023438 17.046875 35.160156 L 16.964844 35.066406 L 16.847656 35.023438 C 13.109375 33.632812 10.5 29.925781 10.5 26 L 10.5 25.605469 L 10.117188 25.445312 C 9.359375 25.261719 8.605469 24.523438 8.089844 23.5 L 31.910156 23.5 C 31.394531 24.523438 30.640625 25.261719 29.882812 25.445312 L 29.5 25.539062 L 29.5 25.933594 C 29.5 29.925781 26.890625 33.636719 23.152344 35.023438 L 23.035156 35.066406 L 22.953125 35.160156 C 22.183594 36.023438 21.132812 36.5 20 36.5 Z M 20 36.5 "/>
<path style=" stroke:none;fill-rule:nonzero;fill:rgb(20.392157%,59.607843%,85.882353%);fill-opacity:1;" d="M 31.011719 24 C 30.628906 24.503906 30.183594 24.859375 29.761719 24.960938 L 29 25.148438 L 29 26 C 29 29.71875 26.523438 33.238281 22.976562 34.554688 L 22.746094 34.640625 L 22.578125 34.824219 C 21.90625 35.582031 20.988281 36 20 36 C 19.011719 36 18.09375 35.582031 17.421875 34.824219 L 17.253906 34.640625 L 17.023438 34.554688 C 13.476562 33.238281 11 29.71875 11 26 L 11 25.148438 L 10.238281 24.960938 C 9.816406 24.859375 9.371094 24.503906 8.988281 24 L 31.011719 24 M 32.671875 23 L 7.328125 23 C 7.816406 24.351562 8.804688 25.640625 10 25.933594 L 10 26 C 10 30.273438 12.824219 34.0625 16.671875 35.492188 C 17.492188 36.410156 18.671875 37 20 37 C 21.328125 37 22.507812 36.410156 23.328125 35.492188 C 27.175781 34.0625 30 30.273438 30 26 L 30 25.933594 C 31.195312 25.640625 32.183594 24.351562 32.671875 23 Z M 32.671875 23 "/>
<path style=" stroke:none;fill-rule:nonzero;fill:rgb(20.392157%,59.607843%,85.882353%);fill-opacity:1;" d="M 37 25 L 3 25 C 2.449219 25 2 24.550781 2 24 C 2 23.449219 2.449219 23 3 23 L 37 23 C 37.550781 23 38 23.449219 38 24 C 38 24.550781 37.550781 25 37 25 Z M 3 7 L 3 3 L 7 3 L 7 2 L 2 2 L 2 7 Z M 37 7 L 38 7 L 38 2 L 33 2 L 33 3 L 37 3 Z M 37 33 L 37 37 L 33 37 L 33 38 L 38 38 L 38 33 Z M 3 33 L 2 33 L 2 38 L 7 38 L 7 37 L 3 37 Z M 3 33 "/>
<path style=" stroke:none;fill-rule:nonzero;fill:rgb(20.392157%,59.607843%,85.882353%);fill-opacity:1;" d="M 37.5 6 C 37.773438 6 38 6.226562 38 6.5 L 38 7.5 C 38 7.773438 37.773438 8 37.5 8 C 37.226562 8 37 7.773438 37 7.5 L 37 6.5 C 37 6.226562 37.226562 6 37.5 6 Z M 37.5 32 C 37.773438 32 38 32.226562 38 32.5 L 38 33.5 C 38 33.773438 37.773438 34 37.5 34 C 37.226562 34 37 33.773438 37 33.5 L 37 32.5 C 37 32.226562 37.226562 32 37.5 32 Z M 2.5 32 C 2.773438 32 3 32.226562 3 32.5 L 3 33.5 C 3 33.773438 2.773438 34 2.5 34 C 2.226562 34 2 33.773438 2 33.5 L 2 32.5 C 2 32.226562 2.226562 32 2.5 32 Z M 2.5 6 C 2.773438 6 3 6.226562 3 6.5 L 3 7.5 C 3 7.773438 2.773438 8 2.5 8 C 2.226562 8 2 7.773438 2 7.5 L 2 6.5 C 2 6.226562 2.226562 6 2.5 6 Z M 6.5 2 L 7.5 2 C 7.773438 2 8 2.226562 8 2.5 C 8 2.773438 7.773438 3 7.5 3 L 6.5 3 C 6.226562 3 6 2.773438 6 2.5 C 6 2.226562 6.226562 2 6.5 2 Z M 32.5 2 L 33.5 2 C 33.773438 2 34 2.226562 34 2.5 C 34 2.773438 33.773438 3 33.5 3 L 32.5 3 C 32.226562 3 32 2.773438 32 2.5 C 32 2.226562 32.226562 2 32.5 2 Z M 6.5 37 L 7.5 37 C 7.773438 37 8 37.226562 8 37.5 C 8 37.773438 7.773438 38 7.5 38 L 6.5 38 C 6.226562 38 6 37.773438 6 37.5 C 6 37.226562 6.226562 37 6.5 37 Z M 32.5 37 L 33.5 37 C 33.773438 37 34 37.226562 34 37.5 C 34 37.773438 33.773438 38 33.5 38 L 32.5 38 C 32.226562 38 32 37.773438 32 37.5 C 32 37.226562 32.226562 37 32.5 37 Z M 32.5 37 "/>
</g>
</svg>
