<svg xmlns="http://www.w3.org/2000/svg" viewBox="0 0 40 40" width="40px" height="40px"><path fill="#fff" d="M6.5 37.5L6.5 2.5 24.793 2.5 33.5 11.207 33.5 37.5z"/><path fill="#4788c7" d="M24.586,3L33,11.414V37H7V3H24.586 M25,2H6v36h28V11L25,2L25,2z"/><path fill="#dff0fe" d="M24.5 11.5L24.5 2.5 24.793 2.5 33.5 11.207 33.5 11.5z"/><path fill="#4788c7" d="M25,3.414L32.586,11H25V3.414 M25,2h-1v10h10v-1L25,2L25,2z"/><path fill="#fff" d="M30 18H34V37H30z"/><path fill="#98ccfd" d="M37.881,37.5c-0.433,0-0.84-0.169-1.146-0.475l-10.04-10.738l1.584-1.586l10.759,10.046 c0.293,0.294,0.462,0.701,0.462,1.134s-0.169,0.839-0.475,1.145S38.313,37.5,37.881,37.5z"/><path fill="#4788c7" d="M28.291,25.396l10.381,9.693c0.436,0.436,0.436,1.147,0,1.583C38.461,36.884,38.18,37,37.881,37 c-0.299,0-0.58-0.116-0.768-0.304l-9.722-10.398L28.291,25.396 M28.267,24.006L26,26.275l10.382,11.104 C36.796,37.793,37.338,38,37.881,38c0.542,0,1.085-0.207,1.499-0.621c0.828-0.828,0.828-2.169,0-2.997L28.267,24.006L28.267,24.006 z"/><g><path fill="#dff0fe" d="M26.5 17.5A7 7 0 1 0 26.5 31.5A7 7 0 1 0 26.5 17.5Z"/><path fill="#4788c7" d="M26.5,18c3.584,0,6.5,2.916,6.5,6.5S30.084,31,26.5,31S20,28.084,20,24.5S22.916,18,26.5,18 M26.5,17c-4.142,0-7.5,3.358-7.5,7.5s3.358,7.5,7.5,7.5s7.5-3.358,7.5-7.5S30.642,17,26.5,17L26.5,17z"/></g><g><path fill="#4788c7" d="M33.5,14L33.5,14c0.275,0,0.5,0.225,0.5,0.5v4c0,0.275-0.225,0.5-0.5,0.5l0,0 c-0.275,0-0.5-0.225-0.5-0.5v-4C33,14.225,33.225,14,33.5,14z"/></g><g><path fill="#4788c7" d="M33.5,36L33.5,36c0.275,0,0.5,0.225,0.5,0.5v1c0,0.275-0.225,0.5-0.5,0.5l0,0 c-0.275,0-0.5-0.225-0.5-0.5v-1C33,36.225,33.225,36,33.5,36z"/></g></svg>