<svg xmlns="http://www.w3.org/2000/svg" viewBox="0 0 128 128" width="128px" height="128px"><path fill="#fff" d="M79.5,44H44H24c-5.5,0-10,4.5-10,10v30v3h6v-3c5.5,0,12,0,12,0h15V53l37-3v-6H79.5z"/><path fill="#fff" d="M32,127V83.3c0-3.3,2.7-6,6-6s6,2.7,6,6V127"/><path fill="#444b54" d="M44,127c-1.7,0-3-1.3-3-3V59c0-1.7,1.3-3,3-3s3,1.3,3,3v65C47,125.7,45.7,127,44,127z"/><path fill="#fff" d="M20,127V83.3c0-3.3,2.7-6,6-6s6,2.7,6,6V127"/><path fill="#444b54" d="M20 127c-1.7 0-3-1.3-3-3V89.3c0-1.7 1.3-3 3-3s3 1.3 3 3V124C23 125.7 21.7 127 20 127zM32 127c-1.7 0-3-1.3-3-3V89c0-1.7 1.3-3 3-3s3 1.3 3 3v35C35 125.7 33.7 127 32 127z"/><path fill="#fff" d="M32 14A10 10 0 1 0 32 34A10 10 0 1 0 32 14Z"/><path fill="#444b54" d="M32 37c7.2 0 13-5.8 13-13s-5.8-13-13-13-13 5.8-13 13S24.8 37 32 37zM32 17c3.9 0 7 3.1 7 7s-3.1 7-7 7-7-3.1-7-7S28.1 17 32 17zM81 41H24c-7.2 0-13 5.8-13 13v30c0 1.7 1.3 3 3 3s3-1.3 3-3V54c0-3.9 3.1-7 7-7h57c1.7 0 3-1.3 3-3S82.7 41 81 41z"/><path fill="#71c2ff" d="M114 67H86c-1.7 0-3-1.3-3-3s1.3-3 3-3h28c1.7 0 3 1.3 3 3S115.7 67 114 67zM114 47H96c-1.7 0-3-1.3-3-3s1.3-3 3-3h18c1.7 0 3 1.3 3 3S115.7 47 114 47zM114 87H86c-1.7 0-3-1.3-3-3s1.3-3 3-3h28c1.7 0 3 1.3 3 3S115.7 87 114 87zM114 107H86c-1.7 0-3-1.3-3-3s1.3-3 3-3h28c1.7 0 3 1.3 3 3S115.7 107 114 107z"/><g><path fill="#71c2ff" d="M71,67c-0.8,0-1.6-0.3-2.1-0.9C68.3,65.6,68,64.8,68,64c0-0.2,0-0.4,0.1-0.6c0-0.2,0.1-0.4,0.2-0.6c0.1-0.2,0.2-0.3,0.3-0.5c0.1-0.2,0.2-0.3,0.4-0.5c0.7-0.7,1.7-1,2.7-0.8c0.2,0,0.4,0.1,0.6,0.2c0.2,0.1,0.4,0.2,0.5,0.3c0.2,0.1,0.3,0.2,0.5,0.4c0.1,0.1,0.3,0.3,0.4,0.5c0.1,0.2,0.2,0.3,0.3,0.5c0.1,0.2,0.1,0.4,0.2,0.6c0,0.2,0.1,0.4,0.1,0.6c0,0.2,0,0.4-0.1,0.6c0,0.2-0.1,0.4-0.2,0.6s-0.2,0.4-0.3,0.5c-0.1,0.2-0.2,0.3-0.4,0.4c-0.1,0.1-0.3,0.3-0.5,0.4c-0.2,0.1-0.3,0.2-0.5,0.3c-0.2,0.1-0.4,0.1-0.6,0.2C71.4,67,71.2,67,71,67z"/></g><g><path fill="#71c2ff" d="M71,87c-0.8,0-1.6-0.3-2.1-0.9c-0.1-0.1-0.3-0.3-0.4-0.5c-0.1-0.2-0.2-0.3-0.3-0.5c-0.1-0.2-0.1-0.4-0.2-0.6c0-0.2-0.1-0.4-0.1-0.6c0-0.2,0-0.4,0.1-0.6c0-0.2,0.1-0.4,0.2-0.6c0.1-0.2,0.2-0.3,0.3-0.5c0.1-0.2,0.2-0.3,0.4-0.5c0.7-0.7,1.7-1,2.7-0.8c0.2,0,0.4,0.1,0.6,0.2c0.2,0.1,0.4,0.2,0.5,0.3c0.2,0.1,0.3,0.2,0.5,0.4c0.1,0.1,0.3,0.3,0.4,0.5c0.1,0.2,0.2,0.3,0.3,0.5c0.1,0.2,0.1,0.4,0.2,0.6c0,0.2,0.1,0.4,0.1,0.6c0,0.8-0.3,1.6-0.9,2.1c-0.1,0.1-0.3,0.3-0.5,0.4c-0.2,0.1-0.3,0.2-0.5,0.3c-0.2,0.1-0.4,0.1-0.6,0.2C71.4,87,71.2,87,71,87z"/></g><g><path fill="#71c2ff" d="M71,107c-0.8,0-1.6-0.3-2.1-0.9c-0.1-0.1-0.3-0.3-0.4-0.4c-0.1-0.2-0.2-0.3-0.3-0.5c-0.1-0.2-0.1-0.4-0.2-0.6c0-0.2-0.1-0.4-0.1-0.6c0-0.8,0.3-1.6,0.9-2.1c0.7-0.7,1.7-1,2.7-0.8c0.2,0,0.4,0.1,0.6,0.2c0.2,0.1,0.4,0.2,0.5,0.3c0.2,0.1,0.3,0.2,0.5,0.4c0.6,0.6,0.9,1.3,0.9,2.1s-0.3,1.6-0.9,2.1c-0.1,0.1-0.3,0.3-0.5,0.4c-0.2,0.1-0.3,0.2-0.5,0.3c-0.2,0.1-0.4,0.1-0.6,0.2C71.4,107,71.2,107,71,107z"/></g></svg>