<svg xmlns="http://www.w3.org/2000/svg" viewBox="0 0 40 40" width="40px" height="40px"><path fill="#4788c7" d="M33.5 2H33h-.5C32.2 2 32 2.2 32 2.5S32.2 3 32.5 3H33h.5H37v3.5V7v.5C37 7.8 37.2 8 37.5 8S38 7.8 38 7.5V7 6.5 2H33.5zM37.5 32c-.3 0-.5.2-.5.5V33v.5V37h-3.5H33h-.5c-.3 0-.5.2-.5.5s.2.5.5.5H33h.5H38v-4.5V33v-.5C38 32.2 37.8 32 37.5 32zM7.5 2H7 6.5 2v4.5V7v.5C2 7.8 2.2 8 2.5 8S3 7.8 3 7.5V7 6.5 3h3.5H7h.5C7.8 3 8 2.8 8 2.5S7.8 2 7.5 2zM7.5 37H7 6.5 3v-3.5V33v-.5C3 32.2 2.8 32 2.5 32S2 32.2 2 32.5V33v.5V38h4.5H7h.5C7.8 38 8 37.8 8 37.5S7.8 37 7.5 37z"/><g><path fill="#dff0fe" d="M27.1,25.2c-1.3,0-2.4-1.1-2.4-2.4s1.1-2.4,2.4-2.4c2,0,2.4,0.5,2.4,1.4C29.5,23.3,28.3,25.2,27.1,25.2z M12.9,25.2c-1.2,0-2.4-1.9-2.4-3.3c0-0.9,0.4-1.4,2.4-1.4c1.3,0,2.4,1.1,2.4,2.4S14.2,25.2,12.9,25.2z"/><path fill="#4788c7" d="M27.1,21c1.9,0,1.9,0.5,1.9,0.9c0,1.2-1,2.8-1.9,2.8c-1,0-1.9-0.8-1.9-1.9C25.3,21.8,26.1,21,27.1,21 M12.9,21c1,0,1.9,0.8,1.9,1.9s-0.8,1.9-1.9,1.9c-0.8,0-1.9-1.6-1.9-2.8C11,21.5,11,21,12.9,21 M27.1,20c-1.6,0-2.9,1.3-2.9,2.9 s1.3,2.9,2.9,2.9c1.6,0,2.9-2.2,2.9-3.8C30,20.3,28.7,20,27.1,20L27.1,20z M12.9,20c-1.6,0-2.9,0.3-2.9,1.9c0,1.6,1.3,3.8,2.9,3.8 s2.9-1.3,2.9-2.9S14.4,20,12.9,20L12.9,20z"/></g><g><path fill="#fff" d="M20,32.5c-0.6,0-1.2-0.2-1.6-0.6l-0.1-0.1l-0.1,0c-3.3-0.8-5.7-3.8-5.7-7.3v-9.3c0-1.8,1.5-3.3,3.3-3.3h8.4 c1.8,0,3.3,1.5,3.3,3.3v9.3c0,3.4-2.3,6.4-5.7,7.3l-0.1,0l-0.1,0.1C21.2,32.3,20.6,32.5,20,32.5z"/><path fill="#4788c7" d="M24.2,12.4c1.6,0,2.8,1.3,2.8,2.8v9.3c0,3.2-2.2,6-5.3,6.8l-0.2,0.1l-0.2,0.2C21,31.7,20.6,32,20,32 s-1-0.3-1.3-0.5l-0.2-0.2l-0.2-0.1c-3.1-0.8-5.3-3.6-5.3-6.8v-9.3c0-1.6,1.3-2.8,2.8-2.8H24.2 M24.2,11.4h-8.4 c-2.1,0-3.8,1.7-3.8,3.8v9.3c0,3.7,2.6,6.9,6,7.7c0.5,0.5,1.2,0.8,2,0.8s1.4-0.3,2-0.8c3.5-0.9,6-4,6-7.7v-9.3 C28,13.1,26.3,11.4,24.2,11.4L24.2,11.4z"/></g><g><path fill="#b6dcfe" d="M27.5,23.5V20c0-3.6-3-5.6-3.2-5.7l-0.4-0.3l-0.3,0.4c-0.1,0.1-2.1,2.9-6.5,2.9c-1.1,0-4.6,0-4.6,3.6v2.5h-0.2 c-0.4-1-1.8-4.3-1.8-7.2c0-5.3,3.6-8.8,9-8.8c3.8,0,5,2.6,5,2.7l0.1,0.3l0.3,0c1.7,0,4.5,1.2,4.5,5.5c0,2.6-1.4,6.4-1.8,7.5H27.5z"/><path fill="#4788c7" d="M19.5,8c3.5,0,4.5,2.3,4.6,2.4l0.3,0.6H25c1.8,0,4,1.3,4,5c0,1.5-0.5,3.5-1,5V20c0-3.9-3.3-6-3.4-6.1 l-0.8-0.5l-0.5,0.8c0,0-1.9,2.7-6.1,2.7c-3.4,0-5.1,1.4-5.1,4.1v0.3c-0.5-1.4-1-3.3-1-5C11,11.3,14.4,8,19.5,8 M19.5,7 c-5.8,0-9.5,4-9.5,9.3c0,3.5,2,7.7,2,7.7h1c0,0,0-2,0-3c0-2.7,2-3.1,4.1-3.1c4.7,0,6.9-3.1,6.9-3.1S27,16.6,27,20c0,1.1,0,4,0,4h1 c0,0,2-4.8,2-8c0-4.5-2.9-6-5-6C25,10,23.7,7,19.5,7L19.5,7z"/></g></svg>