<svg xmlns="http://www.w3.org/2000/svg" viewBox="0 0 40 40" width="40px" height="40px"><path fill="#b6dcfe" d="M20,35.5c-0.707,0-1.364-0.297-1.851-0.835L18.001,34.5H1.333c-0.459,0-0.833-0.374-0.833-0.833 V7.333C0.5,6.874,0.874,6.5,1.333,6.5h37.334c0.459,0,0.833,0.374,0.833,0.833v26.334c0,0.459-0.374,0.833-0.833,0.833H21.999 l-0.148,0.165C21.364,35.203,20.707,35.5,20,35.5z"/><path fill="#4788c7" d="M38.667,7C38.85,7,39,7.15,39,7.333v26.333C39,33.85,38.85,34,38.667,34H22.221h-0.445l-0.298,0.331 C21.09,34.762,20.565,35,20,35s-1.09-0.238-1.478-0.669L18.224,34h-0.445H1.333C1.15,34,1,33.85,1,33.667V7.333 C1,7.15,1.15,7,1.333,7H38.667 M38.667,6H1.333C0.597,6,0,6.597,0,7.333v26.333C0,34.403,0.597,35,1.333,35h16.445 c0.549,0.61,1.336,1,2.221,1s1.672-0.39,2.221-1h16.445C39.403,35,40,34.403,40,33.667V7.333C40,6.597,39.403,6,38.667,6L38.667,6z"/><path fill="#fff" d="M19.45,32.5c-0.232-1.14-1.243-2-2.45-2H3.5v-27h13.833c1.215,0,2.284,1.155,2.295,1.167l0.37,0.413 l0.374-0.412c0.01-0.012,1.069-1.168,2.295-1.168H36.5v27H23c-1.207,0-2.218,0.86-2.45,2H19.45z"/><path fill="#4788c7" d="M36,4v26H23c-1.304,0-2.416,0.836-2.829,2h-0.343c-0.413-1.164-1.525-2-2.829-2H4V4h13.333 c0.827,0,1.67,0.725,1.922,1l0.741,0.82l0.746-0.817C20.997,4.725,21.839,4,22.667,4H36 M37,3H22.667C21.194,3,20,4.333,20,4.333 S18.806,3,17.333,3H3v28h14c1.105,0,2,0.895,2,2h2c0-1.105,0.895-2,2-2h14V3L37,3z"/><path fill="#dff0fe" d="M22.667,4c-0.982,0-1.913,0.99-1.922,1L20,5.832V32h0.171c0.413-1.164,1.525-2,2.829-2h13V4H22.667z"/><path fill="#4788c7" d="M9.5 15h-2C7.224 15 7 14.776 7 14.5l0 0C7 14.224 7.224 14 7.5 14h2c.276 0 .5.224.5.5l0 0C10 14.776 9.776 15 9.5 15zM9.5 9h-2C7.224 9 7 8.776 7 8.5l0 0C7 8.224 7.224 8 7.5 8h2C9.776 8 10 8.224 10 8.5l0 0C10 8.776 9.776 9 9.5 9zM9.5 12h-2C7.224 12 7 11.776 7 11.5l0 0C7 11.224 7.224 11 7.5 11h2c.276 0 .5.224.5.5l0 0C10 11.776 9.776 12 9.5 12zM16.5 15h-4c-.276 0-.5-.224-.5-.5l0 0c0-.276.224-.5.5-.5h4c.276 0 .5.224.5.5l0 0C17 14.776 16.776 15 16.5 15zM9.5 18h-2C7.224 18 7 17.776 7 17.5l0 0C7 17.224 7.224 17 7.5 17h2c.276 0 .5.224.5.5l0 0C10 17.776 9.776 18 9.5 18zM16.5 18h-4c-.276 0-.5-.224-.5-.5l0 0c0-.276.224-.5.5-.5h4c.276 0 .5.224.5.5l0 0C17 17.776 16.776 18 16.5 18zM16.5 26h-4c-.276 0-.5-.224-.5-.5l0 0c0-.276.224-.5.5-.5h4c.276 0 .5.224.5.5l0 0C17 25.776 16.776 26 16.5 26zM16.5 9h-4C12.224 9 12 8.776 12 8.5l0 0C12 8.224 12.224 8 12.5 8h4C16.776 8 17 8.224 17 8.5l0 0C17 8.776 16.776 9 16.5 9zM15.5 12h-3c-.276 0-.5-.224-.5-.5l0 0c0-.276.224-.5.5-.5h3c.276 0 .5.224.5.5l0 0C16 11.776 15.776 12 15.5 12zM16.5 23h-4c-.276 0-.5-.224-.5-.5l0 0c0-.276.224-.5.5-.5h4c.276 0 .5.224.5.5l0 0C17 22.776 16.776 23 16.5 23zM9.5 26h-2C7.224 26 7 25.776 7 25.5l0 0C7 25.224 7.224 25 7.5 25h2c.276 0 .5.224.5.5l0 0C10 25.776 9.776 26 9.5 26zM26.218 14.565c0-.588.598-1.096 1.828-1.096 1.393 0 2.394.348 3.173.765v-1.985c-.579-.284-1.453-.451-2.626-.5l-1.217.029c-1.017.088-1.833.404-2.45.945C24.309 13.264 24 13.92 24 14.689c0 3.041 5.785 3.135 5.785 4.801 0 .593-.842 1.052-1.781 1.052-1.922 0-3.455-.718-3.778-.948v2.037c.972.446 2.022.672 3.15.677l1.217-.044c1.094-.108 1.936-.41 2.525-.907C31.705 20.86 32 20.204 32 19.39 32.001 16.141 26.218 16.389 26.218 14.565z"/><path fill="#4788c7" d="M27.2 10.026H28.8V12.36H27.2zM27.2 21.64H28.8V23.974H27.2z"/></svg>