<svg xmlns="http://www.w3.org/2000/svg" viewBox="0 0 40 40" width="40px" height="40px"><path fill="#b6dcfe" d="M21.5,25.5V25c0-3.584,2.916-6.5,6.5-6.5h4c3.584,0,6.5,2.916,6.5,6.5v0.5H21.5z"/><path fill="#4788c7" d="M32,19c3.308,0,6,2.692,6,6H22c0-3.308,2.692-6,6-6H32 M32,18h-4c-3.85,0-7,3.15-7,7v1h18v-1 C39,21.15,35.85,18,32,18L32,18z"/><path fill="#b6dcfe" d="M1.5,25.5V25c0-3.584,2.916-6.5,6.5-6.5h4c3.584,0,6.5,2.916,6.5,6.5v0.5H1.5z"/><path fill="#4788c7" d="M12 19c3.308 0 6 2.692 6 6H2c0-3.308 2.692-6 6-6H12M12 18H8c-3.85 0-7 3.15-7 7v1h18v-1C19 21.15 15.85 18 12 18L12 18zM32 32L26 32 26 35 32 35 32 40 39 33.5 32 27zM8 35L14 35 14 32 8 32 8 27 1 33.5 8 40z"/><path fill="#fff" d="M10,21.5c-1.887,0-3.452-1.099-3.491-2.451L6.5,18.752V15.5h7v3.363l-0.009,0.187 C13.452,20.401,11.887,21.5,10,21.5z"/><path fill="#4788c7" d="M13,16v2.749l-0.008,0.286C12.961,20.1,11.591,21,10,21s-2.961-0.9-2.992-1.965L7,18.816V16H13 M14,15H6v4.064l0.009,0C6.055,20.691,7.82,22,10,22s3.945-1.309,3.991-2.936l0.009,0V15L14,15z"/><path fill="#fff" d="M30,21.5c-1.887,0-3.452-1.099-3.491-2.451L26.5,18.752V15.5h7v3.363l-0.009,0.187 C33.452,20.401,31.887,21.5,30,21.5z"/><path fill="#4788c7" d="M33,16v2.749l-0.008,0.286C32.961,20.1,31.591,21,30,21s-2.961-0.9-2.992-1.965L27,18.816V16H33 M34,15h-8v4.064l0.009,0C26.055,20.691,27.82,22,30,22s3.945-1.309,3.991-2.936l0.009,0V15L34,15z"/><path fill="#b6dcfe" d="M15,12.5c-0.827,0-1.5-0.673-1.5-1.5s0.673-1.5,1.5-1.5c1.386,0,1.5,0.394,1.5,0.833 C16.5,11.24,15.744,12.5,15,12.5z M5,12.5c-0.744,0-1.5-1.26-1.5-2.167C3.5,9.894,3.614,9.5,5,9.5c0.827,0,1.5,0.673,1.5,1.5 S5.827,12.5,5,12.5z"/><path fill="#4788c7" d="M15,10c0.825,0,0.974,0.155,0.975,0.156C15.981,10.166,16,10.221,16,10.333 C16,11.053,15.371,12,15,12c-0.551,0-1-0.449-1-1S14.449,10,15,10 M5,10c0.551,0,1,0.449,1,1s-0.449,1-1,1 c-0.371,0-1-0.947-1-1.667c0-0.112,0.019-0.167,0.024-0.176C4.026,10.155,4.175,10,5,10 M15,9c-1.105,0-2,0.895-2,2 c0,1.105,0.895,2,2,2s2-1.562,2-2.667S16.105,9,15,9L15,9z M5,9c-1.105,0-2,0.229-2,1.333S3.895,13,5,13s2-0.895,2-2 C7,9.895,6.105,9,5,9L5,9z"/><path fill="#fff" d="M10,17.5c-0.4,0-0.78-0.182-1.043-0.498l-0.105-0.126l-0.16-0.04C6.224,16.232,4.5,14.038,4.5,11.5 V6.243c0-1.301,1.059-2.359,2.359-2.359h6.281c1.301,0,2.359,1.059,2.359,2.359V11.5c0,2.538-1.724,4.732-4.191,5.336l-0.16,0.04 l-0.105,0.126C10.78,17.318,10.4,17.5,10,17.5z"/><path fill="#4788c7" d="M13.141,4.384c1.025,0,1.859,0.834,1.859,1.86V11.5c0,2.307-1.567,4.302-3.81,4.85l-0.32,0.078 l-0.211,0.253C10.561,16.801,10.343,17,10,17s-0.561-0.199-0.66-0.318l-0.211-0.253L8.81,16.35C6.567,15.802,5,13.807,5,11.5 V6.243c0-1.025,0.834-1.86,1.859-1.86H13.141 M13.141,3.384H6.859C5.28,3.384,4,4.664,4,6.243V11.5 c0,2.821,1.949,5.18,4.572,5.822C8.914,17.733,9.423,18,10,18s1.086-0.267,1.428-0.678C14.051,16.68,16,14.321,16,11.5V6.243 C16,4.664,14.72,3.384,13.141,3.384L13.141,3.384z"/><g><path fill="#b6dcfe" d="M15.5,11.5V10c0-2.703-2.189-4.146-2.283-4.206l-0.331-0.213l-0.285,0.272 c-0.013,0.012-1.511,1.378-4.663,1.378c-1.711,0-3.437,1.025-3.437,3.315V11.5H4.382C4.133,10.562,3.5,7.98,3.5,6 c0-2.733,2.12-5.5,6.173-5.5c2.17,0,2.834,1.612,2.861,1.681l0.125,0.316L13,2.5c1.468,0,3.5,1.24,3.5,3.568 c0,1.809-0.638,4.467-0.885,5.432H15.5z"/><path fill="#4788c7" d="M9.673,1c1.779,0,2.34,1.229,2.393,1.356L12.311,3H13c1.046,0,3,0.9,3,3.068 c0,0.703-0.101,1.544-0.237,2.36c-0.61-1.959-2.192-3.001-2.274-3.054l-0.656-0.409l-0.569,0.519 c-0.056,0.051-1.402,1.248-4.326,1.248c-1.71,0-3.04,0.854-3.62,2.204C4.142,7.981,4,6.921,4,6C4,3.515,5.949,1,9.673,1 M9.673,0 C5.455,0,3,2.872,3,6c0,2.555,1,6,1,6h1c0,0,0-0.75,0-1.453c0-1.931,1.399-2.816,2.937-2.816c3.423,0,5.009-1.517,5.009-1.517 S15,7.539,15,10c0,0.773,0,2,0,2h1c0,0,1-3.603,1-5.932C17,3.414,14.685,2,13,2C13,2,12.238,0,9.673,0L9.673,0z"/></g><g><path fill="#b6dcfe" d="M35,12.5c-0.827,0-1.5-0.673-1.5-1.5s0.673-1.5,1.5-1.5c1.386,0,1.5,0.394,1.5,0.833 C36.5,11.24,35.744,12.5,35,12.5z M25,12.5c-0.744,0-1.5-1.26-1.5-2.167C23.5,9.894,23.614,9.5,25,9.5c0.827,0,1.5,0.673,1.5,1.5 S25.827,12.5,25,12.5z"/><path fill="#4788c7" d="M35,10c0.825,0,0.974,0.155,0.975,0.156C35.981,10.166,36,10.221,36,10.333 C36,11.053,35.371,12,35,12c-0.551,0-1-0.449-1-1S34.449,10,35,10 M25,10c0.551,0,1,0.449,1,1s-0.449,1-1,1 c-0.371,0-1-0.947-1-1.667c0-0.112,0.019-0.167,0.024-0.176C24.026,10.155,24.175,10,25,10 M35,9c-1.105,0-2,0.895-2,2 c0,1.105,0.895,2,2,2s2-1.562,2-2.667S36.105,9,35,9L35,9z M25,9c-1.105,0-2,0.229-2,1.333S23.895,13,25,13s2-0.895,2-2 C27,9.895,26.105,9,25,9L25,9z"/></g><g><path fill="#fff" d="M30,17.5c-0.4,0-0.78-0.182-1.043-0.498l-0.105-0.126l-0.16-0.04 C26.224,16.232,24.5,14.038,24.5,11.5V6.243c0-1.301,1.059-2.359,2.359-2.359h6.281c1.301,0,2.359,1.059,2.359,2.359V11.5 c0,2.538-1.724,4.732-4.191,5.336l-0.16,0.04l-0.105,0.126C30.78,17.318,30.4,17.5,30,17.5z"/><path fill="#4788c7" d="M33.141,4.384c1.025,0,1.859,0.834,1.859,1.86V11.5c0,2.307-1.567,4.302-3.81,4.85l-0.32,0.078 l-0.211,0.253C30.561,16.801,30.343,17,30,17s-0.561-0.199-0.66-0.318l-0.211-0.253l-0.32-0.078C26.567,15.802,25,13.807,25,11.5 V6.243c0-1.025,0.834-1.86,1.859-1.86H33.141 M33.141,3.384h-6.281C25.28,3.384,24,4.664,24,6.243V11.5 c0,2.821,1.949,5.18,4.572,5.822C28.914,17.733,29.423,18,30,18s1.086-0.267,1.428-0.678C34.051,16.68,36,14.321,36,11.5V6.243 C36,4.664,34.72,3.384,33.141,3.384L33.141,3.384z"/></g><g><path fill="#b6dcfe" d="M35.5,11.5V10c0-2.703-2.189-4.146-2.283-4.206l-0.331-0.213l-0.285,0.272 c-0.013,0.012-1.511,1.378-4.663,1.378c-1.711,0-3.437,1.025-3.437,3.315V11.5h-0.118C24.133,10.562,23.5,7.98,23.5,6 c0-2.733,2.12-5.5,6.173-5.5c2.17,0,2.834,1.612,2.861,1.681l0.125,0.316L33,2.5c1.468,0,3.5,1.24,3.5,3.568 c0,1.809-0.638,4.467-0.885,5.432H35.5z"/><path fill="#4788c7" d="M29.673,1c1.779,0,2.34,1.229,2.393,1.356L32.311,3H33c1.046,0,3,0.9,3,3.068 c0,0.703-0.101,1.544-0.237,2.36c-0.61-1.959-2.192-3.001-2.274-3.054l-0.656-0.409l-0.569,0.519 c-0.056,0.051-1.402,1.248-4.326,1.248c-1.71,0-3.04,0.854-3.62,2.204C24.142,7.981,24,6.921,24,6C24,3.515,25.949,1,29.673,1 M29.673,0C25.455,0,23,2.872,23,6c0,2.555,1,6,1,6h1c0,0,0-0.75,0-1.453c0-1.931,1.399-2.816,2.937-2.816 c3.423,0,5.009-1.517,5.009-1.517S35,7.539,35,10c0,0.773,0,2,0,2h1c0,0,1-3.603,1-5.932C37,3.414,34.685,2,33,2 C33,2,32.238,0,29.673,0L29.673,0z"/></g><path fill="#4788c7" d="M16 32H19V35H16zM21 32H24V35H21z"/></svg>