<svg xmlns="http://www.w3.org/2000/svg" viewBox="0 0 128 128" width="128px" height="128px"><path fill="#fff" d="M44,124h70V4H54c-5.5,0-10,4.5-10,10V124z"/><path fill="#fff" d="M44,74h6V44c0-5.5-4.5-10-10-10H24c-5.5,0-10,4.5-10,10v30c3.3,0,6,2.7,6,6v44h24V74z"/><path fill="#444b54" d="M44,127c-1.7,0-3-1.3-3-3V74c0-1.7,1.3-3,3-3c1.7,0,3-1.3,3-3V44c0-3.9-3.1-7-7-7H24c-3.9,0-7,3.1-7,7v30c0,1.7-1.3,3-3,3s-3-1.3-3-3V44c0-7.2,5.8-13,13-13h16c7.2,0,13,5.8,13,13v24c0,3.9-2.5,7.2-6,8.5V124C47,125.7,45.7,127,44,127z"/><path fill="#444b54" d="M32,127c-1.7,0-3-1.3-3-3V83c0-1.7,1.3-3,3-3s3,1.3,3,3v41C35,125.7,33.7,127,32,127z"/><path fill="#fff" d="M32 4A10 10 0 1 0 32 24A10 10 0 1 0 32 4Z"/><path fill="#444b54" d="M32 27c-7.2 0-13-5.8-13-13S24.8 1 32 1s13 5.8 13 13S39.2 27 32 27zM32 7c-3.9 0-7 3.1-7 7s3.1 7 7 7 7-3.1 7-7S35.9 7 32 7zM20 127c-1.7 0-3-1.3-3-3V80c0-1.7 1.3-3 3-3s3 1.3 3 3v44C23 125.7 21.7 127 20 127z"/><g><path fill="#444b54" d="M114,127H44c-1.7,0-3-1.3-3-3s1.3-3,3-3h67V7H55c-1.7,0-3-1.3-3-3s1.3-3,3-3h59c1.7,0,3,1.3,3,3v120C117,125.7,115.7,127,114,127z"/></g><g><path fill="#444b54" d="M99,67c-0.8,0-1.6-0.3-2.1-0.9C96.3,65.6,96,64.8,96,64s0.3-1.6,0.9-2.1c0.7-0.7,1.7-1,2.7-0.8c0.2,0,0.4,0.1,0.6,0.2c0.2,0.1,0.4,0.2,0.5,0.3c0.2,0.1,0.3,0.2,0.5,0.4c0.6,0.6,0.9,1.3,0.9,2.1s-0.3,1.6-0.9,2.1C100.6,66.7,99.8,67,99,67z"/></g></svg>