<svg xmlns="http://www.w3.org/2000/svg" viewBox="0 0 128 128" width="128px" height="128px"><path fill="#fff" d="M22 54A10 10 0 1 0 22 74 10 10 0 1 0 22 54zM22 16A10 10 0 1 0 22 36 10 10 0 1 0 22 16z"/><path fill="#444b54" d="M116 29H62c-1.7 0-3-1.3-3-3s1.3-3 3-3h54c1.7 0 3 1.3 3 3S117.7 29 116 29zM116 67H62c-1.7 0-3-1.3-3-3s1.3-3 3-3h54c1.7 0 3 1.3 3 3S117.7 67 116 67zM116 105H62c-1.7 0-3-1.3-3-3s1.3-3 3-3h54c1.7 0 3 1.3 3 3S117.7 105 116 105zM22 77c-7.2 0-13-5.8-13-13s5.8-13 13-13 13 5.8 13 13S29.2 77 22 77zM22 57c-3.9 0-7 3.1-7 7s3.1 7 7 7 7-3.1 7-7S25.9 57 22 57zM22 39c-7.2 0-13-5.8-13-13s5.8-13 13-13 13 5.8 13 13S29.2 39 22 39zM22 19c-3.9 0-7 3.1-7 7s3.1 7 7 7 7-3.1 7-7S25.9 19 22 19z"/><path fill="#71c2ff" d="M22,118C22,118,22,118,22,118c-0.8,0-1.6-0.4-2.2-1L6.7,103c-1.1-1.2-1.1-3.1,0.2-4.2s3.1-1.1,4.2,0.2 L22,110.6l20.9-21.8c1.1-1.2,3-1.2,4.2-0.1c1.2,1.1,1.2,3,0.1,4.2l-23.1,24.1C23.6,117.7,22.8,118,22,118z"/></svg>