<?xml version="1.0" encoding="UTF-8"?>
<svg xmlns="http://www.w3.org/2000/svg" xmlns:xlink="http://www.w3.org/1999/xlink" width="40pt" height="40pt" viewBox="0 0 40 40" version="1.1">
<g id="surface10695967">
<path style=" stroke:none;fill-rule:nonzero;fill:rgb(100%,100%,100%);fill-opacity:1;" d="M 6.5 2.5 L 33.5 2.5 L 33.5 37.5 L 6.5 37.5 Z M 6.5 2.5 "/>
<path style=" stroke:none;fill-rule:nonzero;fill:rgb(87.45098%,94.117647%,99.607843%);fill-opacity:1;" d="M 33 3 L 33 37 L 7 37 L 7 3 L 33 3 M 34 2 L 6 2 L 6 38 L 34 38 Z M 34 2 "/>
<path style=" stroke:none;fill-rule:nonzero;fill:rgb(100%,100%,100%);fill-opacity:1;" d="M 31 14 L 34 14 L 34 26 L 31 26 Z M 31 14 "/>
<path style=" stroke:none;fill-rule:nonzero;fill:rgb(0%,8.235294%,16.078431%);fill-opacity:1;" d="M 15.769531 20 L 23.5 13.371094 L 23.5 18.5 L 37.5 18.5 L 37.5 21.5 L 23.5 21.5 L 23.5 26.628906 Z M 15.769531 20 "/>
<path style=" stroke:none;fill-rule:nonzero;fill:rgb(87.45098%,94.117647%,99.607843%);fill-opacity:1;" d="M 23 14.460938 L 23 19 L 37 19 L 37 21 L 23 21 L 23 25.539062 L 16.535156 20 L 23 14.460938 M 24 12.285156 L 15 20 L 24 27.714844 L 24 22 L 38 22 L 38 18 L 24 18 Z M 33.5 12 C 33.773438 12 34 12.226562 34 12.5 L 34 15.5 C 34 15.773438 33.773438 16 33.5 16 C 33.226562 16 33 15.773438 33 15.5 L 33 12.5 C 33 12.226562 33.226562 12 33.5 12 Z M 33.5 24 C 33.773438 24 34 24.226562 34 24.5 L 34 27.5 C 34 27.773438 33.773438 28 33.5 28 C 33.226562 28 33 27.773438 33 27.5 L 33 24.5 C 33 24.226562 33.226562 24 33.5 24 Z M 33.5 24 "/>
</g>
</svg>
