<?xml version="1.0" encoding="UTF-8"?>
<svg xmlns="http://www.w3.org/2000/svg" xmlns:xlink="http://www.w3.org/1999/xlink" width="40pt" height="40pt" viewBox="0 0 40 40" version="1.1">
<g id="surface10507958">
<path style="fill:none;stroke-width:1;stroke-linecap:round;stroke-linejoin:round;stroke:rgb(100%,100%,100%);stroke-opacity:1;stroke-miterlimit:10;" d="M 51.225195 96.491406 C 45.244141 107.879688 42.176367 120.548047 42.264648 133.724023 M 105.341602 44.206836 C 87.067383 47.473242 70.338086 56.191016 57.140039 69.521484 C 55.705469 70.911914 47.009766 79.497266 41.094922 91.481445 C 34.275195 105.297461 30.876367 119.554883 30.964648 133.812305 " transform="matrix(0.176991,0,0,0.176991,0,0)"/>
<path style=" stroke:none;fill-rule:nonzero;fill:rgb(100%,100%,100%);fill-opacity:1;" d="M 3 7 L 3 3 L 7 3 L 7 2 L 2 2 L 2 7 Z M 37 7 L 38 7 L 38 2 L 33 2 L 33 3 L 37 3 Z M 37 33 L 37 37 L 33 37 L 33 38 L 38 38 L 38 33 Z M 3 33 L 2 33 L 2 38 L 7 38 L 7 37 L 3 37 Z M 3 33 "/>
<path style="fill:none;stroke-width:1;stroke-linecap:round;stroke-linejoin:round;stroke:rgb(100%,100%,100%);stroke-opacity:1;stroke-miterlimit:10;" d="M 70.426367 108.475586 C 66.718555 116.156055 64.798438 124.631055 64.864648 133.392969 M 178.261914 133.415039 C 178.129492 132.907422 178.019141 132.179102 177.930859 131.163867 L 177.489453 126.573242 C 174.267188 98.477734 150.210547 76.495703 121.364648 76.495703 L 121.342578 76.495703 C 105.981641 76.606055 91.724219 82.565039 81.130469 93.313281 " transform="matrix(0.176991,0,0,0.176991,0,0)"/>
<path style="fill:none;stroke-width:1;stroke-linecap:round;stroke-linejoin:round;stroke:rgb(100%,100%,100%);stroke-opacity:1;stroke-miterlimit:10;" d="M 139.418164 67.82207 C 157.692383 72.920313 172.920898 85.500391 181.550391 102.031055 C 185.523047 109.667383 188.083203 118.142383 188.899805 127.125 " transform="matrix(0.176991,0,0,0.176991,0,0)"/>
<path style="fill:none;stroke-width:1;stroke-linecap:round;stroke-linejoin:round;stroke:rgb(100%,100%,100%);stroke-opacity:1;stroke-miterlimit:10;" d="M 197.77207 112.646875 C 196.293359 107.195508 194.21875 101.898633 191.548242 96.800391 C 181.395898 77.334375 163.496875 62.812109 142.441797 56.941406 M 53.586719 131.958398 C 53.829492 117.502344 58.508398 103.862891 67.204102 92.364258 C 68.991797 90.002734 70.956055 87.707422 73.074805 85.544531 C 85.809375 72.655469 102.913867 65.482617 121.276367 65.350195 " transform="matrix(0.176991,0,0,0.176991,0,0)"/>
<path style="fill:none;stroke-width:1;stroke-linecap:round;stroke-linejoin:round;stroke:rgb(59.607843%,80%,99.215686%);stroke-opacity:1;stroke-miterlimit:10;" d="M 54.977148 149.725 C 56.257227 158.155859 58.684961 168.926172 63.297656 180.667578 M 42.264648 133.724023 C 42.308789 138.756055 42.948828 152.241016 47.649805 169.323438 " transform="matrix(0.176991,0,0,0.176991,0,0)"/>
<path style="fill:none;stroke-width:1;stroke-linecap:round;stroke-linejoin:round;stroke:rgb(100%,100%,100%);stroke-opacity:1;stroke-miterlimit:10;" d="M 172.413281 72.898242 C 158.575195 61.156836 140.698242 54.050195 121.276367 54.050195 L 121.188086 54.050195 C 99.824023 54.204688 79.872461 62.569336 65.041211 77.621289 " transform="matrix(0.176991,0,0,0.176991,0,0)"/>
<path style="fill:none;stroke-width:1;stroke-linecap:round;stroke-linejoin:round;stroke:rgb(59.607843%,80%,99.215686%);stroke-opacity:1;stroke-miterlimit:10;" d="M 30.964648 133.812305 C 31.008789 137.475977 31.317773 145.266797 33.039258 155.529492 " transform="matrix(0.176991,0,0,0.176991,0,0)"/>
<path style="fill:none;stroke-width:1;stroke-linecap:round;stroke-linejoin:round;stroke:rgb(100%,100%,100%);stroke-opacity:1;stroke-miterlimit:10;" d="M 179.718555 64.29082 C 163.364453 50.408594 142.574219 42.750195 121.166016 42.750195 L 121.121875 42.750195 " transform="matrix(0.176991,0,0,0.176991,0,0)"/>
<path style="fill:none;stroke-width:1;stroke-linecap:round;stroke-linejoin:miter;stroke:rgb(100%,100%,100%);stroke-opacity:1;stroke-miterlimit:10;" d="M 30.964648 86.471484 C 37.475391 73.295508 46.656641 63.937695 49.327148 61.377539 C 68.153125 42.308789 93.688477 31.648828 121.055664 31.450195 C 145.222656 31.450195 168.639258 40.057617 187.023828 55.661328 " transform="matrix(0.176991,0,0,0.176991,0,0)"/>
<path style="fill:none;stroke-width:1;stroke-linecap:round;stroke-linejoin:round;stroke:rgb(59.607843%,80%,99.215686%);stroke-opacity:1;stroke-miterlimit:10;" d="M 161.00293 187.487305 C 153.23418 185.545117 146.988281 182.278711 141.97832 178.261914 M 119.025195 166.829492 C 124.388281 177.423242 133.039844 188.016992 146.9 194.483594 " transform="matrix(0.176991,0,0,0.176991,0,0)"/>
<path style="fill:none;stroke-width:1;stroke-linecap:round;stroke-linejoin:round;stroke:rgb(100%,100%,100%);stroke-opacity:1;stroke-miterlimit:10;" d="M 132.775 132.819141 C 132.708789 126.661523 127.632617 121.629492 121.475 121.629492 L 121.45293 121.629492 C 118.363086 121.651563 115.538086 122.843359 113.419336 125.00625 C 111.300586 127.14707 110.15293 129.994141 110.175 133.017773 " transform="matrix(0.176991,0,0,0.176991,0,0)"/>
<path style="fill:none;stroke-width:1;stroke-linecap:round;stroke-linejoin:round;stroke:rgb(59.607843%,80%,99.215686%);stroke-opacity:1;stroke-miterlimit:10;" d="M 166.65293 131.958398 C 167.226758 139.727148 170.272461 143.964648 175.767969 144.494336 C 180.888281 145.024023 185.633398 146.657227 189.782617 149.129102 " transform="matrix(0.176991,0,0,0.176991,0,0)"/>
<path style="fill:none;stroke-width:1;stroke-linecap:round;stroke-linejoin:round;stroke:rgb(100%,100%,100%);stroke-opacity:1;stroke-miterlimit:10;" d="M 121.475 110.329492 L 121.45293 110.329492 C 115.295313 110.373633 109.623242 112.779297 105.385742 117.083008 C 101.148242 121.364648 98.830859 127.058789 98.875 133.106055 M 144.075 132.708789 C 144.030859 127.676758 142.309375 123.019922 139.440234 119.267969 M 88.722656 124.101367 C 87.950195 127.014648 87.55293 130.060352 87.575 133.172266 " transform="matrix(0.176991,0,0,0.176991,0,0)"/>
<path style="fill:none;stroke-width:1;stroke-linecap:round;stroke-linejoin:round;stroke:rgb(100%,100%,100%);stroke-opacity:1;stroke-miterlimit:10;" d="M 155.375 132.598438 C 155.176367 114.081445 139.969922 99.029492 121.475 99.029492 L 121.45293 99.029492 C 112.227539 99.095703 103.686328 102.693164 97.330078 109.137695 " transform="matrix(0.176991,0,0,0.176991,0,0)"/>
<path style="fill:none;stroke-width:1;stroke-linecap:round;stroke-linejoin:round;stroke:rgb(59.607843%,80%,99.215686%);stroke-opacity:1;stroke-miterlimit:10;" d="M 177.975 155.529492 C 163.12168 155.529492 155.529492 147.804883 155.375 132.598438 M 84.794141 173.075391 C 87.376367 179.497852 90.620703 186.008594 94.725781 192.276563 " transform="matrix(0.176991,0,0,0.176991,0,0)"/>
<path style="fill:none;stroke-width:1;stroke-linecap:round;stroke-linejoin:round;stroke:rgb(100%,100%,100%);stroke-opacity:1;stroke-miterlimit:10;" d="M 110.175 89.186133 C 102.273828 91.216602 95.100977 95.299609 89.296484 101.192383 C 80.821484 109.799805 76.186719 121.188086 76.275 133.260547 M 143.788086 93.666406 C 137.189063 89.892383 129.574805 87.729492 121.475 87.729492 M 166.675 132.488086 C 166.586719 124.520703 164.423828 117.038867 160.693945 110.550195 M 145.443359 46.038672 C 169.544141 52.770117 189.98125 69.344922 201.568164 91.569727 " transform="matrix(0.176991,0,0,0.176991,0,0)"/>
<path style="fill:none;stroke-width:1;stroke-linecap:round;stroke-linejoin:round;stroke:rgb(59.607843%,80%,99.215686%);stroke-opacity:1;stroke-miterlimit:10;" d="M 64.864648 133.392969 C 64.99707 146.19375 68.550391 167.337109 78.967578 187.8625 M 76.275 133.260547 C 76.341211 140.433398 77.599219 150.541602 80.821484 161.598828 M 98.875 133.106055 C 98.941211 139.572656 100.243359 149.084961 103.708398 159.281445 C 108.188672 172.479492 116.288477 186.847266 129.97207 197.242383 M 87.575 133.172266 C 87.707422 147.871094 93.489844 176.253516 113 197.264453 M 134.408203 170.647656 C 121.430859 154.271484 121.45293 133.150195 121.45293 133.150195 C 121.45293 133.150195 121.475 133.150195 121.475 133.150195 M 110.175 133.017773 C 110.175 133.282617 110.373633 143.34668 114.4125 155.639844 M 172.391211 178.239844 C 135.776563 174.576172 132.819141 137.03457 132.775 132.819141 M 177.975 166.829492 C 146.833789 166.829492 144.163281 140.720313 144.075 132.708789 M 195.940234 139.660938 C 190.6875 136.438672 184.706445 134.253711 178.261914 133.415039 " transform="matrix(0.176991,0,0,0.176991,0,0)"/>
<path style=" stroke:none;fill-rule:nonzero;fill:rgb(100%,100%,100%);fill-opacity:1;" d="M 37 25 L 3 25 C 2.449219 25 2 24.550781 2 24 C 2 23.449219 2.449219 23 3 23 L 37 23 C 37.550781 23 38 23.449219 38 24 C 38 24.550781 37.550781 25 37 25 Z M 37.5 6 C 37.773438 6 38 6.226562 38 6.5 L 38 7.5 C 38 7.773438 37.773438 8 37.5 8 C 37.226562 8 37 7.773438 37 7.5 L 37 6.5 C 37 6.226562 37.226562 6 37.5 6 Z M 37.5 32 C 37.773438 32 38 32.226562 38 32.5 L 38 33.5 C 38 33.773438 37.773438 34 37.5 34 C 37.226562 34 37 33.773438 37 33.5 L 37 32.5 C 37 32.226562 37.226562 32 37.5 32 Z M 2.5 32 C 2.773438 32 3 32.226562 3 32.5 L 3 33.5 C 3 33.773438 2.773438 34 2.5 34 C 2.226562 34 2 33.773438 2 33.5 L 2 32.5 C 2 32.226562 2.226562 32 2.5 32 Z M 2.5 6 C 2.773438 6 3 6.226562 3 6.5 L 3 7.5 C 3 7.773438 2.773438 8 2.5 8 C 2.226562 8 2 7.773438 2 7.5 L 2 6.5 C 2 6.226562 2.226562 6 2.5 6 Z M 6.5 2 L 7.5 2 C 7.773438 2 8 2.226562 8 2.5 C 8 2.773438 7.773438 3 7.5 3 L 6.5 3 C 6.226562 3 6 2.773438 6 2.5 C 6 2.226562 6.226562 2 6.5 2 Z M 32.5 2 L 33.5 2 C 33.773438 2 34 2.226562 34 2.5 C 34 2.773438 33.773438 3 33.5 3 L 32.5 3 C 32.226562 3 32 2.773438 32 2.5 C 32 2.226562 32.226562 2 32.5 2 Z M 6.5 37 L 7.5 37 C 7.773438 37 8 37.226562 8 37.5 C 8 37.773438 7.773438 38 7.5 38 L 6.5 38 C 6.226562 38 6 37.773438 6 37.5 C 6 37.226562 6.226562 37 6.5 37 Z M 32.5 37 L 33.5 37 C 33.773438 37 34 37.226562 34 37.5 C 34 37.773438 33.773438 38 33.5 38 L 32.5 38 C 32.226562 38 32 37.773438 32 37.5 C 32 37.226562 32.226562 37 32.5 37 Z M 32.5 37 "/>
</g>
</svg>
