<?xml version="1.0" encoding="UTF-8"?><svg version="1.1" xmlns="http://www.w3.org/2000/svg" xmlns:xlink="http://www.w3.org/1999/xlink" viewBox="0 0 1500 1500" width="1500" height="1500" x="0px" y="0px">
              
              <!-- ITEM 0 -->
<g transform="translate(150.0 192.0) scale(1.3202283530648868 1.3174291557870774) rotate(0.0 301.463 463.0230000000001)">
<g transform="translate(-0.0 -0.0)">
<title>man_in_a_suit</title><g id="Layer_2-i0" data-name="Layer 2"><g id="man_in_a_suit-i0"><path d="M161.613,351.968s-17.709,73.758-28.369,88.888L91.465,402.515l20.288-49.344,6.361-18.74,43.5,9.456Z" fill="#fece2f"/><path d="M273.368,809.476l3.439,39.372H252.393s-19.6-3.61-19.6-5.5,3.611-6.018,3.611-6.018l-2.751-27.681,39.716-.172Z" fill="#fece2f"/><path d="M285.06,874.638l-7.394-35.246L275.088,809.3a1.9,1.9,0,0,0-3.783.344l2.407,29.057c-11.347,7.565-19.772,8.252-24.07,6.189-1.892-1.031-3.095-2.579-3.095-4.47a11.472,11.472,0,0,0-5.158-9.284,8.34,8.34,0,0,0-3.611-1.376L236.4,818.589l34.9-7.565-35.934-1.72v-.344a1.823,1.823,0,1,0-3.61.516l2.579,20.288a18.782,18.782,0,0,0-2.923.86c-1.719.687-5.674,2.751-11.176,5.5-12.894,6.705-34.558,17.88-47.8,20.8a24.4,24.4,0,0,0-6.534,2.235,9.95,9.95,0,0,0-5.5,11.691,10.283,10.283,0,0,0,10.144,8.081h.172l112.787-1.891a1.564,1.564,0,0,0,1.376-.688A3.106,3.106,0,0,0,285.06,874.638Z" fill="#191919"/><polygon points="459.398 792.971 475.387 845.754 455.615 868.621 433.264 854.35 415.727 808.617 459.398 792.971" fill="#fece2f"/><path d="M234.856,155.45s-50.2-7.393-95.766.86S53.468,185.2,25.959,208.921s-33.182,54.158-13.582,81.323c19.6,26.994,65.849,55.534,106.081,64.647,0,0,.344-19.945,3.611-30.088S132.9,303.827,132.9,303.827L86.479,274.255s40.4-3.955,58.457-9.284l-14.614,36.621s25.445,14.27,31.463,15.13c5.846,1.031,31.119-34.043,36.449-42.639S211.989,242.1,211.989,240.9s3.266-32.151,3.266-32.151L225.4,180.037Z" fill="#fece2f"/><path d="M99.89,346.294c-2.063-1.719-3.611-4.3-4.814-8.081a7.469,7.469,0,0,1-.172-.859c-.86-2.579-1.72-5.33-4.127-7.222a11.785,11.785,0,0,0-6.533-2.063,33.11,33.11,0,0,0-4.126.172,22.5,22.5,0,0,1-4.814,0c-2.235-.172-4.986-1.2-6.018-3.267s-.344-4.642.344-7.049l.172-.859c1.547-6.018-.344-9.113-2.063-10.66a11.069,11.069,0,0,0-4.642-2.063A45.345,45.345,0,0,0,52.781,302.8c-4.3-.172-8.941-.515-19.429-3.266-4.986-1.376-15.989-7.565-17.193-8.6a2.064,2.064,0,0,0-2.579,0,2.065,2.065,0,0,0-.172,2.579,40.023,40.023,0,0,0,5.5,5.33c1.032.86,2.063,1.719,2.923,2.579,2.751,2.579,5.5,4.986,8.081,7.221,2.063,1.719,4.126,3.611,6.361,5.674a101.6,101.6,0,0,0,10.832,8.424c2.407,1.548,4.814,3.267,7.221,4.814a165.772,165.772,0,0,0,15.3,9.629l1.719,1.031c9.113,4.986,16.849,9.112,27.165,11.52h.344a1.892,1.892,0,0,0,1.72-1.032A2.555,2.555,0,0,0,99.89,346.294Z" fill="#fff"/><path d="M301.393,154.763l2.235,101.1L315.491,361.94H291.077c-.688,0-33.7,1.031-34.73,1.2-1.032,0-45.39,4.127-45.39,4.127l-54.674,8.6,5.158-23.726V317.066l8.081-9.456,31.291-37.481,11.864-18.913,12.207-25.1,8.08-30.432,1.892-40.06Z" fill="#fff"/><path d="M508.4,96.65s.688,16.162,44.874,40.4c0,0-9.972,37.309-34.73,68.085s-77.369,74.618-162.991,77.369l30.776,110.035s-29.744,31.12-51.236,35.418c0,0-23.9-77.025-30.431-122.587s-8.6-134.794-3.1-150.611c0,0,20.288-.172,62.583,5.673s69.976,13.927,99.548-.343C478.826,152.528,508.4,96.65,508.4,96.65Z" fill="#fece2f"/><path d="M175.024,150.98c-28.541,2.235-60.692,9.8-90.264,21.32a203.628,203.628,0,0,0-23.9,10.831C50.718,188.805,41.089,196.2,33.009,202.56A155.078,155.078,0,0,0,19.77,213.907a67.97,67.97,0,0,0-5.846,6.7c-.859,1.2-5.845,7.565-6.017,7.565a2.087,2.087,0,0,0,.172,2.579,1.854,1.854,0,0,0,1.2.516,1.858,1.858,0,0,0,1.2-.516,6.258,6.258,0,0,0,1.375-1.547c1.719-2.063,5.5-7.049,23.039-19.6,8.94-6.362,19.256-10.316,27.337-13.067,5.33-1.719,10.832-3.267,16.677-4.642,18.225-3.955,37.137-4.986,55.534-6.018,8.081-.515,16.5-1.031,24.758-1.719a18.072,18.072,0,0,0,7.909-2.063c2.579-1.719,4.642-5.33,3.267-8.6-.688-1.891-2.236-2.923-3.611-3.954-.688-.516-1.2-1.032-1.719-1.376-1.892-2.063-1.548-5.5-.516-7.908,2.063-4.471,6.533-5.158,10.488-5.5a1.926,1.926,0,0,0,1.719-2.063A1.477,1.477,0,0,0,175.024,150.98Z" fill="#fff"/><path d="M472.98,151.84a2.078,2.078,0,0,0-2.579.172c-5.5,6.017-16.5,13.582-24.242,14.958-7.049,1.375-9.456,1.031-37.309-1.891-3.611-.344-7.737-.86-12.379-1.376a1.841,1.841,0,0,0-.688,3.611c4.814,1.2,11.519,3.094,16.161,4.814a6.764,6.764,0,0,1,1.032.344c3.267,1.031,13.411,3.782,19.772,11.691,1.032,1.2,1.891,2.579,2.923,3.782,2.407,3.439,4.986,7.05,8.94,9.285a14.608,14.608,0,0,0,6.534,1.547,10.631,10.631,0,0,0,4.642-.86,14.075,14.075,0,0,0,8.081-7.908,27.909,27.909,0,0,0,1.375-8.425v-1.032c.516-9.628,3.611-19.944,7.909-26.649C474.012,153.387,473.84,152.356,472.98,151.84Z" fill="#fff"/><path d="M515.275,81.692s18.053,22.351,41.608,32.667l-7.909,20.288s-32.5-15.818-40.748-38Z" fill="#fff"/><path d="M515.275,81.692s13.583-29.572,18.4-38,17.365-18.052,17.365-18.052l7.221-15.818s1.891-8.081,3.439-7.393,2.75,7.393,2.922,9.8c.172,2.579,12.38-13.755,16.334-10.316C584.907,5.183,577.17,14.3,577.17,14.3s14.1-7.049,15.474-3.782c1.548,3.094-11.691,12.723-12.207,13.066S556.2,38.537,558.43,49.2c2.235,10.832,29.4,12.551,29.4,12.551s15.3,3.954,12.895,7.909-14.958,2.923-15.818,3.267c-.859.172-14.1-2.407-18.74,6.017s-13.411,33.871-13.411,33.871S525.075,96.478,515.275,81.692Z" fill="#fece2f"/><polygon points="290.217 122.956 293.14 145.822 265.803 164.563 243.108 145.822 245 120.72 290.217 122.956" fill="#fece2f"/><polygon points="293.14 145.822 301.393 154.763 284.716 181.584 265.803 164.563 293.14 145.822" fill="#fff"/><polygon points="265.803 164.563 243.108 145.822 234.856 155.45 245.515 181.068 265.803 164.563" fill="#fff"/><path d="M234.856,155.45l1.031,21.492-6.533,38-10.66,24.07-14.1,23.383,2.235-19.6-2.235-36.1s-1.72-4.986,4.986-6.018c6.533-1.031,9.972-1.719,4.126-7.049s-11.175-7.221-2.751-15.989C219.21,169.033,234.856,155.45,234.856,155.45Z" fill="#fece2f"/><path d="M148.374,312.424l13.239,4.3,17.193-6.534,24.07,8.425,16.506,10.66s-1.719,3.095-7.565,1.719-15.474-3.267-15.474-3.267,7.737,6.362,8.081,6.706c.516.344,12.035,9.112,12.035,9.112s-2.923,3.095-6.018,2.407c-3.094-.516-1.547,1.032-1.547,1.032s1.2,4.126-7.393,3.266-23.554-5.845-23.554-5.845l13.926,12.723s-1.891,3.094-6.362,1.375c-4.642-1.719-14.786-8.6-14.786-8.6s-13.238,3.61-17.708,2.578c-4.643-.859-15.646-5.673-15.646-5.673S140.465,322.567,148.374,312.424Z" fill="#fece2f"/><path d="M133.072,303.827l14.443,8.425s-9.285,17.021-10.144,34.73l-18.4-4.814C118.974,342,122.069,313.8,133.072,303.827Z" fill="#fff"/><path d="M158.174,391.684s41.608-7.909,89.92-13.411,70.492-2.579,70.492-2.579l39.372,40.232L459.4,792.971,392.86,816.525,318.586,604.534,259.442,443.951l4.126,126.025,9.628,239.5H211.473L192.217,671.759,171.757,525.79Z" fill="#fece2f"/><polygon points="257.379 410.596 246.891 411.972 243.624 379.305 238.466 379.133 240.873 418.505 257.894 418.505 257.379 410.596" fill="#fff"/><path d="M165.224,390.308l53.642,419.168h-7.221s-26.477-167.461-34.73-246.549L158.346,391.856Z" fill="#fff"/><polyline points="349.018 421.084 447.362 797.269 459.398 792.971 357.958 416.098 349.018 421.084" fill="#fff"/><path d="M318.93,203.419,305.519,271.5,324.26,216.83c0-.172,4.126-9.456-5.33-13.411" fill="#fff"/><path d="M204.08,203.075c-.86,1.032,2.235,45.562,2.235,45.562l6.018-48.484S206.659,200.325,204.08,203.075Z" fill="#fff"/><path d="M318.586,373.975h-.344L316.179,364a2.505,2.505,0,0,0,1.032-1.547,1.768,1.768,0,0,0-1.72-1.892c-69.632-3.61-144.938,10.488-159.208,13.411a1.943,1.943,0,0,0-1.547,2.235,1.99,1.99,0,0,0,1.719,1.547h.172l1.2,12.379h-.172a1.832,1.832,0,0,0-1.376,2.235A1.992,1.992,0,0,0,158,393.919h.344c59.489-13.411,131.7-15.646,160.068-15.99a1.907,1.907,0,0,0,1.891-1.891A1.734,1.734,0,0,0,318.586,373.975Z" fill="#191919"/><path d="M256.691,376.038l-18.4,1.547a6.061,6.061,0,0,1-6.361-6.017V371.4a5.966,5.966,0,0,1,5.5-5.846l18.4-1.2a5.912,5.912,0,0,1,6.362,6.189h0A6.061,6.061,0,0,1,256.691,376.038Z" fill="#fece2f"/><polygon points="275.947 174.879 270.101 186.914 272.337 222.16 279.214 315.862 257.379 345.95 235.887 311.392 259.614 185.367 255.315 173.503 265.803 164.563 275.947 174.879" fill="#fece2f"/><path d="M271.993,187.258l5.673-11.692a1.922,1.922,0,1,0-3.438-1.719l-5.33,10.832-8.081-1.2-3.782-10.831a1.9,1.9,0,1,0-3.611,1.2l3.954,11.519L233.652,312.424a3.35,3.35,0,0,0,.172,1.375l21.835,33.183a1.808,1.808,0,0,0,1.548.859h0a1.869,1.869,0,0,0,1.547-.687L280.589,318.1a2.482,2.482,0,0,0,.344-1.2Zm-11,.172,7.393,1.031,1.2,18.225L254.8,220.612Zm9.628,34.386,1.032,13.926-23.9,22.523,4.3-22.695Zm2.063,29.056.688,10.832-31.807,29.228,3.782-19.944ZM238.81,305.89l35.762-27.337.687,9.972-33.182,30.948-4.642-6.878Zm18.569,36.793-10.66-16.161,29.572-22.179.86,11.863Z" fill="#191919"/><path d="M156.455,377.585h-.344a1.719,1.719,0,0,1-1.375-2.235l5.158-23.726a1.856,1.856,0,1,1,3.61.86l-5.158,23.726A1.862,1.862,0,0,1,156.455,377.585Z" fill="#191919"/><path d="M221.1,326.866c-8.768-6.534-37.137-18.4-41.435-18.4h0c-2.063,0-6.362,1.547-10.316,3.1,6.189-6.877,16.333-18.225,26.821-32.151l.172-.172c1.2-1.548,2.235-3.095,3.267-4.642a288.352,288.352,0,0,0,21.319-34.387c20.288-39.888,16.506-84.246,16.506-85.277h0v-.172h0v-.172h0v-.172h0v-.172h0v-.172h0l-.172-.172-.172-.172h-.172l-.172-.172h-.516c-1.375-.172-60-7.049-102.643,2.235-33.011,7.393-63.958,19.772-87.169,35.246C20.629,208.233,4.812,228.349.857,249.325c-4.126,21.147,6.706,43.326,31.12,63.786,19.772,16.849,47.969,31.463,78.229,40.92-12.38,31.979-19.6,47.625-19.773,47.625a1.926,1.926,0,0,0,.516,2.235l41.779,38.34a1.561,1.561,0,0,0,1.2.516h.344a2.673,2.673,0,0,0,1.375-1.032c15.99-35.073,26.478-80.291,28.2-88.2,1.375-.344,2.751-.688,4.3-1.032,1.032-.172,2.235-.516,2.923-.687l.344.343c5.158,3.955,12.551,8.941,18.053,8.941h1.2a6.1,6.1,0,0,0,4.3-2.407,1.865,1.865,0,0,0-.344-2.579l-10.832-8.6c7.049,2.235,15.99,4.814,21.319,4.986h.688a6.221,6.221,0,0,0,4.642-1.719,5.821,5.821,0,0,0,1.548-3.1h1.2c2.751,0,5.5-1.375,6.362-3.266a2.956,2.956,0,0,0-1.032-3.611c-3.782-2.751-9.972-6.7-15.646-10.316,5.674,1.719,11.52,3.267,15.13,3.267h0c2.407,0,4.3-1.2,4.814-3.095C222.305,329.445,222.305,327.725,221.1,326.866Zm-3.782-88.029c-3.267,6.361-6.878,12.551-10.66,18.569,3.61-15.3,1.375-30.948-.172-41.78-.688-4.986-1.547-10.316-.86-11.519,1.2-2.235,3.095-2.235,6.018-2.063,2.407.172,5.674.344,6.877-2.751,1.548-3.611-1.547-5.5-4.126-7.221-2.235-1.548-4.814-3.267-6.018-6.19,0-.172-1.2-3.266,12.723-16.161,4.642-4.3,9.456-8.425,12.379-10.66C234,170.065,234,205.826,217.319,238.837Zm-213.539,11C7.563,229.9,22.693,210.64,47.8,194.135c22.866-15.13,53.47-27.509,85.965-34.73,35.418-7.909,82.355-4.126,96.969-2.751-3.094,2.407-7.565,6.19-11.863,10.316-11,10.144-15.13,16.5-13.582,20.46,1.719,3.954,4.985,6.189,7.393,7.908s2.922,2.236,2.75,2.751-1.031.516-3.266.516c-2.923-.172-7.221-.516-9.628,3.955-1.2,2.235-.516,6.533.515,13.754,2.064,14.442,5.5,38-6.533,56.737A404.517,404.517,0,0,1,161.441,315L148.89,310.36l-14.442-7.909h0c-.516-.171-.86-.515-1.375-.687,8.424-19.085,12.894-32.839,13.754-35.418a100.839,100.839,0,0,0,19.256-8.6,1.887,1.887,0,1,0-1.891-3.266,85.065,85.065,0,0,1-16.5,7.565c-30.432,6.017-47.8-7.737-59.317-16.678-3.61-2.922-6.877-5.329-9.628-6.533-5.673-2.579-10.316-2.751-13.754-.86a10.564,10.564,0,0,0-4.814,7.737c-.86,6.018,5.5,11.176,6.361,11.863s9.284,8.6,20.8,18.053l.516.344H88.2c12.379,9.972,28.2,21.491,42.467,28.713a65.966,65.966,0,0,0-11,23.726,117.029,117.029,0,0,0-2.579,24.07c-32.151-9.112-62.239-24.414-83.215-42.123C4.124,285.258,1.029,263.6,3.78,249.841Zm132.043,95.593-14.786-3.782a100.284,100.284,0,0,1,1.892-12.551,61.591,61.591,0,0,1,10.659-23.039l11.52,6.362C143.044,316.55,137.715,327.9,135.823,345.434Zm-19.084-72.383a208.9,208.9,0,0,0,25.446-5.673c-1.72,5.329-6.018,17.021-12.723,32.323-12.035-6.362-24.758-15.474-35.59-24.071A207.873,207.873,0,0,0,116.739,273.051Zm15.818,164.71L93.528,402c1.892-4.3,8.769-19.772,19.257-46.937,1.547.515,3.266,1.031,4.814,1.375h.172a3.779,3.779,0,0,0,1.375.172,5.292,5.292,0,0,0,2.235-.516,6.875,6.875,0,0,0,2.063-1.719,15.322,15.322,0,0,0,4.127-7.393l9.112,2.235c1.2.344,12.723,4.3,15.646,5.33,1.2.344,3.438.172,6.533-.516C156.627,365.378,147,405.438,132.557,437.761ZM218.35,329.617a2,2,0,0,1-1.2.344h0c-8.081,0-30.432-8.769-30.776-8.941h-1.719l-.172.172-.172.172-.172.172a.168.168,0,0,1-.172.172h0v.344h0v1.719l.172.172a.168.168,0,0,0,.172.172l.172.172a.168.168,0,0,1,.172.172h0c.172.172,20.975,12.207,30.088,18.912a5.292,5.292,0,0,1-3.095.516c-2.751-.344-20.46-8.424-31.12-13.239a1.922,1.922,0,1,0-1.719,3.439c1.375.688,8.425,3.954,15.646,7.049l12.379,6.534-.172.172a3.6,3.6,0,0,1-2.407.515c-8.941-.515-30.432-8.252-30.6-8.424H172.1a.168.168,0,0,0-.172.172l-.172.172-.172.172h0a.168.168,0,0,1-.172.171v.172h0v1.548a.168.168,0,0,0,.172.172l.172.172.172.172h0l17.537,13.582h0c-3.267.516-8.769-2.235-16.506-8.081-1.031-.687-1.2-.859-1.547-1.031-.688-.172-1.2-.172-4.986.86-1.2.343-3.095.859-4.986,1.2a1.034,1.034,0,0,0-.688.172c-3.094.688-6.361,1.375-7.221,1.032-2.407-.688-10.831-3.611-14.27-4.814,1.891-17.365,7.221-28.885,9.284-32.5l12.379,4.642H162.3c5.33-2.407,14.614-6.362,17.193-6.362h0c3.267.688,29.744,11.519,38.856,18.053Z" fill="#191919"/><path d="M110.721,226.458c-2.407-1.547-10.659-6.361-14.786-1.547-2.235,2.407-1.547,6.017-.344,8.252,2.236,4.3,6.534,7.05,10.316,9.113,2.064,1.031,4.3,2.235,7.05,2.235h0c2.75,0,6.017-1.548,6.877-4.642h0C121.553,233.507,113.3,228.177,110.721,226.458Z" fill="#fff"/><path d="M602.788,67.594c-1.2-4.986-11.863-7.049-25.79-9.113-3.266-.515-6.533-1.031-7.565-1.375-4.814-1.547-8.08-4.642-9.112-7.909-.86-3.1.172-6.533,3.267-10.316,1.547-1.891,6.705-5.5,11.691-9.112,14.442-10.488,21.148-15.818,19.084-19.944a2.45,2.45,0,0,0-1.719-1.376c-1.031-.343-2.751-1.031-12.379,2.751,1.891-2.579,3.439-5.33,3.267-7.565A4.494,4.494,0,0,0,581.984.541c-1.547-1.2-3.954-1.2-15.645,8.768.172-2.923-.344-5.33-1.548-6.877A3.926,3.926,0,0,0,561.525.713c-3.611.171-4.3,3.266-5.846,8.768a17.638,17.638,0,0,1-.688,2.407c-1.547,5.846-8.425,14.958-9.456,16.505a55.077,55.077,0,0,0-13.583,14.615l-4.986,8.08a.168.168,0,0,1-.172.172l-13.41,29.916-6.878,14.786c-.171.516-25.273,50.72-43.326,62.583-9.8,6.362-28.541,12.379-87.685,2.407-31.12-5.33-67.569-7.393-73.243-7.737l-7.565-7.908-4.814-24.587a1.922,1.922,0,1,0-3.782.688l4.814,23.9L265.8,162.5,245,145.307l2.407-28.2a1.9,1.9,0,0,0-3.782-.344l-2.407,28.541-7.393,8.94a1.872,1.872,0,0,0-.344,1.891l10.488,26.306a1.475,1.475,0,0,0,1.2,1.031h.516a1.561,1.561,0,0,0,1.2-.516l18.74-15.989,17.537,17.537a1.952,1.952,0,0,0,1.375.516h.172a1.754,1.754,0,0,0,1.376-.86l12.723-21.319a589.559,589.559,0,0,0-1.548,77.2c.688,17.365,2.235,37.824,4.986,60.519v.516a.632.632,0,0,0,.172.516c4.986,38.34,14.271,82.7,30.948,127.057a1.551,1.551,0,0,0,1.031,1.032,1.47,1.47,0,0,0,1.376,0c1.375-.516,33.355-13.411,52.1-35.934a2,2,0,0,0,.344-1.719L358.3,284.571c.688,0,1.719-.172,2.751-.172a212.919,212.919,0,0,0,34.558-4.127,228.584,228.584,0,0,0,68.945-25.617c.172,0,.172-.172.343-.172,4.986-2.923,9.972-6.018,14.958-9.456,30.6-21.492,49.517-49.345,59.832-69.117,11.348-21.319,15.3-37.481,15.474-38.168v-1.548a.168.168,0,0,0-.172-.172l-.172-.172-.171-.172a.168.168,0,0,1-.172-.172H554.3c-1.032-.515-1.891-1.031-2.751-1.547l7.221-18.74a1.707,1.707,0,0,0-.86-2.236c-.687-.343-1.547-.859-2.235-1.2C558.946,98.713,566,78.425,572.185,76.018c2.235-.859,7.393-1.031,12.207-1.2,9.628-.172,15.645-.516,17.881-3.611A5.231,5.231,0,0,0,602.788,67.594Zm-356.241,110.9-9.112-22.867,5.845-7.049,19.428,15.99ZM564.619,15.671l.172-.172c6.877-6.018,12.723-10.66,14.958-11.692,0,2.235-4.3,7.393-7.393,10.488-3.782,1.719-8.252,3.783-13.582,6.533C560.837,18.937,562.728,17.218,564.619,15.671ZM558.6,12.748c.172-.86.516-1.72.688-2.407,1.031-3.955,1.547-6.018,2.407-6.018.687.172,1.719,3.267.171,8.769-.171.172-.343.172-.515.343-1.72,1.548-3.267,2.923-4.814,4.471A40.45,40.45,0,0,0,558.6,12.748ZM284.028,180.209l-15.3-15.3L292.968,148.4l6.362,6.534Zm16.849,59.66c-1.547-40.576.86-70.664,2.063-80.98,15.99,17.021,25.446,30.088,25.274,32.667-1.2,1.375-4.126,1.719-6.533,1.891-2.751.172-5.33.516-6.877,2.235a4.31,4.31,0,0,0-.86,3.267c.344,3.267,3.095,4.986,5.33,6.7,2.751,1.892,4.47,3.267,4.47,6.018,0,1.719-2.063,7.393-4.642,13.754-4.986,13.239-12.551,32.667-15.474,52.439C302.253,264.111,301.393,251.388,300.877,239.869Zm235.374-66.022c-10.144,19.428-28.713,46.937-58.8,67.913-4.986,3.439-9.8,6.533-14.786,9.456-25.1,9.456-47.625,12.207-67.225,7.737a57.863,57.863,0,0,0-5.845-1.375A83.527,83.527,0,0,0,376.527,255c-6.018-.516-11,.172-14.958,2.407-5.33,2.922-11.348,12.894-7.909,25.1v.515l30.432,109.005c-15.646,18.4-41.264,30.431-48.141,33.354-16.162-43.842-25.274-87.341-30.088-125.166-1.719-25.445,9.628-55.361,16.5-73.242,3.267-8.6,4.815-12.895,4.815-15.13,0-4.814-3.439-7.049-6.018-9.113-2.235-1.547-3.611-2.578-3.783-4.126v-.516c.516-.515,2.751-.687,4.3-.859,3.094-.344,7.049-.688,9.284-3.439,2.063-2.407.516-7.393-12.723-23.039-4.642-5.5-9.284-10.659-12.379-13.926,11.519.688,42.123,2.923,68.944,7.565,17.537,2.923,35.762,5.5,52.095,5.5,15.3,0,28.885-2.235,38.341-8.425,15.99-10.488,36.278-47.8,42.639-60,3.267,6.533,13.067,19.944,42.983,36.621C549.833,142.212,545.535,156.482,536.251,173.847ZM548.114,131.9c-32.151-18.912-37.137-32.495-37.825-35.074l5.33-11.347c4.126,5.157,14.958,17.021,38.856,29.916Zm50.892-63.1c-1.376,1.72-9.457,1.892-14.958,2.063s-10.66.172-13.583,1.376c-9.284,3.61-16.5,28.884-18.569,37.481-23.21-13.239-32.5-25.1-34.73-28.2l12.895-28.884,4.814-7.909a45.9,45.9,0,0,1,18.569-17.193c27.165-13.927,34.9-15.818,36.965-15.99-1.376,3.095-12.207,11-17.709,14.786-5.674,4.127-10.66,7.565-12.379,9.8-3.783,4.814-5.158,9.457-3.954,13.755,1.2,4.642,5.5,8.253,11.347,10.316a47.1,47.1,0,0,0,8.253,1.547c4.642.688,10.316,1.719,15.13,2.923,7.049,1.891,7.565,3.439,7.565,3.439C599.178,68.625,599.178,68.8,599.006,68.8Z" fill="#191919"/><path d="M247.407,45.587s-12.208,15.129-5.5,41.263c6.533,26.134,38.684,19.428,38.684,19.428l24.243-17.021s4.126-23.039-6.19-31.463S247.407,45.587,247.407,45.587Z" fill="#fece2f"/><path d="M243.108,71.376s-12.207-7.393-16.849-4.3c-4.814,3.267,2.923,17.881,12.035,21.319S243.108,71.376,243.108,71.376Z" fill="#fece2f"/><path d="M318.586,67.078s-7.909-3.611-17.021,7.909c-9.112,11.691-2.235,15.989.516,15.13C304.66,89.257,321.681,80.66,318.586,67.078Z" fill="#fece2f"/><path d="M249.814,71.376a6.655,6.655,0,0,0,1.891,1.032,15.331,15.331,0,0,0,7.393.516c.516-.172,1.2-.172,1.547-.688,2.923-2.407-2.923-5.846-4.986-6.018S246.891,68.625,249.814,71.376Z" fill="#181818"/><path d="M282.137,71.892a2.5,2.5,0,0,0,1.547,1.032,11.413,11.413,0,0,0,4.814.859c3.267,0,6.018-3.954,1.719-4.986C288.5,68.625,279.73,68.281,282.137,71.892Z" fill="#181818"/><ellipse cx="257.551" cy="81.004" rx="9.972" ry="4.642" fill="#fff"/><path d="M257.551,74.3c-6.878,0-11.864,2.751-11.864,6.533s5.158,6.534,11.864,6.534,11.863-2.751,11.863-6.534S264.256,74.3,257.551,74.3Zm3.954,8.94a4.865,4.865,0,0,0-4.986-2.407,4.447,4.447,0,0,0-3.267,2.236c-2.407-.688-3.782-1.72-3.782-2.236,0-1.031,3.266-2.75,8.081-2.75s8.08,1.891,8.08,2.75C265.631,81.52,264.084,82.724,261.505,83.239Z" fill="#181818"/><ellipse cx="286.951" cy="81.004" rx="9.972" ry="4.642" fill="#fff"/><path d="M286.951,74.3c-6.877,0-11.863,2.751-11.863,6.533s5.157,6.534,11.863,6.534,11.863-2.751,11.863-6.534S293.828,74.3,286.951,74.3Zm3.954,8.94a4.864,4.864,0,0,0-4.986-2.407,4.447,4.447,0,0,0-3.267,2.236c-2.407-.688-3.782-1.72-3.782-2.236,0-1.031,3.267-2.75,8.081-2.75s8.081,1.891,8.081,2.75C295.031,81.52,293.656,82.724,290.9,83.239Z" fill="#181818"/><path d="M267.523,97.51c-2.236,0-4.127-.516-4.815-2.235-1.375-3.095,3.095-6.534,4.986-7.737a2.859,2.859,0,0,0,1.72-2.407c0-1.892-3.095-4.3-4.47-5.158a1.887,1.887,0,0,1,1.891-3.267c.688.344,6.189,3.783,6.361,8.253,0,1.547-.516,3.61-3.438,5.674a12.794,12.794,0,0,0-3.439,3.094c.688.172,2.407.172,6.361-.516a1.856,1.856,0,1,1,.86,3.611A37.976,37.976,0,0,1,267.523,97.51Z" fill="#191919"/><path d="M319.79,65.7c-2.064-1.719-6.19-3.266-13.239,2.579a41.936,41.936,0,0,0-2.063-7.393,15.3,15.3,0,0,0,6.877-11.519c.516-5.33-.688-9.8-3.439-13.239a19.716,19.716,0,0,0-11.347-6.017c-4.126-6.534-8.941-10.488-14.442-11.52a17.924,17.924,0,0,0-12.207,2.235,20.268,20.268,0,0,0-14.958-8.6,14.464,14.464,0,0,0-12.723,5.674c-4.127,5.33-5.5,11-4.127,17.193a30.874,30.874,0,0,0,6.706,12.551,65.356,65.356,0,0,0-6.534,20.8c-7.049-6.189-11.347-4.47-13.238-2.75s-2.579,4.642-1.548,8.252c1.2,4.814,4.986,9.972,10.316,13.239-3.267,3.095-4.642,9.456-3.439,16.5a34.038,34.038,0,0,0,20.632,26.134,55.539,55.539,0,0,0,21.32,4.3,39.215,39.215,0,0,0,7.736-.688c8.081-1.375,15.3-4.986,19.6-9.8,6.361-7.049,10.487-22.7,8.424-31.463a12.951,12.951,0,0,0-1.2-3.1,24.708,24.708,0,0,0,14.442-15.3C322.2,70.345,321.681,67.25,319.79,65.7Zm-92.671,7.222c-.516-2.064-.516-3.783.344-4.471,2.922-2.407,8.252,2.407,10.487,4.814a48.6,48.6,0,0,0,1.032,11,7.165,7.165,0,0,0-1.719.688A21.21,21.21,0,0,1,227.119,72.924Zm61.723,18.224c-4.986,3.439-10.66,7.221-17.193,7.565h0c-5.33.344-12.895-.344-18.741-6.017l-2.579-2.579c-2.235-2.407-4.642-4.814-7.393-5.846-3.61-13.926,1.72-27.853,4.643-33.7A60.385,60.385,0,0,0,263.224,61.92a46,46,0,0,0,20.632,4.642,39.677,39.677,0,0,0,17.365-3.61,47.072,47.072,0,0,1,2.235,9.112v.516a31.142,31.142,0,0,1-1.031,13.066v.172C298.126,84.787,293.828,87.882,288.842,91.148Zm28.884-18.224c-1.2,4.642-5.329,9.8-11.175,12.379a34.8,34.8,0,0,0,.688-12.551c2.579-2.579,7.393-6.534,10.144-4.3C318.242,69.141,318.242,70.86,317.726,72.924Z" fill="#191919"/><path d="M265.115,112.468l18.741-5.846s-1.891,8.081-8.081,10.316C267.694,119.689,265.115,112.468,265.115,112.468Z" fill="#fff"/><path d="M524.9,908.509c-12.379-20.46-44.7-60-47.8-63.787l-15.99-52.439L359.85,415.41a1.856,1.856,0,0,0-3.611.86l100.923,375.5-63.1,22.351c-4.814-14.1-37.481-108.316-68.429-195.657a1.94,1.94,0,0,0,.516-1.891c-2.923-8.425.516-18.913,8.081-24.071a12.813,12.813,0,0,1,2.063-1.2c3.611-2.235,7.565-4.642,7.909-9.113.516-5.329-4.642-9.112-7.393-11.175a161.227,161.227,0,0,1-47.453-55.19c-.172-.516-.516-.688-1.032-.86-7.565-20.631-13.754-36.621-17.537-45.389l-10.316-29.057-.515-22.007h0l-2.407-40.232a1.9,1.9,0,0,0-3.783.344L256,416.786H242.764l-2.407-37.481a1.9,1.9,0,1,0-3.782.344l2.579,39.2a1.767,1.767,0,0,0,1.891,1.719h15.13l.516,20.632h0l14.958,366.557H213.364c-17.709-91.123-36.793-260.3-47.109-357.789l.172-.171c14.958-16.162,9.456-59.489,9.112-61.38a1.823,1.823,0,0,0-3.61.516c0,.344,4.986,39.028-6.19,55.706-4.3-41.092-7.049-68.085-7.049-68.945a1.9,1.9,0,1,0-3.782.344c.344,3.095,29.4,302.255,55.19,433.782a2.013,2.013,0,0,0,1.891,1.548h61.723a1.776,1.776,0,0,0,1.891-1.892L260.645,453.063l6.362,17.881v.172c21.835,50.376,122.93,343.346,123.962,346.269A1.551,1.551,0,0,0,392,818.417a1.286,1.286,0,0,0,.859.172,1.034,1.034,0,0,0,.688-.172l21.148-7.565,16.677,44.014c1.2,7.565,3.1,19.944,3.1,21.319,0,1.032,0,1.72,8.94,8.6,4.986,3.782,11.691,8.94,19.084,14.1,13.411,9.628,29.916,20.976,36.106,23.9a31.275,31.275,0,0,0,13.41,3.267c4.987,0,9.457-1.548,12.208-4.643C527.482,917.965,527.654,913.151,524.9,908.509ZM459.054,798.473l13.41,44.014c-4.47-1.547-8.08-1.547-11-.172-5.33,2.579-6.877,9.284-8.081,14.1-.516,2.064-1.032,4.471-1.719,5.158-1.032,1.2-8.081-1.547-17.021-8.424l-12.723-33.355Z" fill="#191919"/><ellipse cx="321.179" cy="326.362" rx="5.502" ry="6.877" transform="translate(-34.879 38.454) rotate(-6.5)" fill="#191919"/><ellipse cx="328.412" cy="352.836" rx="5.502" ry="6.877" transform="translate(-37.829 39.443) rotate(-6.5)" fill="#191919"/></g></g>
</g>
</g>

<!-- ITEM 1 -->
<g transform="translate(881.0 89.0) scale(1.0313678070986556 1.030311087476735) rotate(0.0 84.354 90.264)">
<g transform="translate(-0.0 -0.0)">
<title>coin</title><g id="Layer_2-i1" data-name="Layer 2"><g id="coin-i1"><path d="M154.837,21.593a29.046,29.046,0,0,0-13.511-5.666c-2.808-3.293-7.845-4.6-11.283-7.264-22.131-17.094-66.247,2.906-98.6,44.7S-9.231,142.9,12.9,160.044a75.388,75.388,0,0,0,22.567,10.992,27.756,27.756,0,0,0,2.227,1.937c22.131,17.1,66.247-2.905,98.6-44.7C168.639,86.436,176.92,38.688,154.837,21.593Z" style="fill:#fece2f"/><path d="M43.99,58.639C70.866,23.918,105.927,4.208,129.7,8.373,107.476-8.334,63.6,11.714,31.4,53.312-.95,95.1-9.279,142.852,12.852,160A74.349,74.349,0,0,0,33.772,170.5a59.253,59.253,0,0,1-8.329-5.182C3.312,148.228,11.641,100.431,43.99,58.639Z" style="fill:#fff"/><path d="M110.818,21.206c-12.591,5.424-25.86,14.576-38.3,26.779l44.7,101.26a177.827,177.827,0,0,0,19.08-20.969,175.836,175.836,0,0,0,11.622-16.949Z" style="fill:#fff"/><path d="M32.755,107.017l30.751,71.574c9.007-1.211,18.886-4.891,28.958-10.751L51.108,73.264A161.41,161.41,0,0,0,32.755,107.017Z" style="fill:#fff"/><path d="M57.162,180.528c-7.942,0-14.867-2.131-20.388-6.441-11.138-8.62-15.3-24.794-11.67-45.472,3.535-20.387,14.188-42.809,29.975-63.245s34.867-36.319,53.705-44.842c19.128-8.669,35.835-8.717,46.973-.1s15.3,24.794,11.671,45.472c-3.535,20.387-14.189,42.809-29.976,63.245h0c-15.787,20.387-34.867,36.319-53.7,44.842C74.111,178.349,65.152,180.528,57.162,180.528ZM135.273,16.9c-7.554,0-16.126,2.082-25.327,6.247-18.4,8.329-37.094,23.971-52.591,44.019C25.539,108.276,17.113,155.2,38.566,171.811s64.746-3.341,96.562-44.407h0c15.5-20.048,25.956-42.034,29.394-61.937,3.39-19.612-.338-34.77-10.6-42.663C148.881,18.833,142.585,16.9,135.273,16.9Z" style="fill:#1a1a1a"/><path d="M62.1,166.484a21.713,21.713,0,0,1-13.511-4.213c-8.184-6.344-10.605-19.031-6.828-35.641,3.729-16.272,12.978-34.48,26-51.381,13.075-16.852,28.426-30.411,43.2-38.063,15.158-7.845,27.99-8.668,36.223-2.324s10.6,19.031,6.828,35.642c-3.729,16.271-12.978,34.479-26.005,51.38-13.075,16.852-28.426,30.411-43.2,38.063C76.387,164.257,68.687,166.484,62.1,166.484ZM133.675,33.506c-6.1,0-13.366,2.082-21.356,6.247-14.431,7.506-29.443,20.726-42.228,37.24s-21.84,34.382-25.472,50.218c-3.535,15.448-1.5,27.07,5.763,32.687s19.031,4.7,33.075-2.615c14.431-7.506,29.443-20.726,42.228-37.24h0c12.784-16.561,21.84-34.382,25.472-50.217,3.535-15.448,1.5-27.071-5.763-32.688A18.588,18.588,0,0,0,133.675,33.506Z" style="fill:#1a1a1a"/><path d="M146.314,35.976a5.937,5.937,0,0,0-.678-.485c9.2,15.836-.339,49.153-24.019,79.71-26.344,34.044-60.388,52.01-76.707,40.629a18.409,18.409,0,0,0,4.552,5.279c15.981,12.4,50.654-5.569,77.385-40.145S162.295,48.373,146.314,35.976Z" style="fill:#1a1a1a"/><path d="M40.6,176.363a1.359,1.359,0,0,1-.726-.194L8.493,158.688a1.144,1.144,0,0,1-.435-.388C-7.875,137.429.406,94.039,27.719,55.1,40.551,36.8,56.532,21.3,72.61,11.521,88.639,1.738,104.135-1.99,116.242,1.012a.683.683,0,0,1,.29.1L148.2,15.976a1.451,1.451,0,0,1-1.259,2.615L115.418,3.772C91.593-2.039,55.757,20.237,30.14,56.751,17.162,75.2,8.106,95.54,4.619,113.99c-3.39,17.87-1.4,32.882,5.618,42.276L41.375,173.6a1.486,1.486,0,0,1,.581,1.985A1.667,1.667,0,0,1,40.6,176.363Z" style="fill:#1a1a1a"/><path d="M129.317,17.186a1.491,1.491,0,0,1-.63-.145l-13.123-6.247L100.6,3.772a1.451,1.451,0,1,1,1.259-2.615l14.964,7.022,13.123,6.247a1.451,1.451,0,0,1,.678,1.937A1.515,1.515,0,0,1,129.317,17.186Z" style="fill:#1a1a1a"/><path d="M111.4,22.513a1.491,1.491,0,0,1-.63-.145l-13.026-6.1L82.779,9.245a1.452,1.452,0,0,1,1.259-2.616L99,13.651l13.027,6.1a1.451,1.451,0,0,1,.677,1.937A1.514,1.514,0,0,1,111.4,22.513Z" style="fill:#1a1a1a"/><path d="M97.259,29.729a1.492,1.492,0,0,1-.63-.146L69.123,16.654a1.451,1.451,0,1,1,1.259-2.615L97.888,26.968a1.452,1.452,0,0,1,.678,1.938A1.428,1.428,0,0,1,97.259,29.729Z" style="fill:#1a1a1a"/><path d="M86.508,37.09a1.492,1.492,0,0,1-.63-.146L58.711,24.353a1.463,1.463,0,1,1,1.211-2.663L87.089,34.281a1.473,1.473,0,0,1-.581,2.809Z" style="fill:#1a1a1a"/><path d="M74.692,46.533a1.676,1.676,0,0,1-.63-.146L46.992,33.893A1.463,1.463,0,0,1,48.2,31.23l27.07,12.494a1.473,1.473,0,0,1-.581,2.809Z" style="fill:#1a1a1a"/><path d="M65.249,55.249a1.491,1.491,0,0,1-.63-.145L39.728,43.385a1.451,1.451,0,0,1,1.259-2.615L65.878,52.489a1.451,1.451,0,0,1,.678,1.937A1.377,1.377,0,0,1,65.249,55.249Z" style="fill:#1a1a1a"/><path d="M56.1,65.661a1.486,1.486,0,0,1-.629-.145L31.108,54.135a1.463,1.463,0,0,1,1.211-2.663l24.358,11.38a1.473,1.473,0,0,1-.581,2.809Z" style="fill:#1a1a1a"/><path d="M49.268,75.637a1.488,1.488,0,0,1-.629-.146L24.329,64.063a1.451,1.451,0,1,1,1.259-2.615L49.9,72.876a1.451,1.451,0,0,1,.678,1.937A1.515,1.515,0,0,1,49.268,75.637Z" style="fill:#1a1a1a"/><path d="M43.506,85.855a1.492,1.492,0,0,1-.63-.146L17.985,74.087A1.463,1.463,0,0,1,19.2,71.424L44.087,83.046a1.473,1.473,0,0,1-.581,2.809Z" style="fill:#1a1a1a"/><path d="M37.549,96.847a1.483,1.483,0,0,1-.629-.145L12.561,85.08a1.451,1.451,0,1,1,1.259-2.615L38.179,94.087a1.451,1.451,0,0,1,.678,1.937A1.38,1.38,0,0,1,37.549,96.847Z" style="fill:#1a1a1a"/><path d="M32.852,107.743a1.491,1.491,0,0,1-.63-.145L7.864,95.976a1.451,1.451,0,1,1,1.259-2.615l24.358,11.622a1.451,1.451,0,0,1,.678,1.937A1.426,1.426,0,0,1,32.852,107.743Z" style="fill:#1a1a1a"/><path d="M29.075,118.494a1.491,1.491,0,0,1-.63-.145L4.522,106.968a1.451,1.451,0,1,1,1.26-2.615L29.7,115.734a1.451,1.451,0,0,1,.678,1.937A1.379,1.379,0,0,1,29.075,118.494Z" style="fill:#1a1a1a"/><path d="M26.363,130.116a1.491,1.491,0,0,1-.63-.145L1.811,118.591a1.451,1.451,0,0,1,1.259-2.615l23.922,11.38a1.451,1.451,0,0,1,.678,1.937A1.377,1.377,0,0,1,26.363,130.116Z" style="fill:#1a1a1a"/><path d="M25.249,142.077a1.491,1.491,0,0,1-.63-.145L1.181,130.843a1.451,1.451,0,1,1,1.259-2.615l23.438,11.089a1.451,1.451,0,0,1,.678,1.937A1.425,1.425,0,0,1,25.249,142.077Z" style="fill:#1a1a1a"/><path d="M25.685,152.15a1.491,1.491,0,0,1-.63-.145L1.617,140.383a1.452,1.452,0,0,1,1.259-2.616L26.314,149.39a1.45,1.45,0,0,1,.678,1.937A1.428,1.428,0,0,1,25.685,152.15Z" style="fill:#1a1a1a"/><path d="M28.639,162.9a1.708,1.708,0,0,1-.678-.146L4.377,150.794a1.44,1.44,0,1,1,1.308-2.566l23.583,11.961a1.406,1.406,0,0,1,.63,1.937A1.346,1.346,0,0,1,28.639,162.9Z" style="fill:#1a1a1a"/></g></g>
</g>
</g>

<!-- ITEM 2 -->
<g transform="translate(859.0 733.0) scale(1.2503665344376393 1.2556157124755212) rotate(0.0 180.747 86.81)">
<g transform="translate(-0.0 -0.0)">
<title>coins</title><g id="Layer_2-i2" data-name="Layer 2"><g id="coins-i2"><path d="M346.675,117.2v32.252s-.678,4.019-52.494,6.295-78.353.436-78.353.436l-45.569-2.469s-25.036-.824-26.731-4.213.581-30.9.581-30.9l53.075-.194H299.169Z" style="fill:#fece2f"/><path d="M274.569,118.317c-2.664.823-4.988,2.034-3.245,4.358s9.2,2.034,11.865,2.519c9.249,1.84,18.5,5.23,24.842,12.542,3.729,4.31,6.3,9.83,11.138,12.784a23.406,23.406,0,0,0,9.25,2.809c17.966-1.985,18.305-3.922,18.305-3.922V117.155l-47.506,1.114H274.569Z" style="fill:#fff"/><path d="M338.927,113.135c-5.181-.823-12.542-1.549-21.888-2.179-19.226-1.307-44.746-1.985-71.913-1.985s-52.688.726-71.913,1.985c-9.395.63-16.756,1.356-21.889,2.179-6.779,1.066-9.2,2.131-9.2,4.068v32.252c0,1.937,2.422,3,9.2,4.068,5.182.823,12.543,1.549,21.889,2.179,19.225,1.308,44.746,1.985,71.913,1.985s52.687-.726,71.913-1.985c9.394-.63,16.755-1.356,21.888-2.179,6.78-1.065,9.2-2.131,9.2-4.068V117.2C348.128,115.266,345.707,114.2,338.927,113.135ZM190.549,124.419v29.346c-4.5-.194-8.668-.436-12.542-.63v-29.3C181.978,124.031,186.191,124.225,190.549,124.419Zm2.906.1c4.068.145,8.232.29,12.542.435V154.3c-4.406-.146-8.571-.291-12.542-.436Zm15.5.532c4.068.1,8.281.194,12.543.242v29.347c-4.359-.049-8.523-.146-12.543-.243Zm15.448.291c4.117.048,8.33.1,12.543.1v29.346c-4.31,0-8.523-.048-12.543-.1Zm43.487-.049v29.347l-12.542.145V125.436C259.605,125.387,263.77,125.387,267.886,125.29Zm2.906-.048c4.261-.1,8.474-.145,12.542-.291V154.3c-4.019.1-8.184.193-12.542.29Zm15.5-.339c4.31-.145,8.523-.291,12.542-.436v29.007a.61.61,0,0,0,.049.291c-3.971.145-8.184.339-12.591.436Zm15.448,28.571V124.322c4.407-.194,8.62-.436,12.542-.678v29.3c-3.874.242-8.038.484-12.591.678A.178.178,0,0,0,301.736,153.474Zm15.448-30.024c4.7-.339,8.91-.678,12.542-1.017v29.3c-3.583.339-7.8.727-12.542,1.017Zm-172.2-3.535c.727.242,1.647.484,2.712.726v29.3a9.341,9.341,0,0,1-2.712-.92Zm5.618,30.557v-29.3a3.233,3.233,0,0,0,.678.1c2.324.387,5.133.726,8.378,1.065v29.3C155.973,151.247,152.922,150.859,150.6,150.472Zm11.961,1.453v-29.3c3.2.29,6.731.581,10.6.823.63.049,1.26.1,1.938.145v29.3C170.4,152.6,166.191,152.264,162.559,151.925Zm77.337,2.857V125.436h12.542v29.346H239.9Zm92.784-3.341v-29.3c2.373-.242,4.455-.533,6.247-.824.581-.1,1.162-.193,1.695-.29v29.3C338.588,150.666,335.925,151.053,332.68,151.441Z" style="fill:#1a1a1a"/><path d="M360.041,79.576v32.252s-.678,4.019-52.494,6.3-78.353.436-78.353.436l-45.569-2.47s-25.037-.823-26.732-4.213.581-30.9.581-30.9l53.075-.194H312.583Z" style="fill:#fece2f"/><path d="M360.041,111.828V79.576L312.535,80.69H288.467a2.62,2.62,0,0,0-.629,3.584c2.082,3.2,8.571,2.711,11.719,3.486a21.03,21.03,0,0,1,10.9,6.15c3.874,4.359,5.23,10.46,8.716,15.158a24.9,24.9,0,0,0,10.073,7.748C359.557,114.637,360.041,111.828,360.041,111.828Z" style="fill:#fff"/><path d="M352.293,75.508c-5.182-.823-12.543-1.549-21.889-2.179-19.225-1.307-44.746-1.985-71.913-1.985s-52.687.726-71.912,1.985c-9.4.63-16.756,1.356-21.889,2.179-6.78,1.066-9.2,2.131-9.2,4.068v32.252c0,1.937,2.421,3,9.2,4.068,5.182.823,12.542,1.549,21.889,2.179,19.225,1.307,44.745,1.985,71.912,1.985s52.688-.726,71.913-1.985c9.395-.63,16.756-1.356,21.889-2.179,6.779-1.066,9.2-2.131,9.2-4.068V79.576C361.494,77.639,359.072,76.574,352.293,75.508ZM203.963,86.792v29.3c-4.5-.193-8.668-.435-12.542-.629v-29.3C195.344,86.4,199.557,86.6,203.963,86.792Zm2.906.145c4.068.145,8.233.29,12.542.436v29.346c-4.406-.145-8.571-.291-12.542-.436Zm15.448.484c4.068.1,8.281.194,12.542.242V117.01c-4.358-.049-8.523-.146-12.542-.243Zm15.448.291c4.116.048,8.329.1,12.542.1v29.346c-4.31,0-8.523-.049-12.542-.1Zm43.487,0v29.346c-4.068.048-8.233.1-12.543.145V87.857C272.971,87.809,277.135,87.76,281.252,87.712Zm2.9-.049c4.262-.1,8.475-.145,12.543-.29v29.346c-4.02.1-8.184.194-12.543.291Zm15.5-.387c4.309-.145,8.523-.291,12.542-.436v29.007a.621.621,0,0,0,.048.291c-3.971.145-8.184.339-12.59.436v-29.3ZM315.1,115.847V86.7c4.407-.194,8.62-.436,12.543-.678v29.3c-3.874.242-8.039.484-12.591.678C315.1,115.993,315.1,115.9,315.1,115.847Zm15.448-29.975c4.7-.339,8.911-.678,12.543-1.017v29.3c-3.584.339-7.8.727-12.543,1.017Zm-172.2-3.584c.726.242,1.647.484,2.712.726v29.3a9.329,9.329,0,0,1-2.712-.92Zm5.617,30.557v-29.3a3.309,3.309,0,0,0,.678.1c2.325.387,5.134.726,8.378,1.065v29.3C169.339,113.668,166.336,113.281,163.963,112.845Zm11.962,1.5v-29.3c3.2.291,6.731.581,10.6.823.63.049,1.259.1,1.937.146v29.3C183.77,114.976,179.557,114.685,175.925,114.346Zm77.336,2.857V87.857H265.8V117.2H253.261Zm92.785-3.39v-29.3c2.373-.243,4.455-.533,6.247-.824.581-.1,1.162-.193,1.695-.29v29.3C351.954,113.087,349.29,113.426,346.046,113.813Z" style="fill:#1a1a1a"/><path d="M337.91,47.809V80.06s-.678,4.02-52.494,6.3-78.353.436-78.353.436l-45.569-2.47s-25.037-.823-26.731-4.213.581-30.9.581-30.9l53.075-.194H290.4Z" style="fill:#fece2f"/><path d="M183.528,163.983c-32.64,11.671-100.485,11.283-134.673,6.489-5.957-.823-12.446-2.228-16.03-7.022-2.324-3.051-3-7.022-3.292-10.847-1.841-25.569,12.542-49.3,28.184-69.637,11.089-14.48,23.2-28.329,37.53-39.613,6.247-4.891,13.075-9.394,20.823-11.186,10.17-2.325,20.726.242,30.847,2.76,3.584.92,7.313,1.84,10.267,4.116,7.07,5.424,10.024,9.4,18.838,12.3,5.327,1.743,8.426-.194,10.992,4.939,5.134,10.557,10.46,19.855,10.7,64.019V155.75C197.717,155.9,193.7,160.351,183.528,163.983Z" style="fill:#1a1a1a"/><path d="M211.76,48.922c4.7,8.911,19.613,17.288,33.9,18.112,25.327,1.453,52.3-2.857,74.867,8.716,3.729,1.938,7.313,4.262,11.38,5.424.678.194,1.405.339,2.083.484,3.777-.968,3.922-1.646,3.922-1.646V47.76L290.4,48.874H211.76Z" style="fill:#fff"/><ellipse cx="236.312" cy="47.809" rx="101.598" ry="6.828" style="fill:#fff"/><path d="M144.4,44.9c16.272,2.324,51.284,3.922,91.913,3.922s75.642-1.6,91.913-3.922c-16.271-2.325-51.283-3.923-91.913-3.923S160.671,42.579,144.4,44.9Z" style="fill:#fece2f"/><path d="M192.825,124.031h0a395.97,395.97,0,0,1-40.581-3.583,1.445,1.445,0,0,1,.436-2.857,397.477,397.477,0,0,0,40.194,3.535,1.426,1.426,0,0,1,1.4,1.5A1.446,1.446,0,0,1,192.825,124.031Z" style="fill:#fece2f"/><path d="M190.888,156.961h0c-1.259,0-30.121-.387-48.135-5.23a1.457,1.457,0,0,1,.775-2.809c17.675,4.746,47.118,5.134,47.409,5.134a1.457,1.457,0,0,1,1.453,1.452A1.532,1.532,0,0,1,190.888,156.961Z" style="fill:#fece2f"/><path d="M176.651,155.7h0a1.457,1.457,0,0,1-1.453-1.453l.146-24.358a1.489,1.489,0,0,1,1.452-1.453h0a1.457,1.457,0,0,1,1.453,1.453l-.145,24.358A1.457,1.457,0,0,1,176.651,155.7Z" style="fill:#fece2f"/><path d="M161.155,154.734h0a1.457,1.457,0,0,1-1.453-1.453l.145-24.359a1.453,1.453,0,0,1,2.906,0l-.145,24.359A1.457,1.457,0,0,1,161.155,154.734Z" style="fill:#fece2f"/><path d="M191.857,147.76h0a1.457,1.457,0,0,1-1.453-1.453l.145-14.189a1.453,1.453,0,0,1,2.906,0l-.145,14.189A1.457,1.457,0,0,1,191.857,147.76Z" style="fill:#fece2f"/><path d="M330.162,43.692c-5.182-.823-12.542-1.549-21.889-2.179-19.225-1.307-44.745-1.985-71.912-1.985s-52.688.726-71.913,1.985c-9.4.63-16.756,1.356-21.889,2.179-6.779,1.066-9.2,2.131-9.2,4.068V80.012c0,1.937,2.422,3,9.2,4.068,5.182.823,12.543,1.549,21.889,2.179,19.225,1.307,44.746,1.985,71.913,1.985s52.687-.726,71.912-1.985c9.395-.63,16.756-1.356,21.889-2.179,6.78-1.066,9.2-2.131,9.2-4.068V47.76C339.363,45.872,336.942,44.758,330.162,43.692Zm-93.85-1.259c56.756,0,92.107,2.954,99.177,5.376-7.07,2.421-42.421,5.375-99.177,5.375s-92.106-2.954-99.177-5.375C144.206,45.387,179.557,42.433,236.312,42.433ZM259.121,55.9V85.242c-4.068.048-8.233.1-12.543.145V56.041Zm2.905-.049c4.262-.1,8.475-.145,12.543-.29V84.9c-4.02.1-8.184.194-12.543.291Zm15.448-.387c4.31-.145,8.523-.291,12.543-.436V84.031a.621.621,0,0,0,.048.291c-3.971.145-8.184.339-12.591.436Zm15.5,28.571V54.879c4.407-.194,8.62-.436,12.542-.678V83.5c-3.874.242-8.039.484-12.591.678A.213.213,0,0,0,292.971,84.031Zm15.448-29.975c4.7-.339,8.91-.678,12.542-1.017v29.3c-3.583.339-7.8.727-12.542,1.017Zm-126.635.968V84.37c-4.5-.193-8.668-.436-12.542-.629v-29.3C173.213,54.588,177.426,54.83,181.784,55.024Zm2.906.1c4.068.145,8.232.29,12.542.436V84.9c-4.406-.145-8.571-.291-12.542-.436Zm15.5.484c4.068.1,8.281.194,12.543.242V85.194c-4.359-.049-8.523-.146-12.543-.243Zm15.448.339c4.116.049,8.329.1,12.543.1V85.387c-4.31,0-8.523-.048-12.543-.1Zm-79.419-5.472c.727.242,1.647.484,2.712.726V80.5a9.341,9.341,0,0,1-2.712-.92Zm5.618,30.6V51.78a3.3,3.3,0,0,0,.678.1c2.324.388,5.133.727,8.377,1.066v29.3C147.208,81.852,144.157,81.465,141.833,81.077Zm11.961,1.453v-29.3c3.2.291,6.731.581,10.6.824.63.048,1.259.1,1.937.145V83.5C161.639,83.208,157.426,82.869,153.794,82.53Zm77.288,2.857V56.041h12.542V85.387H231.082ZM323.867,82V52.7c2.373-.242,4.455-.533,6.247-.824.581-.1,1.162-.193,1.7-.29v29.3C329.775,81.271,327.16,81.658,323.867,82Z" style="fill:#1a1a1a"/><path d="M174.424,115.8h0a1.468,1.468,0,0,1-1.453-1.5l.145-5.473a1.454,1.454,0,0,1,2.906.1l-.146,5.473A1.446,1.446,0,0,1,174.424,115.8Z" style="fill:#fece2f"/><path d="M179.847,41.9c-2.566-3.632-3.68-8.911-6.925-11.913a29.951,29.951,0,0,0-5.181-14.141C151.227-7.639,101.833-1.344,57.474,29.891S-9.5,105.484,7.063,128.971a29.658,29.658,0,0,0,1.888,2.421,76.19,76.19,0,0,0,10.218,23.632c16.514,23.487,65.908,17.191,110.267-14.043S196.361,65.387,179.847,41.9Z" style="fill:#fece2f"/><path d="M148.709,86.792,117.523,3.256c-16.8,3.1-35.642,10.7-53.9,22.519l36.9,99.709a191.767,191.767,0,0,0,16.8-10.508A178.623,178.623,0,0,0,148.709,86.792Z" style="fill:#fff"/><path d="M45.077,143.063a106.754,106.754,0,0,0,24.407-4.407L37.329,46.307a153.165,153.165,0,0,0-20.145,23.1Z" style="fill:#fff"/><path d="M42.462,128.1a67.169,67.169,0,0,0,12.3-1.211c16.852-3.05,35.98-11.67,53.9-24.309,17.918-12.591,32.494-27.7,41.065-42.519,8.765-15.157,10.218-28.28,4.068-37s-18.983-11.768-36.223-8.62c-16.852,3.051-35.98,11.671-53.9,24.31-17.918,12.591-32.494,27.7-41.065,42.518-8.766,15.157-10.218,28.281-4.068,37C23.092,124.709,31.373,128.1,42.462,128.1Zm104.7-69.491c-8.33,14.479-22.615,29.249-40.194,41.6S70.695,121.029,54.23,124.031c-13.9,2.518-24.649.872-30.8-4.649-7.167-17.966,12.542-49.733,46.731-73.8,30.46-21.453,62.809-30.024,79.758-22.567q.8.872,1.453,1.744C156.8,32.457,155.295,44.467,147.16,58.608Z"/><path d="M187.16,56.332a.7.7,0,0,0-.1-.291L173.31,22.869a1.989,1.989,0,0,0-.485-.629,30.244,30.244,0,0,0-3.777-7.361C160.671,3.014,144.3-2.022,122.85.738,101.784,3.45,78.2,13.329,56.554,28.583h0C34.859,43.838,17.62,62.675,7.983,81.61c-9.1,17.869-10.412,33.85-3.971,45.569l16.174,32.4a2.129,2.129,0,0,0,.388.533c7.8,6.537,19.031,9.685,32.2,9.685,3,0,6.15-.194,9.346-.484.1,0,.194.048.339.048a1.491,1.491,0,0,0,.63-.145h.048c19.758-2.228,42.615-10.557,64.407-24.455,19.419-12.349,36.029-27.991,46.828-44.02C185.126,84.661,189.678,68.922,187.16,56.332ZM184.5,66.6,179.847,55.46,174.133,41.9a44.46,44.46,0,0,0,.63-6.974L184.012,57.2A35.284,35.284,0,0,1,184.5,66.6Zm-5.714,19.855-5.375-12.979L168.08,60.593a78.919,78.919,0,0,0,4.891-13.172l3.922,9.3,6.489,15.69a.788.788,0,0,0,.194.339A64.455,64.455,0,0,1,178.782,86.453ZM10.84,83.111c9.4-18.5,26.3-36.9,47.554-51.864C84.4,12.942,112.2,3.256,133.746,3.256c14.527,0,26.247,4.407,32.687,13.56,7.555,10.7,6.538,26.005-1.21,42.421a1.547,1.547,0,0,0-.533,1.162c-8.814,18.063-25.714,37.337-48.281,53.221C72.825,144.322,24.4,150.763,8.37,128.051q-.8-1.162-1.453-2.325l-.29-.581a1.008,1.008,0,0,0-.194-.29C.961,114.2,2.462,99.528,10.84,83.111Zm151.525,27.8L151.954,85.436c2.082-2.47,4.019-5.037,5.859-7.555l10.606,25.569C166.53,105.968,164.5,108.438,162.365,110.908Zm-21.065,20-10.169-24.649c2.711-2.325,5.375-4.649,7.893-7.07l10.121,25.036Q145.44,127.639,141.3,130.908Zm-10.46,7.748-9.927-24.116c0-.049-.049-.1-.1-.145,2.663-1.938,5.23-3.923,7.748-5.957l10.121,24.5v.048Q134.908,135.9,130.84,138.656ZM109.775,151.1l-9.686-23.536c2.567-1.4,5.134-2.857,7.7-4.406l9.928,23.777C115.053,148.341,112.39,149.746,109.775,151.1ZM98.3,156.332l-9.734-23.051c2.906-1.308,5.763-2.712,8.62-4.165l9.685,23.438C104.012,153.862,101.155,155.169,98.3,156.332Zm-11.477,4.213-9.589-22.712c2.761-.969,5.569-2.083,8.378-3.293l9.685,23C92.486,158.656,89.629,159.673,86.821,160.545Zm-11.332,3.2-9.4-22.422c2.664-.678,5.376-1.5,8.087-2.421l9.54,22.664C80.961,162.336,78.2,163.111,75.489,163.741ZM41.3,165.581l-9.443-21.356a57.579,57.579,0,0,0,6.586.533L47.5,166.307A61.992,61.992,0,0,1,41.3,165.581Zm-10.363-3L21.494,141.61A45.309,45.309,0,0,0,28.08,143.5l9.346,21.21A37.753,37.753,0,0,1,30.937,162.579ZM12.39,136.767a37.452,37.452,0,0,0,4.649,2.906l9.3,20.533a28.63,28.63,0,0,1-3.389-2.422ZM51.082,166.5l-9.1-21.695c2.857-.048,5.763-.242,8.814-.581l9.249,21.986C56.942,166.453,53.939,166.55,51.082,166.5Zm12.349-.678-9.25-22.082c2.906-.436,5.812-1.017,8.766-1.7l9.394,22.324c-2.131.436-4.261.824-6.392,1.114C65.077,165.629,64.254,165.726,63.431,165.823ZM125.755,142c-1.743,1.114-3.535,2.18-5.278,3.245l-9.928-23.874c2.567-1.647,5.134-3.342,7.652-5.085l9.976,24.165C127.353,140.98,126.53,141.513,125.755,142Zm26-20.1L141.591,96.767c2.808-2.808,5.52-5.665,8.038-8.523l10.364,25.376C157.426,116.428,154.666,119.189,151.76,121.9Zm18.886-21.5L159.993,74.782a116.4,116.4,0,0,0,6.2-10.315l4.262,10.266,6.44,15.545C175.053,93.62,172.971,97.01,170.646,100.4Z" style="fill:#1a1a1a"/></g></g>
</g>
</g>

              </svg>