<?xml version="1.0" encoding="UTF-8"?><svg version="1.1" xmlns="http://www.w3.org/2000/svg" xmlns:xlink="http://www.w3.org/1999/xlink" viewBox="0 0 1600 1200" width="1600" height="1200" x="0px" y="0px">
              
              <!-- ITEM 0 -->
<g transform="translate(595.0 319.0) scale(2.126009693053312 2.1254125412541254) rotate(0.0 154.75 151.5)">
<g transform="translate(-0.0 -0.0)">
<title>pc_display_front</title><g id="fe0ed4a3-7c31-4897-8043-f7b0162255f4-i0" data-name="Layer 2"><g id="e15ce87c-93ea-4455-a7eb-2988c101eeef-i0" data-name="pc_display_front"><rect x="121.5" y="171.5" width="85" height="130" fill="#ffce31"/><path d="M208,303H120V170h88Zm-85-3h82V173H123Z" fill="#1a1a1a"/><path d="M121.5,239.326s52.67-3.166,85,26.834c.659-22,.163-49.334.163-49.334H121.5Z" fill="#1a1a1a"/><rect x="25.5" y="1.5" width="282.5" height="224.5" rx="20" fill="#ffce31"/><path d="M288,227.5H45.5A21.525,21.525,0,0,1,24,206V21.5A21.525,21.525,0,0,1,45.5,0H288a21.525,21.525,0,0,1,21.5,21.5V206A21.525,21.525,0,0,1,288,227.5ZM45.5,3A18.521,18.521,0,0,0,27,21.5V206a18.521,18.521,0,0,0,18.5,18.5H288A18.521,18.521,0,0,0,306.5,206V21.5A18.521,18.521,0,0,0,288,3Z" fill="#1a1a1a"/><rect x="1.5" y="1.5" width="282.5" height="224.5" rx="20" fill="#ffce31"/><path d="M264,227.5H21.5A21.525,21.525,0,0,1,0,206V21.5A21.525,21.525,0,0,1,21.5,0H264a21.525,21.525,0,0,1,21.5,21.5V206A21.525,21.525,0,0,1,264,227.5ZM21.5,3A18.521,18.521,0,0,0,3,21.5V206a18.521,18.521,0,0,0,18.5,18.5H264A18.521,18.521,0,0,0,282.5,206V21.5A18.521,18.521,0,0,0,264,3Z" fill="#1a1a1a"/><rect x="53.5" y="-4.5" width="178.5" height="236.5" rx="10.5" transform="translate(256.5 -29) rotate(90)" fill="#1a1a1a"/><rect x="77.5" y="289.5" width="164" height="12" rx="6" fill="#ffce31"/><path d="M235.5,303H83.5a7.5,7.5,0,0,1,0-15h152a7.5,7.5,0,0,1,0,15Zm-152-12a4.5,4.5,0,0,0,0,9h152a4.5,4.5,0,0,0,0-9Z" fill="#1a1a1a"/></g></g>
</g>
</g>

<!-- ITEM 1 -->
<g transform="translate(1055.0 182.0) scale(-1.017502422898869 1.017731593427211) rotate(-332.75825848264276 217.1985 273.1565)">
<g transform="translate(-0.0 -0.0)">
<title>man_1</title><g id="Layer_2-i1" data-name="Layer 2"><g id="man_1-i1"><path d="M15.423,493.25s15.91,49.365,17.63,47.6c1.72-1.806-.645-20.941-.645-20.941S48.318,547,50.253,544.85s-6.45-24.3-4.515-25.37,16.77,27.435,20,24.811c3.225-2.666-10.535-28.9-10.535-28.9S72.613,534.1,74.548,531.3s-10.621-22.919-10.621-22.919,12.771,7.224,16.211.559l-25.8-17.415-7.525-9.03S33.268,496.475,15.423,493.25Z" style="fill:#fece2f"/><path d="M123.955,14.786S133.286.037,135.049,1.456c1.806,1.419-1.634,18.4-1.634,18.4S131.437,17.538,123.955,14.786Z" style="fill:#fece2f"/><path d="M183.984,139.358S174.523,172.9,147,176.553s-38.915-6.88-44.29-19.35l13.33-6.665-7.525-49.45L94.328,87.973S62.938,77.868,63.8,75.933s2.365-27.951,2.365-27.951l7.74-18.49s24.725-16.34,41.28-15.48a34.549,34.549,0,0,1,29.885,20.21c3.87,8.385,7.955,18.49,6.45,33.756s-6.45,17.845-6.45,17.845l15.695,53.105S179.039,138.283,183.984,139.358Z" style="fill:#fece2f"/><path d="M224.361,49.96s-16.985-8.471-24.854-12.212-19.651-7.74-19.78-6.02,16.039,11.18,15.781,12.341c-.3,1.161-.086,2.193-1.892,1.72-1.806-.43-17.588-5.332-22.877-5.891s-6.579,1.419-4.859,3.44,6.321,4.3,6.321,4.3-13.416-3.1-13.588-.387c-.172,2.666,6.708,7.138,10.277,8.687s13.331,6.45,13.331,6.45-11.052-1.591-11.482-1.72-11.094-1.419-10.836.645,12,6.536,13.287,6.794c1.29.3,12.342,3.569,12.342,3.569s-11.31,1.849-12.9,2.881c-1.591.989-4.988,4.386-3.44,8.041l32.6-3.784,8.858,1.29Z" style="fill:#fece2f"/><path d="M433.987,299.706c-4.085-11.954-36.335-9.546-62.651-5.418-36.594,5.719-83.593,18.1-132.312,34.873s-93.354,35.9-125.733,53.923c-42.183,23.478-48.332,36.292-46.053,42.871,2.236,6.579,12.986,8.815,26.574,8.815,11.137,0,24.209-1.5,36.077-3.4,36.593-5.719,83.593-18.1,132.312-34.873s93.354-35.906,125.733-53.923C430.117,319.1,436.266,306.285,433.987,299.706Z" style="fill:#1a1a1a"/><path d="M378.13,149.205c-11.481-18.06-17.2-30.659-64.8-55.6S224.361,49.96,224.361,49.96L210.6,80.147a586.1,586.1,0,0,1,54.137,26.144c28.079,15.48,44.161,35.561,39.259,48.461-4.859,12.9-35.819,16.039-56.459,5.461-20.683-10.664-49.364-19.823-63.554-20.855,0,0-5.16,29.369-34.96,36.249s-39.431-7.009-46.311-18.4c0,0-36.12,23.306-62.221,66.866S2.952,311.488,1.791,367.99C.63,424.45,14.133,485.811,15.423,493.25a43.373,43.373,0,0,0,31.089-11.481s-7.74-50.74,4.6-81.4,22.059-40.98,35.819-51.6l4-3.311s12.04,56.245,17.415,86.044c6.364-.559,13.459-1.419,21.113-2.58,36.464-5.719,83.292-18.06,131.882-34.787,8.084-2.752,16.125-5.633,24.037-8.6,2.193-8.17,2.279-51.773.473-72.929l-2.8-20.6s23.435-2.623,50.654-16.383,44.162-34.4,50.741-55.6S389.611,167.265,378.13,149.205Z" style="fill:#fff"/><ellipse cx="112.579" cy="39.89" rx="14.748" ry="6.45" transform="translate(24.556 120.619) rotate(-62.036)" style="fill:#fff"/><path d="M120.128,25.708c-3.913-2.064-10.062,2.451-14.362,10.535a29.107,29.107,0,0,0-3.354,10.621c-.3,3.569.645,6.107,2.666,7.182a4.322,4.322,0,0,0,2.064.516c3.784,0,8.729-4.258,12.3-11.052C123.74,35.426,124.041,27.772,120.128,25.708Zm-13.8,26.1c-1.032-.559-1.505-2.323-1.333-4.731a25.62,25.62,0,0,1,3.1-9.589q.516-.968,1.032-1.806c-.258,2.967.387,5.246,2.021,6.063,1.978,1.032,4.9-.3,7.783-3.225a32.9,32.9,0,0,1-1.72,3.827C113.592,49.143,108.475,52.971,106.325,51.81Z" style="fill:#1a1a1a"/><path d="M191.509,69.913a1.528,1.528,0,0,1-.43-.086,1.259,1.259,0,0,1-.774-1.634l7.955-22.361a1.278,1.278,0,1,1,2.408.86l-7.955,22.361A1.2,1.2,0,0,1,191.509,69.913Z" style="fill:#1a1a1a"/><ellipse cx="136.569" cy="55.305" rx="13.114" ry="6.665" transform="translate(73.986 188.695) rotate(-86.911)" style="fill:#1a1a1a"/><path d="M136.124,69.7h-.258c-2.279-.129-4.3-1.849-5.59-4.859a22.087,22.087,0,0,1-1.548-9.976c.43-8.085,4.3-14.191,8.729-13.976,2.279.129,4.3,1.849,5.59,4.859a22.089,22.089,0,0,1,1.548,9.977h0a22.2,22.2,0,0,1-2.623,9.718C140.381,68.193,138.317,69.7,136.124,69.7Zm1.032-26.188c-2.537,0-5.5,4.644-5.891,11.525a19.866,19.866,0,0,0,1.333,8.772c.9,2.064,2.15,3.268,3.4,3.311h.129c1.2,0,2.537-1.075,3.612-2.924a19.635,19.635,0,0,0,2.279-8.6h0a19.87,19.87,0,0,0-1.333-8.773c-.9-2.064-2.15-3.268-3.4-3.311Z" style="fill:#1a1a1a"/><path d="M168.073,405.96a1.479,1.479,0,0,1-.9-.344,1.285,1.285,0,0,1-.043-1.806c38.744-40.335,58.7-70.392,68.629-88.452,12.513-22.833,13.287-34.271,11.7-36.249a1.753,1.753,0,0,0-1.419-.688h-.043c-6.364,0-22.1,18.275-33.583,31.648-13.889,16.168-18.619,21.242-21.328,19.522-1.806-1.161-2.494-3.956,7.611-26.875,16.813-38.012,21.5-66.22,22.446-83.205,1.032-18.276-1.849-27.607-1.892-27.693A1.292,1.292,0,1,1,221.7,191c.129.387,3.053,9.89,1.978,28.638-.989,17.158-5.719,45.71-22.7,84.066-7.568,17.114-8.6,22.059-8.514,23.478,2.666-1.161,11.051-10.922,17.888-18.834C223.458,293.084,238.336,275.8,245.9,275.8h.086a4.457,4.457,0,0,1,3.4,1.634c3.526,4.429-1.075,20.124-11.481,39.13-9.976,18.232-30.057,48.461-69.016,89.011A.9.9,0,0,1,168.073,405.96Z" style="fill:#fece2f"/><path d="M71.366,320.26a4.369,4.369,0,0,1-2.709-.9c-1.333-.9-2.408-3.053,1.72-16.9,2.236-7.525,5.805-17.716,10.578-30.272,8.084-21.371,17.028-42.484,17.114-42.7a1.282,1.282,0,0,1,2.365.989c-.086.215-8.686,20.554-16.641,41.452-4.687,12.255-8.213,22.317-10.535,29.842-3.87,12.6-3.311,15.05-3.1,15.48,3.569,2.279,10.578-7.654,16.77-16.426,7.611-10.75,15.48-21.887,22.446-20.425a1.273,1.273,0,1,1-.516,2.494c-5.332-1.118-13.029,9.8-19.823,19.393C82.374,311.832,76.44,320.26,71.366,320.26Z" style="fill:#fece2f"/><path d="M15.38,421.139c-2.065,0-3.054-2.8-3.785-5.547-1.935-7.4-.774-23.349,3.441-47.387,3.1-17.8,6.837-33.712,6.88-33.841a1.283,1.283,0,0,1,2.494.6c-.129.645-14.707,63.082-10.32,80.024a10.726,10.726,0,0,0,1.333,3.483c.516-.559,1.935-2.838,3.827-12.212,1.2-5.934,1.978-11.653,1.978-11.739a1.3,1.3,0,0,1,2.58.344c0,.043-.86,6.364-2.15,12.6-2.494,11.868-4.386,13.588-6.106,13.717C15.509,421.139,15.466,421.139,15.38,421.139Z" style="fill:#fece2f"/><path d="M383.978,158.235a102.658,102.658,0,0,0-38.227-47.816c-37.626-25.542-114.424-58.867-120.53-61.491-.086-.043-.172-.129-.258-.172-.129-.086-10.191-5.117-20.683-9.89-21.672-9.89-23.736-9.073-24.725-8.686a1.87,1.87,0,0,0-1.032,1.032c-.86,2.236,2.451,4.386,9.374,8.6,2.322,1.419,4.687,2.881,6.321,4.085l.043.043a.251.251,0,0,1,.086.387c-.129.258-.3.172-.387.172-3.4-1.075-9.976-3.053-16-4.472-10.32-2.451-12.9-1.935-13.717-.3a3.188,3.188,0,0,0-.043,2.8,8.4,8.4,0,0,0,2.623,2.881c-3.655-.688-6.708-.9-8.213-.129a2.6,2.6,0,0,0-1.333,1.591c-.946,3.483,5.461,7.311,19.393,13.89-11.266-2.666-17.2-3.225-18.1.215a1.819,1.819,0,0,0,.258,1.548c1.677,2.709,12.513,6.622,21.93,9.116a41.468,41.468,0,0,0-9.632,2.58,6.028,6.028,0,0,0-3.1,9.116,1.226,1.226,0,0,0,1.075.6c.043,0,.086,0,.129-.086L201.356,80.1c.043,0,.086.043.129.043,5.332.9,8.6,1.247,8.9,1.29,2.537,1.032,20.253,8.084,39.388,18.146,18.92,9.933,43.086,24.854,50.912,39.56,4.214,7.955,4.085,14.577-.43,19.221-4.687,4.816-13.932,7.224-25.413,6.622-12.427-.645-26.7-4.73-40.205-11.481-22.145-11.094-41.065-14.835-53.063-16a89.318,89.318,0,0,0-19.909-.043L146.358,85.651a38.1,38.1,0,0,0,6.536-16.039,65.429,65.429,0,0,0-4-31.391c-2.451-6.02-6.665-13.416-13.76-18.748.3-1.462.946-4.472,1.419-7.7,1.247-8.3.344-10.32-.645-11.223A2.082,2.082,0,0,0,134.1.037c-1.161.172-3.053,1.2-7.224,7.482-1.763,2.623-3.225,5.16-3.827,6.149-8.858-2.107-19.909-.473-32.121,4.859a100.5,100.5,0,0,0-17.716,9.89.594.594,0,0,1-.172.129,22.825,22.825,0,0,0-3.7.6C60.1,31.3,49.823,41.618,44.534,47.6c-7.912,8.859-14.491,18.921-16.77,25.586-2.15,6.192-2.193,11.18-.172,14.835,1.677,3.01,4.644,4.988,8.858,5.977,2.967.688,9.2,2.107,10.75,4.9a3.16,3.16,0,0,1,.129,2.666c-.344.989-.946,2.279-1.591,3.655-2.064,4.429-4.6,9.976-2.537,14.319,1.118,2.408,3.569,4.042,7.181,4.945a13.693,13.693,0,0,0,3.182.387c6.966,0,13.2-5.375,17.888-9.46,2.58-2.279,5.848-5.074,6.622-4.214,1.2,1.333,1.419,3.225,1.591,5.074.344,3.225.774,7.224,7.439,6.751,7.525-.559,18.06-9.2,21.887-12.556l5.59,39.173c-3.053,1.075-12.126,4.773-24.854,14.878C64.056,184.852,43.889,215,31.505,236.754,12.111,271.154,1.576,313.6.157,362.873c-.86,31,1.806,64.587,7.955,100.191v.129a1.19,1.19,0,0,0,.129.559c1.677,9.718,3.655,19.565,5.848,29.541a1.613,1.613,0,0,0,.043.43c.043.129,3.7,11.868,7.655,23.521,8.256,24.21,9.847,24.64,10.879,24.941a1.818,1.818,0,0,0,1.72-.43c.645-.6,1.806-1.677.215-13.116-.129-1.118-.3-2.193-.473-3.268,1.161,2.021,2.537,4.3,3.956,6.623,8.342,13.588,10.406,14.061,11.309,14.276a1.612,1.612,0,0,0,.473.043,2.212,2.212,0,0,0,1.2-.387c2.107-1.462.9-6.02-2.537-16.857-.86-2.666-1.935-6.02-2.451-8.213,1.419,1.935,3.483,5.2,5.2,8,7.138,11.482,11.7,18.448,15.136,16.6,2.107-1.118,1.806-4.343-1.075-11.1-2.021-4.816-4.945-10.449-7.31-14.964,7.7,8.686,12.6,13.416,15.824,13.416a3.1,3.1,0,0,0,1.376-.344,1.892,1.892,0,0,0,.989-1.333c.387-1.634-.473-5.5-9.245-20a44.59,44.59,0,0,0,5.977,1.677,11.258,11.258,0,0,0,2.537.3c3.913,0,5.547-2.365,5.891-3.913a1.249,1.249,0,0,0-.516-1.333L52.7,488.735a.158.158,0,0,0-.129-.043c-2.279-3.4-3.956-5.848-4.472-6.622-.516-3.311-6.407-44.075,1.29-72.627,6.579-24.338,19.909-44.635,40.678-61.792,1.892,9.46,10.578,52.332,17.372,84.84a1.285,1.285,0,0,0,1.247,1.032.545.545,0,0,0,.258-.043,1.345,1.345,0,0,0,.989-1.548c-3.483-16.6-7.439-35.862-10.75-52.03,4-1.118,16.211-5.891,19.823-22.92,1.677-8-1.72-17.63,12.04-26.66,11.61-7.611,6.407-22.532,4.472-27.047,8.9-13.5,12.857-25.886,15.781-37.195a1.327,1.327,0,0,0-.946-1.591,1.306,1.306,0,0,0-1.591.946c-5.461,21.027-14.534,45.881-53.707,74.949-25.026,18.619-40.807,40.98-48.2,68.371-4,14.792-4.386,32.766-3.741,47.3-11.481,5.2-28.037,5.762-32.552,5.848C4.5,426.729,1.877,393.576,2.78,362.959c1.376-47.3,11.223-88.193,29.155-121.6,10.965,2.752,25.886-6.364,35.346-22.317,7.611-12.858,9.632-26.661,6.106-35.906a173.692,173.692,0,0,1,17.8-16.469,115.228,115.228,0,0,1,10.836-7.7,33.593,33.593,0,0,0,8.041,11.008c4.859,4.429,12.943,9.159,25.456,9.159a55.166,55.166,0,0,0,8.084-.6,48.726,48.726,0,0,0,33.153-20.468,60.038,60.038,0,0,0,8.085-16.039c.989.215,1.978.43,3.01.645a107.058,107.058,0,0,1,54.309,31.6c9.417,10.1,26.832,36.765,37.582,102.384.817,4.945,1.548,9.933,2.193,14.921a1.072,1.072,0,0,0-.129.731,1.31,1.31,0,0,0,.344.688c4.644,35.733,5.332,71.638,1.634,93.053a1.285,1.285,0,0,0,1.032,1.5h.215a1.293,1.293,0,0,0,1.29-1.075c3.7-21.544,3.053-57.449-1.548-93.268a181.754,181.754,0,0,0,39.3-11.309,130.6,130.6,0,0,0,32.767-19.221c11.395-9.374,19.78-20.339,24.854-32.594C391.8,205.707,392.578,180.853,383.978,158.235ZM78.5,509.332c-.559.731-1.892,1.548-4.945.9a37.182,37.182,0,0,1-8.858-2.967c-.688-1.075-1.376-2.236-2.15-3.44-2.107-3.311-4.214-6.536-6.149-9.5ZM46.6,484.349c2.064,3.01,8,11.782,13.76,20.9,11.911,18.791,13.287,23.736,13.373,24.94-.559-.043-2.15-.6-5.676-3.913-3.1-2.924-6.45-6.708-9.116-9.761-1.247-1.376-2.279-2.58-3.1-3.44-1.032-1.075-2.021-2.107-3.1-1.376-1.118.731-.473,2.107.344,3.784.645,1.29,1.548,3.053,2.623,5.074,2.15,4.171,4.9,9.375,6.88,13.933,2.752,6.364,2.666,8.17,2.537,8.6-.387-.086-1.634-.731-4.6-4.773-2.236-3.1-4.816-7.224-7.095-10.88-5.547-8.9-7.052-10.965-8.729-10.793a1.51,1.51,0,0,0-1.2.731c-.86,1.376-.043,4.343,2.537,12.47,1.29,4.043,3.526,11.181,3.483,13.546-2.8-2.236-10.578-14.621-16.727-25.8a1.336,1.336,0,0,0-1.591-.6,1.262,1.262,0,0,0-.817,1.462c1.72,8.772,2.709,16.943,2.494,20.168-2.365-4.214-8.084-19.609-15.609-43.775.645.043,1.419.086,2.279.086C24.969,494.927,34.859,493.379,46.6,484.349ZM21.572,463.838c8.686-.946,16-2.623,21.715-5.031.6,11.61,1.849,20.554,2.193,23.091-14.319,11.266-25.929,10.621-28.939,10.191-2.064-9.331-3.914-18.576-5.505-27.649C13.1,464.4,16.928,464.268,21.572,463.838ZM134.318,2.617c.731,1.548.086,8.084-1.505,15.265a34.181,34.181,0,0,0-7.009-3.4c-.043,0-.129-.043-.172-.043C129.072,8.422,132.856,3.305,134.318,2.617Zm40.291,153.9c-7.826,11.008-18.4,17.544-31.433,19.436-12.9,1.892-23.435-.731-31.261-7.826a31.169,31.169,0,0,1-7.654-10.578,60.39,60.39,0,0,1,11.911-5.719h0c.129-.043.172-.043.215-.086a1.345,1.345,0,0,0,.43-.215l.043-.043.043-.043a1.3,1.3,0,0,0,.387-1.29c0-.043-.043-.043-.043-.086l-6.106-42.785c.516-2.494,1.2-8.471-.946-17.845-1.634-7.181-4.515-10.535-6.622-12.083a6.088,6.088,0,0,0-6.536-.344c-8.815,4.9-12.169,2.838-12.986,2.107A6.915,6.915,0,0,1,81.6,73.181,8.273,8.273,0,0,1,85.341,67.2c1.72-.989,4.042-.559,5.676,0a4.579,4.579,0,0,0,3.526-.258,4.657,4.657,0,0,0,2.279-2.666c1.591-4.859,1.118-12.9-1.075-18.663a30.848,30.848,0,0,0-8.385-12.384,19.164,19.164,0,0,0-9.89-4.558c7.74-4.945,30.186-17.759,47.429-11.739,12.126,4.257,18.4,14.448,21.543,22.274a63.271,63.271,0,0,1,3.827,30.1c-2.15,16.383-20.64,30.788-22.747,32.336h0a1.3,1.3,0,0,0-.731,1.075v.172a1.192,1.192,0,0,0,.559.989l26.961,17.759,5.2,17.63a1.278,1.278,0,0,0,1.247.946,1.19,1.19,0,0,0,.387-.043c.043,0,.043,0,.086-.043a87.47,87.47,0,0,1,21.028,1.333A56.917,56.917,0,0,1,174.609,156.515Zm37.712-77.1L225.006,51.6c2.537,1.117,9.116,4,18.146,8.041L229.865,86.941C221.48,83.157,214.987,80.491,212.321,79.416Zm-42.657-.43a4.376,4.376,0,0,1,2.537-2.408c5.289-2.451,16.04-3.268,16.169-3.268a1.293,1.293,0,0,0-.172-2.58h-.129a.944.944,0,0,0-.516-.215A128.92,128.92,0,0,1,170.18,65.57c-5.547-2.021-8.041-3.483-8.815-4.171.516-.215,2.021-.559,6.02,0s8.729,1.763,12.556,2.709c5.5,1.376,6.236,1.5,6.967,1.032a1.324,1.324,0,0,0,.6-.9c.172-1.161-.9-1.72-2.537-2.537-1.2-.6-2.882-1.376-4.817-2.279-4.171-1.935-9.288-4.343-13.5-6.708-6.149-3.483-6.794-4.945-6.837-5.2.344-.215,2.752-1.118,15.136,2.537,1.032.3,2.064.645,3.053.946,5.074,2.021,9.848,3.44,10.88,3.741a1.271,1.271,0,0,0,1.591-.817,1.314,1.314,0,0,0-.774-1.634c-1.72-.6-6.106-2.236-11.138-3.827-5.805-2.322-11.008-4.945-11.911-7.009a.937.937,0,0,1-.086-.43c1.677-.6,10.621.946,26.661,5.934a2.894,2.894,0,0,0,2.666-5.032l-.086-.086c-1.72-1.29-4.171-2.752-6.536-4.214a76.851,76.851,0,0,1-7.44-4.945c5.462,1.118,23.866,9.332,40.851,17.8l-12.9,28.251c-1.333-.172-4.042-.516-7.654-1.118a1.367,1.367,0,0,0-.6-.086l-31.692,3.7A3.486,3.486,0,0,1,169.664,78.986ZM379.291,229.014a78.413,78.413,0,0,1-15.05,23.134C359.9,246,345.234,256.1,342.4,250.471c-2.838-5.762-8.6-10.32-26.359-6.321-17.8,4.042-8.342-7.74-20.081-17.759-9.675-8.256-22.145-5.246-26.187-3.913-9.245-28.682-19.307-43.13-25.714-50.01a110.215,110.215,0,0,0-44.806-29.283,158.83,158.83,0,0,1,34.271,12.642c15.695,7.826,31.82,11.868,44.978,11.868,1.032,0,2.021-.043,2.967-.086l20.726,9.2a4.662,4.662,0,0,0,6.278-2.451,4.885,4.885,0,0,1,5.891-2.838l13.416,4.128c4.343,1.333,9.8-1.2,12.857-6.149,3.914-6.192,2.623-13.76-3.225-15.695l-32.164-10.535a31.032,31.032,0,0,0-2.279-5.332c-6.579-12.255-24.037-25.929-51.987-40.635-6.579-3.483-13.029-6.579-18.748-9.245l13.244-27.3c26.918,12.255,72.5,33.97,98.772,51.815a99.911,99.911,0,0,1,37.281,46.569C389.912,181.111,389.138,205.277,379.291,229.014Z" style="fill:#1a1a1a"/><path d="M357.576,223.94a1.45,1.45,0,0,1-.731-.215,1.3,1.3,0,0,1-.344-1.806c17.544-25.629,10.191-58.266,10.148-58.61a1.283,1.283,0,1,1,2.494-.6,85.507,85.507,0,0,1,1.634,20.253c-.3,10.75-2.666,26.531-12.169,40.378A1.158,1.158,0,0,1,357.576,223.94Z" style="fill:#fece2f"/><path d="M61.863,42.822a1.219,1.219,0,0,1-.946-.43A1.286,1.286,0,0,1,61,40.586,21.3,21.3,0,0,1,76.44,34.652a20.362,20.362,0,0,1,7.31,1.634,1.289,1.289,0,0,1-1.118,2.322h0c-.43-.215-10.32-4.859-19.866,3.87A1.2,1.2,0,0,1,61.863,42.822Z" style="fill:#fece2f"/></g></g>
</g>
</g>

<!-- ITEM 2 -->
<g transform="translate(1162.0 349.0) scale(1.2923658671814857 1.2894269142079804) rotate(0.0 125.3515 232.66149999999996)">
<g transform="translate(-0.0 -0.0)">
<title>plant_1</title><g id="Layer_2-i2" data-name="Layer 2"><g id="plant_1-i2"><path d="M61.075,135.523a237.754,237.754,0,0,1,23,35.9,365.005,365.005,0,0,1,17.7,38.7,502.454,502.454,0,0,1,24,81.6,598.056,598.056,0,0,1,11.1,84.4,4.51,4.51,0,1,1-9,.6v-.1a583.113,583.113,0,0,0-9.3-83.4,501.443,501.443,0,0,0-22.1-80.9,385.7,385.7,0,0,0-16.7-38.5,244.645,244.645,0,0,0-21.9-35.6C53.675,132.723,56.675,129.923,61.075,135.523Z" fill="#1a1a1a"/><path d="M122.775,247.023s1.2-13.8,14-28.2,33.8-25.2,33.8-25.2l41.8-25,23-17.8s10.2-6,12.8-3.8,1,5.5-2.8,11-8.5,10.8-10,26-8,28.5-20.2,35.8-24,1-24,1-13.2-2.2-17,2-7.8,15-15.2,15.5S132.475,237.023,122.775,247.023Z" fill="#fece2f"/><path d="M247.375,154.723c2.1-3.6,2.6-6,.6-7.7-2.5-2.2-12.8,3.8-12.8,3.8l-23,17.8-41.8,25s-21,10.8-33.8,25.2-14,28.2-14,28.2a24.874,24.874,0,0,1,11.4-6.4l.1-.3s-2.8-9.6,11.2-16.8c18.2-9.2,14.5-19.2,34-27.5,8.8-3.7,26.6-9.9,33.9-19.8C222.475,164.123,239.275,152.123,247.375,154.723Z" fill="#fff"/><path d="M250.675,149.623c-.2-2.7-1.6-3.8-2.6-4.2-4.8-2-14.3,4.5-21.4,10.4-13.4,11.1-28.7,20.1-43.5,28.9-1.1.7-2.3,1.3-3.4,2h-.2a1.037,1.037,0,0,0-.8.6c-15.8,9.4-30.5,18.4-41.7,29.6-11.9,11.9-16.2,28.8-17.8,40.9a113.2,113.2,0,0,0-.6,23.6,1.278,1.278,0,0,0,1.2,1.1h.1a1.208,1.208,0,0,0,1.1-1.3,109.755,109.755,0,0,1,1.5-28.6c2.6-11.6,15.4-12,28.9-12.4,1,0,2-.1,2.9-.1,10.4-.4,12.8-4.4,15.6-9.2a32.924,32.924,0,0,1,5.2-7.2c3.2-3.2,8.9-2.2,15.4-1.1,8.4,1.5,17.9,3.2,26.4-2.8,15.6-10.9,18-28.6,20-42.8,1.1-7.9,5.3-13.3,8.7-17.7C248.775,155.623,250.975,152.823,250.675,149.623Zm-22.7,53.8c-26.2-9.4-56-4.2-68.4-1.4,6.6-4.4,13.7-8.7,21-13,4.5-.7,33-4.4,51,4h.1A43,43,0,0,1,227.975,203.423Zm-12.2,14.3c-7.7,5.4-16.7,3.8-24.6,2.4-6.9-1.2-13.4-2.4-17.6,1.7a33.554,33.554,0,0,0-5.6,7.7c-2.7,4.6-4.5,7.6-13.6,8-1,0-1.9.1-2.9.1-10.3.3-20.8.6-26.8,6.2,2.6-9,7-18.1,14.1-25.2a120.176,120.176,0,0,1,15.2-12.7h.5c.4-.1,39.3-11.9,72.3-.3A36.937,36.937,0,0,1,215.775,217.723Zm19-41.1c-.6,4.5-1.3,9.3-2.4,14.1-8.4-3.9-19.8-5.7-33.9-5.5-4.9.1-9.3.4-12.6.7,10.8-6.4,21.9-13,32.3-20.5h.2c.1,0,10.8-1.5,19.6,1.3A29.561,29.561,0,0,0,234.775,176.623Zm9.2-18.9a68.656,68.656,0,0,0-4.9,6.9c-6.1-2.1-13-2.1-17.2-1.9,2.2-1.6,4.3-3.3,6.4-5,9.2-7.6,14.9-10.2,17.7-10.2a3.6,3.6,0,0,1,1.1.2c.3.1,1,.4,1.2,2.2C248.475,152.023,246.475,154.623,243.975,157.723Z" fill="#1a1a1a"/><path d="M96.275,180.523s3.5-26,22.8-29.5,42.8,10.2,42.8,10.2,16.5,9.8,16.8,12.5-2.8,2.8-2.8,2.8l-11.5-4.8s-5.2-.2-12.5,4.2a19.942,19.942,0,0,1-18.8,1.2c-4.6-2-19.2-8-27.5-4S96.275,180.523,96.275,180.523Z" fill="#fece2f"/><path d="M130.975,156.723c23.2,1.8,46.2,19.2,46.2,19.2s1.5.5,1.2-2.2-16.8-12.5-16.8-12.5-23.5-13.8-42.8-10.2-22.8,29.5-22.8,29.5,1-3.2,9.2-7.2C105.475,173.223,115.475,155.623,130.975,156.723Z" fill="#fff"/><path d="M179.575,173.423c-2.7-6.5-27.4-18.6-32-20.3a63.187,63.187,0,0,0-20.8-3.8h-1.9c-10.7.6-18.5,5-23.2,13.2a56.824,56.824,0,0,0-6.1,40.4,1.2,1.2,0,0,0,1.2.9h.3a1.258,1.258,0,0,0,.9-1.5,55.039,55.039,0,0,1-1-16.5,2.186,2.186,0,0,0,.3-.5c1.4-5.1,4.1-8.7,8-10.5,8.5-4,20.6.4,27.1,3.3,10.2,4.6,16.5,1,23.1-2.8.9-.5,1.9-1.1,2.8-1.6,3.6-1.9,8.2.1,12.3,1.9,3.7,1.6,7.6,3.3,9.1.1A3.05,3.05,0,0,0,179.575,173.423Zm-66.4-2.6a21.306,21.306,0,0,0-9,1.8,15.3,15.3,0,0,0-5.9,4.8,51.121,51.121,0,0,1,5.5-13.6c4.9-8.5,13-11.5,20.9-12,1.8,2.4,9,12.9,9.9,24.6-.4-.2-.8-.3-1.2-.5C128.475,173.823,120.675,170.823,113.175,170.823Zm23.9,6.5c-.5-11.3-6.7-21.4-9.5-25.5a57.89,57.89,0,0,1,14.5,2.1c1,1.5,5.6,9.7,6.2,22.5A16.86,16.86,0,0,1,137.075,177.323Zm40.3-2.6c-.5,1-2.6.1-5.9-1.3-4.4-1.9-9.8-4.3-14.4-1.8-1,.5-1.9,1.1-2.9,1.6-1.2.7-2.4,1.4-3.6,2a53.111,53.111,0,0,0-5.2-20.4c.5.2,1,.3,1.4.5,6.4,2.4,28.6,14.1,30.6,18.9Z" fill="#1a1a1a"/><path d="M150.775,329.523s7.5-24.5,9.5-34.5,7.8-23,20.8-30.5,21.2-12.2,21.2-12.2l25.8-18.2s10.8-8.8,17.8-5.2.5,14.5.5,14.5-6.8,17.8-7,31.2-1,25.5-13.2,34.2-34.5,10-34.5,10S156.775,323.223,150.775,329.523Z" fill="#fece2f"/><path d="M245.775,228.723c-7-3.5-17.8,5.2-17.8,5.2l-25.8,18.2s-8.2,4.8-21.2,12.2-18.8,20.5-20.8,30.5c-1.5,7.7-6.3,24-8.5,31.1a20.4,20.4,0,0,0,4.7-4.5c4.6-5.8,3.9-12.9,6.6-19.3,3.4-7.9,13.7-10.6,18.1-18,2.6-4.3,2.8-9.7,5.3-14.1,4.8-8.5,16.1-10.4,24.1-16.1,8.4-6,13.7-16.5,23.5-19.7,1.9-.6,4.2-.9,5.8.3,2,1.4,2.3,4.2,2.3,6.7.1,4.3.2,8.7.3,13,1.8-6.5,3.6-11.2,3.6-11.2S252.775,232.223,245.775,228.723Z" fill="#fff"/><path d="M248.275,229.323c-7.6-6.7-17.2.6-29.5,9.9-7.4,5.6-15.8,12-25.6,16.9-14.9,7.6-25.4,15.4-31.3,31-1.9,5-3.4,10.5-5,16.2-3.3,11.6-6.6,23.6-13.4,33.9a70.461,70.461,0,0,0-11.4,31.7,1.109,1.109,0,0,0,1.1,1.3h.1a1.2,1.2,0,0,0,1.2-1.1,67.172,67.172,0,0,1,11-30.6q1.5-2.25,2.7-4.5c.1-.1.2-.1.3-.2,7.8-8.7,23-10.7,39-12.8,14.8-2,30-4,39.4-11.8,12.6-10.3,12.7-18.3,12.9-28.4.1-5.7.2-12.2,2.6-20.5,1.5-5.4,3.1-9.8,4.5-13.8C249.975,237.723,251.875,232.423,248.275,229.323Zm-54,29c10-5.1,18.5-11.5,26-17.2,8.8-6.7,15.8-12,21.3-12a4.1,4.1,0,0,1,1.1.1c-2,1.6-4.2,4.5-7.3,8.7a178.341,178.341,0,0,1-32.9,35.1c-2,1.6-4,3.3-5.9,4.9l-5.1-18.2C192.375,259.323,193.375,258.823,194.275,258.323Zm37.3,42.9-41.7-13.9c4.5-4.2,9.2-8.3,14.1-12.4.4-.3.7-.6,1.1-.9l32.2,10.6C237.075,290.523,236.175,295.623,231.575,301.223Zm-48.3-10.9-5.7-21.2v-.1a73.855,73.855,0,0,1,11.8-8l5.3,18.8Q188.525,285.073,183.275,290.323Zm-24,13.7c1.6-5.7,3.1-11.1,5-16a45.886,45.886,0,0,1,11.2-17.2l5.8,21.4a357.794,357.794,0,0,0-28.3,31.7C155.475,317.423,157.375,310.723,159.275,304.023Zm66.1,3.3c-8.9,7.3-23.8,9.3-38.2,11.3-12.1,1.6-24.4,3.3-33.3,8.2a358.117,358.117,0,0,1,34.1-37.5.758.758,0,0,0,.4.2l41.4,13.8C228.575,304.523,227.075,305.923,225.375,307.323Zm19.2-61.6c-1.3,3.8-3,8.5-4.5,14-2.4,8.6-2.5,15.2-2.7,21.1v1.3l-30-9.9a186.917,186.917,0,0,0,30-32.7c3.8-5.1,6.6-8.8,8.5-8.9a5.5,5.5,0,0,1,.9.7C248.975,233.223,247.275,237.923,244.575,245.723Z" fill="#1a1a1a"/><path d="M68.859,41.768S82.977,14.7,121.662,4.636,210.1,7.681,210.1,7.681s11.212,4.016,9.215,9.772-9.791,3.3-9.791,3.3-12.146-3.047-17.82,3.17S177.925,38.837,166.94,36.61s-27-10.314-34.36-6.684-10.618,5.766-15.74,4.225S92.205,28.882,83.1,33.339A89.794,89.794,0,0,0,68.859,41.768Z" fill="#fece2f"/><path d="M215.769,11.288a6.122,6.122,0,0,0-5.57-3.614s-49.76-13.21-88.437-3.045c-38.685,10.064-52.8,37.132-52.8,37.132A81.195,81.195,0,0,1,83.19,33.232c.292-.121.677-.349,1.069-.477l.093-.107S105.878,11.07,139.814,8.961C167.765,7.278,201.368,17.424,215.769,11.288Z" fill="#fff"/><path d="M218.825,11.974c-5.312-5.638-20.159-8.594-31.693-10.081A251.3,251.3,0,0,0,139.219.582,96.475,96.475,0,0,0,111.1,6.989c-.1.007-.292.121-.392.128a89.482,89.482,0,0,0-49.7,48.341c-.27.421-.349.727-.442.834a1.7,1.7,0,0,0-.164.513A105.909,105.909,0,0,0,54.98,73.631C43.624,121.255,69.323,154.217,69.543,154.5a1.229,1.229,0,0,0,1.033.427,1.843,1.843,0,0,0,.684-.249,1.164,1.164,0,0,0,.179-1.717c-.22-.285-25.157-32.4-14.115-78.8A111.839,111.839,0,0,1,63,56.72c1.861-3.44,11.436-19.659,21.64-22.789,8.929-2.74,17.976-.976,25.913.666,7.017,1.407,13.115,2.578,16.935-.1l.478-.335,1.432-1a.758.758,0,0,0,.385-.228c.1-.007.093-.106.185-.213,5.26-3.582,8.837-4.036,26.959,2.7,19.455,7.14,27.2-1.029,34.01-8.129.934-.969,1.96-2.044,2.894-3.013,3.564-3.461,9.427-2.774,14.578-2.238,5.657.6,11.62,1.281,12.5-4.7A7.128,7.128,0,0,0,218.825,11.974ZM173.873,35.416l-24.1-32.977c4.1-.091,8.315-.089,12.532.013L183,31.259A19.42,19.42,0,0,1,173.873,35.416ZM126.039,32.4c-2.958,2.115-8.55,1.008-15.055-.234-7.829-1.55-17.489-3.47-27.109-.582-3.827,1.174-7.447,3.837-10.726,7.077A83.444,83.444,0,0,1,89.4,21.863,89.5,89.5,0,0,1,110.78,9.519l16.406,22.093c-.285.221-.477.335-.763.556Zm10.09-4.726a14.13,14.13,0,0,0-6.94,2.5L113.118,8.551a92.738,92.738,0,0,1,26.164-5.667c2.494-.177,4.995-.255,7.488-.432l24.21,33.169a36.489,36.489,0,0,1-13.422-2.656C146.445,28.942,140.518,27.357,136.129,27.669Zm82.146-10.744c-.465,3.341-3.172,3.333-9.741,2.6-5.657-.6-12.126-1.344-16.538,2.879-1.033.975-2.06,2.051-2.993,3.019-1.4,1.4-2.7,2.9-4.213,4.209L165.323,2.539c23.319.851,45.753,4.772,51.614,11.073A4.01,4.01,0,0,1,218.275,16.925Z" fill="#1a1a1a"/><path d="M5.22,26.536c6.35-2.355,11.058.418,13.264,6.076s4.268,14.935,9.9,15.137,12.433-1.384,15.884,9.1,1,28.2,1,28.2-3.629,22.313,1.212,31.193L22.758,99.878S9.924,88.559,8.347,77.643s2.047-20.6-1.826-27.139S-3.081,29.632,5.22,26.536Z" fill="#fece2f"/><path d="M3.909,44.775S2.852,34.123,9.414,33.356c6.662-.773,2.822,14.336,11.805,18.01s15.83,2.685,18.055,12.853S33.308,87.5,44.711,112.556c-.085-1.2-.891-16.779-.891-16.779s3.073-20.269,2.286-28.534-3.42-17.1-9.375-19.084c-5.949-1.883-11.643,2.631-15.991-9.191s-7.6-15.2-14.472-13.208S1.3,39.045,3.909,44.775Z" fill="#fff"/><path d="M62.418,138.868c-.106-.093-5.7-8.217-13.3-20.71a1.281,1.281,0,0,0-.143-.592c-5.4-9.642-4.2-19.652-2.607-32.5.393-2.935.779-5.97,1.051-9.2,1.1-11.307-1.095-21.076-5.973-26.243-2.165-2.253-4.658-3.479-7.252-3.295l-.9.064c-5.194.268-8.592.409-11.189-7.928-1.807-5.686-4.141-11.736-8.594-13.726-2.486-1.126-5.371-.821-8.671.716A8.249,8.249,0,0,0,.516,30.88C-.847,35.689.533,42.408,4.135,47.967c3.617,5.758,3.444,11.786,3.3,18.212a45.443,45.443,0,0,0-.023,5.315c.348,19.023,9.955,27.263,39.343,47.233C54.691,131.7,60.5,140.107,60.615,140.3a1.15,1.15,0,0,0,1.14.521,1.412,1.412,0,0,0,.584-.242A1.345,1.345,0,0,0,62.418,138.868ZM45.005,75.742c-.279,3.128-.666,6.163-1.059,9.1-1.079,8.8-2.052,16.286-.843,23.419-1.375-2.409-2.848-4.811-4.229-7.319-1.033-1.832-2.072-3.763-3.211-5.687a.37.37,0,0,0,.078-.306l7.006-38.293C44.662,61.03,45.813,67.364,45.005,75.742ZM13.658,87.492a28.794,28.794,0,0,1-3.345-8.986l16.406,5.151c1.638,3.292,3.367,6.478,4.983,9.471L13.865,87.577C13.858,87.478,13.758,87.485,13.658,87.492ZM39.665,51.359a14.066,14.066,0,0,1,1.324,1.711l-7.07,38.8c-1.5-2.8-3.011-5.7-4.627-8.694h0l-.008-.1-.007-.1,5.594-34.182A8.04,8.04,0,0,1,39.665,51.359ZM9.638,26.624a5.953,5.953,0,0,1,2.735.407c3.519,1.555,5.612,7.02,7.284,12.215,2.988,9.612,7.619,9.885,12.72,9.723L27.334,79.6C19.048,63.149,10.9,44.379,6.688,27.435A6.95,6.95,0,0,1,9.638,26.624Zm-3.486,20.1c-3.161-4.989-4.491-11.01-3.278-15.106a5.822,5.822,0,0,1,1.7-2.927C8.881,45.625,17.024,64.3,25.31,80.75L10.029,75.92c-.2-1.39-.2-2.793-.311-4.389-.021-1.7.058-3.413.038-5.116C9.987,59.782,10.21,53.049,6.152,46.721Zm9.635,43.928L32.5,95.879a.606.606,0,0,0,.406.071.753.753,0,0,0,.392-.128c1.154,2.124,2.307,4.247,3.446,6.171,2.3,4.148,4.578,8,6.742,11.652C29.361,103.921,20.764,97.213,15.787,90.649Z" fill="#1a1a1a"/><path d="M107.775,286.023s-4.5-15.4-5.2-23.1-5-16.6-10.5-19.8-9.9-3.1-10.8-10.1-8-16.1-14-14.4-6,7.1-3.9,12.1,6.2,6.1,6,17.9,1.9,20.5,7.2,23.9S102.275,282.623,107.775,286.023Z" fill="#fece2f"/><path d="M102.675,278.723c-13.7-17-25.7-8.8-26.4-21.8s-5-15.2-6-25.2,3.8-10.8,3.8-10.8l.1-.4c-2.2-1.8-4.6-2.6-6.9-2-6,1.8-6,7.1-3.9,12.1s6.2,6.1,6,17.9,1.9,20.5,7.2,23.9,25.6,10.1,31.1,13.5Z" fill="#fff"/><path d="M112.775,289.723c0-.1-.1-.2-.2-.3-5.6-7.6-7.8-17-9.4-28.8-2.1-15.2-11.8-19.8-15.9-21-4.4-1.3-4.6-2.6-5.7-8.5-.1-.7-.3-1.5-.4-2.4a14.72,14.72,0,0,0-6.8-9.9,10.827,10.827,0,0,0-8.8-1.3,6.6,6.6,0,0,0-4.3,4c-1.2,3.2-.2,7.6,2.5,12,3.5,5.6,4.9,9.2,4.7,17.4-.4,15.3,3.3,21.5,15.1,25.4a89.042,89.042,0,0,1,26.9,14.3c13.3,18.4,15,33.2,15.1,33.4a1.278,1.278,0,0,0,1.2,1.1h.1a1.208,1.208,0,0,0,1.1-1.3C127.875,323.223,126.175,308.423,112.775,289.723Zm-12-28.8a97.093,97.093,0,0,0,4.2,19c-4.1-4.9-7.9-9.5-11.3-13.9,0-.1.1-.2.1-.3l.4-19.3C97.075,249.323,99.775,253.823,100.775,260.923Zm-12.6-18.5a16.6,16.6,0,0,1,3.6,2l-.4,18.6c-1.3-1.8-2.6-3.6-3.9-5.3Zm-15-21.4a11.821,11.821,0,0,1,5.6,8.2,22.306,22.306,0,0,1,.4,2.3c1,5.6,1.5,8.3,6.5,10.1l-.6,12.7a169.635,169.635,0,0,1-17.6-34.6c.3,0,.6-.1.9-.1A9.5,9.5,0,0,1,73.175,221.023Zm-7.3,11.2c-2.3-3.6-3.1-7.4-2.2-9.8a3.891,3.891,0,0,1,1.6-2,173.263,173.263,0,0,0,18.4,36l-12.7-.2c-.1-1.6-.1-3.3-.1-5.3C71.175,242.223,69.575,238.123,65.875,232.223Zm5.4,26.5,14.2.2c2.9,4.1,6,8.2,9.4,12.4l-15.9.3C74.175,269.023,71.975,265.223,71.275,258.723Zm13.1,15.4a.1.1,0,0,1-.1-.1l12.4-.2c2.5,3.1,5.2,6.3,8.1,9.7.1.1.2.2.2.3A90.975,90.975,0,0,0,84.375,274.123Z" fill="#1a1a1a"/><path d="M105.422,59.724s20.451-7.066,31.694-6.862,18.832,12.5,18.832,12.5S160,77.3,164.22,81.615s13.295,15,16.848,19.857,5.857,14.722,5.813,19.738-3.746,10.792-5.535,12.423-11.829,5.652-18.581-.485-7.359-17.523-7.359-17.523-1.52-10.118-10.446-14.4c-7.992-3.843-13.15-4.48-13.15-4.48s-7.771-3.558-9.693-9.437S115.21,62.037,105.422,59.724Z" fill="#fece2f"/><path d="M186.633,117.719c-6.361,13.484-22.989,10.855-23.654-1.329s-9.949-24.356-22.973-24.234-14.017-11.035-17.624-22.308-12.465-8.939-12.465-8.939l.306,1.482c6.744,6.037,10.343,20.018,11.987,24.813,1.921,5.879,9.693,9.438,9.693,9.438s5.058.643,13.15,4.48c8.925,4.278,10.446,14.4,10.446,14.4s.714,11.478,7.359,17.523,16.785,2.016,18.581.485,5.489-7.407,5.534-12.423C186.909,120.206,186.725,119.016,186.633,117.719Z" fill="#fff"/><path d="M166.158,82.079c-4.3-4.1-5.547-7.526-6.914-11.238A33.952,33.952,0,0,0,152.6,59.082c-8.5-9.622-19.24-8.359-29.665-5.513-8.949,2.44-18.968,5.356-21.626,6.046A44.373,44.373,0,0,0,88.229,63.25C76.193,68.817,66.541,79.727,62,93.384c-8.618,25.474.554,50.292.575,50.591a1.293,1.293,0,0,0,1.261.813l.3-.022a1.31,1.31,0,0,0,.792-1.56c-.121-.292-8.937-24.333-.662-48.981C68.656,81.282,77.738,70.812,89.2,65.588a43.018,43.018,0,0,1,11.394-3.316c.2-.014.306.079.505.065,10.1-1.82,12.893,6.5,16.181,16.094,2.91,8.516,6.2,18.107,15.658,20.042,19.435,4.034,20.6,13.375,21.529,20.828.213,1.589.426,3.178.725,4.56,1.771,6.591,7.7,12.486,14.129,14.035a12.929,12.929,0,0,0,4.339.393,14,14,0,0,0,9.478-4.883C188.331,127.523,196.909,111.375,166.158,82.079ZM150.8,60.613c.876,1.041,1.652,2.088,2.321,3.043L135.783,69.4c-2.1-1.354-4.3-2.7-6.489-3.85l19.568-6.8C149.5,59.3,150.151,59.957,150.8,60.613Zm-27.207-4.785c9.049-2.447,16.616-3.185,23.034,1.071l-20.352,7.059c-1.04-.528-2.172-.949-3.2-1.376a43.166,43.166,0,0,0-12.553-3.119C114.35,58.388,119.067,57.051,123.592,55.828Zm-3.878,21.628c-2.028-5.971-4.056-11.942-8.109-15.364a44.744,44.744,0,0,1,10.522,2.762,79.881,79.881,0,0,1,19.154,11.372L132.63,95.587C125.264,93.5,122.375,85.288,119.714,77.456Zm15.267,18.766L143.2,77.894a122.761,122.761,0,0,1,21.428,23.642l-7.575,17.581-.021-.3C156.092,111.165,154.75,100.734,134.981,96.222Zm22.88,27.148,8.437-19.546c1.787,2.58,3.367,5.074,4.848,7.576l.007.1-8.864,19.176A17.812,17.812,0,0,1,157.861,123.37Zm12.171,11.868a15.713,15.713,0,0,1-5.92-2.888l8.415-18.442a90.859,90.859,0,0,1,8.058,17.473c.121.293.235.485.442.571A10.994,10.994,0,0,1,170.032,135.238Zm12.755-5.316c-3.571-12.178-20.2-41.674-44.375-58.8l16.061-5.351a33.274,33.274,0,0,1,2.52,5.836c1.373,3.812,2.853,7.717,7.582,12.194,11.723,11.2,18.665,21.432,20.72,30.609C186.916,121.709,185.061,126.653,182.787,129.922Z" fill="#1a1a1a"/><path d="M107.275,315.223s-13.2-2.2-24.2,9.8-12.5,25.8-17,31.5-14.2,24.8-9.5,44.8,14.5,24.8,18.2,35,10.8,31.8,21.8,27.8,6.5-23,6.5-23-4.5-19-.5-25.8,18-20.2,14.2-40.8-18.4-35.7-16.2-49.5C101.475,318.523,107.275,315.223,107.275,315.223Z" fill="#fece2f"/><path d="M102.975,441.023s-.1-.6-.3-1.6c-.2-.2-.5-.3-.7-.5a10.818,10.818,0,0,1-8.7,2.9c-4.8-.7-8.4-4.5-11.7-8a116.277,116.277,0,0,1-7.8-9.3,54.646,54.646,0,0,1-10.3-32.2,26.627,26.627,0,0,1,1.5-9.7c2-5.2,6.3-9.4,7.8-14.8,1.2-4.4.4-9.1,1.1-13.5,1.1-6.9,5.6-12.7,8-19.2,1.1-2.8,1.7-5.8,3.2-8.4,4.2-7.7,11.8-8.4,19.1-11.2.3-.1.6-.3.9-.4a28.988,28.988,0,0,0-22,9.9c-11,12-12.5,25.8-17,31.5s-14.2,24.8-9.5,44.8,14.5,24.8,18.2,35,10.8,31.8,21.8,27.8S102.975,441.023,102.975,441.023Z" fill="#fff"/><path d="M118.775,318.223a21.271,21.271,0,0,0-9.8-4,1.147,1.147,0,0,0-1-.1,32.252,32.252,0,0,0-8.7.3c-14.1,2.3-22.9,12.3-30.6,34.5a94.029,94.029,0,0,1-6.7,14.2c-5.5,9.9-10.7,19.3-7,37.9,1.7,8.7,7,16.6,12,24.3,4.3,6.5,8.8,13.3,10.8,20.3,2.9,9.8,6.7,16,11.2,18.5a10.05,10.05,0,0,0,4.8,1.2,11.851,11.851,0,0,0,3.2-.5h.1c10.2-3.2,8.3-19,5.2-36.4-1.5-8.7,2.2-14.2,6.6-20.6,4.6-6.8,9.8-14.4,9.5-27.2-.3-9.5-4.8-19.6-9.2-29.3-6.7-14.8-12.5-27.6-1.3-34.3a.758.758,0,0,0,.4-.2c.1,0,.1-.1.2-.2a19.522,19.522,0,0,1,8.9,3.6c7.7,5.7,9.2,16.1,9.2,16.2a1.259,1.259,0,0,0,2.5-.3C128.875,335.623,127.375,324.623,118.775,318.223Zm-54.7,46.1a90.128,90.128,0,0,0,6.9-14.6c7.1-20.5,15.1-30,27.3-32.6-3.9,2.8-8.5,8.1-12.2,18.5-3,8.4-4.7,22.8-4.8,40l-.3.3-21.3,31.9a40.063,40.063,0,0,1-2.3-7.2C53.875,382.823,58.575,374.223,64.075,364.323Zm49,31.5-29-30.7c.2-4.4.6-8.6,1-12.4l30.6,33.5A30.745,30.745,0,0,1,113.075,395.823Zm-52.2,14.5,20.4-30.5c0,3.6.1,7.4.3,11.2l-.3.3-16.7,25.6A72.959,72.959,0,0,1,60.875,410.323Zm29.4,51.6c-4-2.1-7.4-7.9-10.1-17-2.1-7.3-6.7-14.2-11.1-20.9-1-1.6-2.1-3.2-3.1-4.8l15.8-24.2c0,.6.1,1.2.1,1.8,1.7,27.3,6.5,51.2,13.2,65.9A7.272,7.272,0,0,1,90.275,461.923Zm16.6-55.5c-4.5,6.6-8.7,12.8-7,22.4,3.3,18.6,4,30.2-2.5,33.2-10.5-22.6-14.6-63.2-13.5-93.5l28.1,29.7A75.3,75.3,0,0,1,106.875,406.423Zm.1-54.2c4.3,9.5,8.8,19.3,9,28.4v2.2l-30.5-33.3a64.675,64.675,0,0,1,2.9-13.1c4.5-12.3,9.9-17,13.7-18.8l1.5-.6C94.675,325.223,100.675,338.423,106.975,352.223Z" fill="#1a1a1a"/></g></g>
</g>
</g>

<!-- ITEM 3 -->
<g transform="translate(1064.0 702.0) scale(1.6309012875536482 1.6309012875536482) rotate(0.0 116.5 116.5)">
<g transform="translate(-0.0 -0.0)">
<title>clock</title><g id="e827a5fe-5e15-4412-a4d7-10ebf363c31b-i3" data-name="Layer 2"><g id="a93b8b1e-e87e-4645-ab73-1b203c1ecb58-i3" data-name="clock"><circle cx="116.5" cy="116.5" r="115" fill="#ffce31"/><path d="M116.5,233A116.5,116.5,0,1,1,233,116.5,116.632,116.632,0,0,1,116.5,233Zm0-230A113.5,113.5,0,1,0,230,116.5,113.629,113.629,0,0,0,116.5,3Z" fill="#1a1a1a"/><circle cx="116.5" cy="116.5" r="97" fill="#fff"/><path d="M116.5,215A98.5,98.5,0,1,1,215,116.5,98.612,98.612,0,0,1,116.5,215Zm0-194A95.5,95.5,0,1,0,212,116.5,95.608,95.608,0,0,0,116.5,21Z" fill="#1a1a1a"/><path d="M116.5,66a1.5,1.5,0,0,1-1.5-1.5v-28a1.5,1.5,0,0,1,3,0v28A1.5,1.5,0,0,1,116.5,66Z" fill="#1a1a1a"/><path d="M64.5,118h-28a1.5,1.5,0,0,1,0-3h28a1.5,1.5,0,0,1,0,3Z" fill="#1a1a1a"/><path d="M116.5,198a1.5,1.5,0,0,1-1.5-1.5v-28a1.5,1.5,0,0,1,3,0v28A1.5,1.5,0,0,1,116.5,198Z" fill="#1a1a1a"/><path d="M196.5,118h-28a1.5,1.5,0,0,1,0-3h28a1.5,1.5,0,0,1,0,3Z" fill="#1a1a1a"/><path d="M85.751,64.74a1.5,1.5,0,0,1-1.3-.75l-4.5-7.8a1.5,1.5,0,1,1,2.6-1.5l4.5,7.8a1.5,1.5,0,0,1-1.3,2.25Z" fill="#1a1a1a"/><path d="M63.238,87.25a1.489,1.489,0,0,1-.749-.2l-7.794-4.5a1.5,1.5,0,0,1,1.5-2.6l7.794,4.5a1.5,1.5,0,0,1-.751,2.8Z" fill="#1a1a1a"/><path d="M55.447,153.25a1.5,1.5,0,0,1-.752-2.8l7.794-4.5a1.5,1.5,0,1,1,1.5,2.6l-7.794,4.5A1.485,1.485,0,0,1,55.447,153.25Z" fill="#1a1a1a"/><path d="M81.249,179.056a1.5,1.5,0,0,1-1.3-2.251l4.5-7.794a1.5,1.5,0,1,1,2.6,1.5l-4.5,7.794A1.5,1.5,0,0,1,81.249,179.056Z" fill="#1a1a1a"/><path d="M151.751,179.056a1.5,1.5,0,0,1-1.3-.751l-4.5-7.794a1.5,1.5,0,0,1,2.6-1.5l4.5,7.794a1.5,1.5,0,0,1-1.3,2.251Z" fill="#1a1a1a"/><path d="M177.553,153.25a1.485,1.485,0,0,1-.748-.2l-7.794-4.5a1.5,1.5,0,1,1,1.5-2.6l7.794,4.5a1.5,1.5,0,0,1-.752,2.8Z" fill="#1a1a1a"/><path d="M169.762,87.25a1.5,1.5,0,0,1-.751-2.8l7.794-4.5a1.5,1.5,0,0,1,1.5,2.6l-7.794,4.5A1.489,1.489,0,0,1,169.762,87.25Z" fill="#1a1a1a"/><path d="M147.249,64.74a1.5,1.5,0,0,1-1.3-2.25l4.5-7.8a1.5,1.5,0,0,1,2.6,1.5l-4.5,7.8A1.5,1.5,0,0,1,147.249,64.74Z" fill="#1a1a1a"/><line x1="116.5" y1="116.5" x2="129.5" y2="154.5" fill="#ffce31"/><path d="M129.5,158a3.5,3.5,0,0,1-3.312-2.368l-13-38a3.5,3.5,0,0,1,6.624-2.266l13,38A3.5,3.5,0,0,1,129.5,158Z" fill="#1a1a1a"/><line x1="156.5" y1="74.5" x2="116.5" y2="116.5" fill="#ffce31"/><path d="M116.5,120a3.5,3.5,0,0,1-2.535-5.914l40-42a3.5,3.5,0,0,1,5.07,4.828l-40,42A3.492,3.492,0,0,1,116.5,120Z" fill="#1a1a1a"/></g></g>
</g>
</g>

              </svg>