<svg xmlns="http://www.w3.org/2000/svg" viewBox="0 0 128 128" width="64px" height="64px"><path fill="#fff" d="M64 14A50 50 0 1 0 64 114A50 50 0 1 0 64 14Z"/><path fill="#9eb9d3" d="M67.5,82H53c-1.7,0-3-1.3-3-3c0-1.3,0.8-2.4,2-2.8V51.8c-1.2-0.4-2-1.5-2-2.8c0-1.7,1.3-3,3-3h14.5C73.3,46,78,50.7,78,56.5c0,2.9-1.2,5.6-3.2,7.5c1.9,1.9,3.2,4.6,3.2,7.5C78,77.3,73.3,82,67.5,82z M58,76h9.5c2.5,0,4.5-2,4.5-4.5S70,67,67.5,67H58V76z M58,61h9.5c2.5,0,4.5-2,4.5-4.5S70,52,67.5,52H58V61z"/><path fill="#9eb9d3" d="M63 52c-1.7 0-3-1.3-3-3v-5c0-1.7 1.3-3 3-3s3 1.3 3 3v5C66 50.7 64.7 52 63 52zM63 87c-1.7 0-3-1.3-3-3v-5c0-1.7 1.3-3 3-3s3 1.3 3 3v5C66 85.7 64.7 87 63 87z"/><g><path fill="#444b54" d="M114 67c-1.7 0-3-1.3-3-3 0-12.6-4.9-24.4-13.8-33.2-18.3-18.3-48.1-18.3-66.5 0-4.1 4.1-7.3 8.8-9.7 14l4.5-2.1c1.5-.7 3.3 0 4 1.5s0 3.3-1.5 4l-11 5c-1.1.5-2.3.3-3.2-.5-.9-.8-1.3-2-.9-3.1 2.4-8.7 7.1-16.7 13.5-23.1 20.7-20.7 54.3-20.7 75 0 10 10 15.5 23.3 15.5 37.5C117 65.7 115.7 67 114 67zM64 117c-13.6 0-27.1-5.2-37.5-15.5C16.5 91.5 11 78.2 11 64c0-1.7 1.3-3 3-3s3 1.3 3 3c0 12.6 4.9 24.4 13.8 33.2 18.3 18.3 48.1 18.3 66.5 0 6-6 10.3-13.5 12.3-21.7.4-1.6 2-2.6 3.6-2.2 1.6.4 2.6 2 2.2 3.6-2.3 9.2-7.1 17.7-13.9 24.4C91.1 111.8 77.6 117 64 117z"/><path fill="#444b54" d="M15.9 53.4c-1.2 0-2.4-.8-2.8-2l-4-11c-.6-1.6.2-3.3 1.8-3.8 1.6-.6 3.3.2 3.8 1.8l4 11c.6 1.6-.2 3.3-1.8 3.8C16.6 53.4 16.2 53.4 15.9 53.4zM101.6 84.6c-1.1 0-2.2-.6-2.7-1.7-.7-1.5-.1-3.3 1.4-4l10.9-5.3c1.5-.7 3.3-.1 4 1.4.7 1.5.1 3.3-1.4 4l-10.9 5.3C102.5 84.5 102.1 84.6 101.6 84.6z"/><path fill="#444b54" d="M116.8,90.2c-1.2,0-2.3-0.7-2.8-1.9l-4.3-10.9c-0.6-1.5,0.1-3.3,1.7-3.9c1.5-0.6,3.3,0.1,3.9,1.7l4.3,10.9c0.6,1.5-0.1,3.3-1.7,3.9C117.5,90.1,117.1,90.2,116.8,90.2z"/></g></svg>