<svg xmlns="http://www.w3.org/2000/svg" viewBox="0 0 128 128" width="64px" height="64px"><path fill="#9eb9d3" d="M111,113.3H41c-5.5,0-10-4.5-10-10v-70c0-5.5,4.5-10,10-10h70c5.5,0,10,4.5,10,10v70 C121,108.9,116.5,113.3,111,113.3z"/><path fill="#fff" d="M101,113.3H31c-5.5,0-10-4.5-10-10v-70c0-5.5,4.5-10,10-10h70c5.5,0,10,4.5,10,10v70 C111,108.9,106.5,113.3,101,113.3z"/><path fill="#444b54" d="M34.2,97.1V39.6c0-1.7,1.3-3,3-3H85v63.5H37.2C35.6,100.1,34.2,98.8,34.2,97.1z"/><path fill="#fff" d="M50,78.3c-0.8,0-1.7-0.399-2.3-1l-6-7c-1.1-1.3-0.9-3.2,0.3-4.2c1.3-1.1,3.2-0.899,4.2,0.301l6,7 c1.1,1.3,0.9,3.199-0.3,4.199C51.4,78.1,50.7,78.3,50,78.3z"/><path fill="#fff" d="M44 71.3c-.7 0-1.4-.2-2-.7-1.3-1.1-1.4-3-.3-4.199l6-7c1.1-1.3 3-1.4 4.2-.3 1.3 1.1 1.4 3 .3 4.2l-6 7C45.7 71 44.8 71.3 44 71.3zM90 32.7L87.8 31.6 77.8 31.6 77.8 105.1 87.8 105.1 90 104z"/><path fill="#9eb9d3" d="M87.8 105.1L97.8 100.1 97.8 36.6 87.8 31.6z"/><path fill="#444b54" d="M97.8 39.6c-.5 0-.899-.1-1.3-.3l-10-5c-1.5-.7-2.1-2.5-1.3-4 .7-1.5 2.5-2.1 4-1.3l10 5c1.5.7 2.1 2.5 1.3 4C99.9 39 98.9 39.6 97.8 39.6zM87.8 108.1c-1.1 0-2.2-.6-2.7-1.699-.699-1.5-.1-3.301 1.301-4l10-5c1.5-.7 3.3-.101 4 1.3.699 1.5.1 3.3-1.301 4l-10 5C88.7 108 88.2 108.1 87.8 108.1z"/><path fill="#444b54" d="M87.8,108.1h-5c-4.399,0-8-3.6-8-8V36.6c0-4.4,3.601-8,8-8h5c1.7,0,1.7,6,0,6h-5c-1.1,0-2,0.9-2,2 v63.5c0,1.101,0.9,2,2,2h5C89.5,102.1,89.4,108.1,87.8,108.1z"/><path fill="#fff" d="M59.3,71.3H44c-1.7,0-3-1.3-3-3s1.3-3,3-3h15.3c1.7,0,3,1.3,3,3S61,71.3,59.3,71.3z"/><path fill="#444b54" d="M101,20.3H31c-7.2,0-13,5.8-13,13v70c0,7.2,5.8,13,13,13h0.2v2.7c0,1.7,1.3,3,3,3s3-1.3,3-3v-2.7 h57.3v2.7c0,1.7,1.3,3,3,3s3-1.3,3-3v-2.7h0.5c7.2,0,13-5.8,13-13v-70C114,26.2,108.2,20.3,101,20.3z M108,103.3c0,3.9-3.1,7-7,7H31 c-3.9,0-7-3.1-7-7v-70c0-3.9,3.1-7,7-7h70c3.9,0,7,3.1,7,7V103.3z"/><path fill="#fff" d="M69.16 65.3A3 3 0 1 0 69.16 71.3A3 3 0 1 0 69.16 65.3Z"/><path fill="#444b54" d="M97.7 43.57A3 3 0 1 0 97.7 49.57 3 3 0 1 0 97.7 43.57zM97.7 86.839A3 3 0 1 0 97.7 92.839 3 3 0 1 0 97.7 86.839z"/></svg>