<svg xmlns="http://www.w3.org/2000/svg" viewBox="0 0 128 128" width="64px" height="64px"><path fill="#fff" d="M64 14A50 50 0 1 0 64 114A50 50 0 1 0 64 14Z"/><path fill="#9eb9d3" d="M67.8,61.9l-6.2-1.5c-1.9-0.5-3.1-2.1-3.1-4c0-2.3,1.9-4.2,4.2-4.2h3c2.1,0,3.8,1.7,3.8,3.8 c0,1.7,1.3,3,3,3s3-1.3,3-3c0-5-3.7-9.1-8.5-9.7V45c0-1.7-1.3-3-3-3s-3,1.3-3,3v1.4c-4.8,0.8-8.5,5-8.5,10c0,4.7,3.2,8.7,7.7,9.9 l6.2,1.5c1.9,0.5,3.1,2.1,3.1,4c0,2.3-1.9,4.2-4.2,4.2h-3c-2.1,0-3.8-1.7-3.8-3.8c0-1.7-1.3-3-3-3s-3,1.3-3,3c0,5,3.7,9.1,8.5,9.7 v1.3c0,1.7,1.3,3,3,3s3-1.3,3-3v-1.4c4.8-0.8,8.5-5,8.5-10C75.5,67,72.3,63,67.8,61.9z"/><path fill="#444b54" d="M64 117c-.2 0-.4 0-.6-.1-.2 0-.4-.1-.6-.2-.2-.1-.3-.2-.5-.3-.2-.1-.3-.2-.4-.4-.6-.6-.9-1.3-.9-2.1s.3-1.6.9-2.1c.1-.1.3-.3.4-.4.2-.1.3-.2.5-.3.2-.1.4-.1.6-.2 1-.2 2 .1 2.7.8.6.6.9 1.3.9 2.1s-.3 1.6-.9 2.1C65.6 116.7 64.8 117 64 117zM52.2 115.7c-1.6-.4-2.6-2-2.3-3.6l0 0c.4-1.6 2-2.6 3.6-2.3l0 0c1.6.4 2.6 2 2.3 3.6l0 0c-.3 1.4-1.5 2.3-2.9 2.3l0 0C52.7 115.8 52.4 115.7 52.2 115.7zM41 111.8c-1.5-.7-2.1-2.5-1.4-4l0 0c.7-1.5 2.5-2.1 4-1.4l0 0c1.5.7 2.1 2.5 1.4 4l0 0c-.5 1.1-1.6 1.7-2.7 1.7l0 0C41.9 112.1 41.4 112 41 111.8zM31 105.4c-1.3-1-1.5-2.9-.5-4.2l0 0c1-1.3 2.9-1.5 4.2-.5l0 0c1.3 1 1.5 2.9.5 4.2l0 0c-.6.8-1.5 1.1-2.4 1.1l0 0C32.2 106.1 31.5 105.9 31 105.4zM22.6 97.1c-1-1.3-.8-3.2.5-4.2l0 0c1.3-1 3.2-.8 4.2.5l0 0c1 1.3.8 3.2-.5 4.2l0 0c-.6.5-1.2.7-1.9.7l0 0C24 98.2 23.2 97.8 22.6 97.1zM16.2 87c-.7-1.5-.1-3.3 1.4-4l0 0c1.5-.7 3.3-.1 4 1.4l0 0c.7 1.5.1 3.3-1.4 4l0 0c-.4.2-.9.3-1.3.3l0 0C17.8 88.7 16.8 88.1 16.2 87zM12.3 75.8c-.4-1.6.6-3.2 2.3-3.6l0 0c1.6-.4 3.2.6 3.6 2.3l0 0c.4 1.6-.6 3.2-2.2 3.6l0 0c-.2.1-.5.1-.7.1l0 0C13.9 78.2 12.6 77.2 12.3 75.8zM14 67c-.8 0-1.6-.3-2.1-.9-.1-.1-.3-.3-.4-.4-.1-.2-.2-.3-.3-.5s-.1-.4-.2-.6c0-.2-.1-.4-.1-.6 0-.2 0-.4.1-.6 0-.2.1-.4.2-.6.1-.2.2-.3.3-.5s.2-.3.4-.5.3-.3.4-.4c.2-.1.3-.2.5-.3s.4-.1.6-.2c1-.2 2 .1 2.7.8.6.6.9 1.3.9 2.1s-.3 1.6-.9 2.1c-.1.1-.3.3-.4.4-.2.1-.3.2-.5.3-.2.1-.4.1-.6.2C14.4 67 14.2 67 14 67z"/><path fill="#444b54" d="M26.5,26.5c-4.4,4.4-8,9.6-10.6,15.2l-1.2-3.4c-0.6-1.6-2.3-2.4-3.8-1.8c-1.6,0.6-2.4,2.3-1.8,3.8 l4,11v0.1c0,0.1,0.1,0.2,0.1,0.2c0,0.1,0.1,0.1,0.1,0.2c0,0.1,0.1,0.1,0.1,0.2c0,0.1,0.1,0.1,0.1,0.2c0,0.1,0.1,0.1,0.1,0.2 c0.1,0.1,0.1,0.1,0.2,0.2l0,0l0.1,0.1c0.1,0,0.1,0.1,0.2,0.1c0.1,0,0.1,0.1,0.2,0.1c0.1,0,0.1,0.1,0.2,0.1c0.1,0,0.2,0.1,0.2,0.1 c0.1,0,0.1,0,0.2,0.1c0.1,0,0.2,0,0.3,0.1c0.1,0,0.1,0,0.2,0c0.1,0,0.2,0,0.3,0h0.1l0,0c0.1,0,0.3,0,0.4,0s0.1,0,0.2,0 s0.2-0.1,0.3-0.1h0.1c0,0,0,0,0.1,0c0,0,0.1,0,0.1-0.1l11-5c1.5-0.7,2.2-2.5,1.5-4s-2.5-2.2-4-1.5L21,44.7c2.3-5.2,5.6-9.9,9.7-14 c18.3-18.3,48.1-18.3,66.5,0C106.1,39.6,111,51.4,111,64l0,0l0,0c0,25.9-21.1,47-47,47c-1.7,0-3,1.3-3,3s1.3,3,3,3 c29.2,0,53-23.8,53-53l0,0l0,0c0-14.2-5.5-27.5-15.5-37.5C80.8,5.9,47.2,5.9,26.5,26.5z"/></svg>