<?xml version="1.0" encoding="UTF-8"?>
<svg xmlns="http://www.w3.org/2000/svg" xmlns:xlink="http://www.w3.org/1999/xlink" width="128pt" height="128pt" viewBox="0 0 128 128" version="1.1">
<g id="surface5275345">
<path style=" stroke:none;fill-rule:nonzero;fill:rgb(100%,100%,100%);fill-opacity:1;" d="M 14 24 C 8.5 24 4 28.5 4 34 L 4 114 C 4 119.5 8.5 124 14 124 L 109 124 C 114.5 124 119 119.5 119 114 L 119 24 Z M 14 24 "/>
<path style=" stroke:none;fill-rule:nonzero;fill:rgb(26.666667%,29.411765%,32.941176%);fill-opacity:1;" d="M 4 57 C 2.300781 57 1 55.699219 1 54 L 1 34 C 1 26.800781 6.800781 21 14 21 L 119 21 C 120.699219 21 122 22.300781 122 24 C 122 25.699219 120.699219 27 119 27 L 14 27 C 10.101562 27 7 30.101562 7 34 L 7 54 C 7 55.699219 5.699219 57 4 57 Z M 4 57 "/>
<path style=" stroke:none;fill-rule:nonzero;fill:rgb(100%,100%,100%);fill-opacity:1;" d="M 22 37 L 22 14 C 22 8.5 26.5 4 32 4 L 92 4 C 97.5 4 102 8.5 102 14 L 102 37 Z M 22 37 "/>
<path style=" stroke:none;fill-rule:nonzero;fill:rgb(61.960784%,72.54902%,82.745098%);fill-opacity:1;" d="M 37 4.398438 L 52 4.398438 L 52 36.398438 L 37 36.398438 Z M 37 4.398438 "/>
<path style=" stroke:none;fill-rule:nonzero;fill:rgb(79.215686%,85.882353%,91.764706%);fill-opacity:1;" d="M 119 104 L 119 64 L 114 64 C 103 64 94.5 73 94.5 84 C 94.5 95 103 104 114 104 Z M 119 104 "/>
<path style=" stroke:none;fill-rule:nonzero;fill:rgb(26.666667%,29.411765%,32.941176%);fill-opacity:1;" d="M 109 127 L 14 127 C 6.800781 127 1 121.199219 1 114 L 1 44 C 1 42.300781 2.300781 41 4 41 C 5.699219 41 7 42.300781 7 44 L 7 114 C 7 117.898438 10.101562 121 14 121 L 109 121 C 112.898438 121 116 117.898438 116 114 L 116 54 C 116 50.101562 112.898438 47 109 47 C 107.300781 47 106 45.699219 106 44 C 106 42.300781 107.300781 41 109 41 C 116.199219 41 122 46.800781 122 54 L 122 114 C 122 121.199219 116.199219 127 109 127 Z M 109 127 "/>
<path style=" stroke:none;fill-rule:nonzero;fill:rgb(26.666667%,29.411765%,32.941176%);fill-opacity:1;" d="M 109 47 L 19 47 C 17.300781 47 16 45.699219 16 44 C 16 42.300781 17.300781 41 19 41 L 109 41 C 110.699219 41 112 42.300781 112 44 C 112 45.699219 110.699219 47 109 47 Z M 109 47 "/>
<path style=" stroke:none;fill-rule:nonzero;fill:rgb(100%,100%,100%);fill-opacity:1;" d="M 124 94 L 114 94 C 108.5 94 104 89.5 104 84 C 104 78.5 108.5 74 114 74 L 124 74 Z M 124 94 "/>
<path style=" stroke:none;fill-rule:nonzero;fill:rgb(26.666667%,29.411765%,32.941176%);fill-opacity:1;" d="M 124 97 L 114 97 C 106.800781 97 101 91.199219 101 84 C 101 76.800781 106.800781 71 114 71 L 124 71 C 125.699219 71 127 72.300781 127 74 L 127 94 C 127 95.699219 125.699219 97 124 97 Z M 114 77 C 110.101562 77 107 80.101562 107 84 C 107 87.898438 110.101562 91 114 91 L 121 91 L 121 77 Z M 114 77 "/>
<path style=" stroke:none;fill-rule:nonzero;fill:rgb(26.666667%,29.411765%,32.941176%);fill-opacity:1;" d="M 102 37 C 100.300781 37 99 35.699219 99 34 L 99 14 C 99 10.101562 95.898438 7 92 7 L 32 7 C 28.101562 7 25 10.101562 25 14 L 25 34 C 25 35.699219 23.699219 37 22 37 C 20.300781 37 19 35.699219 19 34 L 19 14 C 19 6.800781 24.800781 1 32 1 L 92 1 C 99.199219 1 105 6.800781 105 14 L 105 34 C 105 35.699219 103.699219 37 102 37 Z M 102 37 "/>
</g>
</svg>
