<?xml version="1.0" encoding="UTF-8"?><svg version="1.1" xmlns="http://www.w3.org/2000/svg" xmlns:xlink="http://www.w3.org/1999/xlink" viewBox="0 0 1200 800" width="1200" height="800" x="0px" y="0px">
              
              <!-- ITEM 0 -->
<g transform="translate(301.0 138.0) scale(1.0620587707058289 1.0615049536897838) rotate(0.0 289.5319999999999 272.726)">
<g transform="translate(-0.0 -0.0)">
<title>abstract_background_11</title><g id="f598cf0e-6436-467d-94e8-5edce5722b64-i0" data-name="Error 404"><g id="f660552d-da1e-47a6-b0f1-e37e66fda15c-i0" data-name="BG"><path d="M148.442,523.04C100.206,515,58.9,488.634,36.99,448.406a127.872,127.872,0,0,1-4.36-113.382c19.746-43.656,62.193-75,97.068-110.216a423.732,423.732,0,0,0,72.931-98.61c8.5-15.956,13.163-36.129,26.108-49.375,14-14.325,29.724-25.95,49.1-34.035,39.129-16.323,84.267-18.051,126.838-11.728,34.327,5.1,68.108,15.424,96.649,33.283s51.578,43.658,61.1,73.691,5.417,57.827-15.561,82.739c-30.477,36.192-92.77,43.638-104.948,91.849-5.426,21.484,1.271,57.395,15.761,75.177,10.531,12.925,25.982,23.735,29.583,39.418,10.609,46.213-71.089,66.808-107.159,75.568-44.864,10.9-90.626,23.438-136.915,27.2C211.708,532.538,179.372,528.2,148.442,523.04Z" fill="#fbf1ef"/><path d="M145.991,130.521a87.419,87.419,0,0,0,5.248-10.12c6.866-15.687-5.924-27.755-20.9-30.822C113.588,86.151,90.4,86.687,79.4,101.556c-6.4,8.646-8.617,19.8-8.421,30.552.173,9.517,2.1,18.874,4.263,28.107,5.107,21.755,33.487,5.8,44.259-1.62A91.989,91.989,0,0,0,145.991,130.521Z" fill="#fbf1ef"/></g></g>
</g>
</g>

<!-- ITEM 1 -->
<g transform="translate(373.0 350.0) scale(0.6723404255319149 0.6704119850187266) rotate(0.0 117.50000000000001 133.5)">
<g transform="translate(-0.0 -0.0)">

<g id="books-i1">
	
		<linearGradient id="_3_1_-i1" gradientUnits="userSpaceOnUse" x1="635.7561" y1="4626.0767" x2="12260.9912" y2="4626.0767" gradientTransform="matrix(0.0178 0 0 0.0178 0 13.0844)">
		<stop offset="0" style="stop-color:#23286B"/>
		<stop offset="1" style="stop-color:#151A4F"/>
	</linearGradient>
	<path id="_3-i1" fill="url(#_3_1_-i1)" d="M217.973,95.399c0,10.551-8.513,19.05-19.082,19.05c-0.147,0-0.147,0-0.294,0l0,0H11.302   v-7.767h187.883l0,0c6.312-0.293,11.155-5.569,10.862-11.723c-0.294-6.008-5.284-10.844-11.302-10.844c-0.147,0-0.294,0-0.44,0   H11.302v-7.913h187.442l0,0h0.147C209.46,76.349,217.973,84.848,217.973,95.399z"/>
	
		<linearGradient id="_7_1_-i1" gradientUnits="userSpaceOnUse" x1="12603.6172" y1="13412.5215" x2="-1115.4821" y2="12971.1621" gradientTransform="matrix(0.0178 0 0 0.0178 0 13.0844)">
		<stop offset="0" style="stop-color:#23286B"/>
		<stop offset="1" style="stop-color:#151A4F"/>
	</linearGradient>
	<path id="_7-i1" fill="url(#_7_1_-i1)" d="M7.926,247.95c0,6.008,4.844,10.991,10.862,11.284l0,0h187.883V267H19.229l0,0h-0.147   C8.513,267,0,258.501,0,247.95c0-10.551,8.513-19.05,19.082-19.05l0,0h187.736v7.767H19.816c-0.147,0-0.294,0-0.44,0   C13.064,236.519,7.926,241.648,7.926,247.95z"/>
	
		<linearGradient id="_5_1_-i1" gradientUnits="userSpaceOnUse" x1="30562.2109" y1="16081.6885" x2="-5064.9688" y2="4873.1367" gradientTransform="matrix(0.0178 0 0 0.0178 0 13.0844)">
		<stop offset="0" style="stop-color:#A1C3FC"/>
		<stop offset="0.6955" style="stop-color:#81AEF2"/>
		<stop offset="1" style="stop-color:#78A9EF"/>
	</linearGradient>
	<path id="_5-i1" fill="url(#_5_1_-i1)" d="M35.962,171.894c0,6.008,4.844,10.991,10.862,11.284l0,0h186.855v7.62H46.237l0,0   c-10.568-0.147-19.082-8.793-18.935-19.344c0.147-10.405,8.513-18.757,18.935-18.904l0,0h187.589v8.06H47.851   c-0.147,0-0.294,0-0.44,0C41.099,160.61,35.962,165.593,35.962,171.894z"/>
	
		<linearGradient id="_4_1_-i1" gradientUnits="userSpaceOnUse" x1="11059.2021" y1="9050.2168" x2="-6681.6182" y2="-182.248" gradientTransform="matrix(0.0178 0 0 0.0178 0 13.0844)">
		<stop offset="0" style="stop-color:#A1C3FC"/>
		<stop offset="0.6955" style="stop-color:#81AEF2"/>
		<stop offset="1" style="stop-color:#78A9EF"/>
	</linearGradient>
	<path id="_4-i1" fill="url(#_4_1_-i1)" d="M109.647,132.621c0,0.293,0,0.586,0,0.733c0,6.008,4.844,10.991,10.862,11.284l0,0h0.44l0,0   l0,0h93.648v7.767H27.008c-10.568,0-19.082-8.646-19.082-19.197s8.513-19.05,19.082-19.05H214.45v7.767h-93.207   c-0.147,0-0.294,0-0.44,0c-0.294,0-0.44,0-0.734,0c-5.284,0.293-9.541,4.396-10.422,9.525   C109.647,132.035,109.647,132.328,109.647,132.621z"/>
	
		<linearGradient id="_1_1_-i1" gradientUnits="userSpaceOnUse" x1="652.2677" y1="339.7119" x2="11633.4941" y2="339.7119" gradientTransform="matrix(0.0178 0 0 0.0178 0 13.0844)">
		<stop offset="0.1291" style="stop-color:#428DFC"/>
		<stop offset="0.9987" style="stop-color:#1D72D8"/>
	</linearGradient>
	<path id="_1-i1" fill="url(#_1_1_-i1)" d="M128.435,18.025c0,0.44,0,0.733,0,1.172c0,6.008,4.844,10.991,10.862,11.284l0,0h67.52v7.767   H30.678c-10.568,0-19.082-8.646-19.082-19.197S20.109,0.147,30.678,0h175.993v7.767h-66.64c-0.147,0-0.294,0-0.44,0   s-0.44,0-0.587,0c-5.284,0.293-9.834,4.25-10.568,9.525C128.435,17.585,128.435,17.878,128.435,18.025z"/>
	
		<linearGradient id="_6_1_-i1" gradientUnits="userSpaceOnUse" x1="2539.1138" y1="11059.7383" x2="14172.6025" y2="11059.7383" gradientTransform="matrix(0.0178 0 0 0.0178 0 13.0844)">
		<stop offset="0.1291" style="stop-color:#428DFC"/>
		<stop offset="0.9987" style="stop-color:#1D72D8"/>
	</linearGradient>
	<path id="_6-i1" fill="url(#_6_1_-i1)" d="M235,209.702c0,10.551-8.513,19.05-19.082,19.05c0,0-0.147,0-0.294,0l0,0H28.182v-7.767H130.49   l0,0c6.018-0.293,10.862-5.276,10.862-11.284c0-0.293,0-0.586,0-0.733c-0.44-5.569-4.844-10.111-10.568-10.551   c-0.294,0-0.44,0-0.734,0c-0.147,0-0.294,0-0.44,0H28.329v-7.767h187.442l0,0c0,0,0.147,0,0.294,0   C226.34,190.652,235,199.151,235,209.702z"/>
	
		<linearGradient id="_2_1_-i1" gradientUnits="userSpaceOnUse" x1="673.34" y1="2486.9661" x2="14663.3301" y2="2486.9661" gradientTransform="matrix(0.0178 0 0 0.0178 0 13.0844)">
		<stop offset="0" style="stop-color:#A1C3FC"/>
		<stop offset="0.6955" style="stop-color:#81AEF2"/>
		<stop offset="0.7528" style="stop-color:#7FADF1"/>
		<stop offset="1" style="stop-color:#78A9EF"/>
	</linearGradient>
	<path id="_2-i1" fill="url(#_2_1_-i1)" d="M230.009,57.298c0,10.551-8.513,19.05-19.082,19.05h-0.294l0,0H23.045v-7.767H209.9l0,0   c6.312-0.293,11.155-5.569,10.862-11.723c-0.294-6.008-5.284-10.844-11.302-10.844c-0.147,0-0.294,0-0.44,0H23.045v-7.767h187.442   l0,0h0.294C221.349,38.101,230.009,46.747,230.009,57.298z"/>
	
		<linearGradient id="_6-2_1_-i1" gradientUnits="userSpaceOnUse" x1="3648.7627" y1="11059.7383" x2="9585.2314" y2="11059.7383" gradientTransform="matrix(0.0178 0 0 0.0178 0 13.0844)">
		<stop offset="0.0898" style="stop-color:#EEEEEE"/>
		<stop offset="0.8178" style="stop-color:#D6D7D8"/>
	</linearGradient>
	<path id="_6-2-i1" fill="url(#_6-2_1_-i1)" d="M141.206,209.702c0,6.008-4.844,10.991-10.862,11.284l0,0H35.668v-22.568h94.969   c5.578,0.44,10.128,4.836,10.568,10.551C141.206,209.116,141.206,209.409,141.206,209.702z"/>
	
		<linearGradient id="_2-2_1_-i1" gradientUnits="userSpaceOnUse" x1="1467.6443" y1="2572.3164" x2="12604.4854" y2="2394.4131" gradientTransform="matrix(0.0178 0 0 0.0178 0 13.0844)">
		<stop offset="0.0898" style="stop-color:#EEEEEE"/>
		<stop offset="0.8178" style="stop-color:#D6D7D8"/>
	</linearGradient>
	<path id="_2-2-i1" fill="url(#_2-2_1_-i1)" d="M220.909,57.298c0.147-6.008-4.697-11.137-10.715-11.284c-0.147,0-0.294,0-0.44,0H31.558   v22.568h178.488l0,0l0,0h0.44l0,0C216.505,68.142,220.909,63.16,220.909,57.298z"/>
	
		<linearGradient id="_3-2_1_-i1" gradientUnits="userSpaceOnUse" x1="1056.8386" y1="4630.1958" x2="11807.0742" y2="4630.1958" gradientTransform="matrix(0.0178 0 0 0.0178 0 13.0844)">
		<stop offset="0.0898" style="stop-color:#EEEEEE"/>
		<stop offset="0.8178" style="stop-color:#D6D7D8"/>
	</linearGradient>
	<path id="_3-2-i1" fill="url(#_3-2_1_-i1)" d="M209.9,95.399c0.147-6.155-4.697-11.137-10.862-11.284c-0.147,0-0.294,0-0.44,0H18.788   v22.567h180.25l0,0l0,0h0.44l0,0C205.497,106.243,210.047,101.261,209.9,95.399z"/>
	
		<linearGradient id="_4-2_1_-i1" gradientUnits="userSpaceOnUse" x1="11983.0439" y1="6913.7051" x2="4227.27" y2="6522.3662" gradientTransform="matrix(0.0178 0 0 0.0178 0 13.0844)">
		<stop offset="0.0898" style="stop-color:#EEEEEE"/>
		<stop offset="0.8178" style="stop-color:#D6D7D8"/>
	</linearGradient>
	<path id="_4-2-i1" fill="url(#_4-2_1_-i1)" d="M206.818,122.216v22.567h-86.455l0,0c-6.018-0.293-10.862-5.276-10.862-11.284   c0-0.293,0-0.586,0-0.733c0-0.293,0-0.586,0.147-0.879c0.734-5.276,5.137-9.232,10.422-9.525h86.749V122.216z"/>
	
		<linearGradient id="_7-2_1_-i1" gradientUnits="userSpaceOnUse" x1="13206.9463" y1="13225.9824" x2="-3729.6157" y2="13190.4043" gradientTransform="matrix(0.0178 0 0 0.0178 0 13.0844)">
		<stop offset="0.0898" style="stop-color:#EEEEEE"/>
		<stop offset="0.8178" style="stop-color:#D6D7D8"/>
	</linearGradient>
	<path id="_7-2-i1" fill="url(#_7-2_1_-i1)" d="M200.212,236.666H19.375c-0.147,0-0.294,0-0.44,0c-6.312,0.293-11.156,5.422-10.862,11.723   c0.147,5.715,4.697,10.405,10.422,10.844l0,0h0.44l0,0l0,0h181.277V236.666z"/>
	
		<linearGradient id="_1-2_1_-i1" gradientUnits="userSpaceOnUse" x1="12550.7227" y1="831.9955" x2="7464.1123" y2="13.8683" gradientTransform="matrix(0.0178 0 0 0.0178 0 13.0844)">
		<stop offset="0.0898" style="stop-color:#EEEEEE"/>
		<stop offset="0.8178" style="stop-color:#D6D7D8"/>
	</linearGradient>
	<path id="_1-2-i1" fill="url(#_1-2_1_-i1)" d="M199.625,7.913v22.567h-60.475l0,0c-6.018-0.293-10.862-5.276-10.862-11.284   c0-0.44,0-0.733,0-1.172c0-0.147,0-0.44,0-0.586c0.881-5.276,5.284-9.232,10.568-9.525H199.625z"/>
	
		<linearGradient id="_5-2_1_-i1" gradientUnits="userSpaceOnUse" x1="12174.6377" y1="9003.3984" x2="-1630.7786" y2="8789.917" gradientTransform="matrix(0.0178 0 0 0.0178 0 13.0844)">
		<stop offset="0.0898" style="stop-color:#EEEEEE"/>
		<stop offset="0.8178" style="stop-color:#D6D7D8"/>
	</linearGradient>
	<path id="_5-2-i1" fill="url(#_5-2_1_-i1)" d="M224.872,160.61H47.117c-0.147,0-0.294,0-0.44,0c-6.312,0.293-11.009,5.715-10.715,11.87   c0.294,5.569,4.697,10.111,10.275,10.698l0,0h0.44l0,0l0,0h178.048V160.61H224.872z"/>
</g>

</g>
</g>

<!-- ITEM 2 -->
<g transform="translate(466.0 300.0) scale(1.1529903404451796 1.15684575389948) rotate(0.0 191.67549999999997 115.4)">
<g transform="translate(-0.0 -0.0)">

<path fill="#FFBEB6" d="M272.086,188.064c2.22,5.656,5.852,12.661,7.012,20.844c1.036,7.313,2.276,19.356,11.222,21.592  c6.454,1.613,15.053-3.76,21.798-4.468c6.798-0.713,13.476,0.964,20.541-0.393c6.711-1.289,13.917-4.333,19.801-7.768  c11.141-6.506,6.616-8.965-3.427-9.538c-14.598-0.833-33.186-6.595-46.304-13.082c-10.477-5.181-12.885-13.396-19.275-23.145  c-3.436-5.242-1.411-7.161-8.501-4.267c-4.302,1.756-6.13,6.292-11.292,7.2c3.009,4.77,8.624,12.786,7.703,12.788  C272.513,187.532,271.606,186.84,272.086,188.064z"/>
<path fill="#78A9EF" d="M172.229,213.849c17.319,0.41,24.735-12.988,35.426-25.076c16.048-18.145,15.126-5.49,28.606-25.591  c3.368-5.022,12.158-14.206,12.158-14.206s9.951,18.326,11.971,23.018c6.854,15.927,23.233,19.563,31.264,34.471  c12.618-13.028,22.669-12.897,32.257-26.081c-24.307-28.712-22.669-33.714-43.147-59.926c-8.961-11.47-10.215-24.731-24.483-27.47  c-12.404-2.381-33.346,10.341-44.232,17.201c-18.87,11.893-20.781,9.33-35.844,24.748c-8.455,8.654-17.472,16.445-23.676,26.983  C137.954,186.676,157.57,213.502,172.229,213.849z"/>
<path fill="#F2A19C" d="M201.055,122.825c0.181,1.904-0.942,5.58-1.15,7.96c-0.095,1.083,0.056,3.468-0.49,4.41  c-0.875,1.514-5.717,0.999-7.467,0.981c-3.023-0.033-5.737-0.835-8.529-1.941c-4.421-1.751-0.915-3.022,1.763-3.618  c-1.22-0.565-5.6-1.226-5.564-3.346c0.044-2.576,4.77-1.523,5.895-1.841c-1.799-1.688-4.28-3.046-4.409-5.891  c-0.136-3.022,3.598-3.664,5.937-3.639c3.001,0.033,6.154,1.055,8.862,2.352c2.286,1.094,3.264,3.097,5.191,4.369  C201.139,122.798,201.345,122.866,201.055,122.825z"/>
<path fill="#FFBEB6" d="M195.781,124.638c2.675,6.07,4.845,31.63,14.338,28.698c-1.701-6.213-4.098-12.709-5.636-18.903  c-1.933-7.788-1.31-13.034-6.955-18.076c-12.014-10.731-26.544-1.694-41.209-4.666c0.089,4.286-1.571,8.21-0.797,12.294  c5.897,0.318,15.802-4.34,20.153-0.501c8.405,7.416,5.719,4.087,11.372,9.724c4.584,4.572,10.362,12.361,9.511,2.814  c-0.468-5.236-6.429-10.022-8.281-14.816C192.156,120.847,195.711,125.473,195.781,124.638z"/>
<path fill="#FFBEB6" d="M327.576,181.1c11.528,0.871,27.133,3.83,35.142-5.448c4.147-4.804,8.976-11.983,11.076-18.025  c1.826-5.252,0.559-17.214,6.479-19.124c7.074-1.729-0.168,22.64-0.847,31.071c-0.948,11.769,3.255,23.171,1.808,34.488  c-2.033,15.888-13.017,7.736-23.868,5.658c-9.15-1.752-23.02-0.493-32.224,1.304c0.034-8.718,1.824-20.359,1.691-29.405  C326.268,181.199,326.644,179.393,327.576,181.1z"/>
<linearGradient id="SVGID_1_-i2" gradientUnits="userSpaceOnUse" x1="116.0629" y1="183.9424" x2="349.6412" y2="183.9424">
	<stop offset="0" style="stop-color:#A1C3FC"/>
	<stop offset="1" style="stop-color:#78A9EF"/>
</linearGradient>
<path fill="url(#SVGID_1_-i2)" d="M183.346,165.323c15.02,6.021,52.439,2.306,62.268,3.944c10.78,1.797,52.423,7.372,104.026,12.287  c-2.016,7.624-0.819,37.679-0.819,37.679s-71.934,3.039-107.303,1.638c-24.242-0.96-72.165-0.299-95.622-7.274  c-5.76-1.713-13.568-4.999-22.068-10.332c-6.376-4-8.529-11.948-7.536-18.272c0.872-5.548,9.404-14.167,12.749-18.464  c5.093-6.544,11.288-12.656,15.393-19.884C145.16,147.313,171.656,160.636,183.346,165.323z"/>
<path fill="#78A9EF" d="M46.278,71.096c27.518-1.377,41.648,23.055,61.034,29.632c12.483,4.235,18.081,4.701,31.401,4.423  c12.028-0.251,37.477,5.235,36.709,5.307c-3.216,9.507-1.814,15.97-2.044,25.818c-24.493,0.276-51.084,0.547-76.094-3.013  c-17.126-2.438-28.034-9.949-42.366-19.158c-10.496-6.745-21.666-13.105-16.6-29.74C39.758,79.634,40.385,71.391,46.278,71.096z"/>
<linearGradient id="SVGID_2_-i2" gradientUnits="userSpaceOnUse" x1="97.3338" y1="138.3479" x2="30.3338" y2="138.3479">
	<stop offset="0" style="stop-color:#A1C3FC"/>
	<stop offset="1" style="stop-color:#78A9EF"/>
</linearGradient>
<path fill="url(#SVGID_2_-i2)" d="M29.472,73.308c-15.037,4.865-18.043,23.557-16.806,29.19c4.014,18.289,13.28,23.386,23.44,39.362  c8.777,13.8,30.589,31.384,45.112,39.805c13.802,8.003,35.306,21.994,50.419,26.094c3.976-15.288,31.401-59.707,31.401-59.707  s-12.357-5.989-17.249-9.73c-15.037-11.499-80.051-58.38-87.128-64.572C46.856,63.42,36.99,72.865,29.472,73.308z"/>
<path fill="#F2A19C" d="M54.214,31.969c-2.199,5.026-1.348,19.491,0,25.816c0.667,3.127,1.591,12.689,1.286,15.328  c-2.171,18.819-26.998,0.514-26.998,0.514s0-17.205-2.07-27.943c4.512-2.117,1.534-1.427,6.428-3.603  c5.894-2.621,8.788-6.922,13.702-10.664C46.174,32.043,54.511,31.29,54.214,31.969z"/>
<path fill="#FFBEB6" d="M59.039,17.385c10.428,5.142,7.79,16.18,12.584,27.566c5.484,13.024-3.596,14.382-11.985,19.776  c-6.737,4.331-12.867,5.398-21.066,2.304C8.271,55.596,7.215,25.322,27.39,12.182c3.407-2.219,8.221-4.046,12.135-4.999  C44.167,6.052,54.494,15.004,59.039,17.385z"/>
<g>
	<path fill="#23286B" d="M59.88,53.144c-0.289,0-0.579-0.012-0.872-0.038c-2.614-0.229-4.983-1.458-6.67-3.459   c-1.688-2.003-2.492-4.539-2.264-7.143c0.463-5.291,5.233-9.363,10.641-8.887c2.614,0.229,4.983,1.458,6.671,3.459   c1.688,2.002,2.492,4.539,2.264,7.142C69.211,49.224,64.92,53.144,59.88,53.144z M59.843,34.579c-4.526,0-8.38,3.52-8.774,8.012   c-0.205,2.336,0.517,4.613,2.032,6.411c1.516,1.798,3.645,2.902,5.993,3.107c4.864,0.416,9.142-3.228,9.559-7.978   c0.205-2.336-0.517-4.613-2.033-6.411c-1.516-1.798-3.645-2.902-5.993-3.108C60.363,34.59,60.102,34.579,59.843,34.579z"/>
</g>
<g>
	<path fill="#23286B" d="M77.389,51.519c-0.086,0-0.173-0.003-0.259-0.011c-1.392-0.122-2.592-1.196-3.378-3.025   c-0.743-1.726-1.04-3.95-0.837-6.261c0.434-4.956,2.964-8.663,5.766-8.413c2.799,0.245,4.651,4.324,4.216,9.286   C82.475,47.898,80.108,51.519,77.389,51.519z M78.421,34.798c-2.125,0-4.147,3.369-4.51,7.511c-0.188,2.15,0.082,4.202,0.76,5.779   c0.634,1.475,1.539,2.335,2.547,2.424c2.195,0.178,4.31-3.25,4.683-7.503c0.373-4.257-1.142-8.014-3.307-8.203   C78.535,34.801,78.478,34.798,78.421,34.798z"/>
</g>
<path fill="#23286B" d="M63.161,13.179C61.228-1.676,32.412-6.576,28.478,12.306c-12.209-4.8-26.482,3.167-21.886,15.626  c-1.079,0.562-2.107,1.28-3.051,2.237c-8.636,8.758,0.07,19.53,9.575,20.71C-3.839,67.743,35.83,66.098,35.83,66.098l0.022-34.326  c11.921,0.26,23.284-0.222,34.859-0.773C86.182,30.261,77.457,8.512,63.161,13.179z"/>
<rect x="162.913" y="164.512" fill="#151A4F" width="69.343" height="10.129"/>
<polygon fill="#23286B" points="270.206,103.121 229.323,103.121 209.455,174.641 250.338,174.641 "/>
<linearGradient id="SVGID_3_-i2" gradientUnits="userSpaceOnUse" x1="-878.1599" y1="998.4984" x2="-857.316" y2="1010.31" gradientTransform="matrix(-0.9827 0.1853 -0.1853 -0.9827 -496.0671 1314.7411)">
	<stop offset="0" style="stop-color:#FFBEB6"/>
	<stop offset="1" style="stop-color:#F8AFA9"/>
</linearGradient>
<path fill="url(#SVGID_3_-i2)" d="M132.205,167.811c1.287-4.918,2.999-9.789,4.37-14.639c0.682-2.412-0.24-3.367,2.553-3.869  c1.254-0.227,4.16,1.282,5.414,1.424c-0.37-0.289,1.293-0.329,0.862-0.519c5.977,0.986,11.522,1.704,17.391,3.28  c2.809,0.754,5.634,1.233,8.436,1.856c0.818-0.34,1.621-0.69,2.508-0.939c3.005-0.845,5.118-0.372,8.125,0.072  c5.439,0.803,10.676-0.067,15.619,2.487c2.707,4.585-8.085,5.622-13.807,6.151c2.477,3.45,4.801,7.038,7.41,10.302  c1.356,1.694,5.327,5.411,2.236,7.711c-2.241,1.665-2.915-0.295-4.432-0.332c-3.079-0.078-2.3-0.088-5.716,1.256  c-4.009,1.577-7.04,0.5-10.485,1.443c-1.701,0.466-2.918,2.568-4.82,1.917c-0.831-0.284-2.01-3.894-2.423-4.625  c-1.233-2.177-2.237-4.679-3.309-7.18c-2.537-0.123-5.05-0.22-7.381-0.553C147.047,171.954,139.902,168.348,132.205,167.811z"/>
<linearGradient id="SVGID_4_-i2" gradientUnits="userSpaceOnUse" x1="141.4461" y1="97.5288" x2="54.4461" y2="146.5288">
	<stop offset="0" style="stop-color:#A1C3FC"/>
	<stop offset="1" style="stop-color:#78A9EF"/>
</linearGradient>
<path fill="url(#SVGID_4_-i2)" d="M16.644,90.845c-14.138,19.703,18.777,55.091,36.909,68.657  c25.913,19.387,57.504,15.807,91.351,14.202c1.017-12.242,0.675-12.131,4.927-23.579c-13.261-1.946-27.6-4.707-40.012-7.19  c-17.193-3.439-27.329-8.765-37.824-15.63c-19.473-12.738-26.573-50.869-51.456-39.799C19.65,87.951,17.758,89.621,16.644,90.845z"/>
<path id="texture-2_3_-i2" fill="#FFFFFF" d="M20.341,104.896c0.044-0.084,0.009-0.189-0.076-0.232  c-0.084-0.044-0.189-0.009-0.232,0.076c-0.044,0.084-0.009,0.189,0.076,0.232l0,0C20.194,105.014,20.297,104.982,20.341,104.896  L20.341,104.896z M21.468,87.218c0.093-0.029,0.145-0.13,0.114-0.223l0,0c-0.024-0.086-0.114-0.135-0.2-0.111  c-0.008,0.001-0.014,0.004-0.022,0.008c-0.09,0.026-0.141,0.12-0.116,0.211C21.276,87.194,21.376,87.247,21.468,87.218  L21.468,87.218L21.468,87.218z M20.321,96.134c0.096,0,0.179-0.073,0.191-0.169c0.006-0.099-0.068-0.184-0.169-0.191  c-0.099-0.006-0.184,0.068-0.191,0.169C20.154,96.041,20.225,96.121,20.321,96.134z M41.498,105.276  c0.181,0.022,0.347-0.107,0.373-0.288c0.03-0.174-0.086-0.339-0.259-0.37c-0.006,0-0.011-0.002-0.018-0.003  c-0.181-0.022-0.347,0.107-0.373,0.289C41.195,105.082,41.318,105.249,41.498,105.276L41.498,105.276z M33.561,104.189  c0.184,0.021,0.347-0.11,0.368-0.293c0.022-0.18-0.105-0.342-0.285-0.367c-0.179-0.026-0.346,0.096-0.372,0.276l0,0  C33.254,103.99,33.38,104.157,33.561,104.189z M25.61,103.093c0.179,0.025,0.344-0.097,0.369-0.276c0.001-0.004,0-0.008,0.001-0.012  c0.03-0.174-0.086-0.339-0.259-0.37c-0.006,0-0.011-0.002-0.018-0.003c-0.183-0.018-0.35,0.108-0.385,0.289  C25.302,102.903,25.429,103.068,25.61,103.093z M32.665,119.961c0.087-0.16,0.028-0.359-0.132-0.446  c-0.16-0.087-0.359-0.028-0.446,0.132c-0.085,0.156-0.029,0.352,0.125,0.442C32.372,120.176,32.573,120.12,32.665,119.961  L32.665,119.961z M25.742,115.914c0.086-0.159,0.028-0.359-0.132-0.446c-0.16-0.087-0.359-0.028-0.446,0.132  c-0.085,0.156-0.029,0.352,0.125,0.442C25.447,116.129,25.65,116.072,25.742,115.914L25.742,115.914z M36.893,89.754  c0.176-0.051,0.279-0.231,0.232-0.409c-0.043-0.174-0.22-0.277-0.394-0.234c0,0-0.003,0-0.003,0.001  c-0.173,0.034-0.285,0.201-0.251,0.373c0.001,0.008,0.003,0.017,0.006,0.025C36.537,89.685,36.714,89.791,36.893,89.754z   M29.131,91.784c0.176-0.053,0.282-0.231,0.244-0.41c-0.051-0.176-0.232-0.28-0.409-0.232c-0.176,0.046-0.281,0.227-0.234,0.402  c0,0.002,0.001,0.005,0.001,0.005c0.044,0.175,0.22,0.279,0.392,0.235C29.129,91.784,29.13,91.783,29.131,91.784z M21.381,93.811  c0.17-0.04,0.278-0.21,0.236-0.381c-0.001-0.005-0.002-0.01-0.004-0.014c-0.039-0.178-0.217-0.288-0.393-0.249  c-0.006,0.001-0.011,0.003-0.017,0.003c-0.177,0.048-0.283,0.23-0.235,0.407c0.048,0.177,0.231,0.282,0.407,0.235  C21.379,93.81,21.38,93.811,21.381,93.811z M28.518,126.643c0.094-0.131,0.065-0.316-0.065-0.412  c-0.131-0.095-0.316-0.067-0.412,0.065c-0.096,0.131-0.067,0.316,0.065,0.412l0,0C28.237,126.801,28.421,126.772,28.518,126.643z   M35.244,97.447c0.163-0.034,0.271-0.186,0.248-0.351c-0.023-0.156-0.17-0.263-0.325-0.239c-0.005,0.001-0.008,0.001-0.013,0.003  c-0.161,0.023-0.273,0.172-0.249,0.332c0,0.002,0.001,0.003,0.001,0.006C34.936,97.355,35.083,97.464,35.244,97.447L35.244,97.447z   M28.189,98.58c0.159-0.028,0.265-0.18,0.238-0.337c-0.023-0.156-0.17-0.263-0.325-0.239c-0.005,0.001-0.008,0.001-0.013,0.003  c-0.161,0.023-0.273,0.172-0.252,0.333c0,0.002,0.001,0.003,0.001,0.006C27.874,98.504,28.028,98.608,28.189,98.58L28.189,98.58z   M21.114,99.728c0.161-0.023,0.273-0.172,0.252-0.333l-0.001-0.006c-0.018-0.153-0.158-0.26-0.312-0.242  c-0.009,0.001-0.019,0.003-0.029,0.005c-0.161,0.023-0.273,0.172-0.252,0.333c0,0.002,0.001,0.003,0.001,0.006  C20.807,99.646,20.956,99.751,21.114,99.728L21.114,99.728z M30.97,112.545c0.16,0.032,0.316-0.068,0.352-0.228  c0.037-0.158-0.058-0.315-0.216-0.352c-0.159-0.034-0.32,0.059-0.364,0.216C30.706,112.342,30.808,112.504,30.97,112.545  L30.97,112.545z M24.003,110.888c0.151,0.04,0.308-0.047,0.349-0.198c0.001-0.006,0.002-0.011,0.004-0.016  c0.037-0.158-0.058-0.315-0.216-0.352c-0.159-0.034-0.32,0.059-0.364,0.216C23.744,110.695,23.844,110.852,24.003,110.888  L24.003,110.888z M27.037,85.428c0.133-0.079,0.178-0.25,0.1-0.383c-0.003-0.005-0.006-0.011-0.009-0.015  c-0.082-0.141-0.262-0.188-0.403-0.108c-0.002,0.002-0.006,0.005-0.009,0.005c-0.135,0.091-0.174,0.272-0.09,0.411  c0.083,0.136,0.262,0.18,0.398,0.096C27.03,85.434,27.033,85.43,27.037,85.428L27.037,85.428z M20.944,89.192  c0.139-0.087,0.186-0.269,0.101-0.412c-0.091-0.138-0.276-0.178-0.415-0.088c-0.132,0.086-0.174,0.26-0.097,0.398  c0.079,0.14,0.257,0.189,0.396,0.111C20.934,89.199,20.94,89.195,20.944,89.192L20.944,89.192z M36.089,127.291  c0.186,0.034,0.365-0.082,0.409-0.268c0.042-0.184-0.071-0.367-0.254-0.41c-0.186-0.037-0.368,0.082-0.409,0.268  C35.793,127.065,35.907,127.248,36.089,127.291L36.089,127.291z M28.028,125.465c0.184,0.042,0.367-0.071,0.41-0.254  c0.043-0.183-0.071-0.367-0.254-0.41c-0.184-0.042-0.367,0.071-0.41,0.254C27.731,125.239,27.845,125.422,28.028,125.465  L28.028,125.465z M30.44,92.962c0.158-0.107,0.206-0.319,0.109-0.483c-0.106-0.158-0.322-0.198-0.48-0.09  c-0.153,0.103-0.195,0.308-0.1,0.465C30.072,93.009,30.279,93.058,30.44,92.962L30.44,92.962z M23.455,97.373  c0.156-0.103,0.204-0.31,0.109-0.472c-0.1-0.16-0.311-0.209-0.472-0.109c-0.16,0.1-0.209,0.311-0.109,0.472  C23.085,97.422,23.294,97.469,23.455,97.373L23.455,97.373z M32.95,110.797c0.182-0.041,0.304-0.215,0.281-0.4  c-0.038-0.183-0.216-0.303-0.4-0.27c-0.183,0.027-0.311,0.198-0.282,0.382c0,0,0.001,0.005,0.001,0.008  C32.582,110.704,32.761,110.829,32.95,110.797L32.95,110.797L32.95,110.797z M24.799,112.2c0.188-0.033,0.313-0.212,0.281-0.4  l0-0.002c-0.032-0.181-0.206-0.303-0.387-0.269l0,0c-0.184,0.032-0.31,0.207-0.279,0.39C24.443,112.103,24.616,112.227,24.799,112.2  L24.799,112.2z M35.27,115.97c0.184-0.029,0.311-0.203,0.281-0.389c-0.029-0.186-0.203-0.311-0.389-0.281  c-0.18,0.029-0.305,0.194-0.282,0.375C34.907,115.865,35.081,115.995,35.27,115.97L35.27,115.97z M27.106,117.029  c0.187-0.027,0.319-0.202,0.293-0.39c-0.028-0.182-0.195-0.311-0.377-0.294c-0.189,0.03-0.322,0.201-0.305,0.39  C26.746,116.922,26.918,117.05,27.106,117.029L27.106,117.029z M26.028,101.446c0.162-0.098,0.216-0.309,0.121-0.472  c-0.094-0.16-0.3-0.215-0.46-0.121c-0.162,0.085-0.226,0.285-0.142,0.448c0.002,0.004,0.004,0.009,0.008,0.012  c0.09,0.167,0.297,0.228,0.464,0.138C26.022,101.45,26.025,101.448,26.028,101.446L26.028,101.446z"/>
<g>
	<path fill="#23286B" d="M68.592,40.064l-0.425-0.905c1.975-0.927,3.882-0.924,5.671,0.009l-0.463,0.887   C71.858,39.263,70.293,39.265,68.592,40.064z"/>
</g>

</g>
</g>

<!-- ITEM 3 -->
<g transform="translate(692.0 526.0) scale(0.21 0.21176470588235294) rotate(0.0 150.0 85.0)">
<g transform="translate(-0.0 -0.0)">

<g>
	<path fill="#EEEEEE" d="M105.877,0v106.119H0V0H105.877z M52.938,86.31c18.323,0,33.174-14.887,33.174-33.25   S71.261,19.808,52.938,19.808S19.764,34.695,19.764,53.06S34.617,86.31,52.938,86.31z"/>
	
		<linearGradient id="SVGID_1_-i3" gradientUnits="userSpaceOnUse" x1="-3002.0884" y1="1219.6443" x2="-2233.7178" y2="1219.6443" gradientTransform="matrix(-0.2581 0 0 0.2581 -474.839 -229.7902)">
		<stop offset="0.0054" style="stop-color:#D6D7D8"/>
		<stop offset="1" style="stop-color:#EEEEEE"/>
	</linearGradient>
	<polygon fill="url(#SVGID_1_-i3)" points="170.999,0 300,0 250.629,170 170.999,170 91.369,170 41.998,0  "/>
	<polygon fill="#F6F6F6" points="57.549,53.543 91.369,170 170.999,170 250.629,170 284.45,53.543  "/>
	<g>
		
			<linearGradient id="SVGID_2_-i3" gradientUnits="userSpaceOnUse" x1="972.05" y1="1359.5355" x2="1784.4948" y2="1359.5355" gradientTransform="matrix(0.2581 0 0 0.2581 -184.7331 -229.7902)">
			<stop offset="0" style="stop-color:#23286B"/>
			<stop offset="1" style="stop-color:#151A4F"/>
		</linearGradient>
		<path fill="url(#SVGID_2_-i3)" d="M275.845,74.606l-27.009,92.999h-77.837H93.162L66.153,74.606H275.845"/>
	</g>
	<polygon fill="#EEEEEE" points="294.045,0 292.573,5.587 246.446,164.413 170.999,164.413 95.552,164.413 49.427,5.587 47.904,0    41.998,0 91.369,170 170.999,170 250.629,170 300,0  "/>
	<path id="texture_5_-i3" fill="#FFFFFF" d="M234.088,153.383c0.142,0.235,0.142,0.235,0.051,0.612   c-0.234,0.142-0.234,0.142-0.611,0.051c-0.142-0.235-0.142-0.235-0.051-0.612C233.711,153.29,233.945,153.148,234.088,153.383z    M226.505,148.326c-0.234,0.142-0.091,0.378,0.051,0.612s0.377,0.091,0.611-0.051s0.091-0.378-0.051-0.612   C226.742,148.181,226.505,148.326,226.505,148.326z M246.081,147.673c-0.234,0.142-0.091,0.378-0.091,0.378   c0.142,0.235,0.377,0.091,0.377,0.091c0.234-0.142,0.091-0.378,0.091-0.378C246.552,147.384,246.315,147.529,246.081,147.673z    M241.5,140.138c-0.234,0.142-0.091,0.378-0.091,0.378c0.142,0.235,0.377,0.091,0.377,0.091l0.091-0.378   C241.735,139.995,241.5,140.138,241.5,140.138z M236.686,132.747c-0.234,0.142-0.091,0.378-0.091,0.378   c0.142,0.235,0.377,0.091,0.377,0.091c0.234-0.142,0.091-0.378,0.091-0.378C237.064,132.839,236.92,132.603,236.686,132.747z    M215.52,163.107c-0.091,0.378,0.142,0.235,0.286,0.47c0.234-0.142,0.234-0.142,0.469-0.287c-0.142-0.235-0.142-0.235-0.286-0.47   C215.755,162.964,215.52,163.107,215.52,163.107z M238.104,154.159c-0.091,0.378,0.051,0.612,0.196,0.85   c0.377,0.091,0.611-0.051,0.848-0.196c0.091-0.378-0.051-0.612-0.196-0.85C238.574,153.872,238.34,154.015,238.104,154.159z    M227.171,148.889c-0.091,0.378,0.051,0.612,0.196,0.85c0.377,0.091,0.611-0.051,0.848-0.196c0.091-0.378-0.051-0.612-0.196-0.85   C227.498,148.368,227.263,148.511,227.171,148.889z M216.326,143.24c-0.091,0.378,0.051,0.612,0.196,0.85   c0.377,0.091,0.611-0.051,0.848-0.196c0.091-0.378-0.051-0.612-0.196-0.85C216.653,142.718,216.42,142.862,216.326,143.24z    M205.485,137.594c-0.091,0.378,0.051,0.612,0.196,0.85c0.377,0.091,0.611-0.051,0.848-0.196c0.091-0.378-0.051-0.612-0.196-0.85   C205.813,137.071,205.341,137.359,205.485,137.594z M248.556,130.018c-0.234,0.142-0.469,0.287-0.327,0.521   c0.142,0.235,0.286,0.47,0.52,0.328c0.234-0.142,0.469-0.287,0.327-0.521C249.17,129.966,248.79,129.875,248.556,130.018z    M244.842,118.079c-0.234,0.142-0.469,0.287-0.327,0.521c0.142,0.235,0.286,0.47,0.52,0.328c0.234-0.142,0.469-0.287,0.327-0.521   C245.22,118.171,245.078,117.935,244.842,118.079z M241.037,106.52c-0.234,0.142-0.469,0.287-0.327,0.521   c0.142,0.235,0.286,0.47,0.52,0.328c0.234-0.142,0.469-0.287,0.327-0.521C241.65,106.469,241.273,106.377,241.037,106.52z    M240.051,141.993c-0.234,0.142-0.327,0.521-0.183,0.757c0.142,0.235,0.52,0.328,0.755,0.183c0.234-0.143,0.327-0.521,0.183-0.757   C240.663,141.942,240.287,141.849,240.051,141.993z M232.109,132.636c-0.234,0.142-0.327,0.521-0.183,0.757   c0.143,0.235,0.52,0.328,0.755,0.183c0.234-0.143,0.327-0.521,0.183-0.757C232.721,132.585,232.344,132.493,232.109,132.636z    M224.165,123.279c-0.234,0.142-0.327,0.521-0.183,0.757c0.142,0.235,0.52,0.328,0.755,0.183c0.234-0.143,0.327-0.521,0.183-0.757   C224.776,123.228,224.4,123.136,224.165,123.279z M216.223,113.923c-0.234,0.142-0.327,0.521-0.183,0.757   c0.142,0.235,0.52,0.328,0.755,0.183c0.234-0.143,0.327-0.521,0.183-0.757C216.836,113.87,216.458,113.779,216.223,113.923z    M246.295,144.314c-0.234,0.142-0.091,0.378,0.051,0.612c0.143,0.235,0.377,0.091,0.611-0.051s0.091-0.378-0.051-0.612   C246.53,144.17,246.295,144.314,246.295,144.314z M239.692,137.69c-0.234,0.142-0.091,0.378,0.051,0.612s0.377,0.091,0.611-0.051   s0.091-0.378-0.051-0.612C240.07,137.783,239.692,137.69,239.692,137.69z M233.088,131.068c-0.234,0.142-0.091,0.378,0.051,0.612   s0.377,0.091,0.611-0.051c0.234-0.143,0.091-0.378-0.051-0.612C233.465,131.159,233.088,131.068,233.088,131.068z M226.485,124.447   c-0.234,0.142-0.091,0.378,0.051,0.612s0.377,0.091,0.611-0.051c0.234-0.143,0.091-0.378-0.051-0.612   C226.865,124.537,226.721,124.302,226.485,124.447z M231.619,157.796c0.142,0.235,0.286,0.47,0.286,0.47   c0.234-0.142,0.469-0.287,0.469-0.287c-0.142-0.235-0.286-0.47-0.286-0.47C231.854,157.653,231.619,157.796,231.619,157.796z    M222.371,157.954c0.142,0.235,0.286,0.47,0.286,0.47c0.234-0.142,0.469-0.287,0.469-0.287c-0.142-0.235-0.286-0.47-0.286-0.47   C222.465,157.576,222.229,157.719,222.371,157.954z M212.983,157.876c0.142,0.235,0.286,0.47,0.286,0.47   c0.234-0.142,0.469-0.287,0.469-0.287c-0.142-0.235-0.286-0.47-0.286-0.47C213.074,157.497,212.983,157.876,212.983,157.876z    M247.072,127.048c-0.234,0.142-0.234,0.142-0.327,0.521c0.142,0.235,0.142,0.235,0.52,0.328c0.234-0.142,0.234-0.142,0.327-0.521   C247.451,127.138,247.072,127.048,247.072,127.048z M243.383,118.325c-0.234,0.142-0.234,0.142-0.327,0.521   c0.142,0.235,0.142,0.235,0.52,0.328c0.234-0.142,0.234-0.142,0.327-0.521C243.761,118.417,243.618,118.182,243.383,118.325z    M239.833,109.836c-0.234,0.142-0.234,0.142-0.327,0.521c0.142,0.235,0.142,0.235,0.52,0.328c0.234-0.142,0.234-0.142,0.327-0.521   C240.212,109.93,240.067,109.692,239.833,109.836z M237.642,148.627c-0.234,0.142-0.091,0.378,0.286,0.47   c0.142,0.235,0.377,0.091,0.469-0.287c0.234-0.142,0.091-0.378-0.286-0.47C237.968,148.107,237.734,148.249,237.642,148.627z    M228.935,144.905c-0.234,0.142-0.091,0.378,0.286,0.47c0.142,0.235,0.377,0.091,0.469-0.287c0.234-0.142,0.091-0.378-0.286-0.47   C229.406,144.617,229.172,144.761,228.935,144.905z M220.373,141.417c-0.234,0.142-0.091,0.378,0.286,0.47   c0.142,0.235,0.377,0.091,0.469-0.287c0.234-0.142,0.091-0.378-0.286-0.47C220.841,141.131,220.608,141.273,220.373,141.417z    M212.046,137.784c-0.234,0.142-0.091,0.378,0.286,0.47c0.142,0.235,0.377,0.091,0.469-0.287c0.234-0.142,0.091-0.378-0.286-0.47   C212.137,137.408,211.902,137.55,212.046,137.784z M248.154,139.951C248.154,139.951,248.061,140.329,248.154,139.951   c0.142,0.235,0.286,0.47,0.377,0.091C248.53,140.043,248.53,140.043,248.154,139.951   C248.388,139.807,248.154,139.951,248.154,139.951z M244.166,136.576C244.074,136.953,244.074,136.953,244.166,136.576   c0.142,0.235,0.286,0.47,0.377,0.091C244.451,137.045,244.545,136.666,244.166,136.576L244.166,136.576z M240.089,133.574   C240.089,133.574,239.855,133.717,240.089,133.574c0.142,0.235,0.286,0.47,0.377,0.091   C240.466,133.666,240.466,133.666,240.089,133.574C240.323,133.432,240.089,133.574,240.089,133.574z M244.929,151.604l0.142,0.235   l0.234-0.142l-0.142-0.235C245.02,151.226,244.929,151.604,244.929,151.604z M239.788,152.159l0.142,0.235l0.234-0.142   l-0.142-0.235L239.788,152.159z M234.65,152.717l0.142,0.235l0.234-0.142l-0.142-0.235L234.65,152.717z M249.066,128.737   C249.066,128.737,248.974,129.115,249.066,128.737c-0.091,0.378,0.286,0.47,0.286,0.47   C249.588,129.066,249.588,129.066,249.066,128.737C249.443,128.828,249.301,128.592,249.066,128.737z M246.724,124.355   C246.724,124.355,246.489,124.498,246.724,124.355c-0.091,0.378,0.286,0.47,0.286,0.47   C246.867,124.589,247.104,124.445,246.724,124.355C246.961,124.209,246.961,124.209,246.724,124.355z M243.084,144.334l0.142,0.235   l0.234-0.142l-0.142-0.235C242.941,144.101,242.941,144.101,243.084,144.334z M238.029,142.902l0.142,0.235l0.234-0.142   l-0.142-0.235L238.029,142.902z M232.971,141.472l0.142,0.235l0.234-0.142l-0.142-0.235   C233.205,141.33,233.205,141.33,232.971,141.472z M248.77,126.659c-0.234,0.142-0.091,0.378,0.051,0.612   c0.143,0.235,0.377,0.091,0.611-0.051c0.234-0.142,0.091-0.378-0.051-0.612C249.147,126.75,249.005,126.517,248.77,126.659z    M242.492,119.514c-0.234,0.142-0.091,0.378,0.051,0.612s0.377,0.091,0.611-0.051c0.234-0.142,0.091-0.378-0.051-0.612   C242.963,119.226,242.585,119.135,242.492,119.514z M236.308,111.989c-0.234,0.142-0.091,0.378,0.051,0.612   s0.377,0.091,0.611-0.051c0.234-0.142,0.091-0.378-0.051-0.612C236.544,111.844,236.544,111.844,236.308,111.989z M229.89,104.61   c-0.234,0.142-0.091,0.378,0.051,0.612c0.142,0.235,0.377,0.091,0.611-0.051c0.234-0.143,0.091-0.378-0.051-0.612   C230.501,104.559,230.125,104.467,229.89,104.61z M242.257,140.319c0.142,0.235,0.286,0.47,0.286,0.47   c0.234-0.142,0.469-0.287,0.469-0.287c-0.142-0.235-0.286-0.47-0.286-0.47C242.35,139.942,242.115,140.086,242.257,140.319z    M232.439,139.538c0.142,0.235,0.286,0.47,0.286,0.47c0.234-0.142,0.469-0.287,0.469-0.287c-0.142-0.235-0.286-0.47-0.286-0.47   C232.765,139.013,232.672,139.394,232.439,139.538z M222.997,138.845c0.142,0.235,0.286,0.47,0.286,0.47l0.468-0.287   c-0.142-0.235-0.286-0.47-0.286-0.47C223.089,138.467,222.855,138.609,222.997,138.845z M213.415,137.918   c0.142,0.235,0.286,0.47,0.286,0.47c0.234-0.142,0.469-0.287,0.469-0.287c-0.142-0.235-0.286-0.47-0.286-0.47   C213.505,137.537,213.271,137.681,213.415,137.918z M251.102,108.767c-0.234,0.142-0.469,0.287-0.327,0.521   c0.142,0.235,0.286,0.47,0.52,0.328c0.234-0.142,0.469-0.287,0.327-0.521C251.48,108.86,251.336,108.624,251.102,108.767z    M247.973,99.38c-0.234,0.142-0.469,0.287-0.327,0.521c0.142,0.235,0.286,0.47,0.52,0.328c0.234-0.142,0.469-0.287,0.327-0.521   C248.584,99.328,248.35,99.471,247.973,99.38z M245.219,90.081c-0.234,0.142-0.469,0.287-0.327,0.521   c0.142,0.235,0.286,0.47,0.52,0.328c0.234-0.142,0.469-0.287,0.327-0.521C245.597,90.172,245.361,90.316,245.219,90.081z    M248.303,134.37c-0.234,0.142-0.091,0.378,0.286,0.47c0.142,0.235,0.377,0.091,0.469-0.287c0.234-0.142,0.091-0.378-0.286-0.47   C248.774,134.083,248.537,134.227,248.303,134.37z M239.779,129.888c-0.234,0.142-0.091,0.378,0.286,0.47   c0.142,0.235,0.377,0.091,0.469-0.287c0.234-0.142,0.091-0.378-0.286-0.47C240.014,129.745,239.779,129.888,239.779,129.888z    M231.022,125.548c-0.234,0.142-0.091,0.378,0.286,0.47c0.142,0.235,0.377,0.091,0.469-0.287c0.234-0.142,0.091-0.378-0.286-0.47   C231.491,125.263,231.256,125.405,231.022,125.548z M222.643,121.304c-0.234,0.142-0.091,0.378,0.286,0.47   c0.142,0.235,0.377,0.091,0.469-0.287c0.234-0.142,0.091-0.378-0.286-0.47C222.97,120.783,222.734,120.926,222.643,121.304z    M214.12,116.822c-0.234,0.142-0.091,0.378,0.286,0.47c0.142,0.235,0.377,0.091,0.469-0.287c0.234-0.142,0.091-0.378-0.286-0.47   C214.211,116.443,213.976,116.586,214.12,116.822z M238.254,148.577c0.142,0.235,0.286,0.47,0.52,0.328   c0.234-0.142,0.469-0.287,0.327-0.521c-0.142-0.235-0.286-0.47-0.52-0.328C238.346,148.198,238.254,148.577,238.254,148.577z    M229.124,151.572c0.142,0.235,0.286,0.47,0.52,0.328c0.234-0.142,0.469-0.287,0.327-0.521c-0.142-0.235-0.286-0.47-0.52-0.328   C229.216,151.194,229.124,151.572,229.124,151.572z M219.755,154.709c0.142,0.235,0.286,0.47,0.52,0.328   c0.234-0.142,0.469-0.287,0.327-0.521s-0.286-0.47-0.52-0.328C219.847,154.33,219.847,154.33,219.755,154.709z M210.622,157.703   c0.142,0.235,0.286,0.47,0.52,0.328c0.234-0.142,0.469-0.287,0.327-0.521c-0.142-0.235-0.286-0.47-0.52-0.328   C210.716,157.324,210.716,157.324,210.622,157.703z M254.554,102.787c0,0-0.234,0.142-0.091,0.378c0,0,0.142,0.235,0.377,0.091   c0,0,0.234-0.142,0.091-0.378C254.787,102.643,254.787,102.643,254.554,102.787z M246.296,123.649c0,0-0.091,0.378,0.142,0.235   c0.234-0.142,0.377,0.091,0.234-0.142c0,0,0.091-0.378-0.142-0.235L246.296,123.649z M240.849,120.517c0,0-0.091,0.378,0.142,0.235   c0,0,0.377,0.091,0.234-0.142c0,0,0.091-0.378-0.142-0.235L240.849,120.517z M235.402,117.389c0,0-0.091,0.378,0.142,0.235   c0,0,0.377,0.091,0.234-0.142c0,0,0.091-0.378-0.142-0.235L235.402,117.389z M244.554,138.273c0,0,0.142,0.235,0.377,0.091   c0.234-0.143,0.234-0.142,0.091-0.378c0,0-0.142-0.235-0.377-0.091C244.647,137.896,244.412,138.038,244.554,138.273z    M238.384,139.78c0,0,0.142,0.235,0.377,0.091c0,0,0.234-0.142,0.091-0.378c0,0-0.142-0.235-0.377-0.091   C238.618,139.637,238.384,139.78,238.384,139.78z M232.357,141.524c0,0,0.142,0.235,0.377,0.091c0,0,0.234-0.142,0.091-0.378   c0,0-0.142-0.235-0.377-0.091C232.449,141.146,232.449,141.146,232.357,141.524z M249.305,115.352   c-0.234,0.142-0.091,0.378-0.091,0.378c0.142,0.235,0.377,0.091,0.377,0.091c0.234-0.142,0.091-0.378,0.091-0.378   C249.541,115.209,249.305,115.352,249.305,115.352z M245.308,110.369c-0.234,0.142-0.091,0.378-0.091,0.378   c0.142,0.235,0.377,0.091,0.377,0.091c0.234-0.142,0.091-0.378,0.091-0.378S245.544,110.225,245.308,110.369z M241.691,105.474   c-0.234,0.142-0.091,0.378-0.091,0.378c0.142,0.235,0.377,0.091,0.377,0.091c0.234-0.142,0.091-0.378,0.091-0.378   C241.925,105.33,241.691,105.474,241.691,105.474z M246.771,130.785l0.142,0.235l0.234-0.142l-0.142-0.235L246.771,130.785z    M240.772,129.93l0.142,0.235l0.234-0.142l-0.142-0.235C240.772,129.93,240.772,129.93,240.772,129.93z M234.539,129.214   l0.142,0.235l0.234-0.142l-0.142-0.235C234.629,128.835,234.395,128.977,234.539,129.214z M228.306,128.499l0.142,0.235   l0.234-0.142l-0.142-0.235C228.398,128.12,228.398,128.12,228.306,128.499z M244.988,146.403c0.142,0.235,0.377,0.091,0.377,0.091   c0.234-0.142,0.091-0.378,0.091-0.378c-0.142-0.235-0.377-0.091-0.377-0.091C244.845,146.167,244.988,146.403,244.988,146.403z    M239.872,150.174c0.142,0.235,0.377,0.091,0.377,0.091c0.234-0.142,0.091-0.378,0.091-0.378c-0.142-0.235-0.377-0.091-0.377-0.091   L239.872,150.174z M235.132,154.037c0.142,0.235,0.377,0.091,0.377,0.091c0.234-0.142,0.091-0.378,0.091-0.378   c-0.142-0.235-0.377-0.091-0.377-0.091C234.99,153.802,234.99,153.802,235.132,154.037z M257.482,96.479   c-0.234,0.142-0.469,0.287-0.327,0.521c0.142,0.235,0.286,0.47,0.52,0.328c0.234-0.142,0.469-0.287,0.327-0.521   C257.862,96.568,257.718,96.334,257.482,96.479z M255.576,86.985c-0.234,0.142-0.469,0.287-0.327,0.521   c0.142,0.235,0.286,0.47,0.52,0.328c0.234-0.142,0.469-0.287,0.327-0.521C255.954,87.076,255.812,86.841,255.576,86.985z    M253.674,77.493c-0.234,0.142-0.469,0.287-0.327,0.521c0.142,0.235,0.286,0.47,0.52,0.328c0.234-0.142,0.469-0.287,0.327-0.521   C254.285,77.441,253.907,77.35,253.674,77.493z M246.896,114.565c-0.234,0.142-0.091,0.378,0.051,0.612s0.377,0.091,0.611-0.051   c0.234-0.142,0.091-0.378-0.051-0.612C247.365,114.28,246.987,114.186,246.896,114.565z M239.024,109.039   c-0.234,0.142-0.091,0.378,0.051,0.612c0.143,0.235,0.377,0.091,0.611-0.051c0.234-0.143,0.091-0.378-0.051-0.612   C239.26,108.895,238.88,108.803,239.024,109.039z M230.92,103.656c-0.234,0.142-0.091,0.378,0.051,0.612s0.377,0.091,0.611-0.051   c0.234-0.142,0.091-0.378-0.051-0.612C231.389,103.37,231.155,103.512,230.92,103.656z M223.052,98.13   c-0.234,0.142-0.091,0.378,0.051,0.612c0.143,0.235,0.377,0.091,0.611-0.051c0.234-0.142,0.091-0.378-0.051-0.612   C223.285,97.987,223.052,98.13,223.052,98.13z M244.163,129.148c0.142,0.235,0.286,0.47,0.52,0.328   c0.234-0.142,0.469-0.287,0.327-0.521s-0.286-0.47-0.52-0.328C244.255,128.769,244.163,129.148,244.163,129.148z M234.693,131.058   c0.142,0.235,0.286,0.47,0.52,0.328c0.234-0.142,0.469-0.287,0.327-0.521c-0.142-0.235-0.286-0.47-0.52-0.328   C234.784,130.68,234.549,130.824,234.693,131.058z M225.222,132.965c0.142,0.235,0.286,0.47,0.52,0.328   c0.234-0.142,0.469-0.287,0.327-0.521s-0.286-0.47-0.52-0.328C225.313,132.587,225.313,132.587,225.222,132.965z M215.988,134.729   c0.142,0.235,0.286,0.47,0.52,0.328c0.234-0.142,0.469-0.287,0.327-0.521c-0.142-0.235-0.286-0.47-0.52-0.328   C216.079,134.352,215.844,134.496,215.988,134.729z M249.987,104.283c-0.234,0.142-0.091,0.378,0.051,0.612   c0.143,0.235,0.377,0.091,0.611-0.051c0.234-0.143,0.091-0.378,0.091-0.378C250.597,104.232,250.221,104.141,249.987,104.283z    M244.742,96.186c-0.234,0.142-0.091,0.378,0.051,0.612c0.143,0.235,0.377,0.091,0.611-0.051c0.234-0.143,0.091-0.378,0.091-0.378   C245.353,96.133,244.977,96.042,244.742,96.186z M239.641,88.321c-0.234,0.142-0.091,0.378,0.051,0.612   c0.142,0.235,0.377,0.091,0.611-0.051c0.234-0.142,0.091-0.378-0.051-0.612C239.874,88.178,239.732,87.943,239.641,88.321z    M234.394,80.226c-0.234,0.142-0.091,0.378-0.091,0.378c0.142,0.235,0.377,0.091,0.377,0.091c0.234-0.142,0.091-0.378-0.051-0.612   C234.631,80.081,234.394,80.226,234.394,80.226z M249.115,121.928c-0.091,0.378,0.051,0.612,0.286,0.47   c0.377,0.091,0.611-0.051,0.469-0.287c0.091-0.378-0.051-0.612-0.286-0.47C249.44,121.404,249.206,121.548,249.115,121.928z    M239.571,120.007c-0.091,0.378,0.051,0.612,0.286,0.47c0.377,0.091,0.377,0.091,0.469-0.287c0.091-0.378,0.091-0.378-0.286-0.47   C239.899,119.483,239.661,119.628,239.571,120.007z M230.264,117.942c-0.091,0.378,0.051,0.612,0.286,0.47   c0.377,0.091,0.377,0.091,0.469-0.287c0.091-0.378-0.051-0.612-0.286-0.47C230.356,117.563,230.121,117.707,230.264,117.942z    M220.72,116.022c-0.091,0.378,0.051,0.612,0.286,0.47c0.377,0.091,0.611-0.051,0.469-0.287c0.091-0.378-0.051-0.612-0.286-0.47   C221.045,115.497,220.81,115.641,220.72,116.022z M211.41,113.956c-0.091,0.378,0.051,0.612,0.286,0.47   c0.377,0.091,0.377,0.091,0.469-0.287c0.091-0.378-0.051-0.612-0.286-0.47C211.644,113.813,211.41,113.956,211.41,113.956z    M243.185,138.139c0.142,0.235,0.377,0.091,0.377,0.091c0.234-0.142,0.091-0.378,0.091-0.378c-0.142-0.235-0.377-0.091-0.611,0.051   L243.185,138.139L243.185,138.139z M235.249,143.634c0.142,0.235,0.377,0.091,0.611-0.051c0.234-0.143,0.091-0.378,0.091-0.378   c-0.142-0.235-0.377-0.091-0.377-0.091C234.962,143.161,235.105,143.396,235.249,143.634z M227.171,148.889   c0.142,0.235,0.377,0.091,0.611-0.051c0.234-0.142,0.091-0.378-0.051-0.612s-0.377-0.091-0.611,0.051   C227.029,148.653,227.029,148.653,227.171,148.889z M219.092,154.146c0.142,0.235,0.377,0.091,0.377,0.091   c0.234-0.142,0.091-0.378-0.051-0.612s-0.377-0.091-0.611,0.051C218.948,153.909,218.948,153.909,219.092,154.146z    M255.636,102.447C255.636,102.447,255.4,102.591,255.636,102.447c-0.091,0.378,0.286,0.47,0.286,0.47   C256.156,102.774,256.013,102.539,255.636,102.447C255.87,102.303,255.87,102.303,255.636,102.447z M252.63,97.503   C252.394,97.646,252.394,97.646,252.63,97.503c-0.091,0.378,0.286,0.47,0.286,0.47C252.773,97.736,253.006,97.594,252.63,97.503   C252.864,97.358,252.63,97.503,252.63,97.503z M249.389,92.703C249.389,92.703,249.153,92.846,249.389,92.703   c-0.091,0.378,0.286,0.47,0.286,0.47C249.768,92.793,249.768,92.793,249.389,92.703C249.624,92.559,249.624,92.559,249.389,92.703z    M248.305,113.706l0.142,0.235l0.234-0.142l-0.142-0.235C248.396,113.325,248.16,113.468,248.305,113.706z M242.396,112.468   l0.142,0.235l0.234-0.142l-0.142-0.235C242.634,112.323,242.634,112.323,242.396,112.468z M236.871,111.324l0.142,0.235   l0.234-0.142l-0.142-0.235C236.962,110.945,236.728,111.088,236.871,111.324z M250.894,126.975   C250.894,126.975,251.038,127.21,250.894,126.975c0.377,0.091,0.469-0.287,0.469-0.287   C250.987,126.598,250.987,126.598,250.894,126.975C250.752,126.741,250.752,126.741,250.894,126.975z M245.726,130.132   C245.869,130.367,246.102,130.223,245.726,130.132c0.377,0.091,0.469-0.287,0.469-0.287S246.198,129.844,245.726,130.132   C245.96,129.99,245.726,130.132,245.726,130.132z M240.937,133.377C241.08,133.614,241.315,133.47,240.937,133.377   c0.377,0.091,0.469-0.287,0.469-0.287S241.263,132.857,240.937,133.377C241.029,133,240.937,133.377,240.937,133.377z    M259.858,85.018c0,0-0.234,0.142-0.091,0.378c0,0,0.142,0.235,0.377,0.091c0,0,0.234-0.142,0.091-0.378   C260.001,85.253,259.858,85.018,259.858,85.018z M253.411,108.326c0,0-0.091,0.378,0.142,0.235c0,0,0.377,0.091,0.234-0.142   c0,0,0.091-0.378-0.142-0.235C253.789,108.417,253.411,108.326,253.411,108.326z M248.578,105.144c0,0-0.091,0.378,0.142,0.235   c0,0,0.377,0.091,0.234-0.142c0,0,0.091-0.378-0.142-0.235L248.578,105.144z M243.744,101.962c0,0-0.091,0.378,0.142,0.235   c0,0,0.377,0.091,0.234-0.142c0,0,0.091-0.378-0.142-0.235C243.978,101.819,243.978,101.819,243.744,101.962z M239.001,98.4   c0,0-0.091,0.378,0.142,0.235c0,0,0.377,0.091,0.234-0.142c0,0,0.091-0.378-0.142-0.235L239.001,98.4z M250.891,119.552   c0,0,0.142,0.235,0.377,0.091c0,0,0.234-0.142,0.091-0.378c0,0-0.142-0.235-0.377-0.091   C251.127,119.409,251.127,119.409,250.891,119.552z M245.425,120.628c0,0,0.142,0.235,0.377,0.091c0,0,0.234-0.142,0.091-0.378   c0,0-0.142-0.235-0.377-0.091C245.283,120.394,245.283,120.393,245.425,120.628z M239.582,121.612c0,0,0.142,0.235,0.377,0.091   c0,0,0.234-0.142,0.091-0.378c0,0-0.142-0.235-0.377-0.091C239.582,121.612,239.582,121.612,239.582,121.612z M233.882,122.836   c0,0,0.142,0.235,0.377,0.091c0,0,0.234-0.142,0.091-0.378c0,0-0.142-0.235-0.377-0.091   C233.973,122.458,233.74,122.601,233.882,122.836z M252.151,103.604L252.151,103.604c0.142,0.235,0.377,0.091,0.377,0.091   S252.386,103.462,252.151,103.604C252.386,103.462,252.009,103.371,252.151,103.604z M247.563,101.888   C247.705,102.123,247.705,102.123,247.563,101.888c0.142,0.235,0.377,0.091,0.377,0.091   C248.176,101.835,248.176,101.835,247.563,101.888C247.8,101.742,247.8,101.742,247.563,101.888z M252.861,118.024   C253.006,118.261,253.006,118.261,252.861,118.024c0.377,0.091,0.377,0.091,0.234-0.142   C253.096,117.88,253.096,117.88,252.861,118.024L252.861,118.024z M248.582,119.993   C248.724,120.226,248.724,120.226,248.582,119.993c0.377,0.091,0.377,0.091,0.234-0.142   C248.818,119.849,248.818,119.849,248.582,119.993L248.582,119.993z M254.172,95.268C253.935,95.412,254.079,95.65,254.172,95.268   c0.142,0.235,0.142,0.235,0.142,0.235C254.549,95.363,254.549,95.363,254.172,95.268C254.405,95.124,254.172,95.268,254.172,95.268   z M250.707,92.218L250.707,92.218c0.142,0.235,0.142,0.235,0.142,0.235C251.086,92.312,250.942,92.076,250.707,92.218   C250.942,92.076,250.564,91.985,250.707,92.218z M253.096,110.455C253.239,110.693,253.239,110.693,253.096,110.455   c0.377,0.091,0.377,0.091,0.377,0.091C253.708,110.406,253.329,110.312,253.096,110.455   C253.329,110.312,253.096,110.455,253.096,110.455z M248.426,110.726C248.568,110.961,248.568,110.961,248.426,110.726   c0.377,0.091,0.377,0.091,0.377,0.091C249.039,110.674,248.897,110.438,248.426,110.726   C248.66,110.583,248.426,110.726,248.426,110.726z M243.756,110.994C243.756,110.994,243.9,111.229,243.756,110.994   c0.377,0.091,0.377,0.091,0.377,0.091C244.227,110.708,244.227,110.708,243.756,110.994   C243.849,110.615,243.756,110.994,243.756,110.994z M255.889,98.094l0.142,0.235l0.234-0.142l-0.142-0.235   C255.747,97.859,255.747,97.859,255.889,98.094z M250.135,98.702l0.142,0.235l0.234-0.142l-0.142-0.235   C250.23,98.323,249.993,98.468,250.135,98.702z M250.642,110.661L250.642,110.661c0.377,0.091,0.611-0.051,0.469-0.287   C250.734,110.283,250.734,110.283,250.642,110.661C250.499,110.426,250.499,110.426,250.642,110.661z"/>
</g>

</g>
</g>

              </svg>