<?xml version="1.0" encoding="iso-8859-1" ?>
              <svg
                version="1.1"
                xmlns="http://www.w3.org/2000/svg"
                xmlns:xlink="http://www.w3.org/1999/xlink"
                viewBox="0 0 921 921"
                width="921"
                height="921"
              >
                <g transform="translate(179.288 334.63) scale(3.522 3.526) rotate(0 64.50312322544009 35)"><g clip-path="url(#clipPath_sM_PK-QQY1LmZug1rXWS1)"><defs>
          <clipPath id="clipPath_sM_PK-QQY1LmZug1rXWS1">
            <rect x="0" y="0" width="129" height="70" />
          </clipPath>
       </defs> <path fill="rgb(191,216,255)" d="M128.706,63.892c-29.573,13.233-60.166,2.036-90.76-6.108c-13.257-3.054-26.514,0-37.732,6.108  c-1.02-19.341,2.04-38.682,0-58.023c15.297-5.09,30.593-7.126,46.909-5.09s31.613,9.161,47.929,12.215  c12.237,1.018,23.455-1.018,33.652-7.126C129.725,25.211,127.686,44.552,128.706,63.892L128.706,63.892z"/> <path fill="rgb(212,229,255)" d="M128.706,63.892c-29.573,13.233-60.166,2.036-90.76-6.108c-13.257-3.054-26.514,0-37.732,6.108  c-1.02-19.341,2.04-38.682,0-58.023c15.297-5.09,30.593-7.126,46.909-5.09s31.613,9.161,47.929,12.215  c12.237,1.018,23.455-1.018,33.652-7.126C129.725,25.211,127.686,44.552,128.706,63.892L128.706,63.892z M72.618,14.013  c-12.237-5.09-24.474,5.09-27.534,17.305c-2.04,9.161,0,18.323,8.158,24.431c4.079,2.036,8.158,3.054,12.237,2.036  c12.237-3.054,19.376-14.251,18.356-26.466C83.836,24.193,80.776,16.049,72.618,14.013L72.618,14.013z M101.172,45.569  c1.02-5.09-2.04-8.144-6.119-9.161c0,1.018-6.119,0,1.02,4.072c3.059,2.036,1.02,8.144-2.04,9.161c-1.02,0-3.059-3.054-4.079,3.054  C94.033,51.677,99.132,50.659,101.172,45.569L101.172,45.569z M112.389,43.534c2.04-5.09-4.079-6.108-7.138-7.126  c-2.04,3.054,3.059,3.054,4.079,5.09c2.04,4.072-3.059,6.108-6.119,8.144c-1.02,1.018-1.02,2.036-1.02,3.054  C107.29,52.695,111.37,48.623,112.389,43.534L112.389,43.534z M27.748,27.247c1.02-4.072-2.04-9.161-7.138-7.126v2.036  c1.02,1.018,3.059,1.018,4.079,2.036c2.04,4.072-3.059,7.126-6.119,9.161c-1.02,1.018-1.02,2.036-1.02,3.054  C21.63,35.39,26.729,32.336,27.748,27.247L27.748,27.247z M38.966,27.247c3.059-4.072-3.059-9.161-6.119-7.126  c-2.04,1.018,2.04,2.036,3.059,4.072c1.02,3.054-1.02,6.108-3.059,7.126s-3.059,0-4.079,4.072  C32.847,34.372,37.946,33.354,38.966,27.247L38.966,27.247z M123.607,16.049c-2.04,2.036-6.119,2.036-8.158,3.054  c-2.04,3.054-1.02,7.126-1.02,11.197c3.059-1.018,7.138-1.018,8.158-3.054C124.627,24.193,123.607,20.121,123.607,16.049  L123.607,16.049z M121.567,53.713c-4.079,1.018-8.158,0-11.217,2.036c-2.04,2.036-1.02,6.108-1.02,9.161  c4.079,0,9.178-1.018,12.237-3.054C122.587,59.821,121.567,56.767,121.567,53.713L121.567,53.713z M19.59,6.888  c-4.079,1.018-9.178,0-11.217,3.054c-2.04,1.018-1.02,5.09-1.02,8.144c3.059-2.036,7.138-3.054,11.217-3.054  C18.57,11.977,18.57,9.942,19.59,6.888L19.59,6.888z M14.491,41.498c-3.059,0-7.138,1.018-8.158,3.054  c-2.04,3.054-1.02,7.126-2.04,11.197c3.059,0,7.138-1.018,8.158-3.054C14.491,49.641,13.472,45.569,14.491,41.498L14.491,41.498z   M75.678,40.48c2.04-3.054,2.04-7.126,1.02-10.179c-2.04-4.072-5.099-7.126-10.198-8.144s-9.178,2.036-12.237,5.09  c-5.099,7.126-2.04,19.341,8.158,20.359C67.519,47.605,73.638,46.587,75.678,40.48L75.678,40.48z M73.638,39.462  c-4.079,6.108-11.217,7.126-16.316,3.054c-2.04-2.036-3.059-6.108-2.04-9.161c1.02-5.09,4.079-9.161,10.198-8.144  C72.618,26.229,74.658,33.354,73.638,39.462L73.638,39.462z"/> </g></g><g transform="translate(172.534 81.662) scale(3.548 3.516) rotate(0 79.77733934611048 24.7098976109215)"><g clip-path="url(#clipPath_haPEakac8HlZWkS7ISP7e)"><defs>
          <clipPath id="clipPath_haPEakac8HlZWkS7ISP7e">
            <rect x="0" y="0" width="159.544" height="49.419" />
          </clipPath>
       </defs> <path fill="#A1C3FC" d="M46.341,28.339c0-0.015-0.001-0.031-0.001-0.046c-0.021-2.154,2.123-1.69,3.771-1.546  c0.482,0.042,0.976,0.111,1.394,0.354c0.418,0.243,0.744,0.701,0.697,1.182c-0.047,0.481-0.453,0.865-0.906,1.034  c-0.453,0.168-0.949,0.162-1.432,0.154c-0.766-0.013-1.531-0.026-2.297-0.038c-0.226-0.004-0.459-0.009-0.664-0.104  C46.541,29.16,46.35,28.739,46.341,28.339z M51.025,33.122c-0.672-0.173-1.38-0.113-2.07-0.034c-0.604,0.07-2.131-0.169-2.531,0.341  c-0.324,0.414-0.033,1.379,0.021,1.851c0.086,0.747,0.051,1.131,0.816,1.252c0.896,0.142,1.803,0.009,2.7-0.042  c0.708-0.04,1.473,0.131,2.067-0.322c0.043-0.033,0.086-0.069,0.127-0.109c0.431-0.417,0.595-1.089,0.403-1.657  C52.336,33.744,51.697,33.295,51.025,33.122z M64.739,37.734c-0.348,0.289-0.508,0.742-0.64,1.175  c-0.132,0.433-0.263,0.888-0.578,1.214c-0.029,0.03-0.072,0.058-0.119,0.086h10.417c-0.161-0.113-0.299-0.256-0.397-0.443  c-0.281-0.537-0.132-1.251-0.506-1.728c-0.341-0.435-0.969-0.489-1.522-0.506c-1.651-0.053-3.302-0.106-4.953-0.159  C65.848,37.354,65.196,37.354,64.739,37.734z M67.315,33.263h1.55l1.156,0.074l0.32-0.098l0.197-0.197l0.074-0.246l-0.099-0.32  l-0.541-1.673l-0.123-0.369l-0.492-1.451l-0.123-0.32l-0.246-0.172l-0.32-0.074l-0.271,0.074l-0.246,0.246l-0.664,1.673  l-0.148,0.369l-0.64,1.648l-0.074,0.369l0.074,0.295l0.271,0.123L67.315,33.263z M52.783,40.209h5.893  c-0.053-0.047-0.094-0.099-0.119-0.155l0.025-0.32l0.049-0.197C59.77,36.5,61.1,33.541,62.464,30.6  c0.684-1.474,1.377-2.942,2.061-4.416c0.232-0.5,0.402-1.262,0.665-1.942h-9.784c0.548,0.446,1.013,0.981,1.334,1.614  c0.486,0.957,0.571,2.134,0.22,3.149c-0.217,0.626-1.543,1.672-1.33,2.241c0.994,1.103,1.795,2.396,1.923,3.768  c0.079,0.849-0.099,1.727-0.649,2.61C56.016,39.051,54.457,39.838,52.783,40.209z M93.679,40.209  c-0.261-0.235-0.488-0.514-0.704-0.794c-2.067-2.665-4.134-5.331-6.201-7.996c-0.059,2.788-0.119,5.576-0.178,8.365  c-0.003,0.141-0.012,0.289-0.047,0.425H93.679z M86.985,24.242c0.617,0.612,1.145,1.32,1.664,2.022c1.368,1.85,2.736,3.7,4.104,5.55  c0.078,0.106,0.181,0.223,0.312,0.208c0.185-0.021,0.23-0.268,0.225-0.454c-0.059-2.349-0.118-4.698-0.177-7.046  c-0.002-0.091,0-0.186,0.001-0.28H86.985z M78.708,40.209h2.802c-0.189-0.718,0.043-2.328,0.045-2.739  c0.008-1.454,0.016-2.908,0.025-4.363c0.016-2.908,0.033-5.817,0.049-8.725c0-0.046,0.005-0.092,0.006-0.139h-9.463  c0.177,0.542,0.305,1.12,0.507,1.579c0.654,1.484,1.308,2.968,1.962,4.451c0.969,2.198,1.981,4.376,2.951,6.573  c0.245,0.555,1.218,2.088,1.289,2.884c0.009,0.101,0.003,0.191-0.021,0.265C78.832,40.079,78.774,40.146,78.708,40.209z   M112.122,40.209c-2.247-0.947-3.083-3.925-5.165-5.3c-0.056,1.523-0.112,3.046-0.168,4.569c-0.009,0.256-0.038,0.532-0.185,0.731  H112.122z M113.804,27.275c-0.638,0.746-1.277,1.492-1.915,2.238c-0.435,0.508-1.54,1.312-1.349,2.058  c0.213,0.836,1.376,1.804,1.937,2.432c1.194,1.337,2.389,2.674,3.583,4.012V24.584c-0.153,0.209-0.275,0.378-0.34,0.453  C115.081,25.783,114.443,26.529,113.804,27.275z M101.863,40.209c-0.147-0.19-0.161-0.458-0.16-0.704  c0.023-2.95,0.045-5.901,0.068-8.851c0.005-0.684-0.144-4.292,0.009-6.412h-3.525c0,0.83,0.001,1.66,0.001,2.49  c0.001,3.993,0.002,7.986,0.004,11.979c0,0.523-0.016,1.092-0.345,1.497H101.863z M109.66,25.021  c0.177-0.257,0.357-0.521,0.543-0.779h-3.408c0.026,1.306,0.053,2.612,0.079,3.919C107.927,27.234,108.865,26.177,109.66,25.021z"/> <rect x="18.105" y="44.753" fill="#A1C3FC" width="123.333" height="4.667"/> <g>  <polygon fill="#A1C3FC" points="157.449,41.355 79.772,5.506 2.095,41.355 0,36.816 79.772,0 159.544,36.816  "/> </g> </g></g><g transform="translate(213.672 392.346) scale(3.741 3.745) rotate(0 64.501470195135 35.004005340453936)"><g clip-path="url(#clipPath_4I-v2FDAikHlEQrNBKgq0)"><defs>
          <clipPath id="clipPath_4I-v2FDAikHlEQrNBKgq0">
            <rect x="0" y="0" width="129" height="70" />
          </clipPath>
       </defs> <path fill="rgb(206,223,255)" d="M128.706,63.892c-29.573,13.233-60.166,2.036-90.76-6.108c-13.257-3.054-26.514,0-37.732,6.108  c-1.02-19.341,2.04-38.682,0-58.023c15.297-5.09,30.593-7.126,46.909-5.09s31.613,9.161,47.929,12.215  c12.237,1.018,23.455-1.018,33.652-7.126C129.725,25.211,127.686,44.552,128.706,63.892L128.706,63.892z"/> <path fill="rgb(227,236,255)" d="M128.706,63.892c-29.573,13.233-60.166,2.036-90.76-6.108c-13.257-3.054-26.514,0-37.732,6.108  c-1.02-19.341,2.04-38.682,0-58.023c15.297-5.09,30.593-7.126,46.909-5.09s31.613,9.161,47.929,12.215  c12.237,1.018,23.455-1.018,33.652-7.126C129.725,25.211,127.686,44.552,128.706,63.892L128.706,63.892z M72.618,14.013  c-12.237-5.09-24.474,5.09-27.534,17.305c-2.04,9.161,0,18.323,8.158,24.431c4.079,2.036,8.158,3.054,12.237,2.036  c12.237-3.054,19.376-14.251,18.356-26.466C83.836,24.193,80.776,16.049,72.618,14.013L72.618,14.013z M101.172,45.569  c1.02-5.09-2.04-8.144-6.119-9.161c0,1.018-6.119,0,1.02,4.072c3.059,2.036,1.02,8.144-2.04,9.161c-1.02,0-3.059-3.054-4.079,3.054  C94.033,51.677,99.132,50.659,101.172,45.569L101.172,45.569z M112.389,43.534c2.04-5.09-4.079-6.108-7.138-7.126  c-2.04,3.054,3.059,3.054,4.079,5.09c2.04,4.072-3.059,6.108-6.119,8.144c-1.02,1.018-1.02,2.036-1.02,3.054  C107.29,52.695,111.37,48.623,112.389,43.534L112.389,43.534z M27.748,27.247c1.02-4.072-2.04-9.161-7.138-7.126v2.036  c1.02,1.018,3.059,1.018,4.079,2.036c2.04,4.072-3.059,7.126-6.119,9.161c-1.02,1.018-1.02,2.036-1.02,3.054  C21.63,35.39,26.729,32.336,27.748,27.247L27.748,27.247z M38.966,27.247c3.059-4.072-3.059-9.161-6.119-7.126  c-2.04,1.018,2.04,2.036,3.059,4.072c1.02,3.054-1.02,6.108-3.059,7.126s-3.059,0-4.079,4.072  C32.847,34.372,37.946,33.354,38.966,27.247L38.966,27.247z M123.607,16.049c-2.04,2.036-6.119,2.036-8.158,3.054  c-2.04,3.054-1.02,7.126-1.02,11.197c3.059-1.018,7.138-1.018,8.158-3.054C124.627,24.193,123.607,20.121,123.607,16.049  L123.607,16.049z M121.567,53.713c-4.079,1.018-8.158,0-11.217,2.036c-2.04,2.036-1.02,6.108-1.02,9.161  c4.079,0,9.178-1.018,12.237-3.054C122.587,59.821,121.567,56.767,121.567,53.713L121.567,53.713z M19.59,6.888  c-4.079,1.018-9.178,0-11.217,3.054c-2.04,1.018-1.02,5.09-1.02,8.144c3.059-2.036,7.138-3.054,11.217-3.054  C18.57,11.977,18.57,9.942,19.59,6.888L19.59,6.888z M14.491,41.498c-3.059,0-7.138,1.018-8.158,3.054  c-2.04,3.054-1.02,7.126-2.04,11.197c3.059,0,7.138-1.018,8.158-3.054C14.491,49.641,13.472,45.569,14.491,41.498L14.491,41.498z   M75.678,40.48c2.04-3.054,2.04-7.126,1.02-10.179c-2.04-4.072-5.099-7.126-10.198-8.144s-9.178,2.036-12.237,5.09  c-5.099,7.126-2.04,19.341,8.158,20.359C67.519,47.605,73.638,46.587,75.678,40.48L75.678,40.48z M73.638,39.462  c-4.079,6.108-11.217,7.126-16.316,3.054c-2.04-2.036-3.059-6.108-2.04-9.161c1.02-5.09,4.079-9.161,10.198-8.144  C72.618,26.229,74.658,33.354,73.638,39.462L73.638,39.462z"/> </g></g><g transform="translate(106.836 244.372) scale(2.215 2.21) rotate(0 96.88036117381492 141.41628959276017)"><g clip-path="url(#clipPath_4m2ATOrrlD9SuNKaQuk2X)"><defs>
          <clipPath id="clipPath_4m2ATOrrlD9SuNKaQuk2X">
            <rect x="0" y="0" width="193.773" height="282.78" />
          </clipPath>
       </defs> <path fill="#F2A19C" d="M93.333,117.728c5.407-3.241,6.847-13.045,9.917-18.073c3.268-5.351,6.218-11.462,10.4-16.244  c9.871-11.288,24.161,6.996,31.683,12.91c11.378,8.947,5.014,16.92,16,26.406c4.48,3.868,11.932,15.579,12,22  c0.07,6.564-8.489,22.544-12.667,27.333c-9.096,10.427-5.685,12.077-18.333,17.916c-12.167,5.617-21.93,12.091-30.642,22.394  c-4.907,5.803-9.147,12.171-12.603,18.941C96.2,236.971,70.988,278.547,66,282.728c-1.957,1.641-60.676-35.991-66-40.667  c10.578-7.268,53.991-48.588,56.684-61.983c1.448-7.204,0.32-14.41,3.649-21.276c3.696-7.622,8.497-15.045,13-22.24  c5.051-8.07,13.528-14.553,21.466-19.713C94.311,117.142,93.822,117.435,93.333,117.728z"/> <path fill="#F2A19C" d="M86.667,138.395c-0.171,0.274-0.407,0.466-0.708,0.574c-0.344-7.969,6.553-18.097,9.642-25.323  c3.282-7.677,6.647-15.231,10.407-22.666c3.546-7.011,8.801-13.312,13.316-19.585c10.033-13.938,21.155-28.434,28.593-43.926  c3.404-7.09,13.112-35.207,25.1-25.425c5.063,4.131,3.246,11.688,1.232,16.684c-2.203,5.466-3.91,11.304-6.99,16.316  c-6.75,10.983-14.414,21.408-19.009,33.676c-2.153,5.748-2.681,11.917-5.492,17.341c-3.31,6.387-6.218,12.723-8.685,19.407  c-2.99,8.101-6.336,16.057-9.332,24.177c-1.947,5.276-4.146,15.002-8.742,18.341c-5.375,3.905-11.842,1.688-17.332,0.158  c-4.518-1.259-12.935-5.611-13.234-10.824C85.752,137.545,86.385,138.125,86.667,138.395z"/> <g>  <path fill="#C1D7FD" d="M167.727,191.21h-62.038c-6.356,0-11.509-5.153-11.509-11.509V25.335c0-6.356,5.153-11.509,11.509-11.509   h62.038c6.356,0,11.509,5.153,11.509,11.509v154.366C179.236,186.057,174.084,191.21,167.727,191.21z"/>  <circle fill="#A1C3FC" cx="124.488" cy="24.964" r="2.014"/>  <path fill="#A1C3FC" d="M167.727,13.825h-11.909c-0.611,0.38-1.211,0.77-1.799,1.164c-15.603,10.446-29.023,25.236-34.245,43.273   c-2.105,7.27-2.834,14.861-4.434,22.259c-3.664,16.939-11.827,32.574-21.16,47.185v51.995c0,6.356,5.153,11.509,11.509,11.509   h62.038c6.356,0,11.509-5.153,11.509-11.509V25.335C179.236,18.978,174.084,13.825,167.727,13.825z"/>  <linearGradient id="SVGID_1_4m2ATOrrlD9SuNKaQuk2X" gradientUnits="userSpaceOnUse" x1="130.1816" y1="180.8495" x2="144.477" y2="180.8495">   <stop offset="0" stop-color="#A1C3FC"/>   <stop offset="1" stop-color="#8AB8FD"/>  </linearGradient>  <circle fill="url(#SVGID_1_4m2ATOrrlD9SuNKaQuk2X)" cx="137.329" cy="180.849" r="7.148"/>     <rect x="130.055" y="23.468" transform="matrix(0.9923 -0.1238 0.1238 0.9923 -2.0029 17.1833)" fill="#A1C3FC" width="14.438" height="2.483"/>  <rect x="97.549" y="33.906" fill="#FFFFFF" width="78.319" height="137.4"/>  <circle fill="#C1D7FD" cx="136.487" cy="180.007" r="5.463"/>  <g>   <path fill="#428DFC" d="M142.533,24.845h-11.773c-0.233,0-0.421-0.189-0.421-0.421c0-0.233,0.188-0.421,0.421-0.421h11.773    c0.233,0,0.421,0.189,0.421,0.421C142.954,24.656,142.766,24.845,142.533,24.845z"/>  </g>  <path fill="none" d="M138.154,79.528"/> </g> <linearGradient id="SVGID_2_4m2ATOrrlD9SuNKaQuk2X" gradientUnits="userSpaceOnUse" x1="96.3751" y1="136.3435" x2="55.6074" y2="152.9525">  <stop offset="0" stop-color="#FFBEB6"/>  <stop offset="1" stop-color="#F2A19C"/> </linearGradient> <path fill="url(#SVGID_2_4m2ATOrrlD9SuNKaQuk2X)" d="M71.083,73.145c-2.5,3.25,1.902,11.58,2.176,12.899c1.135,5.456,1.873,11.365,1.091,17.017  c-1.663,12.022-10.357,21.184-13.934,32.674c-7.482,24.036-6.329,50.938,15.166,67.409c7.02,5.379,28.573,11.777,31.343-1.083  c1.1-5.109,1.404-11.578,0.907-16.667c-0.627-6.43-2.453-13.541-3.76-19.667c-0.944-4.424-2.494-9.277-4.648-13.351  c-2.718-5.138-3.83-10.927-7.591-14.983c4.25-13.75,4.244-22.946,2.907-34.99c-0.694-6.25-0.986-13.17-3.741-19.008  c-2.387-5.06-7.611-11.809-13.333-12.651C73.583,70.145,71.083,73.145,71.083,73.145z"/> <path fill="#FFBEB6" d="M175.958,51.611c-4.761,3.142-8.864,6.169-10.365,8.34c-3.662,5.298-2.774,14.319,4.073,15.764  c5.029,1.061,14.166-3.966,18.292-7.332c3.875-3.162,4.181-11.964,2.75-17.597C188.333,41.438,178.458,49.961,175.958,51.611z"/> <path fill="#FFBEB6" d="M189.667,72.395c-2.208-2.375-5.02-1.467-8.083,1.5c-2.336,2.262-3.629,3.701-5.924,6.009  c-4.362,4.387-9.712,7.894-12.66,13.565c-3.254,6.26,0.392,11.64,7.668,10.61c5.629-0.797,10.971-4.009,15.649-7.101  c4.014-2.652,6.784-6.013,7.351-10.917c0.321-2.782-0.119-5.677-0.833-8.291C192.444,76.346,191.011,73.841,189.667,72.395z"/> <path fill="#FFBEB6" d="M184.966,98.235c-6.693,1.241-31.246,14.892-21.135,22.891c4.371,3.458,12.261,0.704,16.979-0.964  c7.831-2.768,13.371-4.375,12.58-13.938c-0.268-3.242-0.879-6.92-4.548-8.48C188.387,97.55,186.597,97.553,184.966,98.235z"/> <linearGradient id="SVGID_3_4m2ATOrrlD9SuNKaQuk2X" gradientUnits="userSpaceOnUse" x1="185.7659" y1="122.7449" x2="166.0992" y2="122.7449" gradientTransform="matrix(0.6297 -0.5002 0.622 0.783 -12.4673 56.5306)">  <stop offset="0" stop-color="#FFD0CA"/>  <stop offset="1" stop-color="#FFBEB6"/> </linearGradient> <path fill="url(#SVGID_3_4m2ATOrrlD9SuNKaQuk2X)" d="M178.681,69.319l-4.349,3.455c-2.383,1.893-5.881,1.492-7.774-0.891l-0.789-0.993  c-1.893-2.383-1.492-5.881,0.891-7.774l4.349-3.455c2.383-1.893,5.881-1.492,7.774,0.891l0.789,0.993  C181.464,63.928,181.063,67.426,178.681,69.319z"/> <linearGradient id="SVGID_4_4m2ATOrrlD9SuNKaQuk2X" gradientUnits="userSpaceOnUse" x1="164.4913" y1="141.5807" x2="144.8247" y2="141.5807" gradientTransform="matrix(0.6622 -0.4564 0.5675 0.8234 -9.5306 48.1351)">  <stop offset="0" stop-color="#FFD0CA"/>  <stop offset="1" stop-color="#FFBEB6"/> </linearGradient> <path fill="url(#SVGID_4_4m2ATOrrlD9SuNKaQuk2X)" d="M176.911,99.078l-4.574,3.152c-2.506,1.727-5.968,1.09-7.695-1.416l-0.719-1.044  c-1.727-2.506-1.09-5.968,1.416-7.695l4.574-3.152c2.506-1.727,5.968-1.09,7.695,1.416l0.72,1.044  C180.054,93.888,179.417,97.351,176.911,99.078z"/> <linearGradient id="SVGID_5_4m2ATOrrlD9SuNKaQuk2X" gradientUnits="userSpaceOnUse" x1="159.0955" y1="144.6266" x2="139.4288" y2="144.6266" gradientTransform="matrix(0.7551 -0.2766 0.3439 0.939 10.9259 19.6992)">  <stop offset="0" stop-color="#FFD0CA"/>  <stop offset="1" stop-color="#FFBEB6"/> </linearGradient> <path fill="url(#SVGID_5_4m2ATOrrlD9SuNKaQuk2X)" d="M175.713,119.937l-5.216,1.91c-2.857,1.046-6.051-0.435-7.098-3.293l-0.436-1.191  c-1.046-2.857,0.435-6.051,3.293-7.098l5.216-1.91c2.857-1.046,6.051,0.435,7.098,3.293l0.436,1.191  C180.052,115.697,178.571,118.891,175.713,119.937z"/> <path id="texure_5_4m2ATOrrlD9SuNKaQuk2X" opacity="0.51" fill="#FFFFFF" enable-background="new    " d="M94.696,177.712  c-0.011,0.153,0.106,0.285,0.259,0.296c0.152,0.01,0.286-0.106,0.297-0.258c0.011-0.153-0.106-0.285-0.259-0.296l0,0  C94.839,177.445,94.708,177.559,94.696,177.712L94.696,177.712z M101.492,178.113c-0.005,0.158,0.112,0.293,0.268,0.313  c0.155,0.002,0.283-0.12,0.288-0.274c0.019-0.143-0.082-0.276-0.227-0.295c-0.01-0.002-0.02-0.002-0.033-0.002  C101.635,177.845,101.503,177.961,101.492,178.113L101.492,178.113L101.492,178.113z M104.153,204.584  c-0.12,0.102-0.133,0.283-0.03,0.401l0,0c0.091,0.112,0.255,0.129,0.365,0.038c0.01-0.006,0.019-0.015,0.027-0.026  c0.117-0.097,0.134-0.267,0.04-0.385C104.452,204.494,104.272,204.481,104.153,204.584L104.153,204.584L104.153,204.584z   M101.883,164.845c-0.066,0.134-0.012,0.298,0.122,0.366c0.135,0.066,0.298,0.012,0.366-0.123c0.069-0.134,0.012-0.298-0.122-0.366  c-0.124-0.071-0.283-0.027-0.354,0.098C101.89,164.829,101.886,164.836,101.883,164.845z M100.241,190.668  c-0.144,0.062-0.218,0.22-0.176,0.369c0.053,0.151,0.219,0.228,0.37,0.176c0.151-0.053,0.23-0.218,0.176-0.369  C100.549,190.7,100.389,190.625,100.241,190.668z M106.679,188.444c-0.144,0.054-0.214,0.216-0.16,0.36l0,0  c0.038,0.143,0.185,0.229,0.329,0.191c0.007-0.003,0.015-0.004,0.023-0.007c0.147-0.057,0.224-0.218,0.176-0.369  C106.987,188.477,106.828,188.401,106.679,188.444z M80.891,143.279c-0.147,0.25-0.064,0.575,0.188,0.723  c0.004,0.004,0.011,0.005,0.016,0.009c0.249,0.144,0.57,0.058,0.714-0.191c0.001-0.001,0-0.002,0.001-0.004  c0.147-0.25,0.064-0.575-0.188-0.723c-0.004-0.004-0.011-0.005-0.016-0.009c-0.249-0.144-0.57-0.058-0.714,0.191  C80.89,143.276,80.89,143.276,80.891,143.279L80.891,143.279z M92.09,149.673c-0.147,0.257-0.061,0.584,0.196,0.735  c0.258,0.15,0.585,0.061,0.736-0.197c0.001-0.004,0.004-0.004,0.005-0.009c0.144-0.249,0.058-0.569-0.19-0.712  c-0.001-0.001-0.002,0-0.004-0.001C92.573,149.343,92.247,149.425,92.09,149.673L92.09,149.673z M63.094,190.475  c-0.283,0.083-0.447,0.376-0.37,0.66c0.066,0.277,0.341,0.448,0.616,0.385c0.01-0.003,0.019-0.003,0.028-0.007  c0.283-0.083,0.447-0.376,0.37-0.661C63.663,190.571,63.376,190.402,63.094,190.475L63.094,190.475L63.094,190.475z M88.02,183.7  c-0.282,0.075-0.448,0.36-0.374,0.642c0.001,0.005,0.003,0.012,0.006,0.017c0.066,0.277,0.341,0.448,0.616,0.385  c0.01-0.003,0.019-0.003,0.028-0.007c0.284-0.089,0.452-0.379,0.388-0.669C88.597,183.787,88.304,183.622,88.02,183.7L88.02,183.7z   M100.471,180.309c-0.284,0.079-0.451,0.376-0.37,0.66c0.079,0.285,0.376,0.449,0.66,0.369c0.283-0.073,0.452-0.361,0.379-0.643l0,0  c-0.072-0.286-0.361-0.462-0.649-0.391C100.484,180.304,100.477,180.307,100.471,180.309L100.471,180.309z M66.942,163.182  c-0.029,0.291,0.185,0.549,0.477,0.577c0.292,0.029,0.55-0.185,0.578-0.477c0.028-0.286-0.178-0.54-0.463-0.574  C67.242,162.68,66.978,162.89,66.942,163.182L66.942,163.182z M79.754,164.812c-0.029,0.291,0.185,0.549,0.477,0.577  c0.292,0.028,0.55-0.185,0.578-0.477c0.028-0.286-0.178-0.54-0.463-0.574C80.054,164.309,79.791,164.519,79.754,164.812  L79.754,164.812z M92.552,166.45c-0.029,0.298,0.19,0.562,0.488,0.591c0.287,0.028,0.547-0.173,0.591-0.458  c0.046-0.296-0.158-0.571-0.455-0.618c-0.296-0.046-0.573,0.159-0.619,0.454C92.553,166.432,92.552,166.44,92.552,166.45z   M79.687,210.543c-0.229,0.185-0.27,0.519-0.086,0.753c0.173,0.23,0.502,0.272,0.731,0.099c0.001-0.001,0.003-0.002,0.004-0.003  c0.234-0.158,0.294-0.476,0.137-0.71c-0.008-0.011-0.015-0.021-0.024-0.034C80.261,210.421,79.93,210.377,79.687,210.543z   M100.134,194.772c-0.227,0.167-0.279,0.486-0.112,0.714c0.004,0.006,0.009,0.014,0.016,0.019c0.17,0.238,0.502,0.29,0.74,0.12  c0.008-0.005,0.015-0.01,0.022-0.015c0.233-0.184,0.273-0.519,0.091-0.752c-0.184-0.233-0.521-0.272-0.752-0.09  C100.137,194.769,100.135,194.771,100.134,194.772z M68.886,150.685c-0.057,0.255,0.102,0.508,0.355,0.569  c0.254,0.059,0.509-0.1,0.57-0.355c0.06-0.256-0.1-0.509-0.355-0.569l0,0C69.201,150.273,68.948,150.431,68.886,150.685  L68.886,150.685z M80.126,153.224c-0.057,0.255,0.102,0.508,0.355,0.569c0.253,0.067,0.514-0.084,0.581-0.337  c0.067-0.253-0.083-0.513-0.337-0.58c-0.009-0.003-0.02-0.004-0.029-0.007c-0.248-0.063-0.501,0.088-0.566,0.336  C80.129,153.21,80.129,153.218,80.126,153.224L80.126,153.224z M91.571,155.489c-0.105,0.055-0.18,0.157-0.202,0.276  c-0.057,0.255,0.102,0.508,0.355,0.569c0.262,0.061,0.522-0.097,0.587-0.359c0-0.002,0-0.002,0.001-0.005  c0.036-0.154-0.006-0.318-0.115-0.435l-0.009-0.017c-0.058-0.068-0.141-0.11-0.232-0.116  C91.819,155.362,91.673,155.396,91.571,155.489L91.571,155.489z M77.293,198.122c-0.221,0.152-0.285,0.446-0.148,0.675  c0.135,0.216,0.417,0.281,0.634,0.148c0.006-0.004,0.011-0.008,0.018-0.012c0.225-0.135,0.297-0.427,0.161-0.649  c-0.002-0.003-0.003-0.004-0.005-0.008C77.807,198.061,77.519,197.993,77.293,198.122z M96.805,185.847  c-0.225,0.135-0.297,0.427-0.163,0.652c0.002,0.003,0.004,0.005,0.005,0.008c0.123,0.214,0.399,0.286,0.612,0.163  c0.013-0.007,0.026-0.015,0.038-0.025c0.225-0.135,0.297-0.427,0.163-0.652c-0.002-0.003-0.004-0.005-0.005-0.008  C97.308,185.774,97.023,185.713,96.805,185.847L96.805,185.847z M106.538,179.71c-0.22,0.149-0.279,0.447-0.13,0.666  c0.143,0.214,0.431,0.275,0.651,0.138c0.215-0.145,0.284-0.431,0.157-0.658C107.065,179.636,106.768,179.572,106.538,179.71  L106.538,179.71z M74.125,173.091c-0.257,0.053-0.425,0.301-0.379,0.558c0.044,0.256,0.285,0.429,0.541,0.385  c0.258-0.049,0.436-0.289,0.405-0.549C74.641,173.224,74.39,173.046,74.125,173.091z M85.495,171.151  c-0.25,0.033-0.427,0.264-0.393,0.513c0.001,0.008,0.004,0.019,0.004,0.027c0.044,0.256,0.285,0.429,0.541,0.385  c0.258-0.049,0.436-0.289,0.405-0.549C86.001,171.273,85.752,171.105,85.495,171.151z M96.855,169.196  c-0.257,0.045-0.426,0.289-0.382,0.544c0.045,0.252,0.283,0.424,0.537,0.383c0.256-0.041,0.433-0.281,0.394-0.539  c-0.041-0.258-0.28-0.432-0.539-0.393C96.862,169.194,96.86,169.195,96.855,169.196z M103.688,201.328  c-0.151,0.216-0.104,0.514,0.109,0.672c0.222,0.146,0.521,0.089,0.67-0.134c0.14-0.212,0.094-0.495-0.105-0.649  c-0.205-0.156-0.501-0.118-0.658,0.085C103.698,201.314,103.692,201.322,103.688,201.328z M95.611,170.41  c-0.144,0.054-0.214,0.216-0.16,0.36c0.054,0.143,0.217,0.214,0.36,0.16c0.143-0.054,0.214-0.216,0.16-0.36l0,0  C95.917,170.425,95.755,170.355,95.611,170.41L95.611,170.41L95.611,170.41z M101.946,167.941c-0.143,0.065-0.208,0.231-0.15,0.378  c0.054,0.143,0.217,0.214,0.36,0.16l0,0c0.139-0.047,0.214-0.2,0.166-0.34c-0.003-0.007-0.004-0.012-0.008-0.02  c-0.051-0.148-0.213-0.227-0.362-0.179C101.95,167.94,101.948,167.94,101.946,167.941z M96.592,156.112  c0.007,0.151,0.124,0.273,0.275,0.287c0.15,0.008,0.28-0.11,0.288-0.262c0.001-0.005,0-0.01,0-0.016  c0.01-0.148-0.101-0.275-0.249-0.286c-0.01,0-0.018-0.001-0.026,0C96.724,155.835,96.595,155.958,96.592,156.112L96.592,156.112z   M105.894,180.212c-0.113,0.105-0.118,0.28-0.013,0.391c0.106,0.113,0.28,0.118,0.394,0.012c0.113-0.091,0.13-0.255,0.039-0.365  c-0.006-0.009-0.016-0.019-0.026-0.027c-0.1-0.112-0.275-0.119-0.386-0.019C105.898,180.207,105.897,180.21,105.894,180.212  L105.894,180.212z M88.143,139.631c-0.04,0.164,0.061,0.331,0.226,0.371c0.002,0,0.005,0.002,0.009,0.003  c0.167,0.046,0.339-0.052,0.386-0.217c0.001-0.008,0.003-0.017,0.006-0.025c0.04-0.164-0.061-0.331-0.226-0.371  c-0.002,0-0.005-0.002-0.009-0.003C88.359,139.351,88.187,139.459,88.143,139.631L88.143,139.631z M93.451,171.644  c-0.145,0.079-0.197,0.261-0.119,0.404c0.005,0.011,0.013,0.021,0.021,0.032c0.094,0.147,0.289,0.191,0.436,0.099  c0.144-0.099,0.194-0.289,0.115-0.446C93.806,171.583,93.604,171.543,93.451,171.644C93.454,171.642,93.454,171.642,93.451,171.644  L93.451,171.644z M100.052,167.56c-0.151,0.1-0.192,0.3-0.09,0.452l0.001,0.001c0.094,0.147,0.289,0.191,0.436,0.099  c0.144-0.099,0.194-0.289,0.115-0.446C100.411,167.517,100.212,167.472,100.052,167.56L100.052,167.56z M91.571,155.489  c-0.013,0.044-0.018,0.09-0.015,0.136c0.025,0.171,0.187,0.289,0.359,0.263c0.003-0.001,0.005-0.001,0.011-0.001  c0.17-0.03,0.286-0.183,0.27-0.351l-0.009-0.017c-0.025-0.171-0.187-0.289-0.359-0.263c-0.003,0.001-0.008,0.001-0.011,0.001  C91.692,155.274,91.595,155.367,91.571,155.489L91.571,155.489z M106.967,180.756c-0.104,0.142-0.071,0.341,0.071,0.444  c0.004,0.001,0.006,0.006,0.009,0.005c0.14,0.099,0.335,0.067,0.435-0.073c0.108-0.13,0.092-0.321-0.038-0.431  c-0.006-0.006-0.01-0.008-0.017-0.014C107.281,180.582,107.078,180.611,106.967,180.756L106.967,180.756z M57.25,154.495  c-0.297,0.066-0.49,0.352-0.44,0.654c0.054,0.298,0.337,0.497,0.635,0.446c0.298-0.064,0.494-0.353,0.44-0.654  C57.832,154.642,57.55,154.442,57.25,154.495L57.25,154.495z M70.351,152.118c-0.299,0.053-0.498,0.336-0.447,0.635  c0.051,0.298,0.337,0.497,0.635,0.446c0.299-0.053,0.498-0.336,0.447-0.635C70.934,152.267,70.65,152.068,70.351,152.118  L70.351,152.118z M83.443,149.726c-0.298,0.064-0.494,0.353-0.44,0.653c0.064,0.295,0.355,0.483,0.65,0.419  c0.294-0.062,0.484-0.355,0.421-0.649C84.015,149.863,83.734,149.674,83.443,149.726z M94.816,190.806  c-0.167,0.25-0.109,0.588,0.136,0.765c0.25,0.174,0.592,0.114,0.767-0.136c0.175-0.249,0.114-0.591-0.136-0.765l0,0  C95.333,190.501,94.993,190.56,94.816,190.806L94.816,190.806z M102.397,179.88c-0.169,0.25-0.111,0.59,0.136,0.765  c0.259,0.169,0.602,0.105,0.784-0.146c0.166-0.26,0.089-0.602-0.167-0.767C102.899,179.576,102.569,179.64,102.397,179.88z   M83.491,169.714c-0.258,0.168-0.332,0.511-0.166,0.768c0,0,0,0,0.001,0.001c0.162,0.248,0.496,0.317,0.743,0.154l0,0  c0.257-0.158,0.336-0.494,0.178-0.75c-0.158-0.258-0.494-0.335-0.751-0.177C83.495,169.711,83.492,169.712,83.491,169.714  L83.491,169.714z M94.676,162.512c-0.254,0.156-0.335,0.488-0.179,0.742c0.002,0.003,0.004,0.006,0.006,0.009  c0.159,0.262,0.5,0.347,0.764,0.188c0.262-0.159,0.348-0.499,0.189-0.763c-0.159-0.262-0.5-0.347-0.764-0.188  C94.686,162.505,94.68,162.509,94.676,162.512z M77.03,164.02c-0.262,0.159-0.347,0.499-0.19,0.761  c0.156,0.252,0.485,0.338,0.745,0.197c0.261-0.163,0.351-0.499,0.206-0.77C77.629,163.953,77.295,163.87,77.03,164.02L77.03,164.02z   M88.468,157.311c-0.262,0.159-0.347,0.499-0.19,0.761c0.151,0.26,0.486,0.349,0.745,0.197c0.26-0.151,0.35-0.485,0.199-0.745l0,0  C89.069,157.265,88.736,157.17,88.468,157.311L88.468,157.311z M76.635,140.462c-0.296,0.045-0.498,0.32-0.458,0.614  c0.001,0.001-0.001,0.003,0.001,0.003c0.037,0.301,0.309,0.514,0.61,0.48c0.302-0.047,0.511-0.326,0.474-0.628  C77.211,140.635,76.935,140.428,76.635,140.462L76.635,140.462z M89.783,138.64c-0.3,0.035-0.512,0.31-0.477,0.609  c0.035,0.299,0.309,0.511,0.609,0.476c0.003-0.001,0.008-0.001,0.014-0.003c0.299-0.05,0.508-0.326,0.474-0.628  c-0.043-0.296-0.32-0.498-0.615-0.457C89.786,138.641,89.786,138.641,89.783,138.64L89.783,138.64z M88.436,186.401  c-0.178,0.248-0.126,0.594,0.118,0.775c0.24,0.178,0.581,0.131,0.759-0.11c0.188-0.228,0.155-0.565-0.074-0.752  c-0.006-0.006-0.011-0.011-0.02-0.015c-0.238-0.19-0.584-0.151-0.773,0.088C88.442,186.391,88.44,186.396,88.436,186.401z   M96.439,175.837c-0.178,0.248-0.126,0.594,0.118,0.775c0.24,0.178,0.581,0.131,0.759-0.11c0.188-0.228,0.155-0.565-0.074-0.752  c-0.006-0.006-0.011-0.011-0.02-0.015c-0.238-0.19-0.586-0.15-0.773,0.088C96.447,175.827,96.443,175.832,96.439,175.837z   M87.304,163.457c-0.167,0.156-0.178,0.417-0.022,0.586c0.152,0.163,0.405,0.176,0.574,0.031c0.166-0.14,0.189-0.391,0.051-0.558  c-0.008-0.011-0.019-0.022-0.029-0.031C87.725,163.323,87.47,163.311,87.304,163.457z M94.674,156.728  c-0.169,0.156-0.177,0.422-0.021,0.589c0.156,0.167,0.422,0.176,0.589,0.02c0.168-0.151,0.182-0.411,0.031-0.578  c-0.003-0.004-0.006-0.006-0.01-0.011C95.105,156.585,94.845,156.576,94.674,156.728L94.674,156.728z M81.273,143.146  c-0.211,0.081-0.319,0.319-0.242,0.53c0.09,0.206,0.318,0.31,0.532,0.241c0.213-0.078,0.323-0.314,0.245-0.527  c-0.001-0.001-0.001-0.001-0.001-0.003c-0.07-0.207-0.295-0.321-0.504-0.253C81.291,143.139,81.283,143.142,81.273,143.146z   M90.682,139.725c-0.215,0.083-0.328,0.32-0.259,0.54c0.078,0.213,0.314,0.322,0.528,0.244c0.001-0.001,0.001-0.001,0.003-0.001  c0.21-0.069,0.324-0.291,0.256-0.501c-0.001-0.005-0.004-0.009-0.006-0.014c-0.069-0.217-0.299-0.338-0.517-0.27  C90.686,139.724,90.684,139.725,90.682,139.725L90.682,139.725z"/> </g></g><g transform="translate(519.444 629.964) scale(1.101 1.1) rotate(0 75.00454132606721 57.49090909090909)"><g clip-path="url(#clipPath_UH6-PpgATGaroojACTYoe)"><defs>
          <clipPath id="clipPath_UH6-PpgATGaroojACTYoe">
            <rect x="0" y="0" width="150" height="115" />
          </clipPath>
       </defs> <ellipse fill="rgb(175,206,249)" cx="104.046" cy="69.194" rx="45.954" ry="45.806"/> <path fill="rgb(115,169,253)" d="M117.54,41.182h22.853c-1.25-1.61-2.601-3.138-4.051-4.566h-18.802  C117.539,36.616,117.539,41.182,117.54,41.182z"/> <path fill="rgb(115,169,253)" d="M117.54,52.143h29.156c-0.63-1.566-1.338-3.092-2.133-4.566h-27.025v4.566H117.54z"/> <path fill="rgb(115,169,253)" d="M117.54,63.103h32.043c-0.207-1.549-0.49-3.072-0.848-4.566H117.54L117.54,63.103L117.54,63.103z"/> <path fill="rgb(115,169,253)" d="M117.54,74.064h32.199c0.159-1.502,0.243-3.026,0.253-4.566h-32.452  C117.539,69.497,117.539,74.064,117.54,74.064z"/> <path fill="rgb(115,169,253)" d="M117.54,85.024h29.639c0.549-1.487,1.022-3.012,1.416-4.567H117.54V85.024z"/> <path fill="rgb(115,169,253)" d="M117.54,95.985h23.77c1.059-1.461,2.035-2.984,2.919-4.567H117.54V95.985z"/> <path fill="rgb(115,169,253)" d="M88.676,106.945h41.39c2.002-1.373,3.883-2.903,5.638-4.566H88.676V106.945z"/> <path fill="rgb(115,169,253)" d="M104.046,115c4.247,0,8.354-0.586,12.257-1.661H91.789C95.692,114.414,99.799,115,104.046,115z"/> <ellipse fill="rgb(169,197,240)" cx="99.922" cy="66.911" rx="44.579" ry="44.436"/> <g>  <path fill="rgb(189,215,249)" d="M99.923,104.55c-20.821,0-37.761-16.885-37.761-37.641c0-0.282,0.23-0.511,0.512-0.511   s0.512,0.229,0.512,0.511c0,20.192,16.481,36.619,36.736,36.619s36.736-16.427,36.736-36.619c0-20.191-16.48-36.618-36.736-36.618   c-0.283,0-0.512-0.229-0.512-0.511s0.23-0.511,0.512-0.511c20.821,0,37.761,16.884,37.761,37.64S120.744,104.55,99.923,104.55z"/> </g> <path fill="rgb(175,206,249)" d="M73.327,54.681c1.483,3.266-0.652,7.419-0.652,7.419s-4.539-1.142-6.022-4.408  c-1.483-3.266,0.652-7.419,0.652-7.419S71.844,51.416,73.327,54.681z"/> <path fill="rgb(175,206,249)" d="M73.156,68.548c2.918,2.095,3.142,6.757,3.142,6.757s-4.506,1.264-7.424-0.832  c-2.918-2.095-3.142-6.757-3.142-6.757S70.238,66.452,73.156,68.548z"/> <path fill="rgb(175,206,249)" d="M76.547,81.163c3.574,0.399,6.063,4.352,6.063,4.352s-3.305,3.305-6.879,2.905  c-3.574-0.399-6.063-4.352-6.063-4.352S72.973,80.763,76.547,81.163z"/> <path fill="rgb(165,200,240)" d="M123.183,55.703c-1.483,3.266,0.652,7.419,0.652,7.419s4.539-1.142,6.022-4.408  c1.483-3.266-0.652-7.419-0.652-7.419S124.666,52.437,123.183,55.703z"/> <path fill="rgb(175,206,249)" d="M73.99,60.811c-1.483,3.266,0.652,7.419,0.652,7.419s4.539-1.142,6.022-4.408  c1.483-3.266-0.652-7.419-0.652-7.419S75.473,57.545,73.99,60.811z"/> <path fill="rgb(175,206,249)" d="M123.355,69.57c-2.918,2.095-3.142,6.757-3.142,6.757s4.506,1.264,7.424-0.832  c2.918-2.095,3.142-6.757,3.142-6.757S126.272,67.474,123.355,69.57z"/> <path fill="rgb(165,200,240)" d="M78.398,72.52c-2.024,2.964-0.636,7.42-0.636,7.42s4.668-0.347,6.692-3.311  c2.024-2.964,0.636-7.42,0.636-7.42S80.422,69.558,78.398,72.52z"/> <path fill="rgb(175,206,249)" d="M119.963,82.184c-3.574,0.399-6.063,4.352-6.063,4.352s3.305,3.305,6.879,2.905  c3.574-0.399,6.063-4.352,6.063-4.352S123.537,81.785,119.963,82.184z"/> <path fill="rgb(175,206,249)" d="M84.352,86.12c-1.709,3.154,0.127,7.446,0.127,7.446s4.609-0.821,6.317-3.975  c1.709-3.154-0.127-7.446-0.127-7.446S86.062,82.966,84.352,86.12z"/> <path fill="rgb(165,200,240)" d="M122.772,61.832c1.483,3.266-0.652,7.419-0.652,7.419s-4.539-1.142-6.022-4.408  c-1.483-3.266,0.652-7.419,0.652-7.419S121.289,58.567,122.772,61.832z"/> <path fill="rgb(165,200,240)" d="M118.365,73.542c2.024,2.964,0.636,7.42,0.636,7.42s-4.668-0.347-6.692-3.311  c-2.024-2.964-0.636-7.42-0.636-7.42S116.34,70.579,118.365,73.542z"/> <path fill="rgb(175,206,249)" d="M112.41,87.142c1.709,3.154-0.127,7.446-0.127,7.446s-4.609-0.821-6.317-3.975  c-1.709-3.154,0.127-7.446,0.127-7.446S110.701,83.987,112.41,87.142z"/> <polygon fill="rgb(165,200,240)" points="110.194,53.975 89.058,53.975 86.031,40.635 89.43,43.811 92.828,40.635 96.44,44.023   100.05,40.635 103.45,44.023 106.212,40.635 109.185,44.023 113.221,40.635 "/> <g>  <ellipse fill="rgb(175,206,249)" cx="48.704" cy="46.719" rx="45.954" ry="45.806"/>  <path fill="rgb(115,169,253)" d="M62.197,18.708H85.05c-1.25-1.61-2.601-3.138-4.051-4.566H62.197V18.708z"/>  <path fill="rgb(115,169,253)" d="M62.197,29.668h29.156c-0.63-1.566-1.338-3.092-2.133-4.566H62.197V29.668z"/>  <path fill="rgb(115,169,253)" d="M62.197,40.629H94.24c-0.207-1.549-0.49-3.072-0.848-4.566H62.197V40.629z"/>  <path fill="rgb(115,169,253)" d="M62.197,51.589h32.199c0.159-1.502,0.243-3.026,0.253-4.566H62.197V51.589z"/>  <path fill="rgb(115,169,253)" d="M62.197,62.55h29.639c0.549-1.487,1.022-3.012,1.416-4.567H62.197V62.55z"/>  <path fill="rgb(115,169,253)" d="M62.197,73.51h23.77c1.059-1.461,2.035-2.984,2.919-4.567H62.197V73.51z"/>  <path fill="rgb(115,169,253)" d="M33.334,84.47h41.39c2.002-1.373,3.883-2.903,5.638-4.566H33.334V84.47z"/>  <path fill="rgb(115,169,253)" d="M48.704,92.525c4.247,0,8.354-0.586,12.257-1.661H36.446C40.35,91.939,44.457,92.525,48.704,92.525z"/> </g> <linearGradient id="SVGID_1_UH6-PpgATGaroojACTYoe" gradientUnits="userSpaceOnUse" x1="0" y1="77.5638" x2="89.159" y2="77.5638" gradientTransform="matrix(1 0 0 -1 0 122)">  <stop offset="0" stop-color="rgb(175,206,249)"/>  <stop offset="1" stop-color="rgb(169,197,240)"/> </linearGradient> <ellipse fill="url(#SVGID_1_UH6-PpgATGaroojACTYoe)" cx="44.579" cy="44.436" rx="44.579" ry="44.436"/> <g>  <path fill="rgb(189,215,249)" d="M44.581,82.076c-20.821,0-37.761-16.884-37.761-37.64c0-0.282,0.23-0.511,0.512-0.511   s0.512,0.229,0.512,0.511c0,20.191,16.48,36.618,36.736,36.618s36.736-16.427,36.736-36.618S64.837,7.818,44.581,7.818   c-0.283,0-0.512-0.229-0.512-0.511s0.23-0.511,0.512-0.511c20.821,0,37.761,16.886,37.761,37.64   C82.341,65.191,65.402,82.076,44.581,82.076z"/> </g> <g>  <polygon fill="rgb(189,215,249)" points="61.956,66.876 31.5,66.876 31.5,62.79 57.857,62.79 57.857,56.156 61.956,56.156  "/> </g> <g>  <polygon fill="rgb(189,215,249)" points="43.763,55.459 39.663,55.459 39.663,23.311 22.872,37.385 20.234,34.257 43.763,14.537  "/> </g> <g>  <rect x="48.935" y="25.101" fill="rgb(189,215,249)" width="4.099" height="22.834"/> </g> </g></g><g transform="translate(352.25 369.25) scale(0.195 0.195) rotate(0 300.2564102564102 300.2564102564102)"><g clip-path="url(#clipPath_KsL6yy4EUBLNzyU5_91rD)"><defs>
          <clipPath id="clipPath_KsL6yy4EUBLNzyU5_91rD">
            <rect x="0" y="0" width="600" height="600" />
          </clipPath>
       </defs> <title>Asset 2</title> <linearGradient id="blue_circle_1_KsL6yy4EUBLNzyU5_91rD" gradientUnits="userSpaceOnUse" x1="-180.0041" y1="-87.9761" x2="900.0204" y2="-87.9761" gradientTransform="matrix(0.5555 0 0 -0.5555 100 251.1035)">  <stop offset="0" stop-color="#A1C3FC"/>  <stop offset="0.6955" stop-color="#81AEF2"/>  <stop offset="1" stop-color="#78A9EF"/> </linearGradient> <path id="blue_circleKsL6yy4EUBLNzyU5_91rD" fill="url(#blue_circle_1_KsL6yy4EUBLNzyU5_91rD)" d="M2.79,340.555C-19.607,176.407,95.307,25.187,259.445,2.79  S574.813,95.307,597.21,259.445c22.397,164.147-92.517,315.368-256.655,337.765C176.462,619.407,25.359,504.593,2.79,340.555z"/> </g></g><g transform="translate(361.25 378.75) scale(1.679 1.679) rotate(51.45059073866371 29.642644431209053 29.642644431209053)"><g clip-path="url(#clipPath_Du6zHIy2y0DpuJEsq_LKk)"><defs>
          <clipPath id="clipPath_Du6zHIy2y0DpuJEsq_LKk">
            <rect x="0" y="0" width="59.29" height="59.29" />
          </clipPath>
       </defs><title>cross_2</title><g id="Layer_2Du6zHIy2y0DpuJEsq_LKk" data-name="Layer 2"><g id="cross_2Du6zHIy2y0DpuJEsq_LKk"><path d="M52.82,19.36H39.93V6.48A6.48,6.48,0,0,0,33.46,0H25.84a6.48,6.48,0,0,0-6.48,6.48V19.36H6.48A6.48,6.48,0,0,0,0,25.84v7.62a6.48,6.48,0,0,0,6.48,6.47H19.36V52.82a6.48,6.48,0,0,0,6.48,6.47h7.62a6.47,6.47,0,0,0,6.47-6.47V39.93H52.82a6.47,6.47,0,0,0,6.47-6.47V25.84A6.48,6.48,0,0,0,52.82,19.36Z" fill="#cf4327"/></g></g></g></g>
              </svg>