<?xml version="1.0" encoding="UTF-8"?><svg version="1.1" xmlns="http://www.w3.org/2000/svg" xmlns:xlink="http://www.w3.org/1999/xlink" viewBox="0 0 1200 800" width="1200" height="800" x="0px" y="0px">
              
              <!-- ITEM 0 -->
<g transform="translate(405.0 245.0) scale(3.511627906976744 3.5142857142857142) rotate(0.0 64.5 35.0)">
<g transform="translate(-0.0 -0.0)">

<path fill="#c5d7ff" d="M128.706,63.892c-29.573,13.233-60.166,2.036-90.76-6.108c-13.257-3.054-26.514,0-37.732,6.108  c-1.02-19.341,2.04-38.682,0-58.023c15.297-5.09,30.593-7.126,46.909-5.09s31.613,9.161,47.929,12.215  c12.237,1.018,23.455-1.018,33.652-7.126C129.725,25.211,127.686,44.552,128.706,63.892L128.706,63.892z"/>
<path fill="#dae4ff" d="M128.706,63.892c-29.573,13.233-60.166,2.036-90.76-6.108c-13.257-3.054-26.514,0-37.732,6.108  c-1.02-19.341,2.04-38.682,0-58.023c15.297-5.09,30.593-7.126,46.909-5.09s31.613,9.161,47.929,12.215  c12.237,1.018,23.455-1.018,33.652-7.126C129.725,25.211,127.686,44.552,128.706,63.892L128.706,63.892z M72.618,14.013  c-12.237-5.09-24.474,5.09-27.534,17.305c-2.04,9.161,0,18.323,8.158,24.431c4.079,2.036,8.158,3.054,12.237,2.036  c12.237-3.054,19.376-14.251,18.356-26.466C83.836,24.193,80.776,16.049,72.618,14.013L72.618,14.013z M101.172,45.569  c1.02-5.09-2.04-8.144-6.119-9.161c0,1.018-6.119,0,1.02,4.072c3.059,2.036,1.02,8.144-2.04,9.161c-1.02,0-3.059-3.054-4.079,3.054  C94.033,51.677,99.132,50.659,101.172,45.569L101.172,45.569z M112.389,43.534c2.04-5.09-4.079-6.108-7.138-7.126  c-2.04,3.054,3.059,3.054,4.079,5.09c2.04,4.072-3.059,6.108-6.119,8.144c-1.02,1.018-1.02,2.036-1.02,3.054  C107.29,52.695,111.37,48.623,112.389,43.534L112.389,43.534z M27.748,27.247c1.02-4.072-2.04-9.161-7.138-7.126v2.036  c1.02,1.018,3.059,1.018,4.079,2.036c2.04,4.072-3.059,7.126-6.119,9.161c-1.02,1.018-1.02,2.036-1.02,3.054  C21.63,35.39,26.729,32.336,27.748,27.247L27.748,27.247z M38.966,27.247c3.059-4.072-3.059-9.161-6.119-7.126  c-2.04,1.018,2.04,2.036,3.059,4.072c1.02,3.054-1.02,6.108-3.059,7.126s-3.059,0-4.079,4.072  C32.847,34.372,37.946,33.354,38.966,27.247L38.966,27.247z M123.607,16.049c-2.04,2.036-6.119,2.036-8.158,3.054  c-2.04,3.054-1.02,7.126-1.02,11.197c3.059-1.018,7.138-1.018,8.158-3.054C124.627,24.193,123.607,20.121,123.607,16.049  L123.607,16.049z M121.567,53.713c-4.079,1.018-8.158,0-11.217,2.036c-2.04,2.036-1.02,6.108-1.02,9.161  c4.079,0,9.178-1.018,12.237-3.054C122.587,59.821,121.567,56.767,121.567,53.713L121.567,53.713z M19.59,6.888  c-4.079,1.018-9.178,0-11.217,3.054c-2.04,1.018-1.02,5.09-1.02,8.144c3.059-2.036,7.138-3.054,11.217-3.054  C18.57,11.977,18.57,9.942,19.59,6.888L19.59,6.888z M14.491,41.498c-3.059,0-7.138,1.018-8.158,3.054  c-2.04,3.054-1.02,7.126-2.04,11.197c3.059,0,7.138-1.018,8.158-3.054C14.491,49.641,13.472,45.569,14.491,41.498L14.491,41.498z   M75.678,40.48c2.04-3.054,2.04-7.126,1.02-10.179c-2.04-4.072-5.099-7.126-10.198-8.144s-9.178,2.036-12.237,5.09  c-5.099,7.126-2.04,19.341,8.158,20.359C67.519,47.605,73.638,46.587,75.678,40.48L75.678,40.48z M73.638,39.462  c-4.079,6.108-11.217,7.126-16.316,3.054c-2.04-2.036-3.059-6.108-2.04-9.161c1.02-5.09,4.079-9.161,10.198-8.144  C72.618,26.229,74.658,33.354,73.638,39.462L73.638,39.462z"/>

</g>
</g>

<!-- ITEM 1 -->
<g transform="translate(791.0 262.0) scale(1.3550391700857771 1.3513513513513513) rotate(0.0 79.3335 148.0)">
<g transform="translate(-0.0 -0.0)">

<linearGradient id="SVGID_1_-i1" gradientUnits="userSpaceOnUse" x1="6.464" y1="19.1458" x2="76.0499" y2="19.1458" gradientTransform="matrix(1 0 0 -1 0 298)">
	<stop offset="0" style="stop-color:#A1C3FC"/>
	<stop offset="1" style="stop-color:#81AEF2"/>
</linearGradient>
<path fill="url(#SVGID_1_-i1)" d="M74.236,264.649c-0.138,3.067,0.752,6.508,0.614,9.575c1.623,6.807,1.244,13.473,0.894,20.461  c-10.501,1.618-48.374,0.735-69.279,1.314c-0.134-6.794,18.703-14.804,29.829-19.304c1.941-0.785,3.945-1.602,5.416-3.094  c2.909-2.949,2.954-7.598,2.812-11.74C54.492,261.309,64.542,262.251,74.236,264.649z"/>
<linearGradient id="SVGID_2_-i1" gradientUnits="userSpaceOnUse" x1="90.0054" y1="22.479" x2="155.5976" y2="22.479" gradientTransform="matrix(1 0 0 -1 0 298)">
	<stop offset="0" style="stop-color:#A1C3FC"/>
	<stop offset="1" style="stop-color:#81AEF2"/>
</linearGradient>
<path fill="url(#SVGID_2_-i1)" d="M151.064,261.316c-0.13,3.067,3.532,6.508,3.402,9.575c1.53,6.807,1.173,13.473,0.843,20.461  c-9.898,1.618-45.598,0.735-65.303,1.314c-0.127-6.794,17.629-14.804,28.117-19.304c1.83-0.785,3.718-1.602,5.105-3.094  c2.741-2.949,2.784-7.598,2.651-11.74C135.276,257.977,141.926,258.918,151.064,261.316z"/>
<path fill="#1D72D8" d="M129.677,164.877c-2.413,8.488-10.945,22.203-10.782,31.028c0.153,8.258,9.658,14.462,12.646,22.16  c2.021,5.207,3.897,10.34,6.007,15.512c2.38,5.834,9.578,14.766,12.014,20.577c3.022,7.21,5.69,11.08,5.69,18.361  c-11.197,0.755-22.878,0.498-36.041-2.216c-15.733-32.091-26.241-56.666-28.77-64.581c-5.925-18.54,4.888-33.013,9.373-55.654  c2.015-10.17,5.291-20.435,3.77-30.692c11.211,0.952,22.569,0.142,33.533-2.389C136.611,133.174,134.106,149.299,129.677,164.877z"/>
<linearGradient id="SVGID_3_-i1" gradientUnits="userSpaceOnUse" x1="15.3168" y1="270.9154" x2="47.689" y2="270.9154" gradientTransform="matrix(1 0 0 -1 0 298)">
	<stop offset="0" style="stop-color:#FFBEB6"/>
	<stop offset="1" style="stop-color:#F2A19C"/>
</linearGradient>
<path fill="url(#SVGID_3_-i1)" d="M46.544,39.177c3.408-7.43-1.888-10.186-1.74-18.361c0.054-3.001-0.389-6.122-2.035-8.63  c-3.957-6.033-13.278-5.98-19.392-2.155c-2.684,1.679-5.043,3.961-6.494,6.778c-2.274,4.412-2.055,10.011,0.555,14.232  c0.829,1.341,2.355,10.175,3.469,11.29c2.549,2.553,7.394,1.484,10.196,3.603c2.156,1.631,7.278,0.651,9.745-0.45  C44.648,43.785,46.185,39.96,46.544,39.177z"/>
<g>
	<path fill="#D62929" d="M24.69,40.708c-1.486,0-3.171-0.682-4.624-1.872c-1.221-1-2.132-2.242-2.565-3.495   c-0.462-1.338-0.334-2.542,0.358-3.39c0.572-0.702,1.455-1.072,2.554-1.072c1.486,0,3.171,0.683,4.623,1.872   c1.221,1,2.133,2.242,2.565,3.495c0.463,1.338,0.335,2.542-0.357,3.39C26.671,40.337,25.79,40.708,24.69,40.708z M20.414,31.877   c-0.55,0-1.306,0.122-1.781,0.705c-0.465,0.57-0.532,1.434-0.188,2.431c0.373,1.082,1.174,2.164,2.254,3.047   c1.259,1.031,2.752,1.646,3.992,1.646c0.55,0,1.306-0.122,1.781-0.705c0.465-0.57,0.531-1.434,0.188-2.431   c-0.374-1.082-1.175-2.165-2.255-3.048C23.146,32.493,21.654,31.877,20.414,31.877z"/>
</g>
<path fill="#F2A19C" d="M24.69,162.09c-0.223-0.728-0.204-1.561,0.203-2.205c0.406-0.644,1.25-1.029,1.965-0.771  c0.2,0.072,0.38,0.187,0.56,0.299c2.253,1.395,4.732,2.372,7.171,3.404c0.549,0.232,1.139,0.507,1.406,1.041  c0.205,0.411,0.175,0.895,0.132,1.353c-0.087,0.919-0.28,1.956-1.057,2.45c-0.541,0.344-1.246,0.326-1.857,0.133  s-1.158-0.542-1.725-0.842c-1.272-0.672-2.662-1.101-3.927-1.785C26.295,164.483,25.112,163.466,24.69,162.09z"/>
<path fill="#F8AFA9" d="M48.072,38.658c0.528,0.72,1.451,1.004,2.297,1.288c3.882,1.302,7.458,3.511,10.361,6.401  c1.307-4.507,3.082-8.878,5.287-13.02c-4.123-2.496-7.78-5.76-10.728-9.576C52.379,28.452,49.955,33.457,48.072,38.658z"/>
<path fill="#151A4F" d="M60.621,21.28c-2.555-5.639-5.873-11.052-10.548-15.105C45.398,2.121,39.217-0.57,33.069,0.103  C21.442,1.374,16.61,10.121,14.785,16.038c10.317,1.667,23.769,29.96,22.37,41.101c8.216-5.788,15.511-12.882,21.532-20.933  c1.791-2.396,3.531-5.045,3.693-8.035C62.51,25.78,61.609,23.461,60.621,21.28z"/>
<g>
	<path fill="#151A4F" d="M34.699,58.443c-0.27,0-0.491-0.214-0.499-0.486c-0.425-14.923-4.108-24.601-10.756-37.238   c-0.129-0.244-0.035-0.546,0.209-0.675c0.243-0.127,0.546-0.035,0.675,0.209C31.046,33.023,34.768,42.81,35.2,57.928   c0.008,0.276-0.21,0.506-0.484,0.514C34.709,58.443,34.704,58.443,34.699,58.443z"/>
</g>
<path fill="#151A4F" d="M11.55,15.609c0.976-1.803,3.303-2.454,5.338-2.682c5.409-0.606,11.016,2.795,12.985,7.876  c-1.457,2.136-3.39,4.337-6.417,6.165c-3.528,1.874-7.277,3.445-11.346,4.581C11.27,29.327,8.505,21.236,11.55,15.609z"/>
<linearGradient id="SVGID_4_-i1" gradientUnits="userSpaceOnUse" x1="21.0066" y1="144.9194" x2="55.3912" y2="144.9194" gradientTransform="matrix(1 0 0 -1 0 298)">
	<stop offset="0" style="stop-color:#FFBEB6"/>
	<stop offset="1" style="stop-color:#F2A19C"/>
</linearGradient>
<path fill="url(#SVGID_4_-i1)" d="M43.97,138.232c-4.413,5.842-11.497,9.573-18.804,9.906c-1.055,0.048-2.172,0.044-3.08,0.583  c-0.91,0.539-1.45,1.863-0.782,2.683c0.269,0.33,0.676,0.515,1.082,0.641c2.171,0.673,4.499-0.046,6.772-0.11  c2.272-0.064,5.001,1.037,5.236,3.3c0.328,3.191-3.966,11.11-1.47,12.36c4.658,2.332,2.995-2.999,15.477-6.249  c1.645-0.428,1.906-2.594,2.335-4.24c1.549-5.962,3.407-11.257,4.655-18.006c-4.165-1.094-5.644-0.482-9.948-0.546  C47.45,139.489,41.962,137.296,43.97,138.232z"/>
<linearGradient id="SVGID_5_-i1" gradientUnits="userSpaceOnUse" x1="20.5454" y1="109.0715" x2="155.8014" y2="127.266" gradientTransform="matrix(1 0 0 -1 0 298)">
	<stop offset="0" style="stop-color:#428DFC"/>
	<stop offset="1" style="stop-color:#1D72D8"/>
</linearGradient>
<path fill="url(#SVGID_5_-i1)" d="M129.598,87.096c8.519,15.266,14.532,33.413,7.973,49.62c-4.801,11.862-11.1,15.647-17.401,20.694  c-5.966,4.779-12.131,17.441-16.313,23.843c-3.958,6.058-14.01,14.725-16.424,21.55c-2.769,7.83,1.67,10.888-0.85,20.982  c-0.874,3.5-3.781,10.944-5.38,14.178c-1.481,2.994-0.736,9.703-0.85,13.044c-0.334,9.767-0.558,11.517-3.262,20.908  c-0.42,1.462-0.948,3.025-2.197,3.889c-1.02,0.706-2.327,0.804-3.567,0.87c-12.522,0.666-21.368,0.381-33.847-0.853  c5.597-26.43,13.663-83.82,15.914-89.48c2.065-5.19,5.293-9.82,8.492-14.398c12.385-17.721,19.107-27.977,31.492-45.698  c-2.856-7.032-0.819-15.526-3.674-22.557c9.231-6.967,18.463-13.934,27.694-20.9c1.182-0.892,2.426-1.812,3.887-2.056  C124.966,80.118,127.778,83.834,129.598,87.096z"/>
<linearGradient id="SVGID_6_-i1" gradientUnits="userSpaceOnUse" x1="79.3724" y1="181.424" x2="107.789" y2="251.5258" gradientTransform="matrix(1 0 0 -1 0 298)">
	<stop offset="0" style="stop-color:#23286B"/>
	<stop offset="1" style="stop-color:#151A4F"/>
</linearGradient>
<path fill="url(#SVGID_6_-i1)" d="M56.3,42.713c0.577-2.007,5.649-12.402,5.649-12.402s7,1.957,8.692,2.611  c30.35,11.745,36.125,22.785,56.436,48.239c0.856,1.072,12.25,20.66,10.477,22.684c-13.589,15.514-38.683,17.622-58.531,23.174  c-1.331-13.998-8.467-42.734-12.076-49.058C60.862,67.298,53.996,50.72,56.3,42.713z"/>
<linearGradient id="SVGID_7_-i1" gradientUnits="userSpaceOnUse" x1="37.0847" y1="204.7959" x2="77.5939" y2="204.7959" gradientTransform="matrix(1 0 0 -1 0 298)">
	<stop offset="0" style="stop-color:#23286B"/>
	<stop offset="1" style="stop-color:#151A4F"/>
</linearGradient>
<path fill="url(#SVGID_7_-i1)" d="M76.942,51.851c-2.337-4.717-6.044-16.337-11.299-16.536c-3.63-0.137-6.912,2.487-8.647,5.682  c-1.735,3.195-4.628,10.011-5.099,13.618c-1.782,13.646-1.148,36.842-4.161,52.408c-2.607,13.473-2.921,23.295-10.651,36.661  c7.925,2.938,7.599,5.939,15.31,7.416c3.924-9.98,9.648-15.849,13.313-32.744c2.649-12.209,3.328-25.995,6.907-45.492  c0.337-1.834,5.062-9.14,4.979-11.002C77.515,60.111,77.718,53.418,76.942,51.851z"/>
<path id="texture_1_-i1" opacity="0.86" fill="#FFFFFF" enable-background="new    " d="M100.378,130.405  c-0.104,0.139-0.068,0.382,0.071,0.486l0,0c0.139,0.104,0.382,0.069,0.485-0.07l0,0c0.104-0.139,0.068-0.382-0.071-0.486l0,0  C100.724,130.23,100.533,130.196,100.378,130.405L100.378,130.405z M83.239,159.226c-0.243,0.035-0.346,0.174-0.312,0.418  c-0.034,0.192,0.174,0.347,0.365,0.382l0,0c0.243-0.035,0.346-0.174,0.312-0.418C83.57,159.365,83.43,159.261,83.239,159.226  L83.239,159.226z M91.81,158.474c-0.243,0.035-0.346,0.174-0.312,0.418c0.035,0.243,0.175,0.347,0.417,0.312l0,0  c0.192,0.034,0.346-0.174,0.312-0.418l0,0C92.14,158.612,91.931,158.456,91.81,158.474L91.81,158.474z M88.955,141.818  c-0.034,0.192,0.053,0.364,0.244,0.399c0.192,0.034,0.363-0.053,0.398-0.244c0.034-0.192-0.053-0.364-0.244-0.399  C89.214,141.469,88.989,141.626,88.955,141.818z M97.135,144.35c-0.034,0.192,0.053,0.364,0.244,0.399  c0.192,0.034,0.363-0.053,0.398-0.244c0.034-0.192-0.053-0.364-0.244-0.399C97.343,144.071,97.168,144.159,97.135,144.35z   M91.764,174.373c-0.174,0.087-0.208,0.279-0.12,0.452c0.087,0.174,0.279,0.208,0.451,0.12l0,0c0.174-0.087,0.207-0.278,0.19-0.4  l0,0C92.129,174.32,91.938,174.286,91.764,174.373z M91.693,133.783c-0.104,0.139-0.016,0.313,0.122,0.416  c0.139,0.104,0.313,0.016,0.415-0.122c0.104-0.139,0.016-0.313-0.122-0.416l0,0C91.917,133.626,91.796,133.643,91.693,133.783  L91.693,133.783z M98.763,136.786c-0.104,0.139-0.016,0.313,0.122,0.416c0.139,0.104,0.313,0.016,0.415-0.122  c0.104-0.139,0.016-0.313-0.122-0.416l0,0C98.971,136.508,98.798,136.595,98.763,136.786L98.763,136.786z M91.587,165.894  c-0.174,0.087-0.207,0.278-0.19,0.4c0.087,0.174,0.226,0.277,0.399,0.19l0,0c0.174-0.087,0.277-0.226,0.19-0.4l0,0  C91.968,165.963,91.828,165.859,91.587,165.894z M109.291,127.74c-0.104,0.139-0.137,0.33,0.001,0.434l0,0  c0.139,0.104,0.33,0.138,0.433-0.001l0,0c0.104-0.139,0.138-0.33-0.001-0.434l0,0C109.586,127.636,109.394,127.602,109.291,127.74z   M92.496,149.124c-0.192-0.034-0.346,0.174-0.329,0.296c-0.034,0.192,0.105,0.295,0.296,0.33c0.192,0.034,0.295-0.105,0.329-0.296  C92.827,149.262,92.617,149.106,92.496,149.124L92.496,149.124z M100.133,149.19c-0.192-0.034-0.295,0.105-0.329,0.296l0,0  c-0.034,0.192,0.105,0.295,0.296,0.33c0.192,0.034,0.295-0.105,0.329-0.296C100.462,149.328,100.324,149.224,100.133,149.19  L100.133,149.19z M105.546,128.845c-0.052,0.07,0.035,0.243,0.105,0.295l0,0c0.07,0.052,0.243-0.035,0.295-0.105l0,0  c0.052-0.07-0.035-0.243-0.105-0.295l0,0C105.701,128.636,105.65,128.705,105.546,128.845L105.546,128.845z M105.273,150.427  c-0.122,0.018-0.104,0.139-0.086,0.261l0,0c0.018,0.122,0.209,0.156,0.261,0.086c0.122-0.018,0.156-0.209,0.086-0.261  C105.515,150.393,105.394,150.41,105.273,150.427L105.273,150.427L105.273,150.427z M114.029,121.524  c-0.052,0.07-0.086,0.261-0.016,0.313l0,0c0.07,0.052,0.261,0.086,0.313,0.016c0.052-0.07,0.086-0.261,0.016-0.313l0,0  C114.202,121.437,114.08,121.455,114.029,121.524L114.029,121.524z M83.609,134.898c-0.192-0.034-0.346,0.174-0.381,0.366  c-0.034,0.192,0.174,0.347,0.365,0.382c0.192,0.034,0.346-0.174,0.381-0.366C84.008,135.088,83.8,134.932,83.609,134.898z   M92.476,134.909c-0.192-0.034-0.346,0.174-0.381,0.366c-0.034,0.192,0.174,0.347,0.365,0.382c0.192,0.034,0.346-0.174,0.381-0.366  C92.807,135.047,92.667,134.943,92.476,134.909L92.476,134.909z M101.274,134.868c-0.192-0.034-0.346,0.174-0.381,0.366  c-0.034,0.192,0.174,0.347,0.365,0.382c0.192,0.034,0.346-0.174,0.381-0.366S101.466,134.902,101.274,134.868z M107.199,124.444  c-0.034,0.192,0.001,0.434,0.192,0.468c0.192,0.034,0.433-0.001,0.467-0.192c0.034-0.192-0.001-0.434-0.192-0.468  C107.477,124.217,107.233,124.253,107.199,124.444L107.199,124.444z M90.785,151.421c-0.174,0.087-0.26,0.348-0.172,0.522  c0.087,0.174,0.347,0.26,0.521,0.172c0.174-0.087,0.329-0.296,0.242-0.47l0,0C91.218,151.42,91.028,151.386,90.785,151.421  L90.785,151.421L90.785,151.421z M98.967,147.994c-0.174,0.087-0.329,0.296-0.172,0.522l0,0c0.087,0.174,0.279,0.208,0.469,0.242  l0,0c0.174-0.087,0.329-0.296,0.242-0.47C99.4,147.992,99.209,147.959,98.967,147.994L98.967,147.994z M112.43,120.764  c-0.034,0.192,0.001,0.434,0.192,0.468c0.192,0.034,0.433-0.001,0.467-0.192c0.104-0.139,0.068-0.382-0.192-0.468l0,0  C112.759,120.468,112.516,120.503,112.43,120.764L112.43,120.764z M87.162,146.549c-0.174,0.087-0.329,0.296-0.242,0.47  c0.088,0.174,0.296,0.33,0.469,0.242c0.174-0.087,0.277-0.226,0.242-0.47C87.545,146.617,87.336,146.461,87.162,146.549  L87.162,146.549z M95.467,143.537c-0.174,0.087-0.329,0.296-0.242,0.47c0.087,0.174,0.227,0.278,0.469,0.242  c0.174-0.087,0.329-0.296,0.242-0.47C95.779,143.554,95.64,143.45,95.467,143.537z M103.702,140.475  c-0.174,0.087-0.329,0.296-0.242,0.47c0.087,0.174,0.296,0.33,0.469,0.242c0.174-0.087,0.329-0.296,0.242-0.47l0,0  C104.136,140.473,103.874,140.387,103.702,140.475L103.702,140.475z M97.924,128.031c-0.192-0.034-0.346,0.174-0.381,0.366l0,0  c-0.034,0.192,0.174,0.347,0.365,0.382c0.192,0.034,0.346-0.174,0.381-0.366C98.255,128.169,98.116,128.066,97.924,128.031  L97.924,128.031z M106.776,128.354c-0.192-0.034-0.346,0.174-0.381,0.366c-0.034,0.192,0.174,0.347,0.365,0.382l0,0  c0.192,0.034,0.346-0.174,0.381-0.366C107.106,128.492,106.968,128.388,106.776,128.354L106.776,128.354L106.776,128.354z   M102.219,144.354c-0.174,0.087-0.156,0.209-0.068,0.382c0.087,0.174,0.209,0.156,0.382,0.069c0.174-0.087,0.156-0.209,0.068-0.382  l0,0C102.462,144.318,102.392,144.266,102.219,144.354z M100.672,130.3c-0.122,0.018-0.226,0.157-0.207,0.278  c0.018,0.122,0.157,0.226,0.278,0.207c0.122-0.018,0.226-0.157,0.207-0.278l0,0C100.933,130.386,100.794,130.283,100.672,130.3  L100.672,130.3L100.672,130.3z M107.212,129.222c-0.122,0.018-0.226,0.157-0.26,0.348c0.018,0.122,0.157,0.226,0.278,0.207l0,0  c0.122-0.018,0.226-0.157,0.207-0.278l0,0C107.525,129.239,107.385,129.135,107.212,129.222L107.212,129.222L107.212,129.222z"/>

</g>
</g>

<!-- ITEM 2 -->
<g transform="translate(509.0 264.0) scale(-1.4832603475067099 1.4768023456364265) rotate(-0.0 120.343 139.15199999999996)">
<g transform="translate(-21.369 -0.0)">

<path fill="#FFBEB6" d="M41.327,108.837c-4.184,3.066-10.021,2.834-14.947,2.329c-1.542-0.158-6.88-0.926-4.334,2.07  c1.305,1.535,8.443,1.01,10.529,1.666c-2.655,0.601-11.773,2.656-8.403,5.451c4.479,3.714,5.081,8.752,8.938,8.323  c2.001-0.223,1.892-0.354,3.407-1.503c1.408-1.068,2.388-2.328,3.24-3.684c0.645-1.027,0.91-1.262,1.82-2.177  c1.47-1.479,3.697-2.266,5.573-3.137c2.214-1.028,4.137-2.358,6.215-3.54c-1.073-2.786-3.431-5.055-4.347-7.91  C47.073,106.629,43.167,107.523,41.327,108.837z"/>
<path fill="#F7931E" d="M122.963,120.212c-11.556,10.288-21.596,18.093-23.256,16.229c-1.66-1.864,5.69-12.692,17.246-22.979  s22.909-16.71,24.569-14.847C143.181,100.478,134.519,109.924,122.963,120.212z"/>
<linearGradient id="SVGID_1_-i2" gradientUnits="userSpaceOnUse" x1="1004.7043" y1="-1475.9812" x2="1258.2078" y2="-1475.9812" gradientTransform="matrix(0.2286 0 0 -0.2286 -104.9674 -68.0365)">
	<stop offset="0" style="stop-color:#EEEEEE"/>
	<stop offset="1" style="stop-color:#D6D7D8"/>
</linearGradient>
<path fill="url(#SVGID_1_-i2)" d="M182.302,262.165c0.466,5.125,0.476,10.293,0.028,15.419c-13.25,0.802-26.535,0.747-39.811,0.692  c-5.937-0.025-11.873-0.05-17.811-0.074c3.096-4.094,7.806-6.588,12.368-8.937c5.092-2.621,10.24-5.234,15.751-6.79  c9.068-2.559,18.673-2.143,28.085-1.707c0.336,0.015,0.698,0.04,0.958,0.252C182.199,261.284,182.264,261.747,182.302,262.165z"/>
<linearGradient id="SVGID_2_-i2" gradientUnits="userSpaceOnUse" x1="2152.9692" y1="-718.9602" x2="2406.4724" y2="-718.9602" gradientTransform="matrix(-0.0541 -0.2221 -0.2221 0.0541 210.2785 712.473)">
	<stop offset="0" style="stop-color:#EEEEEE"/>
	<stop offset="1" style="stop-color:#D6D7D8"/>
</linearGradient>
<path fill="url(#SVGID_2_-i2)" d="M232.856,141.15c4.87-1.666,9.888-2.896,14.974-3.675c3.913,12.685,7.001,25.606,10.086,38.518  c1.38,5.775,2.759,11.548,4.139,17.322c-4.709-2.04-8.248-6.025-11.609-9.904c-3.75-4.329-7.506-8.711-10.322-13.7  c-4.631-8.206-6.499-17.637-8.299-26.885c-0.064-0.33-0.126-0.687,0.018-0.991C232.025,141.458,232.459,141.285,232.856,141.15z"/>
<path fill="#151A4F" d="M153.867,164.157c-1.174-26.323-4.48-55.816-24.958-72.398c-6.892,3.642-13.782,7.283-20.674,10.924  c-2.104,1.112-4.36,2.384-5.286,4.576c-0.749,1.771-0.467,3.786-0.163,5.685c8.376,52.237,24.702,103.191,48.241,150.571  c10.372-0.798,20.84-0.346,31.105,1.348c3.048-6.498,2.752-14.459-0.766-20.714c-1.976-3.513-5.007-6.925-4.59-10.934  c0.204-1.974-0.941-7.552-1.223-9.517c-1.147-8.032-2.518-10.829-6.311-15.49c-3.793-4.662-4.128-5.711-7.573-10.635  C155.022,188.064,154.384,175.748,153.867,164.157z"/>
<linearGradient id="SVGID_3_-i2" gradientUnits="userSpaceOnUse" x1="919.7692" y1="-891.3947" x2="1507.7314" y2="-891.3947" gradientTransform="matrix(0.2286 0 0 -0.2286 -104.9674 -68.0365)">
	<stop offset="0" style="stop-color:#23286B"/>
	<stop offset="1" style="stop-color:#151A4F"/>
</linearGradient>
<path fill="url(#SVGID_3_-i2)" d="M126.127,91.895c-5.828,0.402-10.197,5.419-13.279,10.382c-2.598,4.184-4.793,8.619-6.546,13.222  c-0.607,1.595-1.169,3.279-0.969,4.973c0.232,1.964,1.447,3.654,2.651,5.223c14.694,19.134,33.789,34.867,55.38,45.631  c7.976,3.976,16.434,7.319,25.311,8.095c17.336,1.513,33.875-6.798,51.025-9.752c-1.122-9.824-2.245-19.646-3.366-29.47  c-4.041-1.996-9.283-1.225-12.576,1.854c-1.109,1.036-2.034,2.319-3.377,3.027c-5.062,2.667-10.791-4.504-16.326-3.055  c-3.838,1.004-6.052,5.873-10.016,6.041c-1.642,0.069-3.187-0.727-4.587-1.588c-9.699-5.954-16.598-15.794-26.493-21.417  c-3.788-2.153-7.99-3.672-11.314-6.488c-4.927-4.173-7.237-10.561-10.484-16.142C137.917,96.849,132.568,91.45,126.127,91.895z"/>
<path fill="#F2A19C" d="M100.792,42.67c-2.721-7.028-6.037-13.825-9.903-20.293c-2.86,4.098-7.506,6.902-12.464,7.524  c3.527,6.032,7.49,11.809,11.848,17.272C93.542,45.184,97.096,43.662,100.792,42.67z"/>
<path fill="#FFBEB6" d="M88.285,3.647c-6.379-0.139-9.254,4.993-11.14,6.737s-5.054,2.58-6.96,0.857  c-0.252-0.228-1.96,0.12-1.796,2.822c0.164,2.7-0.863,5.252-1.329,7.918c-0.923,5.279,2.469,10.66,7.154,13.262  c4.686,2.603,10.357,2.842,15.653,2.028c1.809-0.278,3.612-0.673,5.306-1.363c4.796-1.951,8.518-6.356,9.64-11.41  c1.122-5.055-0.387-10.62-3.909-14.416c-1.842-1.985-4.148-3.469-6.426-4.931C93.049,4.234,89.984,3.685,88.285,3.647z"/>
<g>
	<path fill="#23286B" d="M78.363,15.189c-1.897,0-3.448-1.827-4.002-4.767c-0.045-0.235,0.11-0.463,0.346-0.508   c0.237-0.043,0.464,0.11,0.508,0.346c0.495,2.627,1.821,4.214,3.38,4.047c0.247-0.02,0.454,0.146,0.478,0.384   c0.026,0.239-0.146,0.453-0.384,0.478C78.578,15.184,78.47,15.189,78.363,15.189z"/>
</g>
<linearGradient id="SVGID_4_-i2" gradientUnits="userSpaceOnUse" x1="947.0029" y1="-663.4233" x2="865.5571" y2="-890.7996" gradientTransform="matrix(0.2286 0 0 -0.2286 -104.9674 -68.0365)">
	<stop offset="0" style="stop-color:#FBB03B"/>
	<stop offset="1" style="stop-color:#F7931E"/>
</linearGradient>
<path fill="url(#SVGID_4_-i2)" d="M96.168,42.657c-3.904,0.874-6.864,4.264-8.274,8.007c-1.41,3.744-1.517,7.835-1.527,11.838  c-0.041,18.945,1.78,37.893,5.428,56.483c1.256,6.397,2.99,13.21,7.931,17.462c7.893-17.669,23.469-31.743,41.845-37.811  C131.38,87.48,120.994,76.024,115.17,62.081c-1.913-4.58-3.346-9.447-6.274-13.453C105.968,44.623,101.012,41.574,96.168,42.657z"/>
<linearGradient id="SVGID_5_-i2" gradientUnits="userSpaceOnUse" x1="749.8356" y1="-602.3039" x2="867.1413" y2="-828.248" gradientTransform="matrix(0.2286 0 0 -0.2286 -104.9674 -68.0365)">
	<stop offset="0" style="stop-color:#FBB03B"/>
	<stop offset="1" style="stop-color:#F7931E"/>
</linearGradient>
<path fill="url(#SVGID_5_-i2)" d="M99.423,46.615c0.532,5.592-1.443,11.063-3.387,16.301c-5.288,14.262-10.835,28.948-21.231,39.887  c-3.186,3.353-6.771,6.285-10.343,9.206c-4.778,3.908-9.76,7.919-15.719,9.421c-1.068-4.904-3.71-9.45-7.423-12.77  c15.656-10.968,28.371-26.23,36.457-43.762c2.104-4.561,3.928-9.32,6.885-13.356s7.322-7.345,12.274-7.589  c0.42-0.02,0.856-0.016,1.24,0.163C99.054,44.523,99.331,45.641,99.423,46.615z"/>
<path id="texture_19_-i2" fill="#FFFFFF" d="M135.462,111.472c0.054,0.13,0.175,0.202,0.306,0.148l0,0  c0.13-0.054,0.202-0.175,0.148-0.306l0,0c-0.054-0.13-0.175-0.202-0.306-0.148l0,0C135.48,111.218,135.407,111.34,135.462,111.472  L135.462,111.472z M147.281,131.959c-0.072,0.122-0.018,0.252,0.104,0.323c0.122,0.072,0.252,0.018,0.323-0.104l0,0  c0.072-0.122,0.018-0.252-0.104-0.323C147.488,131.72,147.353,131.837,147.281,131.959L147.281,131.959L147.281,131.959z   M149.706,126.433c-0.072,0.122-0.018,0.252,0.104,0.323c0.122,0.072,0.252,0.018,0.323-0.104l0,0  c0.072-0.122,0.018-0.252-0.104-0.323l0,0C149.972,126.264,149.779,126.312,149.706,126.433L149.706,126.433z M138.53,122.459  c0.122,0.072,0.247,0.081,0.377,0.026c0.072-0.122,0.081-0.247,0.026-0.377c-0.122-0.072-0.247-0.081-0.315-0.022  C138.422,122.198,138.413,122.325,138.53,122.459z M142.949,118.283c0.122,0.072,0.247,0.081,0.377,0.026  c0.072-0.122,0.081-0.247,0.026-0.377c-0.122-0.072-0.247-0.081-0.315-0.022C142.84,118.021,142.828,118.211,142.949,118.283  L142.949,118.283z M159.446,131.888c-0.009,0.126,0.108,0.261,0.234,0.271c0.126,0.009,0.261-0.108,0.271-0.234l0,0  c0.009-0.126-0.108-0.261-0.234-0.271l0,0C159.59,131.645,159.455,131.762,159.446,131.888z M159.631,125.821  c-0.009,0.126,0.108,0.261,0.234,0.271c0.126,0.009,0.261-0.108,0.271-0.234s-0.108-0.261-0.234-0.271l0,0  C159.775,125.578,159.639,125.695,159.631,125.821L159.631,125.821L159.631,125.821z M134.605,118.059  c0.058,0.068,0.243,0.144,0.315,0.022c0.068-0.058,0.144-0.243,0.022-0.315c-0.058-0.068-0.243-0.144-0.315-0.022l0,0  C134.497,117.798,134.488,117.924,134.605,118.059L134.605,118.059z M138.838,114.692c0.058,0.068,0.243,0.144,0.315,0.022  c0.068-0.058,0.139-0.18,0.022-0.315c-0.058-0.068-0.18-0.139-0.315-0.022l0,0C138.789,114.498,138.78,114.624,138.838,114.692  L138.838,114.692L138.838,114.692z M154.268,129.044c-0.009,0.126,0.045,0.256,0.171,0.265s0.193-0.05,0.265-0.171l0,0  c0.009-0.126-0.045-0.256-0.171-0.265l0,0C154.407,128.864,154.277,128.918,154.268,129.044L154.268,129.044z M154.907,123.706  c-0.009,0.126,0.045,0.256,0.171,0.265s0.193-0.05,0.265-0.171l0,0c0.009-0.126-0.045-0.256-0.171-0.265l0,0  C155.047,123.527,154.916,123.581,154.907,123.706L154.907,123.706z M144.268,122.811c-0.072,0.122-0.018,0.252,0.104,0.323  c0.122,0.072,0.252,0.018,0.323-0.104c0.072-0.122,0.018-0.252-0.104-0.323C144.471,122.636,144.34,122.69,144.268,122.811  L144.268,122.811z M132.513,123.355c-0.072,0.122-0.018,0.252,0.104,0.323c0.122,0.072,0.252,0.018,0.323-0.104  c0.072-0.122,0.018-0.252-0.104-0.323C132.715,123.18,132.585,123.233,132.513,123.355L132.513,123.355z M135.564,117.939  c-0.072,0.122-0.018,0.252,0.104,0.323c0.122,0.072,0.252,0.018,0.323-0.104c0.072-0.122,0.018-0.252-0.104-0.323  C135.767,117.763,135.637,117.817,135.564,117.939L135.564,117.939z M138.556,112.455c-0.072,0.122-0.018,0.252,0.104,0.323  c0.122,0.072,0.252,0.018,0.323-0.104c0.072-0.122,0.018-0.252-0.104-0.323C138.755,112.342,138.625,112.396,138.556,112.455z   M158.5,126.563c0.054,0.13,0.175,0.202,0.306,0.148c0.13-0.054,0.202-0.175,0.148-0.306c-0.054-0.13-0.175-0.202-0.306-0.148  C158.523,126.247,158.446,126.431,158.5,126.563L158.5,126.563z M134.224,104.922c-0.135,0.117-0.144,0.243-0.026,0.377   M145.091,124.58c-0.009,0.126,0.108,0.261,0.234,0.271c0.126,0.009,0.261-0.108,0.271-0.234c0.009-0.126-0.108-0.261-0.234-0.271  l0,0C145.234,124.337,145.099,124.454,145.091,124.58L145.091,124.58L145.091,124.58z M140.868,125.161  c-0.009,0.126,0.108,0.261,0.234,0.271c0.126,0.009,0.261-0.108,0.271-0.234s-0.045-0.256-0.234-0.271  C141.013,124.919,140.877,125.036,140.868,125.161L140.868,125.161z M141.819,119.024c-0.009,0.126,0.108,0.261,0.234,0.271  c0.126,0.009,0.256-0.045,0.271-0.234c0.009-0.126-0.108-0.261-0.229-0.334C141.963,118.781,141.827,118.898,141.819,119.024  L141.819,119.024z M133.193,112.194c-0.072,0.122-0.018,0.252,0.104,0.323l0,0c0.122,0.072,0.252,0.018,0.387-0.099  c0.072-0.122,0.018-0.252-0.099-0.387C133.395,112.019,133.265,112.073,133.193,112.194L133.193,112.194z M135.538,111.286  c-0.009,0.126,0.05,0.193,0.108,0.261c0.126,0.009,0.193-0.05,0.261-0.108c0.009-0.126-0.05-0.193-0.108-0.261l0,0  C135.673,111.17,135.542,111.223,135.538,111.286L135.538,111.286L135.538,111.286z"/>
<path fill="#23286B" d="M82.896,0.463c-1.902,0.583-3.702,1.494-5.299,2.681C80.493,7.766,84.296,11.816,88.724,15  c1.799-3.37,3.411-6.84,4.824-10.389C91.318,2.393,88.75,0.027,85.607,0C84.687-0.008,83.776,0.192,82.896,0.463z"/>
<path fill="#23286B" d="M102.481,5.499c-3.086-3.703-6.173-3.394-10.956-2.623c2.352,4.269-9.819,15.308-5.046,14.32  c6.917-1.431,7.871,4.293,2.623,8.348c-2.152,1.663,5.857,8.968,8.576,9.053c0.658,0.02,1.315-0.108,1.939-0.318  c4.063-1.374,6.128-5.867,7.114-10.041c0.987-4.174,1.446-8.691,4.069-12.084C108.674,11.538,106.098,9.84,102.481,5.499z"/>
<path fill="#23286B" d="M115.18,10.292c3.133-1.683,6.81-2.023,10.366-1.972c3.222,0.046,6.504,0.402,9.445,1.719  c1.985,0.889,3.757,2.191,5.689,3.191c4.265,2.207,9.438,2.857,13.944,1.196c-3.368,7.022,0.31,15.325-0.33,23.086  c-0.621,7.538-5.749,14.53-12.752,17.388c-1.761,0.718-3.614,1.19-5.484,1.529c-3.55,0.644-7.186,0.813-10.781,0.502  c3.964-2.485,3.634-8.501,1.522-12.677s-5.517-7.811-6.418-12.403c-0.543-2.767-0.121-5.682-0.88-8.4  C118.228,18.891,113.715,14.796,115.18,10.292z"/>
<g>
	<path fill="#23286B" d="M115.402,11.842c-0.083,0-0.168-0.023-0.242-0.074c-0.199-0.133-0.252-0.404-0.118-0.603   c4.534-6.737,14.613-8.972,21.572-4.786c0.734,0.442,1.438,0.947,2.119,1.434c1.101,0.789,2.141,1.535,3.322,2.059   c3.585,1.59,8.097,0.634,10.728-2.274c0.163-0.178,0.437-0.191,0.614-0.031s0.191,0.435,0.031,0.613   c-2.876,3.178-7.805,4.225-11.725,2.485c-1.262-0.56-2.387-1.367-3.475-2.147c-0.667-0.478-1.357-0.972-2.061-1.396   c-6.582-3.961-16.117-1.845-20.403,4.528C115.679,11.776,115.542,11.842,115.402,11.842z"/>
</g>
<rect x="106.36" y="8.876" fill="#E94A47" width="10.177" height="10.177"/>
<circle fill="#F2A19C" cx="76.103" cy="22.086" r="2.982"/>

</g>
</g>

<!-- ITEM 3 -->
<g transform="translate(138.0 83.0) scale(0.812 0.8136200716845878) rotate(341.6762375517879 249.99999999999997 139.5)">
<g transform="translate(-0.0 -0.0)">

<path id="texture-2_6_-i3" fill="#428DFC" d="M301.174,166.971c-0.254-0.645-0.988-0.957-1.633-0.702s-0.954,0.991-0.699,1.638  c0.254,0.645,0.988,0.957,1.633,0.702l0,0C301.119,168.354,301.436,167.621,301.174,166.971L301.174,166.971z M209.925,75.896  c0.283-0.652-0.018-1.415-0.668-1.695l0,0c-0.588-0.277-1.288-0.025-1.562,0.563c-0.025,0.046-0.047,0.101-0.058,0.156  c-0.285,0.622-0.019,1.353,0.599,1.646C208.882,76.836,209.643,76.547,209.925,75.896L209.925,75.896L209.925,75.896z   M253.181,125.002c0.462-0.532,0.459-1.327-0.011-1.853c-0.506-0.508-1.336-0.507-1.848,0.011c-0.507,0.507-0.506,1.34,0.011,1.853  C251.868,125.47,252.654,125.47,253.181,125.002z M404.557,52.792c0.987-0.893,1.08-2.415,0.208-3.424  c-0.807-1.002-2.264-1.16-3.262-0.36c-0.035,0.029-0.068,0.053-0.096,0.084c-0.987,0.893-1.08,2.415-0.208,3.424  C402.047,53.52,403.553,53.646,404.557,52.792L404.557,52.792z M360.61,91.095c0.99-0.903,1.06-2.434,0.158-3.424  c-0.88-0.975-2.379-1.067-3.367-0.204c-1.005,0.854-1.127,2.358-0.275,3.368l0,0C358.053,91.819,359.568,91.929,360.61,91.095z   M316.553,129.418c0.998-0.858,1.115-2.354,0.259-3.354c-0.018-0.019-0.036-0.04-0.054-0.06c-0.807-1.002-2.264-1.16-3.262-0.36  c-0.035,0.029-0.068,0.053-0.096,0.084c-0.982,0.918-1.094,2.437-0.259,3.495C314.031,130.2,315.549,130.293,316.553,129.418z   M442.555,171.746c-0.456-1.242-1.83-1.879-3.073-1.412c-1.239,0.457-1.873,1.836-1.408,3.082c0.449,1.218,1.785,1.853,3.01,1.437  C442.326,174.387,442.978,173.009,442.555,171.746L442.555,171.746z M387.272,190.268c-0.456-1.242-1.83-1.879-3.073-1.412  c-1.239,0.457-1.873,1.836-1.408,3.082c0.449,1.218,1.785,1.853,3.01,1.437C387.04,192.916,387.695,191.531,387.272,190.268  L387.272,190.268z M297.652,3.494c0.568-1.207,0.074-2.649-1.128-3.236c-1.159-0.595-2.573-0.126-3.166,1.036  c-0.004,0.007-0.008,0.014-0.012,0.021c-0.64,1.108-0.262,2.522,0.84,3.168c0.053,0.029,0.105,0.058,0.166,0.093  C295.568,5.121,296.996,4.661,297.652,3.494z M271.577,55.805c0.553-1.214,0.087-2.65-1.069-3.305  c-1.203-0.57-2.642-0.067-3.227,1.131c-0.588,1.187-0.105,2.631,1.078,3.219c0.014,0.008,0.032,0.018,0.039,0.021  c1.159,0.595,2.573,0.126,3.16-1.029C271.568,55.819,271.572,55.812,271.577,55.805z M245.553,108.036  c0.596-1.131,0.179-2.532-0.95-3.128c-0.032-0.018-0.067-0.037-0.101-0.047c-1.159-0.635-2.61-0.198-3.244,0.964  c-0.021,0.039-0.039,0.068-0.058,0.105c-0.588,1.206-0.089,2.659,1.102,3.244c1.202,0.59,2.652,0.09,3.235-1.105  C245.544,108.053,245.55,108.043,245.553,108.036z M459.218,226.572c-0.269-1.149-1.41-1.871-2.562-1.623  c-1.149,0.26-1.874,1.409-1.619,2.57c0.255,1.16,1.405,1.879,2.563,1.623l0,0C458.745,228.869,459.466,227.728,459.218,226.572z   M331.808,49.486c0.6-1.051,0.281-2.383-0.729-3.046c-0.969-0.618-2.25-0.332-2.868,0.638c-0.018,0.032-0.029,0.053-0.046,0.084  c-0.649,0.993-0.369,2.325,0.625,2.966c0.014,0.008,0.021,0.012,0.039,0.021C329.832,50.739,331.134,50.456,331.808,49.486  L331.808,49.486z M304.229,93.606c0.607-1.008,0.284-2.314-0.708-2.926c-0.969-0.618-2.25-0.332-2.868,0.638  c-0.018,0.032-0.029,0.053-0.046,0.084c-0.649,0.993-0.369,2.325,0.62,2.974c0.014,0.008,0.021,0.012,0.039,0.021  C302.301,94.972,303.615,94.626,304.229,93.606L304.229,93.606z M276.623,137.917c0.649-0.993,0.369-2.325-0.62-2.974  c-0.014-0.008-0.021-0.012-0.039-0.021c-0.922-0.632-2.183-0.385-2.814,0.54c-0.04,0.057-0.075,0.118-0.108,0.177  c-0.649,0.993-0.369,2.325,0.62,2.974c0.014,0.008,0.021,0.012,0.039,0.021C274.709,139.206,275.995,138.894,276.623,137.917  L276.623,137.917z M393.885,145.417c0.941-0.721,1.141-2.063,0.441-3.025c-0.681-0.962-2.002-1.192-2.961-0.511  c-0.954,0.706-1.206,2.038-0.565,3.036C391.52,145.9,392.885,146.116,393.885,145.417L393.885,145.417z M351.474,175.67  c0.948-0.63,1.216-1.912,0.589-2.866c-0.022-0.032-0.049-0.068-0.068-0.107c-0.681-0.962-2.002-1.192-2.961-0.511  c-0.954,0.706-1.206,2.038-0.565,3.036C349.175,176.169,350.513,176.371,351.474,175.67L351.474,175.67z M226.807,36.769  c0.209-1.109-0.513-2.173-1.615-2.39c-0.046-0.007-0.087-0.021-0.126-0.021c-1.156-0.228-2.283,0.53-2.515,1.693  c-0.005,0.026-0.011,0.053-0.012,0.072c-0.145,1.174,0.651,2.261,1.82,2.466c1.148,0.204,2.24-0.573,2.443-1.725  C226.802,36.833,226.799,36.8,226.807,36.769L226.807,36.769z M218.209,88.254c0.189-1.181-0.588-2.307-1.763-2.532  c-1.188-0.169-2.297,0.66-2.463,1.853c-0.165,1.135,0.585,2.204,1.706,2.441c1.141,0.238,2.268-0.498,2.506-1.642  C218.202,88.34,218.209,88.294,218.209,88.254L218.209,88.254z M499.021,188.168c1.074-0.857,1.3-2.401,0.502-3.528  c-0.805-1.109-2.35-1.367-3.46-0.57c-1.09,0.847-1.314,2.412-0.502,3.528C496.366,188.706,497.911,188.963,499.021,188.168  L499.021,188.168z M450.435,223.594c1.115-0.803,1.363-2.357,0.568-3.47c-0.794-1.113-2.35-1.367-3.46-0.57  c-1.115,0.803-1.363,2.357-0.568,3.47C447.776,224.139,449.326,224.39,450.435,223.594L450.435,223.594z M284.293,54.286  c0.175-1.385-0.754-2.664-2.126-2.912c-1.374-0.172-2.628,0.813-2.791,2.196c-0.165,1.332,0.749,2.552,2.061,2.778  C282.783,56.533,284.041,55.631,284.293,54.286L284.293,54.286z M274.956,113.777c0.186-1.351-0.714-2.613-2.054-2.862  c-1.356-0.221-2.634,0.701-2.854,2.06c-0.22,1.36,0.699,2.642,2.054,2.862C273.449,116.034,274.716,115.116,274.956,113.777  L274.956,113.777z M393.815,126.171c0.653-1.196,0.28-2.701-0.843-3.464c-1.188-0.67-2.689-0.27-3.388,0.903  c-0.728,1.137-0.402,2.653,0.739,3.385c0.014,0.008,0.032,0.018,0.046,0.025C391.547,127.745,393.085,127.366,393.815,126.171  C393.811,126.178,393.815,126.171,393.815,126.171L393.815,126.171z M362.45,177.604c0.719-1.192,0.341-2.738-0.836-3.46  c0,0,0,0-0.007-0.004c-1.142-0.695-2.641-0.323-3.327,0.827l0,0c-0.712,1.163-0.355,2.689,0.801,3.401  C360.217,179.093,361.722,178.74,362.45,177.604L362.45,177.604z M433.2,138.296c0.722-1.149,0.376-2.678-0.776-3.406  c-1.153-0.731-2.67-0.378-3.398,0.777c-0.7,1.123-0.398,2.606,0.696,3.354C430.891,139.781,432.441,139.456,433.2,138.296  L433.2,138.296z M399.898,188.15c0.753-1.163,0.428-2.717-0.728-3.478c-1.13-0.72-2.634-0.426-3.42,0.656  c-0.74,1.18-0.445,2.728,0.671,3.546C397.593,189.605,399.117,189.277,399.898,188.15L399.898,188.15z M309.547,119.223  c0.238-1.36-0.653-2.668-2.006-2.934c-1.328-0.255-2.616,0.611-2.87,1.943c-0.313,1.299,0.48,2.61,1.774,2.926  c0.035,0.011,0.068,0.019,0.107,0.019c1.336,0.31,2.67-0.53,2.971-1.876C309.537,119.277,309.543,119.251,309.547,119.223  L309.547,119.223z"/>
<polygon fill="#428DFC" points="452.712,21.823 470.789,10.217 482.36,28.347 464.283,39.952 "/>
<polygon fill="#A1C3FC" points="56.946,53.293 77.39,59.857 70.845,80.361 50.401,73.797 "/>
<polygon fill="#E94A47" points="162.041,105.752 186.217,90.232 201.692,114.479 177.516,129.999 "/>
<g>
	<path fill="#428DFC" d="M110.84,194.845c-0.281,0-0.559-0.137-0.728-0.389C86.008,158.357,44.14,135.057,0.845,133.647   c-0.483-0.015-0.862-0.421-0.845-0.906s0.469-0.853,0.903-0.847c43.85,1.426,86.252,25.026,110.665,61.586   c0.269,0.402,0.161,0.947-0.24,1.218C111.176,194.798,111.007,194.845,110.84,194.845z"/>
</g>
<g>
	<path fill="#428DFC" d="M108.487,279c-0.173,0-0.348-0.051-0.5-0.158c-26.988-18.914-64.795-21.48-94.076-6.389   c-0.434,0.223-0.958,0.053-1.178-0.379c-0.22-0.429-0.051-0.96,0.378-1.181c29.842-15.385,68.372-12.764,95.877,6.508   c0.398,0.277,0.493,0.825,0.216,1.221C109.035,278.87,108.764,279,108.487,279z"/>
</g>
<g>
	<path fill="#428DFC" d="M317.141,172.811c-0.204,0-0.408-0.07-0.574-0.214c-0.363-0.317-0.405-0.872-0.087-1.239   c26.751-30.942,67.08-48.786,107.916-47.673c0.481,0.012,0.862,0.065,0.85,0.55c-0.014,0.475-0.401,0.501-0.875,0.501   c-0.007,0-0.015,0-0.025,0c-40.29,0-80.132,16.869-106.546,47.418C317.627,172.357,317.384,172.811,317.141,172.811z"/>
</g>

</g>
</g>

<!-- ITEM 4 -->
<g transform="translate(1019.0 82.0) scale(-0.682 0.6810035842293907) rotate(-10.103037000851554 249.99999999999997 139.5)">
<g transform="translate(-0.0 -0.0)">

<path id="texture-2_6_-i4" fill="#428DFC" d="M301.174,166.971c-0.254-0.645-0.988-0.957-1.633-0.702s-0.954,0.991-0.699,1.638  c0.254,0.645,0.988,0.957,1.633,0.702l0,0C301.119,168.354,301.436,167.621,301.174,166.971L301.174,166.971z M209.925,75.896  c0.283-0.652-0.018-1.415-0.668-1.695l0,0c-0.588-0.277-1.288-0.025-1.562,0.563c-0.025,0.046-0.047,0.101-0.058,0.156  c-0.285,0.622-0.019,1.353,0.599,1.646C208.882,76.836,209.643,76.547,209.925,75.896L209.925,75.896L209.925,75.896z   M253.181,125.002c0.462-0.532,0.459-1.327-0.011-1.853c-0.506-0.508-1.336-0.507-1.848,0.011c-0.507,0.507-0.506,1.34,0.011,1.853  C251.868,125.47,252.654,125.47,253.181,125.002z M404.557,52.792c0.987-0.893,1.08-2.415,0.208-3.424  c-0.807-1.002-2.264-1.16-3.262-0.36c-0.035,0.029-0.068,0.053-0.096,0.084c-0.987,0.893-1.08,2.415-0.208,3.424  C402.047,53.52,403.553,53.646,404.557,52.792L404.557,52.792z M360.61,91.095c0.99-0.903,1.06-2.434,0.158-3.424  c-0.88-0.975-2.379-1.067-3.367-0.204c-1.005,0.854-1.127,2.358-0.275,3.368l0,0C358.053,91.819,359.568,91.929,360.61,91.095z   M316.553,129.418c0.998-0.858,1.115-2.354,0.259-3.354c-0.018-0.019-0.036-0.04-0.054-0.06c-0.807-1.002-2.264-1.16-3.262-0.36  c-0.035,0.029-0.068,0.053-0.096,0.084c-0.982,0.918-1.094,2.437-0.259,3.495C314.031,130.2,315.549,130.293,316.553,129.418z   M442.555,171.746c-0.456-1.242-1.83-1.879-3.073-1.412c-1.239,0.457-1.873,1.836-1.408,3.082c0.449,1.218,1.785,1.853,3.01,1.437  C442.326,174.387,442.978,173.009,442.555,171.746L442.555,171.746z M387.272,190.268c-0.456-1.242-1.83-1.879-3.073-1.412  c-1.239,0.457-1.873,1.836-1.408,3.082c0.449,1.218,1.785,1.853,3.01,1.437C387.04,192.916,387.695,191.531,387.272,190.268  L387.272,190.268z M297.652,3.494c0.568-1.207,0.074-2.649-1.128-3.236c-1.159-0.595-2.573-0.126-3.166,1.036  c-0.004,0.007-0.008,0.014-0.012,0.021c-0.64,1.108-0.262,2.522,0.84,3.168c0.053,0.029,0.105,0.058,0.166,0.093  C295.568,5.121,296.996,4.661,297.652,3.494z M271.577,55.805c0.553-1.214,0.087-2.65-1.069-3.305  c-1.203-0.57-2.642-0.067-3.227,1.131c-0.588,1.187-0.105,2.631,1.078,3.219c0.014,0.008,0.032,0.018,0.039,0.021  c1.159,0.595,2.573,0.126,3.16-1.029C271.568,55.819,271.572,55.812,271.577,55.805z M245.553,108.036  c0.596-1.131,0.179-2.532-0.95-3.128c-0.032-0.018-0.067-0.037-0.101-0.047c-1.159-0.635-2.61-0.198-3.244,0.964  c-0.021,0.039-0.039,0.068-0.058,0.105c-0.588,1.206-0.089,2.659,1.102,3.244c1.202,0.59,2.652,0.09,3.235-1.105  C245.544,108.053,245.55,108.043,245.553,108.036z M459.218,226.572c-0.269-1.149-1.41-1.871-2.562-1.623  c-1.149,0.26-1.874,1.409-1.619,2.57c0.255,1.16,1.405,1.879,2.563,1.623l0,0C458.745,228.869,459.466,227.728,459.218,226.572z   M331.808,49.486c0.6-1.051,0.281-2.383-0.729-3.046c-0.969-0.618-2.25-0.332-2.868,0.638c-0.018,0.032-0.029,0.053-0.046,0.084  c-0.649,0.993-0.369,2.325,0.625,2.966c0.014,0.008,0.021,0.012,0.039,0.021C329.832,50.739,331.134,50.456,331.808,49.486  L331.808,49.486z M304.229,93.606c0.607-1.008,0.284-2.314-0.708-2.926c-0.969-0.618-2.25-0.332-2.868,0.638  c-0.018,0.032-0.029,0.053-0.046,0.084c-0.649,0.993-0.369,2.325,0.62,2.974c0.014,0.008,0.021,0.012,0.039,0.021  C302.301,94.972,303.615,94.626,304.229,93.606L304.229,93.606z M276.623,137.917c0.649-0.993,0.369-2.325-0.62-2.974  c-0.014-0.008-0.021-0.012-0.039-0.021c-0.922-0.632-2.183-0.385-2.814,0.54c-0.04,0.057-0.075,0.118-0.108,0.177  c-0.649,0.993-0.369,2.325,0.62,2.974c0.014,0.008,0.021,0.012,0.039,0.021C274.709,139.206,275.995,138.894,276.623,137.917  L276.623,137.917z M393.885,145.417c0.941-0.721,1.141-2.063,0.441-3.025c-0.681-0.962-2.002-1.192-2.961-0.511  c-0.954,0.706-1.206,2.038-0.565,3.036C391.52,145.9,392.885,146.116,393.885,145.417L393.885,145.417z M351.474,175.67  c0.948-0.63,1.216-1.912,0.589-2.866c-0.022-0.032-0.049-0.068-0.068-0.107c-0.681-0.962-2.002-1.192-2.961-0.511  c-0.954,0.706-1.206,2.038-0.565,3.036C349.175,176.169,350.513,176.371,351.474,175.67L351.474,175.67z M226.807,36.769  c0.209-1.109-0.513-2.173-1.615-2.39c-0.046-0.007-0.087-0.021-0.126-0.021c-1.156-0.228-2.283,0.53-2.515,1.693  c-0.005,0.026-0.011,0.053-0.012,0.072c-0.145,1.174,0.651,2.261,1.82,2.466c1.148,0.204,2.24-0.573,2.443-1.725  C226.802,36.833,226.799,36.8,226.807,36.769L226.807,36.769z M218.209,88.254c0.189-1.181-0.588-2.307-1.763-2.532  c-1.188-0.169-2.297,0.66-2.463,1.853c-0.165,1.135,0.585,2.204,1.706,2.441c1.141,0.238,2.268-0.498,2.506-1.642  C218.202,88.34,218.209,88.294,218.209,88.254L218.209,88.254z M499.021,188.168c1.074-0.857,1.3-2.401,0.502-3.528  c-0.805-1.109-2.35-1.367-3.46-0.57c-1.09,0.847-1.314,2.412-0.502,3.528C496.366,188.706,497.911,188.963,499.021,188.168  L499.021,188.168z M450.435,223.594c1.115-0.803,1.363-2.357,0.568-3.47c-0.794-1.113-2.35-1.367-3.46-0.57  c-1.115,0.803-1.363,2.357-0.568,3.47C447.776,224.139,449.326,224.39,450.435,223.594L450.435,223.594z M284.293,54.286  c0.175-1.385-0.754-2.664-2.126-2.912c-1.374-0.172-2.628,0.813-2.791,2.196c-0.165,1.332,0.749,2.552,2.061,2.778  C282.783,56.533,284.041,55.631,284.293,54.286L284.293,54.286z M274.956,113.777c0.186-1.351-0.714-2.613-2.054-2.862  c-1.356-0.221-2.634,0.701-2.854,2.06c-0.22,1.36,0.699,2.642,2.054,2.862C273.449,116.034,274.716,115.116,274.956,113.777  L274.956,113.777z M393.815,126.171c0.653-1.196,0.28-2.701-0.843-3.464c-1.188-0.67-2.689-0.27-3.388,0.903  c-0.728,1.137-0.402,2.653,0.739,3.385c0.014,0.008,0.032,0.018,0.046,0.025C391.547,127.745,393.085,127.366,393.815,126.171  C393.811,126.178,393.815,126.171,393.815,126.171L393.815,126.171z M362.45,177.604c0.719-1.192,0.341-2.738-0.836-3.46  c0,0,0,0-0.007-0.004c-1.142-0.695-2.641-0.323-3.327,0.827l0,0c-0.712,1.163-0.355,2.689,0.801,3.401  C360.217,179.093,361.722,178.74,362.45,177.604L362.45,177.604z M433.2,138.296c0.722-1.149,0.376-2.678-0.776-3.406  c-1.153-0.731-2.67-0.378-3.398,0.777c-0.7,1.123-0.398,2.606,0.696,3.354C430.891,139.781,432.441,139.456,433.2,138.296  L433.2,138.296z M399.898,188.15c0.753-1.163,0.428-2.717-0.728-3.478c-1.13-0.72-2.634-0.426-3.42,0.656  c-0.74,1.18-0.445,2.728,0.671,3.546C397.593,189.605,399.117,189.277,399.898,188.15L399.898,188.15z M309.547,119.223  c0.238-1.36-0.653-2.668-2.006-2.934c-1.328-0.255-2.616,0.611-2.87,1.943c-0.313,1.299,0.48,2.61,1.774,2.926  c0.035,0.011,0.068,0.019,0.107,0.019c1.336,0.31,2.67-0.53,2.971-1.876C309.537,119.277,309.543,119.251,309.547,119.223  L309.547,119.223z"/>
<polygon fill="#428DFC" points="452.712,21.823 470.789,10.217 482.36,28.347 464.283,39.952 "/>
<polygon fill="#A1C3FC" points="56.946,53.293 77.39,59.857 70.845,80.361 50.401,73.797 "/>
<polygon fill="#E94A47" points="162.041,105.752 186.217,90.232 201.692,114.479 177.516,129.999 "/>
<g>
	<path fill="#428DFC" d="M110.84,194.845c-0.281,0-0.559-0.137-0.728-0.389C86.008,158.357,44.14,135.057,0.845,133.647   c-0.483-0.015-0.862-0.421-0.845-0.906s0.469-0.853,0.903-0.847c43.85,1.426,86.252,25.026,110.665,61.586   c0.269,0.402,0.161,0.947-0.24,1.218C111.176,194.798,111.007,194.845,110.84,194.845z"/>
</g>
<g>
	<path fill="#428DFC" d="M108.487,279c-0.173,0-0.348-0.051-0.5-0.158c-26.988-18.914-64.795-21.48-94.076-6.389   c-0.434,0.223-0.958,0.053-1.178-0.379c-0.22-0.429-0.051-0.96,0.378-1.181c29.842-15.385,68.372-12.764,95.877,6.508   c0.398,0.277,0.493,0.825,0.216,1.221C109.035,278.87,108.764,279,108.487,279z"/>
</g>
<g>
	<path fill="#428DFC" d="M317.141,172.811c-0.204,0-0.408-0.07-0.574-0.214c-0.363-0.317-0.405-0.872-0.087-1.239   c26.751-30.942,67.08-48.786,107.916-47.673c0.481,0.012,0.862,0.065,0.85,0.55c-0.014,0.475-0.401,0.501-0.875,0.501   c-0.007,0-0.015,0-0.025,0c-40.29,0-80.132,16.869-106.546,47.418C317.627,172.357,317.384,172.811,317.141,172.811z"/>
</g>

</g>
</g>

              </svg>