<?xml version="1.0" encoding="UTF-8"?><svg version="1.1" xmlns="http://www.w3.org/2000/svg" xmlns:xlink="http://www.w3.org/1999/xlink" viewBox="0 0 1500 1500" width="1500" height="1500" x="0px" y="0px">
              
              <!-- ITEM 0 -->
<g transform="translate(0.0 40.0) scale(7.3 7.3) rotate(323.91749477767735 100.0 100.0)">
<g transform="translate(-0.0 -0.0)">

<path id="outlined_square_1-i0" style="fill:#EEEEEE;" d="M141.242,200L0,141.245L58.758,0L200,58.755L141.242,200z M13.097,135.842  l122.743,51.061l51.061-122.745L64.158,13.097L13.097,135.842z"/>

</g>
</g>

<!-- ITEM 1 -->
<g transform="translate(128.0 447.0) scale(4.55 4.575) rotate(0.0 100.0 60.0)">
<g transform="translate(-0.0 -0.0)">

<linearGradient id="SVGID_1_-i1" gradientUnits="userSpaceOnUse" x1="3911.6484" y1="3678.6082" x2="5989.811" y2="4376.5566" gradientTransform="matrix(0.0762 0 0 0.0762 -276.2162 -246.556)">
	<stop offset="0" style="stop-color:#d8edff"/>
	<stop offset="1" style="stop-color:#c0d6ec"/>
</linearGradient>
<path fill="url(#SVGID_1_-i1)" d="M181.132,120H18.868C8.49,120,0,111.383,0,100.852V19.149C0,8.618,8.49,0,18.868,0h162.264  C191.509,0,200,8.617,200,19.149v81.703C200,111.383,191.509,120,181.132,120z"/>
<rect y="24.255" fill="#151A4F" width="200" height="23.263"/>
<rect x="16.352" y="88.088" fill="#e9feff" width="6.289" height="6.383"/>
<rect x="110.692" y="102.128" fill="#e9feff" width="6.289" height="6.383"/>
<g>
	<path fill="#E94A47" d="M33.648,103.089c-4.508,0-8.176-3.723-8.176-8.298s3.668-8.298,8.176-8.298s8.176,3.723,8.176,8.298   C41.824,99.366,38.156,103.089,33.648,103.089z M33.648,89.684c-2.774,0-5.031,2.291-5.031,5.106c0,2.815,2.257,5.106,5.031,5.106   s5.031-2.291,5.031-5.106C38.679,91.976,36.422,89.684,33.648,89.684z"/>
</g>
<g>
	<path fill="#E94A47" d="M126.1,110.107c-4.508,0-8.176-3.723-8.176-8.298s3.668-8.298,8.176-8.298s8.176,3.723,8.176,8.298   C134.277,106.384,130.609,110.107,126.1,110.107z M126.1,96.703c-2.774,0-5.031,2.291-5.031,5.106c0,2.815,2.257,5.106,5.031,5.106   s5.031-2.291,5.031-5.106C131.132,98.994,128.875,96.703,126.1,96.703z"/>
</g>
<g>
	<rect x="33.905" y="107.169" fill="#E94A47" width="11.429" height="3.286"/>
</g>
<g>
	<rect x="76.19" y="89.383" fill="#c0d6ec" width="11.238" height="3.093"/>
</g>
<g>
	<rect x="76.19" y="97.116" fill="#c0d6ec" width="11.238" height="3.093"/>
</g>
<g>
	<rect x="133.905" y="89.383" fill="#d8edff" width="11.429" height="3.093"/>
</g>
<g>
	<path fill="#d8edff" d="M54.717,110.107c-3.295,0-5.975-2.72-5.975-6.063V93.195c0-3.343,2.68-6.064,5.974-6.064   c3.295,0,5.975,2.72,5.975,6.064v10.848C60.692,107.387,58.012,110.107,54.717,110.107z M54.717,90.322   c-1.561,0-2.83,1.289-2.83,2.872v10.848c0,1.583,1.27,2.872,2.83,2.872h0.001c1.56,0,2.83-1.289,2.83-2.872V93.194   C57.547,91.611,56.278,90.322,54.717,90.322z"/>
</g>
<g>
	<path fill="#c0d6ec" d="M95.6,106.911c-1.599,0-3.1-0.629-4.225-1.771c-2.329-2.365-2.329-6.211,0-8.575l8.179-8.3   c1.125-1.142,2.626-1.771,4.225-1.771s3.1,0.629,4.225,1.771c1.125,1.142,1.744,2.665,1.744,4.288c0,1.623-0.62,3.145-1.745,4.287   l-8.178,8.3C98.7,106.282,97.2,106.911,95.6,106.911z M103.779,89.684c-0.76,0-1.47,0.296-2.002,0.836l-8.178,8.3   c-1.103,1.12-1.103,2.942,0,4.063c0.531,0.539,1.242,0.836,2.001,0.836s1.47-0.296,2.002-0.836l8.178-8.3   c0.531-0.539,0.824-1.261,0.824-2.031c0-0.771-0.292-1.492-0.824-2.032C105.249,89.981,104.538,89.684,103.779,89.684z"/>
</g>
<rect x="65.409" y="96.383" fill="#e9feff" width="6.289" height="6.383"/>

</g>
</g>

<!-- ITEM 2 -->
<g transform="translate(683.0 731.0) scale(2.88 2.8916666666666666) rotate(18.798017410311793 100.0 60.0)">
<g transform="translate(-0.0 -0.0)">

<linearGradient id="SVGID_1_-i2" gradientUnits="userSpaceOnUse" x1="3911.6484" y1="3678.6082" x2="5989.811" y2="4376.5566" gradientTransform="matrix(0.0762 0 0 0.0762 -276.2162 -246.556)">
	<stop offset="0" style="stop-color:#ff615d"/>
	<stop offset="1" style="stop-color:#e94a47"/>
</linearGradient>
<path fill="url(#SVGID_1_-i2)" d="M181.132,120H18.868C8.49,120,0,111.383,0,100.852V19.149C0,8.618,8.49,0,18.868,0h162.264  C191.509,0,200,8.617,200,19.149v81.703C200,111.383,191.509,120,181.132,120z"/>
<rect y="24.255" fill="#151A4F" width="200" height="23.263"/>
<rect x="16.352" y="88.088" fill="#ff726e" width="6.289" height="6.383"/>
<rect x="110.692" y="102.128" fill="#ff726e" width="6.289" height="6.383"/>
<g>
	<path fill="#E94A47" d="M33.648,103.089c-4.508,0-8.176-3.723-8.176-8.298s3.668-8.298,8.176-8.298s8.176,3.723,8.176,8.298   C41.824,99.366,38.156,103.089,33.648,103.089z M33.648,89.684c-2.774,0-5.031,2.291-5.031,5.106c0,2.815,2.257,5.106,5.031,5.106   s5.031-2.291,5.031-5.106C38.679,91.976,36.422,89.684,33.648,89.684z"/>
</g>
<g>
	<path fill="#E94A47" d="M126.1,110.107c-4.508,0-8.176-3.723-8.176-8.298s3.668-8.298,8.176-8.298s8.176,3.723,8.176,8.298   C134.277,106.384,130.609,110.107,126.1,110.107z M126.1,96.703c-2.774,0-5.031,2.291-5.031,5.106c0,2.815,2.257,5.106,5.031,5.106   s5.031-2.291,5.031-5.106C131.132,98.994,128.875,96.703,126.1,96.703z"/>
</g>
<g>
	<rect x="33.905" y="107.169" fill="#E94A47" width="11.429" height="3.286"/>
</g>
<g>
	<rect x="76.19" y="89.383" fill="#e94a47" width="11.238" height="3.093"/>
</g>
<g>
	<rect x="76.19" y="97.116" fill="#e94a47" width="11.238" height="3.093"/>
</g>
<g>
	<rect x="133.905" y="89.383" fill="#ff615d" width="11.429" height="3.093"/>
</g>
<g>
	<path fill="#ff615d" d="M54.717,110.107c-3.295,0-5.975-2.72-5.975-6.063V93.195c0-3.343,2.68-6.064,5.974-6.064   c3.295,0,5.975,2.72,5.975,6.064v10.848C60.692,107.387,58.012,110.107,54.717,110.107z M54.717,90.322   c-1.561,0-2.83,1.289-2.83,2.872v10.848c0,1.583,1.27,2.872,2.83,2.872h0.001c1.56,0,2.83-1.289,2.83-2.872V93.194   C57.547,91.611,56.278,90.322,54.717,90.322z"/>
</g>
<g>
	<path fill="#e94a47" d="M95.6,106.911c-1.599,0-3.1-0.629-4.225-1.771c-2.329-2.365-2.329-6.211,0-8.575l8.179-8.3   c1.125-1.142,2.626-1.771,4.225-1.771s3.1,0.629,4.225,1.771c1.125,1.142,1.744,2.665,1.744,4.288c0,1.623-0.62,3.145-1.745,4.287   l-8.178,8.3C98.7,106.282,97.2,106.911,95.6,106.911z M103.779,89.684c-0.76,0-1.47,0.296-2.002,0.836l-8.178,8.3   c-1.103,1.12-1.103,2.942,0,4.063c0.531,0.539,1.242,0.836,2.001,0.836s1.47-0.296,2.002-0.836l8.178-8.3   c0.531-0.539,0.824-1.261,0.824-2.031c0-0.771-0.292-1.492-0.824-2.032C105.249,89.981,104.538,89.684,103.779,89.684z"/>
</g>
<rect x="65.409" y="96.383" fill="#ff726e" width="6.289" height="6.383"/>

</g>
</g>

<!-- ITEM 3 -->
<g transform="translate(438.0 885.0) scale(2.91 2.908333333333333) rotate(0.0 100.0 60.00000000000001)">
<g transform="translate(-0.0 -0.0)">

<linearGradient id="SVGID_1_-i3" gradientUnits="userSpaceOnUse" x1="3911.6484" y1="3678.6082" x2="5989.811" y2="4376.5566" gradientTransform="matrix(0.0762 0 0 0.0762 -276.2162 -246.556)">
	<stop offset="0" style="stop-color:#a5b1bc"/>
	<stop offset="1" style="stop-color:#8d9aa6"/>
</linearGradient>
<path fill="url(#SVGID_1_-i3)" d="M181.132,120H18.868C8.49,120,0,111.383,0,100.852V19.149C0,8.618,8.49,0,18.868,0h162.264  C191.509,0,200,8.617,200,19.149v81.703C200,111.383,191.509,120,181.132,120z"/>
<rect y="24.255" fill="#151A4F" width="200" height="23.263"/>
<rect x="16.352" y="88.088" fill="#b6c2cd" width="6.289" height="6.383"/>
<rect x="110.692" y="102.128" fill="#b6c2cd" width="6.289" height="6.383"/>
<g>
	<path fill="#E94A47" d="M33.648,103.089c-4.508,0-8.176-3.723-8.176-8.298s3.668-8.298,8.176-8.298s8.176,3.723,8.176,8.298   C41.824,99.366,38.156,103.089,33.648,103.089z M33.648,89.684c-2.774,0-5.031,2.291-5.031,5.106c0,2.815,2.257,5.106,5.031,5.106   s5.031-2.291,5.031-5.106C38.679,91.976,36.422,89.684,33.648,89.684z"/>
</g>
<g>
	<path fill="#E94A47" d="M126.1,110.107c-4.508,0-8.176-3.723-8.176-8.298s3.668-8.298,8.176-8.298s8.176,3.723,8.176,8.298   C134.277,106.384,130.609,110.107,126.1,110.107z M126.1,96.703c-2.774,0-5.031,2.291-5.031,5.106c0,2.815,2.257,5.106,5.031,5.106   s5.031-2.291,5.031-5.106C131.132,98.994,128.875,96.703,126.1,96.703z"/>
</g>
<g>
	<rect x="33.905" y="107.169" fill="#E94A47" width="11.429" height="3.286"/>
</g>
<g>
	<rect x="76.19" y="89.383" fill="#8d9aa6" width="11.238" height="3.093"/>
</g>
<g>
	<rect x="76.19" y="97.116" fill="#8d9aa6" width="11.238" height="3.093"/>
</g>
<g>
	<rect x="133.905" y="89.383" fill="#a5b1bc" width="11.429" height="3.093"/>
</g>
<g>
	<path fill="#a5b1bc" d="M54.717,110.107c-3.295,0-5.975-2.72-5.975-6.063V93.195c0-3.343,2.68-6.064,5.974-6.064   c3.295,0,5.975,2.72,5.975,6.064v10.848C60.692,107.387,58.012,110.107,54.717,110.107z M54.717,90.322   c-1.561,0-2.83,1.289-2.83,2.872v10.848c0,1.583,1.27,2.872,2.83,2.872h0.001c1.56,0,2.83-1.289,2.83-2.872V93.194   C57.547,91.611,56.278,90.322,54.717,90.322z"/>
</g>
<g>
	<path fill="#8d9aa6" d="M95.6,106.911c-1.599,0-3.1-0.629-4.225-1.771c-2.329-2.365-2.329-6.211,0-8.575l8.179-8.3   c1.125-1.142,2.626-1.771,4.225-1.771s3.1,0.629,4.225,1.771c1.125,1.142,1.744,2.665,1.744,4.288c0,1.623-0.62,3.145-1.745,4.287   l-8.178,8.3C98.7,106.282,97.2,106.911,95.6,106.911z M103.779,89.684c-0.76,0-1.47,0.296-2.002,0.836l-8.178,8.3   c-1.103,1.12-1.103,2.942,0,4.063c0.531,0.539,1.242,0.836,2.001,0.836s1.47-0.296,2.002-0.836l8.178-8.3   c0.531-0.539,0.824-1.261,0.824-2.031c0-0.771-0.292-1.492-0.824-2.032C105.249,89.981,104.538,89.684,103.779,89.684z"/>
</g>
<rect x="65.409" y="96.383" fill="#b6c2cd" width="6.289" height="6.383"/>

</g>
</g>

<!-- ITEM 4 -->
<g transform="translate(651.0 202.0) scale(4.34 4.356521739130435) rotate(0.0 75.0 57.5)">
<g transform="translate(-0.0 -0.0)">

<ellipse fill="#A1C3FC" cx="104.046" cy="69.194" rx="45.954" ry="45.806"/>
<path fill="#428DFC" d="M117.54,41.182h22.853c-1.25-1.61-2.601-3.138-4.051-4.566h-18.802  C117.539,36.616,117.539,41.182,117.54,41.182z"/>
<path fill="#428DFC" d="M117.54,52.143h29.156c-0.63-1.566-1.338-3.092-2.133-4.566h-27.025v4.566H117.54z"/>
<path fill="#428DFC" d="M117.54,63.103h32.043c-0.207-1.549-0.49-3.072-0.848-4.566H117.54L117.54,63.103L117.54,63.103z"/>
<path fill="#428DFC" d="M117.54,74.064h32.199c0.159-1.502,0.243-3.026,0.253-4.566h-32.452  C117.539,69.497,117.539,74.064,117.54,74.064z"/>
<path fill="#428DFC" d="M117.54,85.024h29.639c0.549-1.487,1.022-3.012,1.416-4.567H117.54V85.024z"/>
<path fill="#428DFC" d="M117.54,95.985h23.77c1.059-1.461,2.035-2.984,2.919-4.567H117.54V95.985z"/>
<path fill="#428DFC" d="M88.676,106.945h41.39c2.002-1.373,3.883-2.903,5.638-4.566H88.676V106.945z"/>
<path fill="#428DFC" d="M104.046,115c4.247,0,8.354-0.586,12.257-1.661H91.789C95.692,114.414,99.799,115,104.046,115z"/>
<ellipse fill="#78A9EF" cx="99.922" cy="66.911" rx="44.579" ry="44.436"/>
<g>
	<path fill="#AFCCFC" d="M99.923,104.55c-20.821,0-37.761-16.885-37.761-37.641c0-0.282,0.23-0.511,0.512-0.511   s0.512,0.229,0.512,0.511c0,20.192,16.481,36.619,36.736,36.619s36.736-16.427,36.736-36.619c0-20.191-16.48-36.618-36.736-36.618   c-0.283,0-0.512-0.229-0.512-0.511s0.23-0.511,0.512-0.511c20.821,0,37.761,16.884,37.761,37.64S120.744,104.55,99.923,104.55z"/>
</g>
<path fill="#A1C3FC" d="M73.327,54.681c1.483,3.266-0.652,7.419-0.652,7.419s-4.539-1.142-6.022-4.408  c-1.483-3.266,0.652-7.419,0.652-7.419S71.844,51.416,73.327,54.681z"/>
<path fill="#A1C3FC" d="M73.156,68.548c2.918,2.095,3.142,6.757,3.142,6.757s-4.506,1.264-7.424-0.832  c-2.918-2.095-3.142-6.757-3.142-6.757S70.238,66.452,73.156,68.548z"/>
<path fill="#A1C3FC" d="M76.547,81.163c3.574,0.399,6.063,4.352,6.063,4.352s-3.305,3.305-6.879,2.905  c-3.574-0.399-6.063-4.352-6.063-4.352S72.973,80.763,76.547,81.163z"/>
<path fill="#97BDF3" d="M123.183,55.703c-1.483,3.266,0.652,7.419,0.652,7.419s4.539-1.142,6.022-4.408  c1.483-3.266-0.652-7.419-0.652-7.419S124.666,52.437,123.183,55.703z"/>
<path fill="#A1C3FC" d="M73.99,60.811c-1.483,3.266,0.652,7.419,0.652,7.419s4.539-1.142,6.022-4.408  c1.483-3.266-0.652-7.419-0.652-7.419S75.473,57.545,73.99,60.811z"/>
<path fill="#A1C3FC" d="M123.355,69.57c-2.918,2.095-3.142,6.757-3.142,6.757s4.506,1.264,7.424-0.832  c2.918-2.095,3.142-6.757,3.142-6.757S126.272,67.474,123.355,69.57z"/>
<path fill="#97BDF3" d="M78.398,72.52c-2.024,2.964-0.636,7.42-0.636,7.42s4.668-0.347,6.692-3.311  c2.024-2.964,0.636-7.42,0.636-7.42S80.422,69.558,78.398,72.52z"/>
<path fill="#A1C3FC" d="M119.963,82.184c-3.574,0.399-6.063,4.352-6.063,4.352s3.305,3.305,6.879,2.905  c3.574-0.399,6.063-4.352,6.063-4.352S123.537,81.785,119.963,82.184z"/>
<path fill="#A1C3FC" d="M84.352,86.12c-1.709,3.154,0.127,7.446,0.127,7.446s4.609-0.821,6.317-3.975  c1.709-3.154-0.127-7.446-0.127-7.446S86.062,82.966,84.352,86.12z"/>
<path fill="#97BDF3" d="M122.772,61.832c1.483,3.266-0.652,7.419-0.652,7.419s-4.539-1.142-6.022-4.408  c-1.483-3.266,0.652-7.419,0.652-7.419S121.289,58.567,122.772,61.832z"/>
<path fill="#97BDF3" d="M118.365,73.542c2.024,2.964,0.636,7.42,0.636,7.42s-4.668-0.347-6.692-3.311  c-2.024-2.964-0.636-7.42-0.636-7.42S116.34,70.579,118.365,73.542z"/>
<path fill="#A1C3FC" d="M112.41,87.142c1.709,3.154-0.127,7.446-0.127,7.446s-4.609-0.821-6.317-3.975  c-1.709-3.154,0.127-7.446,0.127-7.446S110.701,83.987,112.41,87.142z"/>
<polygon fill="#97BDF3" points="110.194,53.975 89.058,53.975 86.031,40.635 89.43,43.811 92.828,40.635 96.44,44.023   100.05,40.635 103.45,44.023 106.212,40.635 109.185,44.023 113.221,40.635 "/>
<g>
	<ellipse fill="#A1C3FC" cx="48.704" cy="46.719" rx="45.954" ry="45.806"/>
	<path fill="#428DFC" d="M62.197,18.708H85.05c-1.25-1.61-2.601-3.138-4.051-4.566H62.197V18.708z"/>
	<path fill="#428DFC" d="M62.197,29.668h29.156c-0.63-1.566-1.338-3.092-2.133-4.566H62.197V29.668z"/>
	<path fill="#428DFC" d="M62.197,40.629H94.24c-0.207-1.549-0.49-3.072-0.848-4.566H62.197V40.629z"/>
	<path fill="#428DFC" d="M62.197,51.589h32.199c0.159-1.502,0.243-3.026,0.253-4.566H62.197V51.589z"/>
	<path fill="#428DFC" d="M62.197,62.55h29.639c0.549-1.487,1.022-3.012,1.416-4.567H62.197V62.55z"/>
	<path fill="#428DFC" d="M62.197,73.51h23.77c1.059-1.461,2.035-2.984,2.919-4.567H62.197V73.51z"/>
	<path fill="#428DFC" d="M33.334,84.47h41.39c2.002-1.373,3.883-2.903,5.638-4.566H33.334V84.47z"/>
	<path fill="#428DFC" d="M48.704,92.525c4.247,0,8.354-0.586,12.257-1.661H36.446C40.35,91.939,44.457,92.525,48.704,92.525z"/>
</g>
<linearGradient id="SVGID_1_-i4" gradientUnits="userSpaceOnUse" x1="0" y1="77.5638" x2="89.159" y2="77.5638" gradientTransform="matrix(1 0 0 -1 0 122)">
	<stop offset="0" style="stop-color:#A1C3FC"/>
	<stop offset="1" style="stop-color:#78A9EF"/>
</linearGradient>
<ellipse fill="url(#SVGID_1_-i4)" cx="44.579" cy="44.436" rx="44.579" ry="44.436"/>
<g>
	<path fill="#AFCCFC" d="M44.581,82.076c-20.821,0-37.761-16.884-37.761-37.64c0-0.282,0.23-0.511,0.512-0.511   s0.512,0.229,0.512,0.511c0,20.191,16.48,36.618,36.736,36.618s36.736-16.427,36.736-36.618S64.837,7.818,44.581,7.818   c-0.283,0-0.512-0.229-0.512-0.511s0.23-0.511,0.512-0.511c20.821,0,37.761,16.886,37.761,37.64   C82.341,65.191,65.402,82.076,44.581,82.076z"/>
</g>
<g>
	<polygon fill="#AFCCFC" points="61.956,66.876 31.5,66.876 31.5,62.79 57.857,62.79 57.857,56.156 61.956,56.156  "/>
</g>
<g>
	<polygon fill="#AFCCFC" points="43.763,55.459 39.663,55.459 39.663,23.311 22.872,37.385 20.234,34.257 43.763,14.537  "/>
</g>
<g>
	<rect x="48.935" y="25.101" fill="#AFCCFC" width="4.099" height="22.834"/>
</g>

</g>
</g>

              </svg>