<?xml version="1.0" encoding="utf-8"?>
<!-- Generator: Adobe Illustrator 19.2.1, SVG Export Plug-In . SVG Version: 6.00 Build 0)  -->
<svg version="1.1" id="layer" xmlns="http://www.w3.org/2000/svg" xmlns:xlink="http://www.w3.org/1999/xlink" x="0px" y="0px"
	 viewBox="0 0 650 520" style="enable-background:new 0 0 650 520;" xml:space="preserve">
<style type="text/css">
	.st0{fill:#7673C0;}
	.st1{fill:#EB001B;}
	.st2{fill:#00A1DF;}
</style>
<g id="_Group_">
	<rect x="236.5" y="115.9" class="st0" width="173.8" height="312.4"/>
	<path id="_Path_" class="st1" d="M247.5,272.1c-0.1-61,27.9-118.6,75.9-156.2c-86.3-67.8-211.1-52.8-278.9,33.4
		c-67.8,86.3-52.8,211.1,33.4,278.9c72,56.6,173.5,56.6,245.5,0C275.4,390.7,247.5,333.1,247.5,272.1z"/>
	<path class="st2" d="M625.8,395.2V389h2.6v-1.3h-6.6v1.3h2.6v6.4L625.8,395.2z M638.6,395.2v-7.7h-2l-2.3,5.5l-2.3-5.5h-2v7.7h1.4
		v-5.8l2.2,5h1.5l2.2-5v5.8L638.6,395.2z"/>
	<path class="st2" d="M644.8,272.1c0,109.7-89,198.6-198.7,198.6c-44.5,0-87.7-15-122.7-42.4c86.3-67.8,101.2-192.7,33.4-278.9
		c-9.8-12.4-21-23.7-33.4-33.4c86.2-67.8,211.1-52.9,278.9,33.4C629.8,184.3,644.8,227.6,644.8,272.1L644.8,272.1z"/>
</g>
</svg>
