<svg id="Layer_1" data-name="Layer 1" xmlns="http://www.w3.org/2000/svg" viewBox="0 0 100 65"><defs><style>.cls-1{fill:#fff;}.cls-2{fill:#f7b600;}.cls-3{fill:#1a1f71;}</style></defs><title>visa</title><rect class="cls-1" y="0.74" width="100" height="63.52"/><rect class="cls-2" x="1.67" y="53.94" width="96.67" height="8.67"/><rect class="cls-3" x="1.67" y="2.4" width="96.67" height="8.67"/><path class="cls-3" d="M40.36,20.62l-10,23.82H23.86L19,25.43a2.6,2.6,0,0,0-1.47-2.09,25.62,25.62,0,0,0-6.08-2l.15-.69H22a2.88,2.88,0,0,1,2.85,2.43l2.59,13.78,6.41-16.21Zm25.52,16c0-6.28-8.69-6.63-8.63-9.44,0-.85.83-1.76,2.61-2a11.71,11.71,0,0,1,6.08,1.07L67,21.24a16.49,16.49,0,0,0-5.76-1.06c-6.1,0-10.38,3.24-10.42,7.88,0,3.43,3.07,5.34,5.4,6.48s3.21,1.92,3.19,3c0,1.6-1.91,2.31-3.68,2.33a12.84,12.84,0,0,1-6.33-1.5L48.3,43.55a18.72,18.72,0,0,0,6.85,1.27c6.48,0,10.71-3.2,10.73-8.16M82,44.44h5.7l-5-23.82H77.44a2.81,2.81,0,0,0-2.63,1.75L65.56,44.44H72l1.28-3.56h7.91ZM75.09,36l3.25-8.94L80.2,36ZM49.17,20.62l-5.1,23.82H37.91L43,20.62Z"/></svg>