<?xml version="1.0" encoding="UTF-8"?>
<svg xmlns="http://www.w3.org/2000/svg" xmlns:xlink="http://www.w3.org/1999/xlink" width="128pt" height="128pt" viewBox="0 0 128 128" version="1.1">
<g id="surface5329383">
<path style=" stroke:none;fill-rule:nonzero;fill:rgb(100%,100%,100%);fill-opacity:1;" d="M 19.601562 56.800781 L 19.601562 117.5 L 108.398438 117.5 L 108.398438 57.800781 L 64 19.601562 Z M 19.601562 56.800781 "/>
<path style=" stroke:none;fill-rule:nonzero;fill:rgb(78.039216%,84.313725%,88.627451%);fill-opacity:1;" d="M 108.898438 63.601562 L 117.398438 55.101562 L 68.398438 13.800781 L 68.398438 5.5 L 59.601562 5.5 L 59.601562 14 L 10.800781 55.101562 L 19.300781 63.601562 L 59.601562 28.300781 L 59.601562 72.898438 L 55.101562 81.800781 L 55.101562 117.5 L 72.898438 117.5 L 72.898438 81.800781 L 68.398438 72.898438 L 68.398438 28.199219 Z M 108.898438 63.601562 "/>
<path style=" stroke:none;fill-rule:nonzero;fill:rgb(10.588235%,42.352941%,65.882353%);fill-opacity:1;" d="M 69.398438 16.898438 C 67.699219 16.898438 66.398438 15.601562 66.398438 13.898438 L 66.398438 8.5 L 61.5 8.5 L 61.5 13.898438 C 61.5 15.601562 60.199219 16.898438 58.5 16.898438 C 56.800781 16.898438 55.5 15.601562 55.5 13.898438 L 55.5 5.5 C 55.5 3.800781 56.800781 2.5 58.5 2.5 L 69.398438 2.5 C 71.101562 2.5 72.398438 3.800781 72.398438 5.5 L 72.398438 13.898438 C 72.398438 15.601562 71.101562 16.898438 69.398438 16.898438 Z M 69.398438 16.898438 "/>
<path style=" stroke:none;fill-rule:nonzero;fill:rgb(10.588235%,42.352941%,65.882353%);fill-opacity:1;" d="M 19.601562 63.5 L 15.398438 63.5 C 14.5 63.5 13.699219 63.101562 13.101562 62.398438 L 8.5 56.898438 C 7.5 55.601562 7.601562 53.800781 8.898438 52.699219 L 56.5 12 C 57.800781 10.898438 59.699219 11.101562 60.699219 12.300781 C 61.800781 13.601562 61.601562 15.5 60.398438 16.5 L 15 55.398438 L 16.800781 57.5 L 19.601562 57.5 C 21.300781 57.5 22.601562 58.800781 22.601562 60.5 C 22.601562 62.199219 21.199219 63.5 19.601562 63.5 Z M 112.699219 64.398438 C 112 64.398438 111.300781 64.199219 110.800781 63.699219 C 109.5 62.601562 109.398438 60.699219 110.398438 59.5 L 113.101562 56.300781 L 67.601562 16.601562 C 66.398438 15.5 66.199219 13.601562 67.300781 12.398438 C 68.398438 11.199219 70.300781 11 71.5 12.101562 L 119.101562 53.699219 C 120.300781 54.800781 120.5 56.601562 119.398438 57.898438 L 114.800781 63.398438 C 114.398438 64 113.5 64.398438 112.699219 64.398438 Z M 112.699219 64.398438 "/>
<path style=" stroke:none;fill-rule:nonzero;fill:rgb(10.588235%,42.352941%,65.882353%);fill-opacity:1;" d="M 108.398438 120.5 L 19.601562 120.5 C 17.898438 120.5 16.601562 119.199219 16.601562 117.5 L 16.601562 61.5 C 16.601562 59.800781 17.898438 58.5 19.601562 58.5 C 21.300781 58.5 22.601562 59.800781 22.601562 61.5 L 22.601562 114.5 L 105.5 114.5 L 105.5 60.800781 C 105.5 59.101562 106.800781 57.800781 108.5 57.800781 L 112.699219 57.800781 C 114.398438 57.800781 115.699219 59.101562 115.699219 60.800781 C 115.699219 62.5 114.398438 63.800781 112.699219 63.800781 L 111.5 63.800781 L 111.5 117.5 C 111.398438 119.199219 110.101562 120.5 108.398438 120.5 Z M 108.398438 120.5 "/>
<path style=" stroke:none;fill-rule:nonzero;fill:rgb(78.039216%,84.313725%,88.627451%);fill-opacity:1;" d="M 79.898438 60.398438 L 99.5 60.398438 L 99.5 73.800781 L 79.898438 73.800781 Z M 28.601562 60.398438 L 48.199219 60.398438 L 48.199219 73.800781 L 28.601562 73.800781 Z M 79.898438 90.699219 L 99.5 90.699219 L 99.5 104.101562 L 79.898438 104.101562 Z M 28.601562 90.699219 L 48.199219 90.699219 L 48.199219 104.101562 L 28.601562 104.101562 Z M 28.601562 90.699219 "/>
</g>
</svg>
