<?xml version="1.0" encoding="UTF-8"?>
<svg xmlns="http://www.w3.org/2000/svg" xmlns:xlink="http://www.w3.org/1999/xlink" width="64pt" height="64pt" viewBox="0 0 64 64" version="1.1">
<g id="surface5288573">
<path style=" stroke:none;fill-rule:nonzero;fill:rgb(100%,100%,100%);fill-opacity:1;" d="M 32 7 C 18.191406 7 7 18.191406 7 32 C 7 45.808594 18.191406 57 32 57 C 45.808594 57 57 45.808594 57 32 C 57 18.191406 45.808594 7 32 7 Z M 32 7 "/>
<path style=" stroke:none;fill-rule:nonzero;fill:rgb(10.588235%,42.352941%,65.882353%);fill-opacity:1;" d="M 33.75 41 L 26.5 41 C 25.648438 41 25 40.351562 25 39.5 C 25 38.851562 25.398438 38.300781 26 38.101562 L 26 25.898438 C 25.398438 25.699219 25 25.148438 25 24.5 C 25 23.648438 25.648438 23 26.5 23 L 33.75 23 C 36.648438 23 39 25.351562 39 28.25 C 39 29.699219 38.398438 31.050781 37.398438 32 C 38.351562 32.949219 39 34.300781 39 35.75 C 39 38.648438 36.648438 41 33.75 41 Z M 29 38 L 33.75 38 C 35 38 36 37 36 35.75 C 36 34.5 35 33.5 33.75 33.5 L 29 33.5 Z M 29 30.5 L 33.75 30.5 C 35 30.5 36 29.5 36 28.25 C 36 27 35 26 33.75 26 L 29 26 Z M 29 30.5 "/>
<path style=" stroke:none;fill-rule:nonzero;fill:rgb(10.588235%,42.352941%,65.882353%);fill-opacity:1;" d="M 31.5 26 C 30.648438 26 30 25.351562 30 24.5 L 30 22 C 30 21.148438 30.648438 20.5 31.5 20.5 C 32.351562 20.5 33 21.148438 33 22 L 33 24.5 C 33 25.351562 32.351562 26 31.5 26 Z M 31.5 43.5 C 30.648438 43.5 30 42.851562 30 42 L 30 39.5 C 30 38.648438 30.648438 38 31.5 38 C 32.351562 38 33 38.648438 33 39.5 L 33 42 C 33 42.851562 32.351562 43.5 31.5 43.5 Z M 31.5 43.5 "/>
<path style=" stroke:none;fill-rule:nonzero;fill:rgb(26.666667%,29.411765%,32.941176%);fill-opacity:1;" d="M 57 33.5 C 56.148438 33.5 55.5 32.851562 55.5 32 C 55.5 25.699219 53.050781 19.800781 48.601562 15.398438 C 39.449219 6.25 24.550781 6.25 15.351562 15.398438 C 13.300781 17.449219 11.699219 19.800781 10.5 22.398438 L 12.75 21.351562 C 13.5 21 14.398438 21.351562 14.75 22.101562 C 15.101562 22.851562 14.75 23.75 14 24.101562 L 8.5 26.601562 C 7.949219 26.851562 7.351562 26.75 6.898438 26.351562 C 6.449219 25.949219 6.25 25.351562 6.449219 24.800781 C 7.648438 20.449219 10 16.449219 13.199219 13.25 C 23.550781 2.898438 40.351562 2.898438 50.699219 13.25 C 55.699219 18.25 58.449219 24.898438 58.449219 32 C 58.5 32.851562 57.851562 33.5 57 33.5 Z M 32 58.5 C 25.199219 58.5 18.449219 55.898438 13.25 50.75 C 8.25 45.75 5.5 39.101562 5.5 32 C 5.5 31.148438 6.148438 30.5 7 30.5 C 7.851562 30.5 8.5 31.148438 8.5 32 C 8.5 38.300781 10.949219 44.199219 15.398438 48.601562 C 24.550781 57.75 39.449219 57.75 48.648438 48.601562 C 51.648438 45.601562 53.800781 41.851562 54.800781 37.75 C 55 36.949219 55.800781 36.449219 56.601562 36.648438 C 57.398438 36.851562 57.898438 37.648438 57.699219 38.449219 C 56.550781 43.050781 54.148438 47.300781 50.75 50.648438 C 45.550781 55.898438 38.800781 58.5 32 58.5 Z M 32 58.5 "/>
<path style=" stroke:none;fill-rule:nonzero;fill:rgb(26.666667%,29.411765%,32.941176%);fill-opacity:1;" d="M 7.949219 26.699219 C 7.351562 26.699219 6.75 26.300781 6.550781 25.699219 L 4.550781 20.199219 C 4.25 19.398438 4.648438 18.550781 5.449219 18.300781 C 6.25 18 7.101562 18.398438 7.351562 19.199219 L 9.351562 24.699219 C 9.648438 25.5 9.25 26.351562 8.449219 26.601562 C 8.300781 26.699219 8.101562 26.699219 7.949219 26.699219 Z M 50.800781 42.300781 C 50.25 42.300781 49.699219 42 49.449219 41.449219 C 49.101562 40.699219 49.398438 39.800781 50.148438 39.449219 L 55.601562 36.800781 C 56.351562 36.449219 57.25 36.75 57.601562 37.5 C 57.949219 38.25 57.648438 39.148438 56.898438 39.5 L 51.449219 42.148438 C 51.25 42.25 51.050781 42.300781 50.800781 42.300781 Z M 50.800781 42.300781 "/>
<path style=" stroke:none;fill-rule:nonzero;fill:rgb(26.666667%,29.411765%,32.941176%);fill-opacity:1;" d="M 58.398438 45.101562 C 57.800781 45.101562 57.25 44.75 57 44.148438 L 54.851562 38.699219 C 54.550781 37.949219 54.898438 37.050781 55.699219 36.75 C 56.449219 36.449219 57.351562 36.800781 57.648438 37.601562 L 59.800781 43.050781 C 60.101562 43.800781 59.75 44.699219 58.949219 45 C 58.75 45.050781 58.550781 45.101562 58.398438 45.101562 Z M 58.398438 45.101562 "/>
</g>
</svg>
