<?xml version="1.0" encoding="UTF-8"?>
<svg xmlns="http://www.w3.org/2000/svg" xmlns:xlink="http://www.w3.org/1999/xlink" width="128pt" height="128pt" viewBox="0 0 128 128" version="1.1">
<g id="surface5626659">
<path style=" stroke:none;fill-rule:nonzero;fill:rgb(100%,100%,100%);fill-opacity:1;" d="M 114 111 L 114 41 C 114 35.5 109.5 31 104 31 L 24 31 C 18.5 31 14 35.5 14 41 L 14 111 L 4 111 L 4 114 C 4 119.5 8.5 124 14 124 L 114 124 C 119.5 124 124 119.5 124 114 L 124 111 Z M 114 111 "/>
<path style=" stroke:none;fill-rule:nonzero;fill:rgb(100%,100%,100%);fill-opacity:1;" d="M 84.300781 77.601562 C 86.101562 87.800781 95.5 94.898438 106 93.898438 C 117 92.800781 125 83 123.898438 72 C 122.800781 61 113 53 102 54.101562 C 93.800781 54.898438 87.300781 60.5 84.898438 67.898438 "/>
<path style=" stroke:none;fill-rule:nonzero;fill:rgb(10.588235%,42.352941%,65.882353%);fill-opacity:1;" d="M 74 114 L 54 114 C 52.300781 114 51 112.699219 51 111 C 51 109.300781 52.300781 108 54 108 L 74 108 C 75.699219 108 77 109.300781 77 111 C 77 112.699219 75.699219 114 74 114 Z M 74 114 "/>
<path style=" stroke:none;fill-rule:nonzero;fill:rgb(10.588235%,42.352941%,65.882353%);fill-opacity:1;" d="M 114 127 L 14 127 C 6.800781 127 1 121.199219 1 114 L 1 111 C 1 109.300781 2.300781 108 4 108 L 39 108 C 40.699219 108 42 109.300781 42 111 C 42 112.699219 40.699219 114 39 114 L 7 114 C 7 117.898438 10.101562 121 14 121 L 114 121 C 117.898438 121 121 117.898438 121 114 L 89 114 C 87.300781 114 86 112.699219 86 111 C 86 109.300781 87.300781 108 89 108 L 124 108 C 125.699219 108 127 109.300781 127 111 L 127 114 C 127 121.199219 121.199219 127 114 127 Z M 14 103 C 12.300781 103 11 101.699219 11 100 L 11 41 C 11 33.800781 16.800781 28 24 28 L 104 28 C 111.199219 28 117 33.800781 117 41 C 117 42.699219 115.699219 44 114 44 C 112.300781 44 111 42.699219 111 41 C 111 37.101562 107.898438 34 104 34 L 24 34 C 20.101562 34 17 37.101562 17 41 L 17 100 C 17 101.699219 15.699219 103 14 103 Z M 14 103 "/>
<path style=" stroke:none;fill-rule:nonzero;fill:rgb(87.45098%,90.980392%,95.686275%);fill-opacity:1;" d="M 104 70 C 101.789062 70 100 71.789062 100 74 C 100 76.210938 101.789062 78 104 78 C 106.210938 78 108 76.210938 108 74 C 108 71.789062 106.210938 70 104 70 Z M 104 70 "/>
<path style=" stroke:none;fill-rule:nonzero;fill:rgb(87.45098%,90.980392%,95.686275%);fill-opacity:1;" d="M 126.898438 71.699219 C 125.601562 59.101562 114.300781 49.800781 101.699219 51.101562 C 92.601562 52 84.898438 58.199219 82.101562 66.898438 C 81.601562 68.5 82.5 70.199219 84 70.699219 C 85.601562 71.199219 87.300781 70.300781 87.800781 68.800781 C 89.898438 62.398438 95.601562 57.800781 102.300781 57.101562 C 111.601562 56.199219 120 63 120.898438 72.300781 C 121.800781 81.601562 115 90 105.699219 90.898438 C 96.898438 91.800781 88.898438 85.699219 87.300781 77.101562 C 87 75.5 85.398438 74.398438 83.800781 74.699219 C 82.601562 74.898438 81.601562 75.898438 81.398438 77 L 41.601562 77 L 39.601562 74 L 41.601562 71 L 46 71 C 47.699219 71 49 69.699219 49 68 C 49 66.300781 47.699219 65 46 65 L 40 65 C 39 65 38.101562 65.5 37.5 66.300781 L 33.5 72.300781 C 32.800781 73.300781 32.800781 74.601562 33.5 75.601562 L 37.5 81.601562 C 38.101562 82.5 39 83 40 83 L 82.898438 83 C 86.5 91.300781 94.800781 97 104.101562 97 C 104.800781 97 105.601562 97 106.398438 96.898438 C 118.898438 95.601562 128.101562 84.300781 126.898438 71.699219 Z M 126.898438 71.699219 "/>
<path style=" stroke:none;fill-rule:nonzero;fill:rgb(87.45098%,90.980392%,95.686275%);fill-opacity:1;" d="M 66 71 L 58 71 C 56.300781 71 55 69.699219 55 68 C 55 66.300781 56.300781 65 58 65 L 66 65 C 67.699219 65 69 66.300781 69 68 C 69 69.699219 67.699219 71 66 71 Z M 85 71 L 78 71 C 76.300781 71 75 69.699219 75 68 C 75 66.300781 76.300781 65 78 65 L 85 65 C 86.699219 65 88 66.300781 88 68 C 88 69.699219 86.699219 71 85 71 Z M 85 71 "/>
</g>
</svg>
