<?xml version="1.0" encoding="UTF-8"?>
<svg xmlns="http://www.w3.org/2000/svg" xmlns:xlink="http://www.w3.org/1999/xlink" width="128pt" height="128pt" viewBox="0 0 128 128" version="1.1">
<g id="surface5627205">
<path style=" stroke:none;fill-rule:nonzero;fill:rgb(100%,100%,100%);fill-opacity:1;" d="M 25.109375 25.109375 C 3.628906 46.589844 3.628906 81.414062 25.109375 102.890625 C 46.589844 124.371094 81.414062 124.371094 102.890625 102.890625 C 124.371094 81.410156 124.367188 46.585938 102.890625 25.109375 C 81.410156 3.628906 46.585938 3.632812 25.109375 25.109375 Z M 25.109375 25.109375 "/>
<path style=" stroke:none;fill-rule:nonzero;fill:rgb(100%,33.333333%,46.27451%);fill-opacity:1;" d="M 35.714844 35.714844 C 20.09375 51.335938 20.09375 76.664062 35.714844 92.285156 C 51.335938 107.90625 76.664062 107.90625 92.285156 92.285156 C 107.90625 76.664062 107.90625 51.335938 92.28125 35.714844 C 76.660156 20.09375 51.335938 20.09375 35.714844 35.714844 Z M 35.714844 35.714844 "/>
<path style=" stroke:none;fill-rule:nonzero;fill:rgb(10.588235%,42.352941%,65.882353%);fill-opacity:1;" d="M 64 122 C 48.5 122 33.898438 116 23 105 C 12 94.101562 6 79.5 6 64 C 6 48.5 12 33.898438 23 23 C 34 12 48.5 6 64 6 C 79.5 6 94.101562 12 105 23 C 116 34 122 48.5 122 64 C 122 79.5 116 94.101562 105 105 C 94.101562 116 79.5 122 64 122 Z M 64 12 C 50.101562 12 37.101562 17.398438 27.199219 27.199219 C 17.300781 37 12 50.101562 12 64 C 12 77.898438 17.398438 90.898438 27.199219 100.800781 C 37 110.699219 50.101562 116 64 116 C 77.898438 116 90.898438 110.601562 100.800781 100.800781 C 110.699219 91 116 77.898438 116 64 C 116 50.101562 110.601562 37.101562 100.800781 27.199219 C 90.898438 17.398438 77.898438 12 64 12 Z M 64 12 "/>
<path style=" stroke:none;fill-rule:nonzero;fill:rgb(100%,100%,100%);fill-opacity:1;" d="M 68.199219 64 L 79.5 52.699219 C 80.699219 51.5 80.699219 49.601562 79.5 48.5 C 78.300781 47.300781 76.398438 47.300781 75.300781 48.5 L 64 59.800781 L 52.699219 48.398438 C 51.5 47.199219 49.601562 47.199219 48.5 48.398438 C 47.300781 49.601562 47.300781 51.5 48.5 52.601562 L 59.800781 64 L 48.398438 75.300781 C 47.199219 76.5 47.199219 78.398438 48.398438 79.5 C 49 80.101562 49.800781 80.398438 50.5 80.398438 C 51.199219 80.398438 52 80.101562 52.601562 79.5 L 64 68.199219 L 75.300781 79.5 C 75.898438 80.101562 76.699219 80.398438 77.398438 80.398438 C 78.101562 80.398438 78.898438 80.101562 79.5 79.5 C 80.699219 78.300781 80.699219 76.398438 79.5 75.300781 Z M 68.199219 64 "/>
</g>
</svg>
