<?xml version="1.0" encoding="UTF-8"?>
<svg xmlns="http://www.w3.org/2000/svg" xmlns:xlink="http://www.w3.org/1999/xlink" width="128pt" height="128pt" viewBox="0 0 128 128" version="1.1">
<g id="surface5117969">
<path style=" stroke:none;fill-rule:nonzero;fill:rgb(100%,100%,100%);fill-opacity:1;" d="M 109 113.375 L 99 103 L 89 113 L 79 103 L 69 113 L 59 103 L 49 113 L 39 103 L 29 113 L 19 103 L 19 15 L 109 15 Z M 109 113.375 "/>
<path style=" stroke:none;fill-rule:nonzero;fill:rgb(61.960784%,72.54902%,82.745098%);fill-opacity:1;" d="M 19 15 L 108 15 L 108 32 L 19 32 Z M 19 15 "/>
<path style="fill:none;stroke-width:8.0625;stroke-linecap:round;stroke-linejoin:round;stroke:rgb(10.588235%,42.352941%,65.882353%);stroke-opacity:1;stroke-miterlimit:10;" d="M 65.84375 151.84375 L 52.40625 138.40625 M 92.71875 151.84375 L 79.28125 138.40625 M 119.59375 151.84375 L 106.15625 138.40625 M 41.65625 20.15625 L 146.46875 20.15625 L 146.46875 151.84375 L 133.03125 138.40625 " transform="matrix(0.744186,0,0,0.744186,0,0)"/>
<path style="fill:none;stroke-width:8.0625;stroke-linecap:round;stroke-linejoin:miter;stroke:rgb(61.960784%,72.54902%,82.745098%);stroke-opacity:1;stroke-miterlimit:10;" d="M 115.5625 63.15625 L 115.5625 68.53125 M 115.5625 108.84375 L 115.5625 114.21875 M 126.3125 77.9375 C 126.3125 77.9375 126.3125 68.53125 115.5625 68.53125 C 106.15625 68.53125 103.46875 73.90625 103.46875 77.9375 C 103.46875 84.65625 104.938477 86.561646 115.5625 88.6875 C 122.28125 90.03125 126.3125 92.71875 126.3125 99.4375 C 126.3125 100.78125 126.3125 108.84375 115.5625 108.84375 C 106.15625 108.84375 103.46875 103.46875 103.46875 99.4375 M 47.03125 63.15625 L 81.96875 63.15625 M 47.03125 79.28125 L 81.96875 79.28125 M 47.03125 98.09375 L 81.96875 98.09375 M 47.03125 114.21875 L 56.4375 114.21875 M 72.5625 114.21875 L 81.96875 114.21875 " transform="matrix(0.744186,0,0,0.744186,0,0)"/>
<path style="fill:none;stroke-width:8.0625;stroke-linecap:round;stroke-linejoin:round;stroke:rgb(10.588235%,42.352941%,65.882353%);stroke-opacity:1;stroke-miterlimit:10;" d="M 25.53125 138.40625 L 25.53125 20.15625 M 38.96875 151.84375 L 25.53125 138.40625 " transform="matrix(0.744186,0,0,0.744186,0,0)"/>
</g>
</svg>
