<?xml version="1.0" encoding="UTF-8"?>
<svg xmlns="http://www.w3.org/2000/svg" xmlns:xlink="http://www.w3.org/1999/xlink" width="128pt" height="128pt" viewBox="0 0 128 128" version="1.1">
<g id="surface5329611">
<path style=" stroke:none;fill-rule:nonzero;fill:rgb(100%,100%,100%);fill-opacity:1;" d="M 109 109 C 109 114.5 104.5 119 99 119 L 19 119 C 13.5 119 9 114.5 9 109 L 9 54 C 9 48.5 13.5 44 19 44 L 99 44 C 104.5 44 109 48.5 109 54 Z M 109 109 "/>
<path style=" stroke:none;fill-rule:nonzero;fill:rgb(61.960784%,72.54902%,82.745098%);fill-opacity:1;" d="M 91.898438 58.101562 C 84.101562 50.300781 84.101562 37.601562 91.898438 29.800781 C 99.5 22.199219 111.699219 22 119.601562 29.199219 C 119.800781 29.398438 118.898438 31.699219 119.101562 31.898438 C 119.898438 32.699219 121.699219 33.601562 122.300781 33.898438 C 122.601562 34 121.800781 34.898438 122.101562 34.898438 C 122.199219 34.898438 123.300781 33.699219 123.398438 33.898438 C 127.800781 41.5 126.699219 51.5 120.199219 58 C 112.300781 66 99.699219 66 91.898438 58.101562 Z M 91.898438 58.101562 "/>
<path style=" stroke:none;fill-rule:nonzero;fill:rgb(100%,100%,100%);fill-opacity:1;" d="M 101.398438 38.199219 C 100.398438 36.898438 98.5 36.699219 97.199219 37.699219 C 95.898438 38.699219 95.699219 40.601562 96.699219 41.898438 L 103.699219 50.898438 C 104.199219 51.601562 105.101562 52 106 52.101562 L 106.101562 52.101562 C 107 52.101562 107.800781 51.699219 108.300781 51.101562 L 123.398438 34.101562 C 122.398438 32.300781 121.101562 30.699219 119.601562 29.398438 L 106.199219 44.398438 Z M 101.398438 38.199219 "/>
<path style=" stroke:none;fill-rule:nonzero;fill:rgb(10.588235%,42.352941%,65.882353%);fill-opacity:1;" d="M 99 122 L 19 122 C 11.800781 122 6 116.199219 6 109 L 6 54 C 6 46.800781 11.800781 41 19 41 L 73 41 C 74.699219 41 76 42.300781 76 44 C 76 45.699219 74.699219 47 73 47 L 19 47 C 15.101562 47 12 50.101562 12 54 L 12 109 C 12 112.898438 15.101562 116 19 116 L 99 116 C 102.898438 116 106 112.898438 106 109 L 106 77 C 106 75.300781 107.300781 74 109 74 C 110.699219 74 112 75.300781 112 77 L 112 109 C 112 116.199219 106.199219 122 99 122 Z M 99 122 "/>
<path style=" stroke:none;fill-rule:nonzero;fill:rgb(81.568627%,83.137255%,84.705882%);fill-opacity:1;" d="M 74 107 L 29 107 C 27.300781 107 26 105.699219 26 104 C 26 102.300781 27.300781 101 29 101 L 74 101 C 75.699219 101 77 102.300781 77 104 C 77 105.699219 75.699219 107 74 107 Z M 52 92 L 29 92 C 27.300781 92 26 90.699219 26 89 C 26 87.300781 27.300781 86 29 86 L 52 86 C 53.699219 86 55 87.300781 55 89 C 55 90.699219 53.699219 92 52 92 Z M 72 92 C 71.199219 92 70.398438 91.699219 69.898438 91.101562 C 69.300781 90.601562 69 89.800781 69 89 C 69 88.800781 69 88.601562 69.101562 88.398438 C 69.101562 88.199219 69.199219 88 69.300781 87.800781 C 69.398438 87.601562 69.5 87.5 69.601562 87.300781 C 69.699219 87.101562 69.800781 87 70 86.800781 C 70.699219 86.101562 71.699219 85.800781 72.699219 86 C 72.898438 86 73.101562 86.101562 73.300781 86.199219 C 73.5 86.300781 73.699219 86.398438 73.800781 86.5 C 74 86.601562 74.101562 86.699219 74.300781 86.898438 C 74.398438 87 74.601562 87.199219 74.699219 87.398438 C 74.800781 87.601562 74.898438 87.699219 75 87.898438 C 75.101562 88.101562 75.101562 88.300781 75.199219 88.5 C 75.199219 88.699219 75.300781 88.898438 75.300781 89.101562 C 75.300781 89.300781 75.300781 89.5 75.199219 89.699219 C 75.199219 89.898438 75.101562 90.101562 75 90.300781 C 74.898438 90.5 74.800781 90.699219 74.699219 90.800781 C 74.601562 91 74.5 91.101562 74.300781 91.199219 C 74.199219 91.300781 74 91.5 73.800781 91.601562 C 73.601562 91.699219 73.5 91.800781 73.300781 91.898438 C 73.101562 92 72.898438 92 72.699219 92.101562 C 72.398438 92 72.199219 92 72 92 Z M 72 92 "/>
<path style=" stroke:none;fill-rule:nonzero;fill:rgb(10.588235%,42.352941%,65.882353%);fill-opacity:1;" d="M 37 78 C 29.800781 78 24 72.199219 24 65 C 24 57.800781 29.800781 52 37 52 C 44.199219 52 50 57.800781 50 65 C 50 72.199219 44.199219 78 37 78 Z M 37 58 C 33.101562 58 30 61.101562 30 65 C 30 68.898438 33.101562 72 37 72 C 40.898438 72 44 68.898438 44 65 C 44 61.101562 40.898438 58 37 58 Z M 37 58 "/>
</g>
</svg>
