<?xml version="1.0" encoding="UTF-8"?>
<svg xmlns="http://www.w3.org/2000/svg" xmlns:xlink="http://www.w3.org/1999/xlink" width="64pt" height="64pt" viewBox="0 0 64 64" version="1.1">
<g id="surface5289386">
<path style=" stroke:none;fill-rule:nonzero;fill:rgb(10.588235%,42.352941%,65.882353%);fill-opacity:1;" d="M 55.5 56.648438 L 20.5 56.648438 C 17.75 56.648438 15.5 54.398438 15.5 51.648438 L 15.5 16.648438 C 15.5 13.898438 17.75 11.648438 20.5 11.648438 L 55.5 11.648438 C 58.25 11.648438 60.5 13.898438 60.5 16.648438 L 60.5 51.648438 C 60.5 54.449219 58.25 56.648438 55.5 56.648438 Z M 55.5 56.648438 "/>
<path style=" stroke:none;fill-rule:nonzero;fill:rgb(100%,100%,100%);fill-opacity:1;" d="M 50.5 56.648438 L 15.5 56.648438 C 12.75 56.648438 10.5 54.398438 10.5 51.648438 L 10.5 16.648438 C 10.5 13.898438 12.75 11.648438 15.5 11.648438 L 50.5 11.648438 C 53.25 11.648438 55.5 13.898438 55.5 16.648438 L 55.5 51.648438 C 55.5 54.449219 53.25 56.648438 50.5 56.648438 Z M 50.5 56.648438 "/>
<path style=" stroke:none;fill-rule:nonzero;fill:rgb(26.666667%,29.411765%,32.941176%);fill-opacity:1;" d="M 17.101562 48.550781 L 17.101562 19.800781 C 17.101562 18.949219 17.75 18.300781 18.601562 18.300781 L 42.5 18.300781 L 42.5 50.050781 L 18.601562 50.050781 C 17.800781 50.050781 17.101562 49.398438 17.101562 48.550781 Z M 17.101562 48.550781 "/>
<path style=" stroke:none;fill-rule:nonzero;fill:rgb(100%,100%,100%);fill-opacity:1;" d="M 25 39.148438 C 24.601562 39.148438 24.148438 38.949219 23.851562 38.648438 L 20.851562 35.148438 C 20.300781 34.5 20.398438 33.550781 21 33.050781 C 21.648438 32.5 22.601562 32.601562 23.101562 33.199219 L 26.101562 36.699219 C 26.648438 37.351562 26.550781 38.300781 25.949219 38.800781 C 25.699219 39.050781 25.351562 39.148438 25 39.148438 Z M 25 39.148438 "/>
<path style=" stroke:none;fill-rule:nonzero;fill:rgb(100%,100%,100%);fill-opacity:1;" d="M 22 35.648438 C 21.648438 35.648438 21.300781 35.550781 21 35.300781 C 20.351562 34.75 20.300781 33.800781 20.851562 33.199219 L 23.851562 29.699219 C 24.398438 29.050781 25.351562 29 25.949219 29.550781 C 26.601562 30.101562 26.648438 31.050781 26.101562 31.652344 L 23.101562 35.152344 C 22.851562 35.5 22.398438 35.648438 22 35.648438 Z M 45 16.351562 L 43.898438 15.800781 L 38.898438 15.800781 L 38.898438 52.550781 L 43.898438 52.550781 L 45 52 Z M 45 16.351562 "/>
<path style=" stroke:none;fill-rule:nonzero;fill:rgb(10.588235%,42.352941%,65.882353%);fill-opacity:1;" d="M 43.898438 52.550781 L 48.898438 50.050781 L 48.898438 18.300781 L 43.898438 15.800781 Z M 43.898438 52.550781 "/>
<path style=" stroke:none;fill-rule:nonzero;fill:rgb(26.666667%,29.411765%,32.941176%);fill-opacity:1;" d="M 48.898438 19.800781 C 48.648438 19.800781 48.449219 19.75 48.25 19.648438 L 43.25 17.148438 C 42.5 16.800781 42.199219 15.898438 42.601562 15.148438 C 42.949219 14.398438 43.851562 14.101562 44.601562 14.5 L 49.601562 17 C 50.351562 17.351562 50.648438 18.25 50.25 19 C 49.949219 19.5 49.449219 19.800781 48.898438 19.800781 Z M 43.898438 54.050781 C 43.351562 54.050781 42.800781 53.75 42.550781 53.199219 C 42.199219 52.449219 42.5 51.550781 43.199219 51.199219 L 48.199219 48.699219 C 48.949219 48.351562 49.851562 48.648438 50.199219 49.351562 C 50.550781 50.101562 50.25 51 49.550781 51.351562 L 44.550781 53.851562 C 44.351562 54 44.101562 54.050781 43.898438 54.050781 Z M 43.898438 54.050781 "/>
<path style=" stroke:none;fill-rule:nonzero;fill:rgb(26.666667%,29.411765%,32.941176%);fill-opacity:1;" d="M 43.898438 54.050781 L 41.398438 54.050781 C 39.199219 54.050781 37.398438 52.25 37.398438 50.050781 L 37.398438 18.300781 C 37.398438 16.101562 39.199219 14.300781 41.398438 14.300781 L 43.898438 14.300781 C 44.75 14.300781 44.75 17.300781 43.898438 17.300781 L 41.398438 17.300781 C 40.851562 17.300781 40.398438 17.75 40.398438 18.300781 L 40.398438 50.050781 C 40.398438 50.601562 40.851562 51.050781 41.398438 51.050781 L 43.898438 51.050781 C 44.75 51.050781 44.699219 54.050781 43.898438 54.050781 Z M 43.898438 54.050781 "/>
<path style=" stroke:none;fill-rule:nonzero;fill:rgb(100%,100%,100%);fill-opacity:1;" d="M 29.648438 35.648438 L 22 35.648438 C 21.148438 35.648438 20.5 35 20.5 34.148438 C 20.5 33.300781 21.148438 32.648438 22 32.648438 L 29.648438 32.648438 C 30.5 32.648438 31.148438 33.300781 31.148438 34.148438 C 31.148438 35 30.5 35.648438 29.648438 35.648438 Z M 29.648438 35.648438 "/>
<path style=" stroke:none;fill-rule:nonzero;fill:rgb(26.666667%,29.411765%,32.941176%);fill-opacity:1;" d="M 50.5 10.148438 L 15.5 10.148438 C 11.898438 10.148438 9 13.050781 9 16.648438 L 9 51.648438 C 9 55.25 11.898438 58.148438 15.5 58.148438 L 15.601562 58.148438 L 15.601562 59.5 C 15.601562 60.351562 16.25 61 17.101562 61 C 17.949219 61 18.601562 60.351562 18.601562 59.5 L 18.601562 58.148438 L 47.25 58.148438 L 47.25 59.5 C 47.25 60.351562 47.898438 61 48.75 61 C 49.601562 61 50.25 60.351562 50.25 59.5 L 50.25 58.148438 L 50.5 58.148438 C 54.101562 58.148438 57 55.25 57 51.648438 L 57 16.648438 C 57 13.101562 54.101562 10.148438 50.5 10.148438 Z M 54 51.648438 C 54 53.601562 52.449219 55.148438 50.5 55.148438 L 15.5 55.148438 C 13.550781 55.148438 12 53.601562 12 51.648438 L 12 16.648438 C 12 14.699219 13.550781 13.148438 15.5 13.148438 L 50.5 13.148438 C 52.449219 13.148438 54 14.699219 54 16.648438 Z M 54 51.648438 "/>
<path style=" stroke:none;fill-rule:nonzero;fill:rgb(100%,100%,100%);fill-opacity:1;" d="M 34.578125 32.648438 C 33.75 32.648438 33.078125 33.320312 33.078125 34.148438 C 33.078125 34.976562 33.75 35.648438 34.578125 35.648438 C 35.410156 35.648438 36.078125 34.976562 36.078125 34.148438 C 36.078125 33.320312 35.410156 32.648438 34.578125 32.648438 Z M 34.578125 32.648438 "/>
<path style=" stroke:none;fill-rule:nonzero;fill:rgb(26.666667%,29.411765%,32.941176%);fill-opacity:1;" d="M 48.851562 21.785156 C 48.023438 21.785156 47.351562 22.457031 47.351562 23.285156 C 47.351562 24.113281 48.023438 24.785156 48.851562 24.785156 C 49.679688 24.785156 50.351562 24.113281 50.351562 23.285156 C 50.351562 22.457031 49.679688 21.785156 48.851562 21.785156 Z M 48.851562 43.417969 C 48.023438 43.417969 47.351562 44.089844 47.351562 44.917969 C 47.351562 45.746094 48.023438 46.417969 48.851562 46.417969 C 49.679688 46.417969 50.351562 45.746094 50.351562 44.917969 C 50.351562 44.089844 49.679688 43.417969 48.851562 43.417969 Z M 48.851562 43.417969 "/>
</g>
</svg>
