<?xml version="1.0" encoding="UTF-8"?>
<svg xmlns="http://www.w3.org/2000/svg" xmlns:xlink="http://www.w3.org/1999/xlink" width="64pt" height="64pt" viewBox="0 0 64 64" version="1.1">
<g id="surface5080643">
<path style=" stroke:none;fill-rule:nonzero;fill:rgb(100%,100%,100%);fill-opacity:1;" d="M 50.550781 52.800781 C 46.851562 46.351562 39.949219 42 32 42 C 24.050781 42 17.148438 46.351562 13.449219 52.800781 L 13.5 54.5 L 50.5 54.5 Z M 50.550781 52.800781 "/>
<path style=" stroke:none;fill-rule:nonzero;fill:rgb(10.588235%,42.352941%,65.882353%);fill-opacity:1;" d="M 54.851562 44 L 46.148438 44 C 45.601562 44 45.101562 44.300781 44.851562 44.75 L 40.5 52.25 C 40.25 52.699219 40.25 53.300781 40.5 53.75 L 44.851562 61.25 C 45.101562 61.699219 45.601562 62 46.148438 62 L 54.800781 62 C 55.351562 62 55.851562 61.699219 56.101562 61.25 L 60.449219 53.75 C 60.699219 53.300781 60.699219 52.699219 60.449219 52.25 L 56.101562 44.75 C 55.851562 44.300781 55.351562 44 54.851562 44 Z M 54.851562 44 "/>
<path style=" stroke:none;fill-rule:nonzero;fill:rgb(100%,100%,100%);fill-opacity:1;" d="M 50.5 48.5 C 48.015625 48.5 46 50.515625 46 53 C 46 55.484375 48.015625 57.5 50.5 57.5 C 52.984375 57.5 55 55.484375 55 53 C 55 50.515625 52.984375 48.5 50.5 48.5 Z M 50.5 48.5 "/>
<path style=" stroke:none;fill-rule:nonzero;fill:rgb(26.666667%,29.411765%,32.941176%);fill-opacity:1;" d="M 39.398438 44.851562 C 39.25 44.851562 39.050781 44.800781 38.898438 44.75 C 36.699219 43.949219 34.398438 43.5 32 43.5 C 31.148438 43.5 30.5 42.851562 30.5 42 C 30.5 41.148438 31.148438 40.5 32 40.5 C 34.75 40.5 37.398438 41 39.949219 41.898438 C 40.75 42.199219 41.101562 43.050781 40.851562 43.851562 C 40.601562 44.449219 40 44.851562 39.398438 44.851562 Z M 39.398438 44.851562 "/>
<path style=" stroke:none;fill-rule:nonzero;fill:rgb(26.666667%,29.411765%,32.941176%);fill-opacity:1;" d="M 13.449219 54.300781 C 13.199219 54.300781 12.949219 54.25 12.699219 54.101562 C 12 53.699219 11.75 52.800781 12.148438 52.050781 C 16.199219 44.949219 23.800781 40.5 32 40.5 C 32.851562 40.5 33.5 41.148438 33.5 42 C 33.5 42.851562 32.851562 43.5 32 43.5 C 24.898438 43.5 18.300781 47.351562 14.75 53.550781 C 14.5 54 14 54.300781 13.449219 54.300781 Z M 13.449219 54.300781 "/>
<path style=" stroke:none;fill-rule:nonzero;fill:rgb(100%,100%,100%);fill-opacity:1;" d="M 32 15 C 26.476562 15 22 19.476562 22 25 C 22 30.523438 26.476562 35 32 35 C 37.523438 35 42 30.523438 42 25 C 42 19.476562 37.523438 15 32 15 Z M 32 15 "/>
<path style=" stroke:none;fill-rule:nonzero;fill:rgb(26.666667%,29.411765%,32.941176%);fill-opacity:1;" d="M 32 36.5 C 25.648438 36.5 20.5 31.351562 20.5 25 C 20.5 18.648438 25.648438 13.5 32 13.5 C 38.351562 13.5 43.5 18.648438 43.5 25 C 43.5 31.351562 38.351562 36.5 32 36.5 Z M 32 16.5 C 27.300781 16.5 23.5 20.300781 23.5 25 C 23.5 29.699219 27.300781 33.5 32 33.5 C 36.699219 33.5 40.5 29.699219 40.5 25 C 40.5 20.300781 36.699219 16.5 32 16.5 Z M 32 16.5 "/>
</g>
</svg>
