<?xml version="1.0" encoding="UTF-8"?>
<svg xmlns="http://www.w3.org/2000/svg" xmlns:xlink="http://www.w3.org/1999/xlink" width="64pt" height="64pt" viewBox="0 0 64 64" version="1.1">
<g id="surface5080356">
<path style=" stroke:none;fill-rule:nonzero;fill:rgb(10.588235%,42.352941%,65.882353%);fill-opacity:1;" d="M 53.449219 27.648438 C 53.050781 26.25 52.550781 24.949219 51.851562 23.699219 L 56.25 19.300781 L 49.898438 13 L 45.5 17.398438 C 43.050781 16 40.25 15.25 37.351562 15.199219 L 35.75 9.199219 L 27.101562 11.5 L 28.699219 17.5 C 26.199219 18.949219 24.148438 21.050781 22.75 23.449219 L 16.75 21.851562 L 14.5 30.550781 L 20.5 32.148438 C 20.5 33.550781 20.699219 34.949219 21.050781 36.351562 C 21.449219 37.75 21.949219 39.050781 22.648438 40.300781 L 18.25 44.699219 L 24.601562 51 L 29 46.601562 C 31.449219 48 34.25 48.75 37.148438 48.800781 L 38.75 54.800781 L 47.398438 52.5 L 45.800781 46.5 C 48.300781 45.050781 50.351562 42.949219 51.75 40.550781 L 57.75 42.148438 L 60.050781 33.5 L 54.050781 31.898438 C 54.050781 30.449219 53.851562 29.050781 53.449219 27.648438 Z M 39.300781 39.550781 C 35.101562 40.648438 30.851562 38.199219 29.699219 34 C 28.550781 29.800781 31.050781 25.550781 35.25 24.398438 C 39.449219 23.300781 43.699219 25.75 44.851562 29.949219 C 45.949219 34.148438 43.449219 38.449219 39.300781 39.550781 Z M 39.300781 39.550781 "/>
<path style=" stroke:none;fill-rule:nonzero;fill:rgb(100%,100%,100%);fill-opacity:1;" d="M 48.449219 27.648438 C 48.050781 26.25 47.550781 24.949219 46.851562 23.699219 L 51.25 19.300781 L 44.898438 13 L 40.5 17.398438 C 38.050781 16 35.25 15.25 32.351562 15.199219 L 30.75 9.199219 L 22.101562 11.5 L 23.699219 17.5 C 21.199219 18.949219 19.148438 21.050781 17.75 23.449219 L 11.75 21.851562 L 9.5 30.550781 L 15.5 32.148438 C 15.5 33.550781 15.699219 34.949219 16.050781 36.351562 C 16.449219 37.75 16.949219 39.050781 17.648438 40.300781 L 13.25 44.699219 L 19.601562 51 L 24 46.601562 C 26.449219 48 29.25 48.75 32.148438 48.800781 L 33.75 54.800781 L 42.398438 52.5 L 40.800781 46.5 C 43.300781 45.050781 45.351562 42.949219 46.75 40.550781 L 52.75 42.148438 L 55.050781 33.5 L 49.050781 31.898438 C 49.050781 30.449219 48.851562 29.050781 48.449219 27.648438 Z M 34.300781 39.550781 C 30.101562 40.648438 25.851562 38.199219 24.699219 34 C 23.550781 29.800781 26.050781 25.550781 30.25 24.398438 C 34.449219 23.300781 38.699219 25.75 39.851562 29.949219 C 40.949219 34.148438 38.449219 38.449219 34.300781 39.550781 Z M 34.300781 39.550781 "/>
<path style=" stroke:none;fill-rule:nonzero;fill:rgb(24.705882%,29.019608%,32.941176%);fill-opacity:1;" d="M 33.75 56.25 C 33.101562 56.25 32.5 55.800781 32.300781 55.148438 L 31 50.25 C 28.699219 50.101562 26.398438 49.449219 24.300781 48.449219 L 20.699219 52.050781 C 20.101562 52.648438 19.148438 52.648438 18.601562 52.050781 L 12.199219 45.699219 C 11.601562 45.101562 11.601562 44.148438 12.199219 43.601562 L 15.800781 40 C 15.300781 38.949219 14.898438 37.851562 14.601562 36.75 C 14.300781 35.601562 14.101562 34.449219 14 33.300781 L 9.101562 32 C 8.699219 31.898438 8.398438 31.648438 8.199219 31.300781 C 8 30.949219 7.949219 30.550781 8.050781 30.148438 L 10.351562 21.5 C 10.449219 21.101562 10.699219 20.800781 11.050781 20.601562 C 11.398438 20.398438 11.800781 20.351562 12.199219 20.449219 L 17.101562 21.75 C 18.398438 19.800781 20.050781 18.148438 22 16.851562 L 20.699219 11.949219 C 20.5 11.148438 20.949219 10.351562 21.75 10.101562 L 30.398438 7.800781 C 31.199219 7.601562 32 8.050781 32.25 8.851562 L 33.550781 13.75 C 35.851562 13.898438 38.148438 14.550781 40.25 15.550781 L 43.851562 11.949219 C 44.398438 11.398438 45.398438 11.398438 45.949219 11.949219 L 52.300781 18.300781 C 52.898438 18.898438 52.898438 19.851562 52.300781 20.398438 L 48.699219 24 C 49.199219 25.050781 49.601562 26.148438 49.898438 27.25 C 50.199219 28.398438 50.398438 29.550781 50.5 30.699219 L 55.398438 32 C 56.199219 32.199219 56.648438 33.050781 56.449219 33.851562 L 54.148438 42.5 C 54.050781 42.898438 53.800781 43.199219 53.449219 43.398438 C 53.101562 43.601562 52.699219 43.648438 52.300781 43.550781 L 47.398438 42.25 C 46.101562 44.199219 44.449219 45.851562 42.5 47.148438 L 43.800781 52.050781 C 44 52.851562 43.550781 53.648438 42.75 53.898438 L 34.101562 56.199219 C 34 56.25 33.851562 56.25 33.75 56.25 Z M 24 45.101562 C 24.25 45.101562 24.5 45.148438 24.75 45.300781 C 27 46.601562 29.550781 47.25 32.148438 47.300781 C 32.800781 47.300781 33.398438 47.75 33.601562 48.398438 L 34.800781 52.949219 L 40.550781 51.398438 L 39.351562 46.851562 C 39.199219 46.199219 39.449219 45.5 40.050781 45.148438 C 42.300781 43.851562 44.148438 41.949219 45.449219 39.75 C 45.800781 39.148438 46.5 38.898438 47.148438 39.050781 L 51.699219 40.25 L 53.25 34.5 L 48.699219 33.300781 C 48.050781 33.148438 47.601562 32.550781 47.601562 31.851562 C 47.601562 30.550781 47.398438 29.25 47.101562 28 C 46.75 26.75 46.25 25.550781 45.648438 24.398438 C 45.300781 23.800781 45.398438 23.101562 45.898438 22.601562 L 49.199219 19.300781 L 45 15.101562 L 41.699219 18.398438 C 41.199219 18.898438 40.5 19 39.898438 18.648438 C 37.648438 17.351562 35.101562 16.699219 32.5 16.648438 C 31.851562 16.648438 31.25 16.199219 31.050781 15.550781 L 29.851562 11 L 24 12.601562 L 25.199219 17.148438 C 25.351562 17.800781 25.101562 18.5 24.5 18.851562 C 22.25 20.148438 20.398438 22.050781 19.101562 24.25 C 18.75 24.851562 18.050781 25.101562 17.398438 24.949219 L 12.851562 23.75 L 11.300781 29.5 L 15.851562 30.699219 C 16.5 30.851562 16.949219 31.449219 16.949219 32.148438 C 16.949219 33.449219 17.148438 34.75 17.449219 36 C 17.800781 37.25 18.300781 38.449219 18.898438 39.601562 C 19.25 40.199219 19.148438 40.898438 18.648438 41.398438 L 15.351562 44.699219 L 19.550781 48.898438 L 22.898438 45.601562 C 23.199219 45.25 23.601562 45.101562 24 45.101562 Z M 32.25 41.351562 C 30.648438 41.351562 29.050781 40.949219 27.601562 40.101562 C 25.449219 38.851562 23.898438 36.851562 23.25 34.449219 C 22.601562 32.050781 22.949219 29.550781 24.199219 27.351562 C 25.449219 25.199219 27.449219 23.648438 29.851562 23 C 34.800781 21.648438 39.949219 24.648438 41.300781 29.601562 C 41.949219 32 41.601562 34.5 40.351562 36.699219 C 39.101562 38.851562 37.101562 40.398438 34.699219 41.050781 C 33.851562 41.25 33.050781 41.351562 32.25 41.351562 Z M 34.300781 39.550781 Z M 32.25 25.648438 C 31.699219 25.648438 31.148438 25.699219 30.601562 25.851562 C 28.949219 26.300781 27.601562 27.351562 26.75 28.800781 C 25.898438 30.25 25.699219 31.949219 26.101562 33.601562 C 26.550781 35.25 27.601562 36.601562 29.050781 37.449219 C 30.5 38.300781 32.199219 38.5 33.851562 38.101562 C 35.5 37.648438 36.851562 36.601562 37.699219 35.148438 C 38.550781 33.699219 38.75 32 38.351562 30.351562 C 37.601562 27.550781 35.050781 25.648438 32.25 25.648438 Z M 32.25 25.648438 "/>
</g>
</svg>
