<?xml version="1.0" encoding="UTF-8"?>
<svg xmlns="http://www.w3.org/2000/svg" xmlns:xlink="http://www.w3.org/1999/xlink" width="64pt" height="64pt" viewBox="0 0 64 64" version="1.1">
<g id="surface5289519">
<path style=" stroke:none;fill-rule:nonzero;fill:rgb(100%,100%,100%);fill-opacity:1;" d="M 32 7 C 18.191406 7 7 18.191406 7 32 C 7 45.808594 18.191406 57 32 57 C 45.808594 57 57 45.808594 57 32 C 57 18.191406 45.808594 7 32 7 Z M 32 7 "/>
<path style=" stroke:none;fill-rule:nonzero;fill:rgb(10.588235%,42.352941%,65.882353%);fill-opacity:1;" d="M 33.898438 30.949219 L 30.800781 30.199219 C 29.851562 29.949219 29.25 29.148438 29.25 28.199219 C 29.25 27.050781 30.199219 26.101562 31.351562 26.101562 L 32.851562 26.101562 C 33.898438 26.101562 34.75 26.949219 34.75 28 C 34.75 28.851562 35.398438 29.5 36.25 29.5 C 37.101562 29.5 37.75 28.851562 37.75 28 C 37.75 25.5 35.898438 23.449219 33.5 23.148438 L 33.5 22.5 C 33.5 21.648438 32.851562 21 32 21 C 31.148438 21 30.5 21.648438 30.5 22.5 L 30.5 23.199219 C 28.101562 23.601562 26.25 25.699219 26.25 28.199219 C 26.25 30.550781 27.851562 32.550781 30.101562 33.148438 L 33.199219 33.898438 C 34.148438 34.148438 34.75 34.949219 34.75 35.898438 C 34.75 37.050781 33.800781 38 32.648438 38 L 31.148438 38 C 30.101562 38 29.25 37.148438 29.25 36.101562 C 29.25 35.25 28.601562 34.601562 27.75 34.601562 C 26.898438 34.601562 26.25 35.25 26.25 36.101562 C 26.25 38.601562 28.101562 40.648438 30.5 40.949219 L 30.5 41.601562 C 30.5 42.449219 31.148438 43.101562 32 43.101562 C 32.851562 43.101562 33.5 42.449219 33.5 41.601562 L 33.5 40.898438 C 35.898438 40.5 37.75 38.398438 37.75 35.898438 C 37.75 33.5 36.148438 31.5 33.898438 30.949219 Z M 33.898438 30.949219 "/>
<path style=" stroke:none;fill-rule:nonzero;fill:rgb(26.666667%,29.411765%,32.941176%);fill-opacity:1;" d="M 32 58.5 C 31.898438 58.5 31.800781 58.5 31.699219 58.449219 C 31.601562 58.449219 31.5 58.398438 31.398438 58.351562 C 31.300781 58.300781 31.25 58.25 31.148438 58.199219 C 31.050781 58.148438 31 58.101562 30.949219 58 C 30.648438 57.699219 30.5 57.351562 30.5 56.949219 C 30.5 56.550781 30.648438 56.148438 30.949219 55.898438 C 31 55.851562 31.101562 55.75 31.148438 55.699219 C 31.25 55.648438 31.300781 55.601562 31.398438 55.550781 C 31.5 55.5 31.601562 55.5 31.699219 55.449219 C 32.199219 55.351562 32.699219 55.5 33.050781 55.851562 C 33.351562 56.148438 33.5 56.5 33.5 56.898438 C 33.5 57.300781 33.351562 57.699219 33.050781 57.949219 C 32.800781 58.351562 32.398438 58.5 32 58.5 Z M 26.101562 57.851562 C 25.300781 57.648438 24.800781 56.851562 24.949219 56.050781 C 25.148438 55.25 25.949219 54.75 26.75 54.898438 C 27.550781 55.101562 28.050781 55.898438 27.898438 56.699219 C 27.75 57.398438 27.148438 57.851562 26.449219 57.851562 C 26.351562 57.898438 26.199219 57.851562 26.101562 57.851562 Z M 20.5 55.898438 C 19.75 55.550781 19.449219 54.648438 19.800781 53.898438 C 20.148438 53.148438 21.050781 52.851562 21.800781 53.199219 C 22.550781 53.550781 22.851562 54.449219 22.5 55.199219 C 22.25 55.75 21.699219 56.050781 21.148438 56.050781 C 20.949219 56.050781 20.699219 56 20.5 55.898438 Z M 15.5 52.699219 C 14.851562 52.199219 14.75 51.25 15.25 50.601562 C 15.75 49.949219 16.699219 49.851562 17.351562 50.351562 C 18 50.851562 18.101562 51.800781 17.601562 52.449219 C 17.300781 52.851562 16.851562 53 16.398438 53 C 16.101562 53.050781 15.75 52.949219 15.5 52.699219 Z M 11.300781 48.550781 C 10.800781 47.898438 10.898438 46.949219 11.550781 46.449219 C 12.199219 45.949219 13.148438 46.050781 13.648438 46.699219 C 14.148438 47.351562 14.050781 48.300781 13.398438 48.800781 C 13.101562 49.050781 12.800781 49.148438 12.449219 49.148438 C 12 49.101562 11.601562 48.898438 11.300781 48.550781 Z M 8.101562 43.5 C 7.75 42.75 8.050781 41.851562 8.800781 41.5 C 9.550781 41.148438 10.449219 41.449219 10.800781 42.199219 C 11.148438 42.949219 10.851562 43.851562 10.101562 44.199219 C 9.898438 44.300781 9.648438 44.351562 9.449219 44.351562 C 8.898438 44.351562 8.398438 44.050781 8.101562 43.5 Z M 6.148438 37.898438 C 5.949219 37.101562 6.449219 36.300781 7.300781 36.101562 C 8.101562 35.898438 8.898438 36.398438 9.101562 37.25 C 9.300781 38.050781 8.800781 38.851562 8 39.050781 C 7.898438 39.101562 7.75 39.101562 7.648438 39.101562 C 6.949219 39.101562 6.300781 38.601562 6.148438 37.898438 Z M 7 33.5 C 6.601562 33.5 6.199219 33.351562 5.949219 33.050781 C 5.898438 33 5.800781 32.898438 5.75 32.851562 C 5.699219 32.75 5.648438 32.699219 5.601562 32.601562 C 5.550781 32.5 5.550781 32.398438 5.5 32.300781 C 5.5 32.199219 5.449219 32.101562 5.449219 32 C 5.449219 31.898438 5.449219 31.800781 5.5 31.699219 C 5.5 31.601562 5.550781 31.5 5.601562 31.398438 C 5.648438 31.300781 5.699219 31.25 5.75 31.148438 C 5.800781 31.050781 5.851562 31 5.949219 30.898438 C 6.050781 30.800781 6.101562 30.75 6.148438 30.699219 C 6.25 30.648438 6.300781 30.601562 6.398438 30.550781 C 6.5 30.5 6.601562 30.5 6.699219 30.449219 C 7.199219 30.351562 7.699219 30.5 8.050781 30.851562 C 8.351562 31.148438 8.5 31.5 8.5 31.898438 C 8.5 32.300781 8.351562 32.699219 8.050781 32.949219 C 8 33 7.898438 33.101562 7.851562 33.148438 C 7.75 33.199219 7.699219 33.25 7.601562 33.300781 C 7.5 33.351562 7.398438 33.351562 7.300781 33.398438 C 7.199219 33.5 7.101562 33.5 7 33.5 Z M 7 33.5 "/>
<path style=" stroke:none;fill-rule:nonzero;fill:rgb(26.666667%,29.411765%,32.941176%);fill-opacity:1;" d="M 13.25 13.25 C 11.050781 15.449219 9.25 18.050781 7.949219 20.851562 L 7.351562 19.148438 C 7.050781 18.351562 6.199219 17.949219 5.449219 18.25 C 4.648438 18.550781 4.25 19.398438 4.550781 20.148438 L 6.550781 25.648438 L 6.550781 25.699219 C 6.550781 25.75 6.601562 25.800781 6.601562 25.800781 C 6.601562 25.851562 6.648438 25.851562 6.648438 25.898438 C 6.648438 25.949219 6.699219 25.949219 6.699219 26 C 6.699219 26.050781 6.75 26.050781 6.75 26.101562 C 6.75 26.148438 6.800781 26.148438 6.800781 26.199219 C 6.851562 26.25 6.851562 26.25 6.898438 26.300781 L 6.949219 26.351562 C 7 26.351562 7 26.398438 7.050781 26.398438 C 7.101562 26.398438 7.101562 26.449219 7.148438 26.449219 C 7.199219 26.449219 7.199219 26.5 7.25 26.5 C 7.300781 26.5 7.351562 26.550781 7.351562 26.550781 C 7.398438 26.550781 7.398438 26.550781 7.449219 26.601562 C 7.5 26.601562 7.550781 26.601562 7.601562 26.648438 C 7.648438 26.648438 7.648438 26.648438 7.699219 26.648438 C 7.75 26.648438 7.800781 26.648438 7.851562 26.648438 L 7.898438 26.648438 C 7.949219 26.648438 8.050781 26.648438 8.101562 26.648438 C 8.148438 26.648438 8.148438 26.648438 8.199219 26.648438 C 8.25 26.648438 8.300781 26.601562 8.351562 26.601562 L 8.398438 26.601562 C 8.398438 26.601562 8.398438 26.601562 8.449219 26.601562 C 8.449219 26.601562 8.5 26.601562 8.5 26.550781 L 14 24.050781 C 14.75 23.699219 15.101562 22.800781 14.75 22.050781 C 14.398438 21.300781 13.5 20.949219 12.75 21.300781 L 10.5 22.351562 C 11.648438 19.75 13.300781 17.398438 15.351562 15.351562 C 24.5 6.199219 39.398438 6.199219 48.601562 15.351562 C 53.050781 19.800781 55.5 25.699219 55.5 32 C 55.5 44.949219 44.949219 55.5 32 55.5 C 31.148438 55.5 30.5 56.148438 30.5 57 C 30.5 57.851562 31.148438 58.5 32 58.5 C 46.601562 58.5 58.5 46.601562 58.5 32 C 58.5 24.898438 55.75 18.25 50.75 13.25 C 40.398438 2.949219 23.601562 2.949219 13.25 13.25 Z M 13.25 13.25 "/>
</g>
</svg>
