<?xml version="1.0" encoding="UTF-8"?>
<svg xmlns="http://www.w3.org/2000/svg" xmlns:xlink="http://www.w3.org/1999/xlink" width="64pt" height="64pt" viewBox="0 0 64 64" version="1.1">
<g id="surface5289168">
<path style=" stroke:none;fill-rule:nonzero;fill:rgb(26.666667%,29.411765%,32.941176%);fill-opacity:1;" d="M 18.5 11.601562 C 18 11.601562 17.5 11.351562 17.199219 10.851562 C 16.800781 10.148438 17.050781 9.199219 17.75 8.800781 C 22.050781 6.300781 27 5 32 5 C 37 5 41.949219 6.300781 46.25 8.800781 C 46.949219 9.199219 47.199219 10.148438 46.800781 10.851562 C 46.398438 11.550781 45.449219 11.800781 44.75 11.398438 C 40.898438 9.199219 36.5 8 32 8 C 27.5 8 23.101562 9.199219 19.25 11.398438 C 19 11.550781 18.75 11.601562 18.5 11.601562 Z M 18.5 11.601562 "/>
<path style=" stroke:none;fill-rule:nonzero;fill:rgb(26.666667%,29.411765%,32.941176%);fill-opacity:1;" d="M 48.5 22 C 48.050781 22 47.601562 21.800781 47.300781 21.449219 C 43.550781 16.699219 38 14 32 14 C 30.5 14 28.949219 14.199219 27.5 14.550781 C 26.699219 14.75 25.898438 14.25 25.699219 13.449219 C 25.5 12.648438 26 11.851562 26.800781 11.648438 C 28.5 11.199219 30.25 11 32 11 C 38.898438 11 45.351562 14.101562 49.648438 19.550781 C 50.148438 20.199219 50.050781 21.148438 49.398438 21.648438 C 49.148438 21.898438 48.800781 22 48.5 22 Z M 15.5 22 C 15.199219 22 14.851562 21.898438 14.550781 21.699219 C 13.898438 21.199219 13.800781 20.25 14.300781 19.601562 C 16.050781 17.398438 18.148438 15.550781 20.601562 14.101562 C 21.300781 13.699219 22.25 13.898438 22.648438 14.648438 C 23.050781 15.351562 22.851562 16.300781 22.101562 16.699219 C 20 17.949219 18.148438 19.550781 16.648438 21.449219 C 16.398438 21.851562 15.949219 22 15.5 22 Z M 47 43 C 46.148438 43 45.5 42.351562 45.5 41.5 L 45.5 33.5 C 45.5 31.300781 44.949219 29.101562 43.898438 27.148438 C 43.5 26.398438 43.800781 25.5 44.5 25.101562 C 45.25 24.699219 46.148438 25 46.550781 25.699219 C 47.851562 28.101562 48.5 30.800781 48.5 33.5 L 48.5 41.5 C 48.5 42.351562 47.851562 43 47 43 Z M 47 43 "/>
<path style=" stroke:none;fill-rule:nonzero;fill:rgb(26.666667%,29.411765%,32.941176%);fill-opacity:1;" d="M 40.851562 22.898438 C 40.550781 22.898438 40.25 22.800781 39.949219 22.601562 C 37.648438 20.898438 34.898438 20 32 20 C 29.550781 20 27.101562 20.648438 25.050781 21.949219 C 24.351562 22.398438 23.398438 22.148438 23 21.449219 C 22.550781 20.75 22.800781 19.800781 23.5 19.398438 C 26.050781 17.800781 29 17 32 17 C 35.550781 17 38.898438 18.101562 41.75 20.148438 C 42.398438 20.648438 42.550781 21.601562 42.101562 22.25 C 41.75 22.648438 41.300781 22.898438 40.851562 22.898438 Z M 17 35 C 16.148438 35 15.5 34.351562 15.5 33.5 C 15.5 30.601562 16.25 27.75 17.699219 25.25 C 18.101562 24.550781 19.050781 24.300781 19.75 24.699219 C 20.449219 25.101562 20.699219 26.050781 20.300781 26.75 C 19.101562 28.800781 18.5 31.148438 18.5 33.5 C 18.5 34.351562 17.851562 35 17 35 Z M 17 35 "/>
<path style=" stroke:none;fill-rule:nonzero;fill:rgb(26.666667%,29.411765%,32.941176%);fill-opacity:1;" d="M 17 41 L 12 41 C 11.148438 41 10.5 40.351562 10.5 39.5 C 10.5 38.648438 11.148438 38 12 38 L 17 38 C 19.5 38 21.5 36 21.5 33.5 C 21.5 29.800781 23.398438 26.449219 26.550781 24.550781 C 27.25 24.101562 28.199219 24.351562 28.601562 25.050781 C 29.050781 25.75 28.800781 26.699219 28.101562 27.101562 C 25.851562 28.449219 24.5 30.851562 24.5 33.5 C 24.5 37.648438 21.148438 41 17 41 Z M 40.550781 32.449219 C 39.898438 32.449219 39.300781 32.050781 39.101562 31.398438 C 38.199219 28.601562 35.851562 26.5 33 26.101562 C 32.199219 26 31.601562 25.199219 31.75 24.398438 C 31.851562 23.601562 32.648438 23 33.449219 23.148438 C 37.398438 23.699219 40.75 26.601562 41.949219 30.550781 C 42.199219 31.351562 41.75 32.199219 40.949219 32.449219 C 40.851562 32.398438 40.699219 32.449219 40.550781 32.449219 Z M 50 49 L 47 49 C 42.851562 49 39.5 45.648438 39.5 41.5 L 39.5 37.101562 C 39.5 36.25 40.148438 35.601562 41 35.601562 C 41.851562 35.601562 42.5 36.25 42.5 37.101562 L 42.5 41.5 C 42.5 44 44.5 46 47 46 L 50 46 C 50.851562 46 51.5 46.648438 51.5 47.5 C 51.5 48.351562 50.851562 49 50 49 Z M 50 49 "/>
<path style=" stroke:none;fill-rule:nonzero;fill:rgb(26.666667%,29.411765%,32.941176%);fill-opacity:1;" d="M 17.199219 53 L 16 53 C 15.148438 53 14.5 52.351562 14.5 51.5 C 14.5 50.648438 15.148438 50 16 50 L 17.199219 50 C 26.199219 50 33.5 42.699219 33.5 33.699219 C 33.5 32.800781 32.851562 32 32.050781 32 L 32 32 C 31.5 32 31.148438 32.25 30.949219 32.398438 C 30.851562 32.5 30.648438 32.75 30.550781 33.050781 C 30.5 33.199219 30.5 33.351562 30.5 33.5 C 30.5 34.351562 29.851562 35 29 35 C 28.148438 35 27.5 34.351562 27.5 33.5 C 27.5 33.050781 27.550781 32.648438 27.699219 32.25 C 28 31.300781 28.5 30.648438 28.898438 30.300781 C 29.398438 29.800781 30.5 29 32.199219 29.050781 C 34.601562 29.148438 36.5 31.25 36.5 33.75 C 36.5 44.351562 27.851562 53 17.199219 53 Z M 17.199219 53 "/>
<path style=" stroke:none;fill-rule:nonzero;fill:rgb(26.666667%,29.411765%,32.941176%);fill-opacity:1;" d="M 17 47 L 13 47 C 12.148438 47 11.5 46.351562 11.5 45.5 C 11.5 44.648438 12.148438 44 13 44 L 17 44 C 21.050781 44 24.648438 41.75 26.449219 38.101562 C 26.800781 37.351562 27.699219 37.050781 28.449219 37.398438 C 29.199219 37.75 29.5 38.648438 29.148438 39.398438 C 26.851562 44.101562 22.199219 47 17 47 Z M 21.148438 58.648438 C 20.449219 58.648438 19.800781 58.148438 19.648438 57.398438 C 19.5 56.601562 20.050781 55.800781 20.851562 55.648438 C 25.550781 54.851562 29.898438 52.550781 33.101562 49.25 C 33.949219 48.351562 35.148438 47.851562 36.398438 47.851562 C 37.601562 47.851562 38.699219 48.300781 39.550781 49.148438 C 41.398438 51.050781 43.898438 52 46.949219 52 C 47.800781 52 48.449219 52.648438 48.449219 53.5 C 48.449219 54.351562 47.800781 55 46.949219 55 C 42.101562 55 39.101562 53 37.398438 51.300781 C 37.050781 50.949219 36.648438 50.898438 36.398438 50.898438 C 36 50.898438 35.550781 51.101562 35.25 51.398438 C 31.601562 55.148438 26.648438 57.75 21.351562 58.648438 C 21.351562 58.648438 21.25 58.648438 21.148438 58.648438 Z M 21.148438 58.648438 "/>
<path style=" stroke:none;fill-rule:nonzero;fill:rgb(26.666667%,29.411765%,32.941176%);fill-opacity:1;" d="M 11 35 C 10.148438 35 9.5 34.351562 9.5 33.5 C 9.5 31.398438 9.800781 29.351562 10.351562 27.351562 C 11.351562 23.898438 13.148438 20.648438 15.648438 18.050781 C 16.199219 17.449219 17.148438 17.398438 17.75 18 C 18.351562 18.550781 18.398438 19.5 17.800781 20.101562 C 15.648438 22.398438 14.050781 25.148438 13.199219 28.199219 C 12.699219 29.949219 12.449219 31.699219 12.449219 33.550781 C 12.5 34.351562 11.851562 35 11 35 Z M 11 35 "/>
<path style=" stroke:none;fill-rule:nonzero;fill:rgb(26.666667%,29.411765%,32.941176%);fill-opacity:1;" d="M 53 36.5 C 52.148438 36.5 51.5 35.851562 51.5 35 L 51.5 33.5 C 51.5 27 48.300781 20.949219 42.898438 17.351562 C 42.199219 16.898438 42.050781 15.949219 42.5 15.25 C 42.949219 14.550781 43.898438 14.398438 44.601562 14.851562 C 50.800781 19.050781 54.5 26 54.5 33.5 L 54.5 35 C 54.5 35.851562 53.851562 36.5 53 36.5 Z M 53 36.5 "/>
<path style=" stroke:none;fill-rule:nonzero;fill:rgb(26.666667%,29.411765%,32.941176%);fill-opacity:1;" d="M 53 42.5 C 52.601562 42.5 52.199219 42.351562 51.949219 42.050781 C 51.898438 42 51.800781 41.898438 51.75 41.851562 C 51.699219 41.75 51.648438 41.699219 51.601562 41.601562 C 51.550781 41.5 51.550781 41.398438 51.5 41.300781 C 51.5 41.199219 51.449219 41.101562 51.449219 41 C 51.449219 40.898438 51.449219 40.800781 51.5 40.699219 C 51.5 40.601562 51.550781 40.5 51.601562 40.398438 C 51.648438 40.300781 51.699219 40.25 51.75 40.148438 C 51.800781 40.050781 51.851562 40 51.949219 39.949219 C 52.300781 39.601562 52.800781 39.449219 53.300781 39.550781 C 53.398438 39.550781 53.5 39.601562 53.601562 39.648438 C 53.699219 39.699219 53.800781 39.75 53.851562 39.800781 C 53.949219 39.851562 54 39.898438 54.050781 40 C 54.351562 40.300781 54.5 40.648438 54.5 41.050781 C 54.5 41.449219 54.351562 41.851562 54.050781 42.101562 C 54 42.148438 53.898438 42.25 53.851562 42.300781 C 53.75 42.351562 53.699219 42.398438 53.601562 42.449219 C 53.5 42.5 53.398438 42.5 53.300781 42.550781 C 53.199219 42.5 53.101562 42.5 53 42.5 Z M 53 42.5 "/>
<path style=" stroke:none;fill-rule:nonzero;fill:rgb(10.588235%,42.352941%,65.882353%);fill-opacity:1;" d="M 2 13.5 C 1.148438 13.5 0.5 12.851562 0.5 12 L 0.5 2 C 0.5 1.148438 1.148438 0.5 2 0.5 L 12 0.5 C 12.851562 0.5 13.5 1.148438 13.5 2 C 13.5 2.851562 12.851562 3.5 12 3.5 L 3.5 3.5 L 3.5 12 C 3.5 12.851562 2.851562 13.5 2 13.5 Z M 2 13.5 "/>
<path style=" stroke:none;fill-rule:nonzero;fill:rgb(10.588235%,42.352941%,65.882353%);fill-opacity:1;" d="M 62 13.5 C 61.148438 13.5 60.5 12.851562 60.5 12 L 60.5 3.5 L 52 3.5 C 51.148438 3.5 50.5 2.851562 50.5 2 C 50.5 1.148438 51.148438 0.5 52 0.5 L 62 0.5 C 62.851562 0.5 63.5 1.148438 63.5 2 L 63.5 12 C 63.5 12.851562 62.851562 13.5 62 13.5 Z M 62 13.5 "/>
<path style=" stroke:none;fill-rule:nonzero;fill:rgb(10.588235%,42.352941%,65.882353%);fill-opacity:1;" d="M 12 63.5 L 2 63.5 C 1.148438 63.5 0.5 62.851562 0.5 62 L 0.5 52 C 0.5 51.148438 1.148438 50.5 2 50.5 C 2.851562 50.5 3.5 51.148438 3.5 52 L 3.5 60.5 L 12 60.5 C 12.851562 60.5 13.5 61.148438 13.5 62 C 13.5 62.851562 12.851562 63.5 12 63.5 Z M 12 63.5 "/>
<path style=" stroke:none;fill-rule:nonzero;fill:rgb(10.588235%,42.352941%,65.882353%);fill-opacity:1;" d="M 62 63.5 L 52 63.5 C 51.148438 63.5 50.5 62.851562 50.5 62 C 50.5 61.148438 51.148438 60.5 52 60.5 L 60.5 60.5 L 60.5 52 C 60.5 51.148438 61.148438 50.5 62 50.5 C 62.851562 50.5 63.5 51.148438 63.5 52 L 63.5 62 C 63.5 62.851562 62.851562 63.5 62 63.5 Z M 62 63.5 "/>
</g>
</svg>
