<?xml version="1.0" encoding="UTF-8"?>
<svg xmlns="http://www.w3.org/2000/svg" xmlns:xlink="http://www.w3.org/1999/xlink" width="64pt" height="64pt" viewBox="0 0 64 64" version="1.1">
<g id="surface5288398">
<path style=" stroke:none;fill-rule:nonzero;fill:rgb(100%,100%,100%);fill-opacity:1;" d="M 7 12 C 4.25 12 2 14.25 2 17 L 2 57 C 2 59.75 4.25 62 7 62 L 54.5 62 C 57.25 62 59.5 59.75 59.5 57 L 59.5 12 Z M 7 12 "/>
<path style=" stroke:none;fill-rule:nonzero;fill:rgb(26.666667%,29.411765%,32.941176%);fill-opacity:1;" d="M 2 28.5 C 1.148438 28.5 0.5 27.851562 0.5 27 L 0.5 17 C 0.5 13.398438 3.398438 10.5 7 10.5 L 59.5 10.5 C 60.351562 10.5 61 11.148438 61 12 C 61 12.851562 60.351562 13.5 59.5 13.5 L 7 13.5 C 5.050781 13.5 3.5 15.050781 3.5 17 L 3.5 27 C 3.5 27.851562 2.851562 28.5 2 28.5 Z M 2 28.5 "/>
<path style=" stroke:none;fill-rule:nonzero;fill:rgb(100%,100%,100%);fill-opacity:1;" d="M 11 18.5 L 11 7 C 11 4.25 13.25 2 16 2 L 46 2 C 48.75 2 51 4.25 51 7 L 51 18.5 Z M 11 18.5 "/>
<path style=" stroke:none;fill-rule:nonzero;fill:rgb(10.588235%,42.352941%,65.882353%);fill-opacity:1;" d="M 18.5 2.199219 L 26 2.199219 L 26 18.199219 L 18.5 18.199219 Z M 18.5 2.199219 "/>
<path style=" stroke:none;fill-rule:nonzero;fill:rgb(79.215686%,85.882353%,91.764706%);fill-opacity:1;" d="M 59.5 52 L 59.5 32 L 57 32 C 51.5 32 47.25 36.5 47.25 42 C 47.25 47.5 51.5 52 57 52 Z M 59.5 52 "/>
<path style=" stroke:none;fill-rule:nonzero;fill:rgb(26.666667%,29.411765%,32.941176%);fill-opacity:1;" d="M 54.5 63.5 L 7 63.5 C 3.398438 63.5 0.5 60.601562 0.5 57 L 0.5 22 C 0.5 21.148438 1.148438 20.5 2 20.5 C 2.851562 20.5 3.5 21.148438 3.5 22 L 3.5 57 C 3.5 58.949219 5.050781 60.5 7 60.5 L 54.5 60.5 C 56.449219 60.5 58 58.949219 58 57 L 58 27 C 58 25.050781 56.449219 23.5 54.5 23.5 C 53.648438 23.5 53 22.851562 53 22 C 53 21.148438 53.648438 20.5 54.5 20.5 C 58.101562 20.5 61 23.398438 61 27 L 61 57 C 61 60.601562 58.101562 63.5 54.5 63.5 Z M 54.5 63.5 "/>
<path style=" stroke:none;fill-rule:nonzero;fill:rgb(26.666667%,29.411765%,32.941176%);fill-opacity:1;" d="M 54.5 23.5 L 9.5 23.5 C 8.648438 23.5 8 22.851562 8 22 C 8 21.148438 8.648438 20.5 9.5 20.5 L 54.5 20.5 C 55.351562 20.5 56 21.148438 56 22 C 56 22.851562 55.351562 23.5 54.5 23.5 Z M 54.5 23.5 "/>
<path style=" stroke:none;fill-rule:nonzero;fill:rgb(100%,100%,100%);fill-opacity:1;" d="M 62 47 L 57 47 C 54.25 47 52 44.75 52 42 C 52 39.25 54.25 37 57 37 L 62 37 Z M 62 47 "/>
<path style=" stroke:none;fill-rule:nonzero;fill:rgb(26.666667%,29.411765%,32.941176%);fill-opacity:1;" d="M 62 48.5 L 57 48.5 C 53.398438 48.5 50.5 45.601562 50.5 42 C 50.5 38.398438 53.398438 35.5 57 35.5 L 62 35.5 C 62.851562 35.5 63.5 36.148438 63.5 37 L 63.5 47 C 63.5 47.851562 62.851562 48.5 62 48.5 Z M 57 38.5 C 55.050781 38.5 53.5 40.050781 53.5 42 C 53.5 43.949219 55.050781 45.5 57 45.5 L 60.5 45.5 L 60.5 38.5 Z M 57 38.5 "/>
<path style=" stroke:none;fill-rule:nonzero;fill:rgb(26.666667%,29.411765%,32.941176%);fill-opacity:1;" d="M 51 18.5 C 50.148438 18.5 49.5 17.851562 49.5 17 L 49.5 7 C 49.5 5.050781 47.949219 3.5 46 3.5 L 16 3.5 C 14.050781 3.5 12.5 5.050781 12.5 7 L 12.5 17 C 12.5 17.851562 11.851562 18.5 11 18.5 C 10.148438 18.5 9.5 17.851562 9.5 17 L 9.5 7 C 9.5 3.398438 12.398438 0.5 16 0.5 L 46 0.5 C 49.601562 0.5 52.5 3.398438 52.5 7 L 52.5 17 C 52.5 17.851562 51.851562 18.5 51 18.5 Z M 51 18.5 "/>
</g>
</svg>
