<svg xmlns="http://www.w3.org/2000/svg" x="132" y="295.6439" viewBox="20 51.5 160 97" preserveAspectRatio="none">
  <g transform="matrix(1 0 0 1 0 0)">
    <g>
      <path d="M110.041 101.202c-17.571 0-21.403 27.358-41.693 35.033 8.56 7.625 19.835 12.265 32.198 12.265 19.813 0 36.838-11.907 44.35-28.956-.05 0-.097.009-.148.009-16.698 0-16.698-18.351-34.707-18.351z" data-color="1" class="logo-exchange-icon-orange"></path>
      <path d="M110.041 98.798c18.008 0 18.008-18.351 34.707-18.351.05 0 .097.008.148.009-7.512-17.048-24.537-28.956-44.35-28.956-12.362 0-23.637 4.64-32.198 12.265 20.29 7.675 24.123 35.033 41.693 35.033z" data-color="1" class="logo-exchange-icon-orange"></path>
      <path d="M162.416 99.891c-.139-9.066-6.913-19.338-17.52-19.435 2.635 5.98 4.108 12.588 4.108 19.544s-1.473 13.564-4.108 19.544c10.609-.096 17.382-10.306 17.52-19.369h.013c0-.047-.007-.096-.007-.142 0-.047.007-.096.007-.142h-.013z" data-color="2" class="logo-exchange-icon-blue"></path>
      <path d="M52.087 100c0-14.414 6.288-27.351 16.261-36.235-3.307-1.251-7.036-1.998-11.35-1.998-20.34 0-36.839 17.79-36.992 38.122H20l.004.142-.004.142h.007c.153 20.332 16.653 38.057 36.992 38.057 4.313 0 8.043-.747 11.35-1.998-9.974-8.881-16.262-21.818-16.262-36.232z" data-color="2" class="logo-exchange-icon-blue"></path>
      <path d="M144.896 80.456c-.05 0-.097-.009-.148-.009-16.699 0-16.699 18.351-34.707 18.351-17.571 0-21.403-27.358-41.693-35.033C58.375 72.649 52.087 85.586 52.087 100s6.288 27.351 16.261 36.235c20.291-7.675 24.123-35.033 41.693-35.033 18.008 0 18.008 18.351 34.707 18.351.05 0 .097-.008.148-.009 2.635-5.98 4.108-12.588 4.108-19.544s-1.474-13.564-4.108-19.544z" data-color="3" class="logo-exchange-icon-pink"></path>
      <path d="M180 100a5.897 5.897 0 0 1-5.894 5.899c-3.255 0-5.894-2.641-5.894-5.899s2.639-5.899 5.894-5.899A5.897 5.897 0 0 1 180 100z" data-color="2" class="logo-exchange-icon-blue"></path>
    </g>
  </g>
</svg>